<svg xmlns="http://www.w3.org/2000/svg" width="317.001" height="165.869" viewBox="0 0 317.001 165.869">
  <g id="Grupo_54775" data-name="Grupo 54775" transform="translate(-509.29 -810.442)">
    <path id="Trazado_101356" data-name="Trazado 101356" d="M683.3,963.5a3.212,3.212,0,0,1,1.857-3.541c8.739-4.034,19.567-8.389,29.4-7.171a31.372,31.372,0,0,0,7.2-19.792c0-18.887-17.583-34.341-39.074-34.341-4.311,0-7.84-3.1-7.84-6.891s3.529-6.891,7.84-6.891h20.445c10.484,0,19.063-7.54,19.063-16.753s-8.558-16.736-19.025-16.753h-18.6c-9.065,0-16.484-6.521-16.484-14.489h0c0-14.54-13.534-26.436-30.077-26.436h-69.5c-21.49,0-39.072,15.453-39.072,34.341s17.582,34.341,39.072,34.341c4.313,0,7.842,3.1,7.842,6.891h0c0,3.792-3.529,6.893-7.842,6.893H548.067c-10.482,0-19.061,7.538-19.061,16.753s8.579,16.753,19.061,16.753c9.067,0,16.485,6.52,16.485,14.489,0,14.54,13.535,26.436,30.079,26.436H681.07A5.965,5.965,0,0,1,683.3,963.5Z" transform="translate(10.947 0)" fill="#e6f3f9" fill-rule="evenodd"/>
    <g id="Grupo_54774" data-name="Grupo 54774" transform="translate(509.29 830.455)">
      <g id="Grupo_54767" data-name="Grupo 54767" transform="translate(86.31 4.16)">
        <path id="Trazado_101357" data-name="Trazado 101357" d="M569.5,856.841a22.956,22.956,0,0,0,10.034,4.992c5.359,1.378,10.87,1.72,16.35,2.058l41.556,2.566c6.294.387,12.832.731,18.661-2.058s10.719-9.675,9.778-16.919c-1-7.7-7.727-12.425-14.011-15.119-12.629-5.414-26.309-7.052-39.746-6.137-12.994.885-25.312,4.742-37.971,7.835C564.515,836.414,561.226,849.248,569.5,856.841Z" transform="translate(-564.786 -825.985)" fill="#e09b38"/>
        <path id="Trazado_101358" data-name="Trazado 101358" d="M665.549,839.741a18.076,18.076,0,0,1-9.45,11.548c-5.829,2.787-12.366,2.445-18.66,2.056q-20.779-1.283-41.556-2.565c-5.481-.339-10.991-.681-16.35-2.059a22.94,22.94,0,0,1-10.034-4.992,14.354,14.354,0,0,1-4.24-6.874,13.866,13.866,0,0,0,4.24,13.951,22.939,22.939,0,0,0,10.034,4.992c5.359,1.378,10.87,1.72,16.35,2.058l41.556,2.566c6.294.387,12.831.731,18.66-2.056s10.719-9.677,9.778-16.921A14.566,14.566,0,0,0,665.549,839.741Z" transform="translate(-564.785 -819.95)" fill="#b97b10"/>
        <path id="Trazado_101359" data-name="Trazado 101359" d="M592.866,834.892c15.727-2.868,31.812,1.516,46.976,6.577a9.079,9.079,0,0,0,4.38.7c1.473-.258,2.88-1.544,2.715-3.031a3.581,3.581,0,0,0-1.179-2.059c-2.213-2.184-5.386-3.02-8.4-3.771-12.139-3.027-24.682-6.086-37.289-5.12-4.195.322-10.709.656-14.5,2.653C577.645,835.017,589.756,835.46,592.866,834.892Z" transform="translate(-554.715 -824.863)" fill="#f9b645"/>
      </g>
      <g id="Grupo_54768" data-name="Grupo 54768" transform="translate(147.582 89.877)">
        <path id="Trazado_101360" data-name="Trazado 101360" d="M614.239,908.522c16.383,11.979,33.484,24.279,53.183,28.03,5.431,1.034,12.044.905,15.084-3.725,1.771-2.7,1.784-6.244,1.222-9.481-2.053-11.839-10.716-21.565-20.409-28.509-13.17-9.433-29.253-14.8-45.251-13.56C599.595,882.711,600.845,898.729,614.239,908.522Z" transform="translate(-604.184 -881.1)" fill="#f9b645"/>
        <path id="Trazado_101361" data-name="Trazado 101361" d="M683.683,918.856a35.694,35.694,0,0,0-5.414-13.356,32.15,32.15,0,0,1,.824,3.524c.56,3.237.547,6.784-1.222,9.481-3.04,4.63-9.653,4.761-15.086,3.726-19.7-3.751-36.8-16.053-53.182-28.032a30.375,30.375,0,0,1-5.4-5.013c.519,4.966,4.065,10.513,9.988,14.845,16.383,11.979,33.484,24.279,53.183,28.03,5.431,1.034,12.044.905,15.084-3.725C684.232,925.64,684.244,922.093,683.683,918.856Z" transform="translate(-604.172 -876.61)" fill="#e09b38"/>
        <path id="Trazado_101362" data-name="Trazado 101362" d="M613.326,888.747c15.574,4.345,29.55,13.024,42.97,22.044,4.96,3.334,9.968,6.813,13.59,11.568,2.12,2.784,3.936,6.137,7.174,7.464.422-4.482-1.383-8.971-4.168-12.507a39.2,39.2,0,0,0-10.311-8.621,185.976,185.976,0,0,0-20.437-10.588q-10.307-4.785-20.671-9.439c-2.289-1.028-7.353-4.549-9.835-4.247C607.772,884.889,611.277,888.175,613.326,888.747Z" transform="translate(-601.009 -879.266)" fill="#e09b38"/>
      </g>
      <g id="Grupo_54771" data-name="Grupo 54771">
        <path id="Trazado_101363" data-name="Trazado 101363" d="M526.107,857.737c-4.95,2.913-9.859,6.2-13.193,10.879s-4.834,11.033-2.476,16.269c2.336,5.187,8,8.272,13.643,8.955s11.332-.664,16.8-2.238c12.271-3.535,24.417-8.408,34.222-16.591,4.185-3.491,8.027-7.795,9.336-13.086,1.521-6.154-.692-12.783-4.555-17.808-2.792-3.63-6.1-6.034-10.5-4.633-4.7,1.495-9.549,3.286-14.274,4.91A159.478,159.478,0,0,0,526.107,857.737Z" transform="translate(-509.29 -814.554)" fill="#e09b38"/>
        <path id="Trazado_101364" data-name="Trazado 101364" d="M579.809,843.261a15.776,15.776,0,0,0-3.9-3.775,19.7,19.7,0,0,1,1.662,13.081c-1.308,5.292-5.151,9.594-9.336,13.087-9.8,8.182-21.951,13.056-34.221,16.59-5.465,1.575-11.15,2.921-16.8,2.238a20.057,20.057,0,0,1-7.562-2.488,12.782,12.782,0,0,0,.712,2.034c2.336,5.187,8,8.272,13.643,8.955s11.33-.664,16.8-2.238c12.271-3.535,24.417-8.408,34.222-16.591,4.185-3.492,8.027-7.795,9.336-13.086C585.885,854.914,583.672,848.286,579.809,843.261Z" transform="translate(-509.088 -814.329)" fill="#b97b10"/>
        <path id="Trazado_101365" data-name="Trazado 101365" d="M542.814,868.861c-.151,1.084-.26,2.384.588,3.078a2.982,2.982,0,0,0,.919.453c3.812,1.328,8.636,1.566,11.3-1.467,1.848-2.1,2.076-5.16,1.877-7.95a21.313,21.313,0,0,0-2.42-8.977c-1.583-2.81-10.6-14.514-13.751-7.742-1.143,2.457,1.348,7.913,1.647,10.624A48.5,48.5,0,0,1,542.814,868.861Z" transform="translate(-491.669 -811.724)" fill="#b97b10"/>
        <g id="Grupo_54769" data-name="Grupo 54769" transform="translate(44.81)">
          <path id="Trazado_101366" data-name="Trazado 101366" d="M538.37,842.82c-.261,5.207,2.047,10.159,4.339,14.842,7.72,15.775,16.06,31.618,28.5,44.017,4.28,4.268,9.139,8.156,14.851,10.131s12.417,1.795,17.408-1.616c4.756-3.252,7.358-9,7.978-14.727s-.512-11.5-1.911-17.084c-3.572-14.249-9.982-27.817-19.895-38.659C569.54,817.743,539.614,818,538.37,842.82Z" transform="translate(-537.966 -823.094)" fill="#f9b645"/>
          <path id="Trazado_101367" data-name="Trazado 101367" d="M607.473,897.866c-4.991,3.412-11.7,3.593-17.408,1.617s-10.571-5.863-14.853-10.131c-12.439-12.4-20.778-28.242-28.5-44.017-2.291-4.683-4.6-9.635-4.338-14.842.045-.908.134-1.781.254-2.624-2.6,3.1-4.235,7.342-4.505,12.755-.261,5.207,2.047,10.159,4.339,14.842,7.72,15.775,16.059,31.617,28.5,44.017,4.28,4.268,9.139,8.156,14.851,10.131s12.417,1.795,17.408-1.618c4.414-3.017,6.969-8.184,7.81-13.49A16.152,16.152,0,0,1,607.473,897.866Z" transform="translate(-538.103 -820.778)" fill="#e09b38"/>
          <path id="Trazado_101368" data-name="Trazado 101368" d="M538.363,841.85c2.632-.117,5.291-.372,7.932-.468,4.1-.149,5.387-2.1,8.764-3.916,2.505-1.347,5.7-1.039,8.083-2.6,2.566-1.681,3.418-4.985,4.07-7.983.145-.672.291-1.355.414-2.039C552.894,820.314,539.478,825.761,538.363,841.85Z" transform="translate(-537.958 -823.31)" fill="#eaca7b"/>
          <path id="Trazado_101369" data-name="Trazado 101369" d="M561.349,854.181c5.333,7.686,10.675,15.386,15.265,23.539,4.538,8.064,8.4,16.646,14.5,23.6,1.477,1.683,3.285,3.358,5.518,3.513a2.419,2.419,0,0,0,1.566-.339c1.239-.87.7-2.795,0-4.142-11.7-22.806-30.043-41.449-44.124-62.868-1.107-1.684-4.461-8.034-6.733-8.261-4-.4-.176,4.53.744,5.852Q554.724,844.623,561.349,854.181Z" transform="translate(-533.964 -820.041)" fill="#e09b38"/>
        </g>
        <g id="Grupo_54770" data-name="Grupo 54770" transform="translate(23.688 63.392)">
          <path id="Trazado_101370" data-name="Trazado 101370" d="M534.8,866.2c-3.753,1.067-7.731,2.918-9.44,6.73a12.151,12.151,0,0,0,.2,9.307,26.669,26.669,0,0,0,5.205,7.672A87.353,87.353,0,0,0,592.73,918.67c4.557.138,9.7-.362,12.636-4.18,2.9-3.767,2.5-9.535.5-13.947-2.143-4.714-5.787-8.389-9.541-11.678A109.279,109.279,0,0,0,567.05,870.45c-4.378-1.854-9.125-4.328-13.608-5.647C547.785,863.137,540.34,864.62,534.8,866.2Z" transform="translate(-524.522 -864.07)" fill="#f9b645"/>
          <path id="Trazado_101371" data-name="Trazado 101371" d="M607.067,905.417c-2.939,3.818-8.08,4.319-12.636,4.18a87.356,87.356,0,0,1-61.969-28.766,26.663,26.663,0,0,1-5.205-7.672,14.144,14.144,0,0,1-1.008-4.386,9.064,9.064,0,0,0-.888,1.54,12.151,12.151,0,0,0,.2,9.307,26.67,26.67,0,0,0,5.205,7.672,87.353,87.353,0,0,0,61.969,28.766c4.557.138,9.7-.362,12.636-4.18a11.109,11.109,0,0,0,2.084-7C607.33,905.058,607.2,905.241,607.067,905.417Z" transform="translate(-524.522 -861.458)" fill="#e09b38"/>
          <path id="Trazado_101372" data-name="Trazado 101372" d="M588.713,899.124c-4.4-5.3-10.086-9.35-15.706-13.332-10.276-7.28-20.637-14.607-32.138-19.733a33.437,33.437,0,0,0-3.63-1.422c-1.781.362-3.495.8-5.056,1.243a25.923,25.923,0,0,0-2.946,1.022c.042.008.079.017.123.027a63.306,63.306,0,0,1,10.148,2.622c6.779,2.493,13.062,6.143,19.243,9.84,7.122,4.26,14.227,8.63,20.52,14.041,3.82,3.285,7.383,6.983,11.842,9.33A16.092,16.092,0,0,0,588.713,899.124Z" transform="translate(-521.904 -863.755)" fill="#e09b38"/>
        </g>
      </g>
      <g id="Grupo_54772" data-name="Grupo 54772" transform="translate(178.343 13.679)">
        <path id="Trazado_101373" data-name="Trazado 101373" d="M625.83,873.235c2-4.658,5.381-8.593,9.014-12.131,13.893-13.532,31.973-22.184,50.687-27.273,6.243-1.7,13.262-2.936,18.892.247,6.232,3.523,8.686,11.708,7.269,18.724s-5.952,13-10.961,18.111c-13.552,13.829-31.8,23.2-51.067,25.166C635.054,897.569,618.293,890.778,625.83,873.235Z" transform="translate(-623.962 -832.105)" fill="#f9b645"/>
        <path id="Trazado_101374" data-name="Trazado 101374" d="M640.352,864.252a282.331,282.331,0,0,1,41.183-24.9c4.547-2.244,9.322-4.406,14.391-4.527l-9.635,5.252c-10.807,5.893-21.632,11.8-31.889,18.629a167.387,167.387,0,0,0-15.031,11.17c-2,1.681-12.167,18.217-13.755,15.472C623.3,881.33,637.754,866.143,640.352,864.252Z" transform="translate(-623.184 -830.598)" fill="#e09b38"/>
        <path id="Trazado_101375" data-name="Trazado 101375" d="M682.506,834.078c-5.63-3.183-12.651-1.946-18.892-.247l-.112.031c-.61,2.6,2.7,2.663,4.955,2.765a4.289,4.289,0,0,1,3.381,2.476,14.988,14.988,0,0,1,1.17,4.213,3.109,3.109,0,0,0,.619,1.568,2.776,2.776,0,0,0,1.3.692c3.387.994,7.33.3,10.234,2.313,1.03.712,1.841,1.72,2.921,2.355a4.958,4.958,0,0,0,1.981.644C690.719,844.354,688.178,837.285,682.506,834.078Z" transform="translate(-602.049 -832.105)" fill="#eaca7b"/>
        <path id="Trazado_101376" data-name="Trazado 101376" d="M707.5,835.014a20.254,20.254,0,0,1,.317,9.247c-1.417,7.016-5.952,13-10.961,18.111-13.552,13.829-31.8,23.2-51.067,25.165-8.1.826-16.856-.894-21.77-5.577,1.666,9.865,14.227,13.655,25.511,12.5,19.262-1.969,37.514-11.336,51.066-25.165,5.009-5.112,9.544-11.095,10.961-18.111C712.7,845.538,711.332,839.134,707.5,835.014Z" transform="translate(-623.928 -830.491)" fill="#e09b38"/>
      </g>
      <g id="Grupo_54773" data-name="Grupo 54773" transform="translate(215.921 47.147)">
        <path id="Trazado_101377" data-name="Trazado 101377" d="M665.785,861.958c-7.628,3.3-15.531,8.451-17.358,16.557a9.614,9.614,0,0,0-.082,4.406c.795,3.209,3.717,5.417,6.652,6.935,5.984,3.093,12.714,4.418,19.389,5.327a176.941,176.941,0,0,0,47.8-.023c7.6-1.04,15.5-2.75,21.322-7.739,3.457-2.961,6.073-7.325,5.655-11.859-.331-3.611-2.518-6.806-5.089-9.364-14.635-14.557-40.6-14.162-59.339-10.24A98.916,98.916,0,0,0,665.785,861.958Z" transform="translate(-648.125 -853.625)" fill="#f9b645"/>
        <path id="Trazado_101378" data-name="Trazado 101378" d="M668.625,864.541a10.136,10.136,0,0,0-7.2-3.972c-6.065,3.272-11.517,7.9-12.994,14.453a9.615,9.615,0,0,0-.082,4.406c.795,3.208,3.717,5.417,6.652,6.933a40.928,40.928,0,0,0,6.414,2.619,16.222,16.222,0,0,0,3.88-1.614,5.174,5.174,0,0,0,1.8-1.53c.773-1.177.652-2.74,1.253-4.013.7-1.478,2.286-2.4,2.935-3.9a6.945,6.945,0,0,0,.3-3.314C671.309,871.076,670.745,867.385,668.625,864.541Z" transform="translate(-648.125 -849.77)" fill="#eaca7b"/>
        <path id="Trazado_101379" data-name="Trazado 101379" d="M748.706,872.577c-.331-3.611-2.518-6.806-5.089-9.364A35.675,35.675,0,0,0,738.491,859c2.471,2.518,4.538,5.627,4.86,9.129.417,4.532-2.2,8.9-5.655,11.859-5.826,4.989-13.725,6.7-21.324,7.737a177,177,0,0,1-47.8.025c-6.675-.908-13.406-2.235-19.389-5.328-.082-.042-.163-.087-.246-.131a14.665,14.665,0,0,0,5.6,4.58c5.985,3.093,12.714,4.419,19.389,5.327a176.943,176.943,0,0,0,47.8-.023c7.6-1.04,15.5-2.75,21.322-7.739C746.509,881.475,749.125,877.111,748.706,872.577Z" transform="translate(-647.671 -850.641)" fill="#e09b38"/>
        <path id="Trazado_101380" data-name="Trazado 101380" d="M708.659,859.784c8.985-.306,18.408-.019,26.274,4.331,3.372,1.866,6.58,4.877,6.82,8.723.07,1.1-.5,2.54-1.6,2.411a2.328,2.328,0,0,1-1.336-.95c-3.524-3.992-8.517-6.462-13.669-7.8a77.085,77.085,0,0,0-15.831-1.882c-12.621-.593-25.422-.952-37.732,1.9-4.061.939-8.151,2.829-12.229,3.423-.575-4.32,18.772-6.865,22.153-7.456A159.541,159.541,0,0,1,708.659,859.784Z" transform="translate(-641.893 -850.254)" fill="#e09b38"/>
      </g>
    </g>
  </g>
</svg>
