<svg xmlns="http://www.w3.org/2000/svg" width="103" height="103" viewBox="0 0 103 103">
  <g id="Grupo_54753" data-name="Grupo 54753" transform="translate(-183 -10620)">
    <rect id="Rectángulo_5303" data-name="Rectángulo 5303" width="103" height="103" transform="translate(183 10620)" fill="none"/>
    <g id="Grupo_54737" data-name="Grupo 54737" transform="translate(196 10633)">
      <path id="Trazado_101225" data-name="Trazado 101225" d="M392.813,918.451a38.075,38.075,0,1,0-69.842-29.637l5.36,29.637Z" transform="translate(-321.103 -862.547)" fill="#82a9e2"/>
      <path id="Trazado_101226" data-name="Trazado 101226" d="M328.4,917.99l.8,4.442a38.072,38.072,0,0,0,62.611-4.442Z" transform="translate(-320.917 -860.645)" fill="#d3dcfb"/>
      <path id="Trazado_101227" data-name="Trazado 101227" d="M329.209,922.432a38.12,38.12,0,0,0,39.383,13.128,1.146,1.146,0,0,1,.613-1.615l.57-4.2c-6.383-5.208-1.859-10.544-1.859-10.544l-.632-1.212H328.4Z" transform="translate(-320.917 -860.645)" fill="#bec8f7"/>
      <path id="Trazado_101228" data-name="Trazado 101228" d="M358.267,929.059s.959,3.275,2.4,4.025c1.98,1.028,8.849.149,13.177,1a1.4,1.4,0,0,0,1.517-2.014,3.645,3.645,0,0,0-2.1-1.974c-2.532-.779-9.494-.227-12.594-3.862Z" transform="translate(-319.892 -860.362)" fill="#ff7186"/>
      <path id="Trazado_101229" data-name="Trazado 101229" d="M368.751,929.463c-2.879-.355-6.2-1.015-8.082-3.228l-2.4,2.824s.959,3.275,2.4,4.025c1.223.635,4.311.543,7.513.579-2.51-2.51.569-4.2.569-4.2Z" transform="translate(-319.892 -860.362)" fill="#ff4155"/>
      <path id="Trazado_101230" data-name="Trazado 101230" d="M389.22,909.581a6.394,6.394,0,0,1-1.42-1.217c-1.966-2.253-8.325-8.681-15.8-7.23-4.711.915-9.151-2.263-14.706-5.937A17.145,17.145,0,0,1,325.5,886.95q-1.216.309-2.371.72a38.126,38.126,0,0,0,6.527,36.079,6.038,6.038,0,0,1,1.209.131,24.259,24.259,0,0,0,15.558-2.3,1.136,1.136,0,0,1,1.648,1.034,6.417,6.417,0,0,0,1.014,3.7c2.964,4.6,8.357,4.709,10.841,5a1.108,1.108,0,0,0,1.224-.945l.011-.081a1.1,1.1,0,0,1,.617-.842l.422-.2a1.109,1.109,0,0,0,.337-1.75,7.714,7.714,0,0,1-1.7-2.769c-1.305-2.84,6.591-4.413,9.989-4.952a3.327,3.327,0,0,1,2.472.612c3.823,2.766,9.332,1.7,11.688,2.3a3.376,3.376,0,0,0,3.532-1.194.826.826,0,0,1,.841-.267,7.325,7.325,0,0,0,1.835.219c1.485,0,2.491-2.75,2.491-2.75l.39-3.928a13.385,13.385,0,0,0-4.854-5.185Z" transform="translate(-321.165 -861.71)" fill="#6393db"/>
      <path id="Trazado_101231" data-name="Trazado 101231" d="M361.491,926.081c-.906,2.57-3.871,1.5-3.871,1.5-7.017-3.088-4.876-13.568-4.876-13.568l-.829-2.5a8.323,8.323,0,0,1,0-9.11l-.68-1.266A17.141,17.141,0,0,1,325.5,886.95c-.811.206-1.6.448-2.371.72a38.126,38.126,0,0,0,6.527,36.079,6.038,6.038,0,0,1,1.209.131,24.259,24.259,0,0,0,15.558-2.3,1.136,1.136,0,0,1,1.648,1.034,6.417,6.417,0,0,0,1.014,3.7c2.964,4.6,8.357,4.709,10.841,5a1.108,1.108,0,0,0,1.224-.945l.011-.081a1.1,1.1,0,0,1,.617-.842l.422-.2a1.109,1.109,0,0,0,.337-1.75A5.751,5.751,0,0,1,361.491,926.081Z" transform="translate(-321.165 -861.71)" fill="#4a6ea4"/>
      <g id="Grupo_54731" data-name="Grupo 54731" transform="translate(53.654 59.307)">
        <path id="Trazado_101232" data-name="Trazado 101232" d="M374.475,925.161a1.436,1.436,0,0,1-.314-2.837,18.933,18.933,0,0,0,5.587-2.232,1.436,1.436,0,0,1,1.479,2.463,21.77,21.77,0,0,1-6.434,2.571,1.464,1.464,0,0,1-.318.035Z" transform="translate(-373.04 -919.887)" fill="#4b6bb2"/>
      </g>
      <g id="Grupo_54732" data-name="Grupo 54732" transform="translate(58.966 62.007)">
        <path id="Trazado_101233" data-name="Trazado 101233" d="M379.614,930.031a1.436,1.436,0,0,1-.732-2.673,18.817,18.817,0,0,0,5.053-4.332,1.437,1.437,0,0,1,2.228,1.814,21.71,21.71,0,0,1-5.82,4.991A1.424,1.424,0,0,1,379.614,930.031Z" transform="translate(-378.176 -922.497)" fill="#4b6bb2"/>
      </g>
      <path id="Trazado_101234" data-name="Trazado 101234" d="M370.854,893.6c2.392,3.8,2.7,7.233.874,9.938a7.478,7.478,0,0,1-2.554,2.383c-.778-.658-1.776-1.531-3.11-2.866-3.3-3.3-1.96-10.043-1.224-12.812a1.534,1.534,0,0,1,1.673-1.139c.255.033.515.079.775.13a24.964,24.964,0,0,1,3.565,4.366Z" transform="translate(-319.698 -861.636)" fill="#ff7186"/>
      <ellipse id="Elipse_4004" data-name="Elipse 4004" cx="17.146" cy="17.146" rx="17.146" ry="17.146" transform="translate(4.321 7.447)" fill="#c8e270"/>
      <path id="Trazado_101235" data-name="Trazado 101235" d="M350.721,900.971a.815.815,0,0,0-.741-.807c-4.882-.433-4.425-4.575-4.255-5.521a.8.8,0,0,0-.032-.4l-5.208-15.119a.8.8,0,0,0-.335-.423c-3.222-1.947-2.427-5.044-1.875-6.394a.8.8,0,0,0-.3-.961,1.547,1.547,0,0,1-.652-.837,17.151,17.151,0,1,0,13.584,31.3A1.885,1.885,0,0,1,350.721,900.971Z" transform="translate(-321.022 -862.274)" fill="#badb4c"/>
      <g id="Grupo_54733" data-name="Grupo 54733" transform="translate(2.889 6.008)">
        <path id="Trazado_101236" data-name="Trazado 101236" d="M342.542,905.526a18.585,18.585,0,1,1,18.585-18.584A18.6,18.6,0,0,1,342.542,905.526Zm0-34.3a15.713,15.713,0,1,0,15.713,15.713A15.731,15.731,0,0,0,342.542,871.228Z" transform="translate(-323.958 -868.356)" fill="#fcf2c8"/>
      </g>
      <path id="Trazado_101237" data-name="Trazado 101237" d="M351.5,902.492a1.718,1.718,0,0,1-.735-1.47.8.8,0,0,0-.247-.575,15.708,15.708,0,1,1-12.193-28.663.8.8,0,0,0-.3-.385,1.736,1.736,0,0,1-.561-2.18.781.781,0,0,0,.042-.193,18.585,18.585,0,1,0,14.312,33.991.774.774,0,0,0-.315-.525Z" transform="translate(-321.069 -862.325)" fill="#c8e270"/>
      <ellipse id="Elipse_4005" data-name="Elipse 4005" cx="2.725" cy="2.725" rx="2.725" ry="2.725" transform="translate(59.04 47.391)" fill="#1c2e7a"/>
      <ellipse id="Elipse_4006" data-name="Elipse 4006" cx="1.192" cy="1.192" rx="1.192" ry="1.192" transform="translate(61.028 48.355)" fill="#3c58a0"/>
      <path id="Trazado_101238" data-name="Trazado 101238" d="M351.948,913.2a1.436,1.436,0,0,0-1.91-2.145,22.46,22.46,0,0,0-2.977,3.379,12.636,12.636,0,0,0-2.7,6.926c.467-.2.892-.4,1.267-.591a1.141,1.141,0,0,1,1.607.7,10.23,10.23,0,0,1,2.127-5.321A19.843,19.843,0,0,1,351.948,913.2Z" transform="translate(-320.369 -860.895)" fill="#324a6e"/>
      <path id="Trazado_101239" data-name="Trazado 101239" d="M333.352,904.576a1.436,1.436,0,0,0-.534,1.96c1.4,2.448,2.838,6.114,1.729,9.671-.761,2.439-2.643,4.58-5.6,6.387.146.186.294.37.443.554a6.066,6.066,0,0,1,1.211.133c.654.14,1.3.243,1.936.316a13.448,13.448,0,0,0,4.753-6.536c1.417-4.545-.294-9.009-1.978-11.953A1.437,1.437,0,0,0,333.352,904.576Z" transform="translate(-320.898 -861.112)" fill="#324a6e"/>
      <path id="Trazado_101240" data-name="Trazado 101240" d="M392.693,913.886a1.835,1.835,0,0,0-2.22-.023,2.661,2.661,0,0,0-1.234,2.118,2.747,2.747,0,0,0,1.158,2.205,2.278,2.278,0,0,0,1.565.459c1.814-.141,5.343-1.009.73-4.76Z" transform="translate(-318.83 -860.799)" fill="#ff7186"/>
      <path id="Trazado_101241" data-name="Trazado 101241" d="M394.462,917.713a2.28,2.28,0,0,1-1.566-.458,2.748,2.748,0,0,1-1.157-2.205,2.291,2.291,0,0,1,.506-1.423,1.867,1.867,0,0,0-1.772.237,2.659,2.659,0,0,0-1.234,2.118,2.747,2.747,0,0,0,1.158,2.205,2.278,2.278,0,0,0,1.565.459,4.373,4.373,0,0,0,2.714-.953C394.6,917.7,394.532,917.707,394.462,917.713Z" transform="translate(-318.83 -860.799)" fill="#ff4155"/>
      <g id="Grupo_54734" data-name="Grupo 54734" transform="translate(59.665 55.347)">
        <path id="Trazado_101242" data-name="Trazado 101242" d="M380.289,922.891a1.436,1.436,0,0,1-.741-2.667,15.506,15.506,0,0,0,4.231-3.578,1.436,1.436,0,1,1,2.317,1.7,18.348,18.348,0,0,1-5.069,4.343,1.433,1.433,0,0,1-.738.2Z" transform="translate(-378.851 -916.058)" fill="#6289cc"/>
      </g>
      <g id="Grupo_54735" data-name="Grupo 54735" transform="translate(64.402 57.345)">
        <path id="Trazado_101243" data-name="Trazado 101243" d="M384.867,925.525a1.436,1.436,0,0,1-1.113-2.343,15.424,15.424,0,0,0,2.514-4.209,1.436,1.436,0,1,1,2.725.906A17.9,17.9,0,0,1,385.982,925a1.436,1.436,0,0,1-1.115.53Z" transform="translate(-383.431 -917.99)" fill="#6289cc"/>
      </g>
      <path id="Trazado_101244" data-name="Trazado 101244" d="M367.284,889.233c-.26-.052-.518-.1-.775-.13a1.534,1.534,0,0,0-1.673,1.139,28.541,28.541,0,0,0-.748,3.858s8.9,2.72,5.082,11.82a7.478,7.478,0,0,0,2.554-2.383c1.821-2.7,1.519-6.141-.874-9.938a24.964,24.964,0,0,0-3.565-4.366Z" transform="translate(-319.693 -861.636)" fill="#ff4155"/>
      <path id="Trazado_101245" data-name="Trazado 101245" d="M371.392,903.371c3.856-5.727-3.257-12.864-4.716-14.232,4.953.767,10.676,4.93,9.967,9.566a13.657,13.657,0,0,0,.135,5.666,3.455,3.455,0,0,1-5.874,3.164,27.24,27.24,0,0,0-2.056-1.815,7.181,7.181,0,0,0,2.544-2.349Z" transform="translate(-319.604 -861.635)" fill="#6289cc"/>
      <path id="Trazado_101246" data-name="Trazado 101246" d="M376.7,867.572c.457,2.57.7,7.021-2.219,9.934-4.3,4.3-3.6,12.5,5.618,14.065,10.378,1.764,2.947,12.513,15.137,13.846A38.107,38.107,0,0,0,376.7,867.572Z" transform="translate(-319.423 -862.375)" fill="#a1bee9"/>
      <g id="Grupo_54736" data-name="Grupo 54736" transform="translate(8.032 20.46)">
        <path id="Shape" d="M349.394,882.328h4.481a1.494,1.494,0,0,1,1.494,1.494,7.468,7.468,0,0,1-7.468,7.468h-5.974V889.8A7.468,7.468,0,0,1,349.394,882.328Z" transform="translate(-328.485 -882.328)" fill="#95af3d"/>
        <path id="Shape-2" data-name="Shape" d="M342.372,891.289H336.4a7.467,7.467,0,0,1-7.467-7.468,1.494,1.494,0,0,1,1.494-1.494h4.48a7.467,7.467,0,0,1,7.468,7.468Z" transform="translate(-328.931 -882.328)" fill="#95af3d"/>
      </g>
    </g>
  </g>
</svg>
