<svg xmlns="http://www.w3.org/2000/svg" width="103" height="103" viewBox="0 0 103 103">
  <g id="Grupo_54752" data-name="Grupo 54752" transform="translate(-183 -10763)">
    <rect id="Rectángulo_5304" data-name="Rectángulo 5304" width="103" height="103" transform="translate(183 10763)" fill="none"/>
    <g id="Grupo_54750" data-name="Grupo 54750" transform="translate(196 10775)">
      <path id="Trazado_101247" data-name="Trazado 101247" d="M284.96,933.987l19.188-8.818a38.064,38.064,0,1,0-43.593,10Z" transform="translate(-237.397 -858.647)" fill="#f9b645"/>
      <path id="Trazado_101248" data-name="Trazado 101248" d="M280.068,888.607l-.137.4v4.519l.137.469a10.174,10.174,0,0,1,10.174,10.174v3.083a9.982,9.982,0,0,1,8.973.108h0a6.442,6.442,0,0,1,2.509,2.329,21.806,21.806,0,0,0-21.656-21.086Z" transform="translate(-235.938 -857.736)" fill="#d3dcfb"/>
      <path id="Trazado_101249" data-name="Trazado 101249" d="M295.781,906.315a15.335,15.335,0,0,0-8.729-13.36,3.07,3.07,0,0,1-1.7-2.749v-.939a21.409,21.409,0,0,0-5.285-.66l-.137.4v4.519l.137.469a10.174,10.174,0,0,1,10.174,10.174v3.083a10,10,0,0,1,5.539-.942Z" transform="translate(-235.938 -857.736)" fill="#bec8f7"/>
      <path id="Trazado_101250" data-name="Trazado 101250" d="M294.391,862.57l-6.54,6.324a.807.807,0,0,1,.485.237l3.506,3.626h0a.8.8,0,0,1,.223.534l6.555-6.339Z" transform="translate(-235.666 -858.63)" fill="#4b6bb2"/>
      <path id="Trazado_101251" data-name="Trazado 101251" d="M293.215,867.845a2.411,2.411,0,0,1,3.41.059l.488.506,1.508-1.458-4.23-4.381-6.54,6.325a.8.8,0,0,1,.485.237l1.715,1.773Z" transform="translate(-235.666 -858.63)" fill="#3c58a0"/>
      <path id="Trazado_101252" data-name="Trazado 101252" d="M302.171,863.593l-4.378-4.528a1,1,0,0,0-1.413-.024l-2.413,2.333a1,1,0,0,0-.024,1.411l4.375,4.531a1,1,0,0,0,1.413.025l2.416-2.337A1,1,0,0,0,302.171,863.593Z" transform="translate(-235.467 -858.76)" fill="#6289cc"/>
      <path id="Trazado_101253" data-name="Trazado 101253" d="M296.75,864.362l2.506-2.423a1.037,1.037,0,0,1,1.1-.217l-2.568-2.656a1,1,0,0,0-1.413-.024l-2.413,2.333a1,1,0,0,0-.024,1.411l2.538,2.629a1.033,1.033,0,0,1,.269-1.053Z" transform="translate(-235.467 -858.76)" fill="#4b6bb2"/>
      <path id="Trazado_101254" data-name="Trazado 101254" d="M292.125,872.39l-3.506-3.625a1.046,1.046,0,0,0-1.479-.025l-2.558,2.473,4.956,5.133,2.562-2.477A1.047,1.047,0,0,0,292.125,872.39Z" transform="translate(-235.778 -858.428)" fill="#6289cc"/>
      <path id="Trazado_101255" data-name="Trazado 101255" d="M287.354,872.283l1.494-1.445a1.411,1.411,0,0,1,1.483-.3l-1.712-1.77a1.044,1.044,0,0,0-1.478-.025l-2.559,2.473,2.4,2.484a1.412,1.412,0,0,1,.373-1.414Z" transform="translate(-235.778 -858.428)" fill="#4b6bb2"/>
      <path id="Trazado_101256" data-name="Trazado 101256" d="M289.874,875.889l-4.576-4.74a.979.979,0,0,0-1.25-.131l-11.922,8.056a13.883,13.883,0,0,1,.549,3.873,15.135,15.135,0,0,1-1.578,6.745h9.275v-1.875a2.848,2.848,0,0,1,.848-2.027l8.638-8.527a.975.975,0,0,0,.017-1.374Z" transform="translate(-236.241 -858.345)" fill="#7aa5e2"/>
      <path id="Trazado_101257" data-name="Trazado 101257" d="M285.3,871.149a.978.978,0,0,0-1.25-.13l-11.922,8.055a13.888,13.888,0,0,1,.549,3.873,15.131,15.131,0,0,1-1.578,6.745h4.059V886.7a4.34,4.34,0,0,1,1.366-3.161l10.87-10.226Z" transform="translate(-236.241 -858.345)" fill="#6289cc"/>
      <path id="Trazado_101258" data-name="Trazado 101258" d="M273.424,929.044v-2.411a1.909,1.909,0,0,0-1.9-1.9h-4.775a1.909,1.909,0,0,0-1.9,1.9v2.411Z" transform="translate(-236.455 -856.497)" fill="#e9efff"/>
      <path id="Trazado_101259" data-name="Trazado 101259" d="M268.956,926.887a2.246,2.246,0,0,1,1.625-2.157h-3.836a1.909,1.909,0,0,0-1.9,1.9v2.411h5.738a2.246,2.246,0,0,1-1.625-2.158Z" transform="translate(-236.455 -856.497)" fill="#d3dcfb"/>
      <path id="Trazado_101260" data-name="Trazado 101260" d="M282.939,914.2h-3.613a2.18,2.18,0,0,0-2.2,2.036,2.141,2.141,0,0,0,2.139,2.245h3a.247.247,0,0,1,.247.247v10.673H286.8V918.062A3.86,3.86,0,0,0,282.939,914.2Z" transform="translate(-236.034 -856.858)" fill="#e9efff"/>
      <g id="Grupo_54738" data-name="Grupo 54738" transform="translate(27.698 57.186)">
        <path id="Trazado_101261" data-name="Trazado 101261" d="M264.176,914.05a8,8,0,0,0,13.748,0Z" transform="translate(-264.176 -914.05)" fill="#6289cc"/>
      </g>
      <g id="Grupo_54739" data-name="Grupo 54739" transform="translate(27.697 57.186)">
        <path id="Trazado_101262" data-name="Trazado 101262" d="M271.741,914.05h-7.566a7.992,7.992,0,0,0,6.875,3.911c.217,0,.432-.01.645-.027A2.162,2.162,0,0,1,271.741,914.05Z" transform="translate(-264.175 -914.05)" fill="#4b6bb2"/>
      </g>
      <path id="Trazado_101263" data-name="Trazado 101263" d="M271.373,888.607a14,14,0,0,1-5.953,6.04l1.3,4.109a1.439,1.439,0,0,0,1.908.9l7.141-2.873a2.374,2.374,0,0,0,1.016-.78l.789-1.053a2.383,2.383,0,0,1,1.905-.952h1.082v-5.392Z" transform="translate(-236.436 -857.736)" fill="#6289cc"/>
      <path id="Trazado_101264" data-name="Trazado 101264" d="M271.373,888.607a13.989,13.989,0,0,1-5.953,6.04l1.3,4.109a1.439,1.439,0,0,0,1.908.9l7.141-2.873a2.374,2.374,0,0,0,1.016-.78l.789-1.053.021-.024c-2.272-.2-2.25-2.684-2.25-2.684v-3.636Z" transform="translate(-236.436 -857.736)" fill="#4b6bb2"/>
      <path id="Trazado_101265" data-name="Trazado 101265" d="M272.591,908.03h-3.313a.93.93,0,0,1-.449-.116v2.077a1.133,1.133,0,0,0,1.134,1.134h1.943a1.134,1.134,0,0,0,1.135-1.134v-2.077a.934.934,0,0,1-.45.116Z" transform="translate(-236.319 -857.074)" fill="#e9efff"/>
      <path id="Trazado_101266" data-name="Trazado 101266" d="M270.935,910.019a1.133,1.133,0,0,1,1.134-1.134h.972v-.971a.934.934,0,0,1-.45.116h-3.313a.93.93,0,0,1-.449-.116v2.077a1.133,1.133,0,0,0,1.134,1.134h.972Z" transform="translate(-236.319 -857.074)" fill="#bec8f7"/>
      <path id="Trazado_101267" data-name="Trazado 101267" d="M284.288,911.018H262.364a1.727,1.727,0,0,0,0,3.454h21.924a1.727,1.727,0,0,0,0-3.454Z" transform="translate(-236.6 -856.968)" fill="#9bd8f9"/>
      <path id="Trazado_101268" data-name="Trazado 101268" d="M269.838,912.745a1.727,1.727,0,0,1,1.726-1.727h-9.2a1.727,1.727,0,0,0,0,3.454h9.2A1.726,1.726,0,0,1,269.838,912.745Z" transform="translate(-236.6 -856.968)" fill="#73c3f9"/>
      <g id="Grupo_54740" data-name="Grupo 54740" transform="translate(44.069 52.866)">
        <path id="Trazado_101269" data-name="Trazado 101269" d="M281.193,919.783A1.19,1.19,0,0,1,280,918.593v-7.532a1.189,1.189,0,0,1,2.379,0v7.532A1.19,1.19,0,0,1,281.193,919.783Z" transform="translate(-280.004 -909.873)" fill="#73c3f9"/>
      </g>
      <path id="Trazado_101270" data-name="Trazado 101270" d="M302.471,912.192A6.443,6.443,0,0,0,299,906.473h0a9.987,9.987,0,0,0-9.2,0,6.443,6.443,0,0,0-3.475,5.719v17.517h9.487a38.278,38.278,0,0,0,6.661-6.025Z" transform="translate(-235.719 -857.162)" fill="#e9efff"/>
      <path id="Trazado_101271" data-name="Trazado 101271" d="M294.4,927.394v-20.15a1.894,1.894,0,0,1,1.188-1.821,9.98,9.98,0,0,0-5.787,1.051,6.443,6.443,0,0,0-3.475,5.719v17.517h9.37a2.361,2.361,0,0,1-1.3-2.315Z" transform="translate(-235.719 -857.162)" fill="#d3dcfb"/>
      <circle id="Elipse_4007" data-name="Elipse 4007" cx="5.709" cy="5.709" r="5.709" transform="translate(52.969 55.388)" fill="#6289cc"/>
      <g id="Grupo_54741" data-name="Grupo 54741" transform="translate(57.489 54.198)">
        <path id="Trazado_101272" data-name="Trazado 101272" d="M294.168,917.489a1.189,1.189,0,0,1-1.189-1.188v-3.95a1.189,1.189,0,0,1,2.379,0v3.95a1.189,1.189,0,0,1-1.189,1.188Z" transform="translate(-292.979 -911.161)" fill="#4b6bb2"/>
      </g>
      <g id="Grupo_54742" data-name="Grupo 54742" transform="translate(57.489 61.667)">
        <path id="Trazado_101273" data-name="Trazado 101273" d="M294.168,924.71a1.189,1.189,0,0,1-1.189-1.188v-3.95a1.189,1.189,0,0,1,2.379,0v3.95a1.189,1.189,0,0,1-1.189,1.188Z" transform="translate(-292.979 -918.382)" fill="#4b6bb2"/>
      </g>
      <g id="Grupo_54743" data-name="Grupo 54743" transform="translate(51.78 59.908)">
        <path id="Trazado_101274" data-name="Trazado 101274" d="M292.6,919.06h-3.95a1.189,1.189,0,0,1,0-2.379h3.95a1.189,1.189,0,0,1,0,2.379Z" transform="translate(-287.46 -916.681)" fill="#4b6bb2"/>
      </g>
      <g id="Grupo_54744" data-name="Grupo 54744" transform="translate(59.248 59.908)">
        <path id="Trazado_101275" data-name="Trazado 101275" d="M299.819,919.06h-3.95a1.189,1.189,0,1,1,0-2.379h3.95a1.189,1.189,0,0,1,0,2.379Z" transform="translate(-294.68 -916.681)" fill="#4b6bb2"/>
      </g>
      <path id="Trazado_101276" data-name="Trazado 101276" d="M274.7,935.917a37.9,37.9,0,0,0,22.236-7.169H264.393a2.843,2.843,0,0,0-2.248,1.1l-2.357,3.035a37.949,37.949,0,0,0,14.914,3.034Z" transform="translate(-236.629 -856.359)" fill="#4b6bb2"/>
      <path id="Trazado_101277" data-name="Trazado 101277" d="M280.583,930.132a3.694,3.694,0,0,1,2.358-1.384H264.393a2.843,2.843,0,0,0-2.248,1.1l-2.357,3.035a38.219,38.219,0,0,0,21.563,2.452,3.644,3.644,0,0,1-.768-5.2Z" transform="translate(-236.629 -856.359)" fill="#3c58a0"/>
      <path id="Trazado_101278" data-name="Trazado 101278" d="M268.361,903.56v3.916a.933.933,0,0,0,.933.933h3.313a.933.933,0,0,0,.933-.933v-6Z" transform="translate(-236.335 -857.295)" fill="#4b6bb2"/>
      <path id="Trazado_101279" data-name="Trazado 101279" d="M270.951,905.788a1.726,1.726,0,0,1,1.082-1.6l1.507-.606v-2.1l-5.179,2.083v3.916a.933.933,0,0,0,.933.933h1.657Z" transform="translate(-236.335 -857.295)" fill="#3c58a0"/>
      <path id="Trazado_101280" data-name="Trazado 101280" d="M281.588,903.837l-2.625-4.546-4.853,1.952,2.992,5.184a.932.932,0,0,0,1.275.341l2.868-1.656a.934.934,0,0,0,.342-1.275Z" transform="translate(-236.138 -857.37)" fill="#4b6bb2"/>
      <path id="Trazado_101281" data-name="Trazado 101281" d="M279.606,905.64l-1.155-2a2.14,2.14,0,0,1,1.055-3.056l.163-.066-.706-1.225-4.854,1.953,2.993,5.183a.932.932,0,0,0,1.275.341l1.439-.831A2.137,2.137,0,0,1,279.606,905.64Z" transform="translate(-236.138 -857.37)" fill="#3c58a0"/>
      <circle id="Elipse_4008" data-name="Elipse 4008" cx="2.854" cy="2.854" r="2.854" transform="translate(55.824 58.242)" fill="#3c58a0"/>
      <g id="Grupo_54745" data-name="Grupo 54745" transform="translate(28.226 37.77)">
        <path id="Trazado_101282" data-name="Trazado 101282" d="M264.842,903.091a2.141,2.141,0,0,1,1.186-2.785l12.113-4.873a2.141,2.141,0,1,1,1.6,3.972l-12.113,4.873a2.139,2.139,0,0,1-2.784-1.186Z" transform="translate(-264.687 -895.278)" fill="#e9efff"/>
      </g>
      <path id="Trazado_101283" data-name="Trazado 101283" d="M271.852,900.162a2.223,2.223,0,0,1,.637-2.536l-6.46,2.6a2.141,2.141,0,1,0,1.6,3.972l6.641-2.672A2.222,2.222,0,0,1,271.852,900.162Z" transform="translate(-236.461 -857.427)" fill="#bec8f7"/>
      <g id="Grupo_54746" data-name="Grupo 54746" transform="translate(0.003 17.778)">
        <path id="Trazado_101284" data-name="Trazado 101284" d="M291.4,882.252c-3.547,7.437,4.777,5.561,8.564,10.048,6.943,8.229,3.563,17.088,10.493,17.1a38.12,38.12,0,0,0-7.024-33.456c-3.8.273-9.74,1.5-12.033,6.3Z" transform="translate(-235.577 -875.949)" fill="#fac873"/>
        <path id="Trazado_101285" data-name="Trazado 101285" d="M257.087,910.644c3.411-10.811-8.736-8.043-11.185-15.186-1.889-5.508-4.9-6.236-7.323-5.7A38.121,38.121,0,0,0,255.338,931.5C265.075,923.727,254.455,918.987,257.087,910.644Z" transform="translate(-237.4 -875.48)" fill="#fac873"/>
      </g>
      <g id="Grupo_54749" data-name="Grupo 54749" transform="translate(0 3.341)">
        <circle id="Elipse_4009" data-name="Elipse 4009" cx="17.146" cy="17.146" r="17.146" transform="translate(1.433 1.439)" fill="#c8e270"/>
        <path id="Trazado_101286" data-name="Trazado 101286" d="M264.16,894.605a.814.814,0,0,0-.74-.807c-4.882-.433-4.426-4.575-4.256-5.52a.79.79,0,0,0-.032-.4l-5.208-15.119a.8.8,0,0,0-.335-.423c-3.221-1.945-2.426-5.044-1.874-6.394a.8.8,0,0,0-.3-.961,1.545,1.545,0,0,1-.651-.837,17.151,17.151,0,1,0,13.583,31.3A1.883,1.883,0,0,1,264.16,894.605Z" transform="translate(-237.349 -861.916)" fill="#badb4c"/>
        <g id="Grupo_54747" data-name="Grupo 54747">
          <path id="Trazado_101287" data-name="Trazado 101287" d="M255.981,899.161a18.585,18.585,0,1,1,18.585-18.585A18.606,18.606,0,0,1,255.981,899.161Zm0-34.3a15.713,15.713,0,1,0,15.713,15.713A15.731,15.731,0,0,0,255.981,864.862Z" transform="translate(-237.397 -861.99)" fill="#fcf2c8"/>
        </g>
        <g id="Grupo_54748" data-name="Grupo 54748" transform="translate(5.144 14.451)">
          <path id="Shape" d="M262.833,875.962h4.481a1.494,1.494,0,0,1,1.494,1.494,7.468,7.468,0,0,1-7.468,7.468h-5.974V883.43A7.468,7.468,0,0,1,262.833,875.962Z" transform="translate(-241.924 -875.962)" fill="#95af3d"/>
          <path id="Shape-2" data-name="Shape" d="M255.811,884.923h-5.973a7.468,7.468,0,0,1-7.468-7.468,1.494,1.494,0,0,1,1.494-1.494h4.481a7.468,7.468,0,0,1,7.467,7.468Z" transform="translate(-242.37 -875.962)" fill="#95af3d"/>
        </g>
      </g>
    </g>
  </g>
</svg>
