<svg xmlns="http://www.w3.org/2000/svg" width="103" height="103" viewBox="0 0 103 103">
  <g id="Grupo_54766" data-name="Grupo 54766" transform="translate(-264 -12700)">
    <rect id="Rectángulo_5305" data-name="Rectángulo 5305" width="103" height="103" transform="translate(264 12700)" fill="none"/>
    <g id="Grupo_54763" data-name="Grupo 54763" transform="translate(273 12710)">
      <path id="Trazado_101340" data-name="Trazado 101340" d="M514.005,1005.837a5.467,5.467,0,0,1,5.438-4.9h30.986a5.469,5.469,0,0,1,5.439,4.9l5.287,48.782a41.933,41.933,0,1,0-52.5.277h.038Z" transform="translate(-492.646 -980.144)" fill="#fac873"/>
      <path id="Trazado_101341" data-name="Trazado 101341" d="M548.583,1041.1l-.031-.277c-.115.094-.236.184-.354.277Z" transform="translate(-480.045 -966.344)" fill="#e64b30"/>
      <path id="Trazado_101342" data-name="Trazado 101342" d="M547.484,997.087H516.5a5.467,5.467,0,0,0-5.438,4.9l-5.319,49.06h23.332v-21.2a5.833,5.833,0,1,1,5.833,0v21.2h22.948c.118-.093.238-.183.354-.277l-5.287-48.782A5.469,5.469,0,0,0,547.484,997.087Z" transform="translate(-489.702 -976.29)" fill="#e64b30"/>
      <path id="Trazado_101343" data-name="Trazado 101343" d="M528.721,1042.233H507.3a41.887,41.887,0,0,0,48.258,0H528.721Z" transform="translate(-489.348 -966.023)" fill="#f7a416"/>
      <path id="Trazado_101344" data-name="Trazado 101344" d="M505.749,1041.045h-.038l.038.029Z" transform="translate(-489.709 -966.293)" fill="#f7a416"/>
      <g id="Grupo_54762" data-name="Grupo 54762" transform="translate(0 0.382)">
        <path id="Trazado_101345" data-name="Trazado 101345" d="M527.667,980.455h0a2.916,2.916,0,0,1,2.916,2.916v8.749a2.917,2.917,0,0,1-2.916,2.917h0a2.917,2.917,0,0,1-2.916-2.917v-8.749A2.916,2.916,0,0,1,527.667,980.455Z" transform="translate(-485.378 -980.455)" fill="#e64b30"/>
        <path id="Trazado_101346" data-name="Trazado 101346" d="M492.674,1015.448h0a2.917,2.917,0,0,1,2.916-2.916h7.291a2.917,2.917,0,0,1,2.916,2.916h0a2.917,2.917,0,0,1-2.916,2.916H495.59A2.917,2.917,0,0,1,492.674,1015.448Z" transform="translate(-492.674 -973.159)" fill="#e64b30"/>
        <path id="Trazado_101347" data-name="Trazado 101347" d="M550.888,1015.448h0a2.917,2.917,0,0,1,2.916-2.916H561.1a2.917,2.917,0,0,1,2.918,2.916h0a2.917,2.917,0,0,1-2.918,2.916H553.8A2.917,2.917,0,0,1,550.888,1015.448Z" transform="translate(-479.434 -973.159)" fill="#e64b30"/>
        <path id="Trazado_101348" data-name="Trazado 101348" d="M497.09,984.873h0a2.918,2.918,0,0,1,4.124,0l7.216,7.217a2.916,2.916,0,0,1,0,4.124h0a2.916,2.916,0,0,1-4.124,0L497.09,989A2.916,2.916,0,0,1,497.09,984.873Z" transform="translate(-491.864 -979.644)" fill="#e64b30"/>
        <path id="Trazado_101349" data-name="Trazado 101349" d="M548.23,992.1l7.217-7.216a2.916,2.916,0,0,1,4.124,0h0a2.918,2.918,0,0,1,0,4.124l-7.217,7.216a2.916,2.916,0,0,1-4.124,0h0A2.916,2.916,0,0,1,548.23,992.1Z" transform="translate(-480.233 -979.643)" fill="#e64b30"/>
      </g>
      <path id="Trazado_101350" data-name="Trazado 101350" d="M529.4,1025.224l-14.948,5.749a1.824,1.824,0,0,1-2.463-1.927l2.182-17.454a1.821,1.821,0,0,1,2.786-1.312l12.767,8.124a1.82,1.82,0,0,1,.844,1.538v3.58a1.821,1.821,0,0,1-1.169,1.7Z" transform="translate(-488.283 -973.355)" fill="#f7a416"/>
      <path id="Trazado_101351" data-name="Trazado 101351" d="M528.3,1025.224l14.948,5.749a1.822,1.822,0,0,0,2.464-1.927l-2.181-17.454a1.822,1.822,0,0,0-2.788-1.312l-12.767,8.124a1.82,1.82,0,0,0-.844,1.538v3.58a1.822,1.822,0,0,0,1.169,1.7Z" transform="translate(-484.838 -973.355)" fill="#f7a416"/>
      <path id="Trazado_101352" data-name="Trazado 101352" d="M510.494,1035.1h2.918v2.917h-2.918Z" transform="translate(-488.621 -967.644)" fill="#fef8f7"/>
      <path id="Trazado_101353" data-name="Trazado 101353" d="M541.384,1035.1H544.3v2.917h-2.916Z" transform="translate(-481.595 -967.644)" fill="#fef8f7"/>
      <path id="Trazado_101354" data-name="Trazado 101354" d="M531.124,1025.793a5.833,5.833,0,1,0-5.833,0v21.2h5.833Z" transform="translate(-485.919 -972.237)" fill="#b33a25"/>
      <path id="Trazado_101355" data-name="Trazado 101355" d="M534.907,1041.045H505.742v.029q.933.742,1.909,1.429h48.258q1-.7,1.947-1.458Z" transform="translate(-489.702 -966.293)" fill="#f7a416"/>
    </g>
  </g>
</svg>
