<svg xmlns="http://www.w3.org/2000/svg" width="132" height="132" viewBox="0 0 132 132">
  <g id="Grupo_54885" data-name="Grupo 54885" transform="translate(-347 -3024)">
    <g id="Grupo_54873" data-name="Grupo 54873" transform="translate(359.001 3037)">
      <g id="Elipse_3965" data-name="Elipse 3965">
        <circle id="Elipse_4022" data-name="Elipse 4022" cx="53" cy="53" r="53" transform="translate(0 0)" fill="#f6ffc0"/>
      </g>
      <g id="Grupo_54872" data-name="Grupo 54872" transform="translate(16.25 4.671)">
        <g id="Grupo_54871" data-name="Grupo 54871" transform="translate(0 8.257)">
          <path id="Trazado_101981" data-name="Trazado 101981" d="M152.447,1000.071a2.832,2.832,0,0,1,2.833,2.832v77.455a2.832,2.832,0,0,1-2.833,2.832H81.888a2.832,2.832,0,0,1-2.833-2.832V1002.9a2.832,2.832,0,0,1,2.833-2.832Z" transform="translate(-79.055 -1000.071)" fill="#6393db"/>
          <path id="Trazado_101982" data-name="Trazado 101982" d="M95.916,1074.893a2.832,2.832,0,0,1-2.833-2.832v-71.99H81.888a2.832,2.832,0,0,0-2.833,2.832v77.455a2.832,2.832,0,0,0,2.833,2.832h70.559a2.832,2.832,0,0,0,2.833-2.832v-5.465Z" transform="translate(-79.055 -1000.071)" fill="#4a6ea4"/>
          <path id="Trazado_101983" data-name="Trazado 101983" d="M90.479,1000.071v8.483a7.063,7.063,0,0,0,7.054,7.054H129.78a7.062,7.062,0,0,0,7.053-7.053v-8.484Z" transform="translate(-75.544 -1000.071)" fill="#f9b645"/>
          <path id="Trazado_101984" data-name="Trazado 101984" d="M148.482,1005.744v69.183a1.465,1.465,0,0,1-1.464,1.466H84.729a1.465,1.465,0,0,1-1.464-1.466v-69.183a1.464,1.464,0,0,1,1.464-1.464h62.289a1.465,1.465,0,0,1,1.464,1.464Z" transform="translate(-77.761 -998.777)" fill="#efedef"/>
          <path id="Trazado_101985" data-name="Trazado 101985" d="M90.479,1004.28v2.981a7.063,7.063,0,0,0,7.054,7.054H129.78a7.062,7.062,0,0,0,7.053-7.053v-2.982Z" transform="translate(-75.544 -998.777)" fill="#e5e1e5"/>
          <path id="Trazado_101986" data-name="Trazado 101986" d="M97.6,1073.6a5.811,5.811,0,0,1-5.81-5.811V1004.28H84.729a1.464,1.464,0,0,0-1.464,1.464v69.183a1.465,1.465,0,0,0,1.464,1.466h62.289a1.465,1.465,0,0,0,1.464-1.466V1073.6Z" transform="translate(-77.761 -998.777)" fill="#e5e1e5"/>
          <g id="Grupo_54869" data-name="Grupo 54869" transform="translate(19.299 20.945)">
            <path id="Trazado_101987" data-name="Trazado 101987" d="M97.142,1038.271a1.375,1.375,0,0,0-1.684.974,41.424,41.424,0,0,0-1.4,10.673v.609l-.242,5.168a1.376,1.376,0,0,0,1.311,1.438h.064a1.377,1.377,0,0,0,1.374-1.311l.242-5.2v-.707a38.719,38.719,0,0,1,1.3-9.963,1.374,1.374,0,0,0-.974-1.682Z" transform="translate(-93.817 -1009.291)" fill="#b5adb6"/>
            <path id="Trazado_101988" data-name="Trazado 101988" d="M101.442,1030.076a1.375,1.375,0,0,0-1.9.438,41.6,41.6,0,0,0-2.956,5.65,1.376,1.376,0,0,0,2.53,1.084,38.927,38.927,0,0,1,2.758-5.276,1.374,1.374,0,0,0-.437-1.9Z" transform="translate(-92.999 -1011.859)" fill="#b5adb6"/>
            <path id="Trazado_101989" data-name="Trazado 101989" d="M106.562,1022.963a41.465,41.465,0,0,0-4.951,4.926,1.376,1.376,0,0,0,2.1,1.781,38.691,38.691,0,0,1,4.621-4.6,1.376,1.376,0,0,0-1.769-2.107Z" transform="translate(-91.522 -1014.08)" fill="#b5adb6"/>
            <path id="Trazado_101990" data-name="Trazado 101990" d="M117.329,1017.1l-4.106-.967a1.375,1.375,0,1,0-.631,2.677l.961.226-2.168,1.164c-.726.388-1.46.813-2.185,1.26a1.376,1.376,0,0,0,.723,2.547,1.361,1.361,0,0,0,.722-.205c.678-.418,1.365-.814,2.041-1.177l2.208-1.186-.275,1.165a1.376,1.376,0,0,0,2.679.63l1.055-4.479a1.376,1.376,0,0,0-1.024-1.655Z" transform="translate(-89.29 -1016.092)" fill="#b5adb6"/>
          </g>
          <path id="Trazado_101991" data-name="Trazado 101991" d="M126.311,1018.757l-2.045-2.017,2.017-2.045a1.376,1.376,0,0,0-1.958-1.932l-2.017,2.045-2.045-2.019a1.376,1.376,0,0,0-1.934,1.958l2.045,2.019-2.017,2.045a1.376,1.376,0,0,0,1.958,1.932l2.017-2.045,2.045,2.019a1.376,1.376,0,1,0,1.934-1.96Z" transform="translate(-67.111 -996.296)" fill="#de3d2c"/>
          <path id="Trazado_101992" data-name="Trazado 101992" d="M114.767,1036.066l-1.107-1.092,1.093-1.107a1.376,1.376,0,0,0-1.958-1.932l-1.093,1.106-1.107-1.092a1.376,1.376,0,1,0-1.932,1.958L109.77,1035l-1.093,1.107a1.376,1.376,0,0,0,1.958,1.932l1.093-1.106,1.107,1.092a1.376,1.376,0,1,0,1.932-1.958Z" transform="translate(-70.082 -990.404)" fill="#c8e270"/>
          <circle id="Elipse_4023" data-name="Elipse 4023" cx="4.666" cy="4.666" r="4.666" transform="translate(16.251 62.505)" fill="#de3d2c"/>
          <circle id="Elipse_4024" data-name="Elipse 4024" cx="4.148" cy="4.148" r="4.148" transform="translate(13.454 20.457)" fill="#c8e270"/>
          <g id="Grupo_54870" data-name="Grupo 54870" transform="translate(53.834 54.832)">
            <path id="Trazado_101993" data-name="Trazado 101993" d="M121.611,1052.733a1.377,1.377,0,0,1-1.377-1.377v-7.968a1.376,1.376,0,0,1,2.752,0v7.968A1.377,1.377,0,0,1,121.611,1052.733Z" transform="translate(-120.234 -1042.013)" fill="#b5adb6"/>
          </g>
        </g>
        <path id="Trazado_101994" data-name="Trazado 101994" d="M128.917,997.1H119.2a1.288,1.288,0,0,1-1.065-.561,6.327,6.327,0,0,0-10.49,0,1.288,1.288,0,0,1-1.064.561H96.671a3.384,3.384,0,0,0-3.385,3.385V1010.5a3.386,3.386,0,0,0,3.385,3.386h32.248a3.386,3.386,0,0,0,3.385-3.386v-10.006a3.386,3.386,0,0,0-3.386-3.385Z" transform="translate(-74.681 -993.755)" fill="#badb4c"/>
        <path id="Trazado_101995" data-name="Trazado 101995" d="M102.925,1009.375a4.277,4.277,0,0,1-4.276-4.276v-8.781H96.671a3.384,3.384,0,0,0-3.385,3.385v10.006a3.386,3.386,0,0,0,3.385,3.386h32.246a3.386,3.386,0,0,0,3.385-3.386v-.333Z" transform="translate(-74.681 -992.968)" fill="#95af3d"/>
        <circle id="Elipse_4025" data-name="Elipse 4025" cx="3.392" cy="3.392" r="3.392" transform="translate(34.72 7.659)" fill="#f9f7f8"/>
        <circle id="Elipse_4026" data-name="Elipse 4026" cx="3.813" cy="3.813" r="3.813" transform="translate(51.398 60.652)" fill="#86e8d0"/>
      </g>
    </g>
    <rect id="Rectángulo_5326" data-name="Rectángulo 5326" width="132" height="132" transform="translate(347 3024)" fill="none"/>
  </g>
</svg>
