<svg xmlns="http://www.w3.org/2000/svg" width="64" height="64" viewBox="0 0 64 64">
  <g id="Grupo_53373" data-name="Grupo 53373" transform="translate(-860 -1940)">
    <rect id="Rectángulo_5068" data-name="Rectángulo 5068" width="64" height="64" transform="translate(860 1940)" fill="none"/>
    <g id="Grupo_53371" data-name="Grupo 53371" transform="translate(867 1951)">
      <path id="Trazado_99337" data-name="Trazado 99337" d="M594.965,153.6a11.821,11.821,0,1,0,11.822,11.822A11.835,11.835,0,0,0,594.965,153.6Zm0,20.687a8.866,8.866,0,1,1,8.866-8.866A8.876,8.876,0,0,1,594.965,174.289Z" transform="translate(-583.143 -135.87)" fill="#6393db"/>
      <path id="Trazado_99338" data-name="Trazado 99338" d="M596.122,162.147a4.433,4.433,0,1,0,4.433,4.434A4.439,4.439,0,0,0,596.122,162.147Zm0,5.911a1.478,1.478,0,1,1,1.478-1.478A1.48,1.48,0,0,1,596.122,168.058Z" transform="translate(-584.3 -137.027)" fill="#6393db"/>
      <path id="Trazado_99339" data-name="Trazado 99339" d="M630.71,159v-5.22a5.917,5.917,0,0,0-5.91-5.91h-2.956v-7.389A1.48,1.48,0,0,1,623.322,139v-2.955a4.438,4.438,0,0,0-4.434,4.433v7.389H612.4l-3.547-11.822H611.3v-2.955H587.661v2.955h2.955v9.431a17.739,17.739,0,0,0-6.852,3.489l1.882,2.279a14.777,14.777,0,0,1,24.179,11.4v4.433h6.231A8.866,8.866,0,1,0,630.71,159Zm-37.139-14.023v-8.929h12.2l3.547,11.822h-4.478a17.627,17.627,0,0,0-9.791-2.955C594.554,144.915,594.061,144.936,593.571,144.977Zm14.682,5.848H624.8a2.959,2.959,0,0,1,2.955,2.955v3.463a8.833,8.833,0,0,0-2.955-.508H611.767A17.742,17.742,0,0,0,608.253,150.825Zm4.28,8.866H618.2a8.847,8.847,0,0,0-2.14,4.434h-3.276v-1.478A17.73,17.73,0,0,0,612.533,159.691ZM624.8,171.512a5.911,5.911,0,1,1,5.91-5.91A5.917,5.917,0,0,1,624.8,171.512Z" transform="translate(-583.227 -133.093)" fill="#6393db"/>
      <path id="Trazado_99340" data-name="Trazado 99340" d="M632.472,170.462a1.478,1.478,0,1,1-1.478-1.478A1.477,1.477,0,0,1,632.472,170.462Z" transform="translate(-589.422 -137.953)" fill="#6393db"/>
    </g>
  </g>
</svg>
