<svg xmlns="http://www.w3.org/2000/svg" width="81.652" height="88.589" viewBox="0 0 81.652 88.589">
  <g id="Grupo_56021" data-name="Grupo 56021" transform="translate(-190.173 -2678.419)">
    <g id="Grupo_53460" data-name="Grupo 53460" transform="translate(42.377 1945.951)">
      <g id="Elipse_3965" data-name="Elipse 3965">
        <circle id="Elipse_3967" data-name="Elipse 3967" cx="40.5" cy="40.5" r="40.5" transform="translate(148.448 740.057)" fill="#f6ffc0"/>
        <circle id="Elipse_3968" data-name="Elipse 3968" cx="40" cy="40" r="40" transform="translate(148.948 740.557)" fill="#f6ffc0"/>
      </g>
      <g id="Page-1">
        <g id="_046---Give-Crops" data-name="046---Give-Crops">
          <path id="Shape" d="M192.947,784.258a1.328,1.328,0,0,1-1.328-1.328V733.8a1.328,1.328,0,1,1,2.656,0V782.93A1.329,1.329,0,0,1,192.947,784.258Z" fill="#95af3d"/>
          <path id="Shape-2" data-name="Shape" d="M172.409,800.136c-12.661-9.484-6.709-21.19,1.946-21.19a9.518,9.518,0,0,1,3.493.677,9.284,9.284,0,0,1,15.019,1.063,9.267,9.267,0,0,1,12.523,1.593,9.516,9.516,0,0,1,3.492-.677,9.229,9.229,0,0,1,9.259,9.3Z" fill="#7c520b"/>
          <path id="Shape-3" data-name="Shape" d="M196.931,788.242a1.328,1.328,0,0,1-1.25-1.776,3.552,3.552,0,0,1,2.125-2.124,1.328,1.328,0,1,1,.9,2.5.915.915,0,0,0-.531.531,1.33,1.33,0,0,1-1.244.873Z" fill="#b97b10"/>
          <g id="Grupo_53459" data-name="Grupo 53459">
            <path id="Shape-4" data-name="Shape" d="M199.587,736.452h2.655a1.327,1.327,0,0,1,1.328,1.328,6.638,6.638,0,0,1-6.639,6.639h-3.984v-1.328A6.639,6.639,0,0,1,199.587,736.452Z" fill="#badb4c"/>
            <path id="Shape-5" data-name="Shape" d="M192.947,744.419h-3.984a6.639,6.639,0,0,1-6.64-6.639,1.328,1.328,0,0,1,1.328-1.328h2.656a6.639,6.639,0,0,1,6.64,6.639Z" fill="#badb4c"/>
            <path id="Shape-6" data-name="Shape" d="M199.587,749.731h3.983a1.328,1.328,0,0,1,1.328,1.328,6.639,6.639,0,0,1-6.639,6.64h-5.312v-1.328A6.64,6.64,0,0,1,199.587,749.731Z" fill="#badb4c"/>
            <path id="Shape-7" data-name="Shape" d="M192.947,757.7h-5.312a6.64,6.64,0,0,1-6.64-6.64,1.329,1.329,0,0,1,1.328-1.328h3.984a6.64,6.64,0,0,1,6.64,6.64Z" fill="#badb4c"/>
            <path id="Shape-8" data-name="Shape" d="M199.587,763.011H204.9a1.327,1.327,0,0,1,1.328,1.328,6.639,6.639,0,0,1-6.639,6.639h-6.64V769.65A6.639,6.639,0,0,1,199.587,763.011Z" fill="#badb4c"/>
            <path id="Shape-9" data-name="Shape" d="M192.947,770.978h-6.64a6.639,6.639,0,0,1-6.64-6.639,1.328,1.328,0,0,1,1.328-1.328h5.312a6.639,6.639,0,0,1,6.64,6.639Z" fill="#badb4c"/>
          </g>
          <path id="Shape-10" data-name="Shape" d="M223.065,792.983l-24.886,15.151a9.294,9.294,0,0,1-4.834,1.355H157.092V780.274h6.374a12.166,12.166,0,0,1,7.57,2.656,12.161,12.161,0,0,0,7.569,2.656h6.945c4.139,0,6.931,3.69,6.427,6.64a4.722,4.722,0,0,1-1.341,2.656h3.121a5.229,5.229,0,0,0,1.686-.279l24.581-8.194a3.658,3.658,0,0,1,4.063,1.275v.013a3.626,3.626,0,0,1-1.022,5.286Z" fill="#f9c795"/>
          <path id="Shape-11" data-name="Shape" d="M191.977,792.226a4.722,4.722,0,0,1-1.341,2.656h-7.7a10.627,10.627,0,0,0-5.9,1.779l-.956.651a1.283,1.283,0,0,1-.744.225,1.342,1.342,0,0,1-1.1-.584,1.328,1.328,0,0,1,.358-1.846l.97-.65a13.338,13.338,0,0,1,7.37-2.231Z" fill="#e8b282"/>
          <rect id="Rectangle-path" width="11.952" height="33.199" rx="2.656" transform="translate(147.796 777.618)" fill="#6393db"/>
        </g>
      </g>
    </g>
  </g>
</svg>
