<svg xmlns="http://www.w3.org/2000/svg" width="81" height="81" viewBox="0 0 81 81">
  <g id="Grupo_56023" data-name="Grupo 56023" transform="translate(-191 -2996)">
    <g id="Grupo_53475" data-name="Grupo 53475" transform="translate(-119.748 2374.857)">
      <g id="Elipse_3965" data-name="Elipse 3965">
        <circle id="Elipse_3975" data-name="Elipse 3975" cx="40.5" cy="40.5" r="40.5" transform="translate(310.748 621.143)" fill="#f6ffc0"/>
        <circle id="Elipse_3976" data-name="Elipse 3976" cx="40" cy="40" r="40" transform="translate(311.248 621.643)" fill="#f6ffc0"/>
      </g>
      <g id="Page-1">
        <g id="_039---Greenhouse" data-name="039---Greenhouse">
          <path id="Shape" d="M385.174,645.407v39.548H352.46a1.211,1.211,0,0,0,1.211-1.211l-5.488-26.656-.788-2.424L336.708,621.95h28.51a1.2,1.2,0,0,1,.933.436l18.732,22.246a1.164,1.164,0,0,1,.291.775Z" fill="#4a6ea4"/>
          <path id="Shape-2" data-name="Shape" d="M385.089,644.971H344.22l-7.512-23.021h28.51a1.2,1.2,0,0,1,.933.436l18.732,22.246a.983.983,0,0,1,.206.339Z" fill="#a1bee9"/>
          <path id="Shape-3" data-name="Shape" d="M356.1,645.407V681.32a1.212,1.212,0,0,1-1.212,1.212l-37.561,2.423V645.407a1.164,1.164,0,0,1,.291-.775l19.1-22.682,19.1,22.682a1.169,1.169,0,0,1,.291.775Z" fill="#6393db"/>
          <path id="Shape-4" data-name="Shape" d="M345.19,661.934v20.6H328.227v-20.6a1.211,1.211,0,0,1,1.212-1.211h14.539A1.212,1.212,0,0,1,345.19,661.934Z" fill="#3b97d3"/>
          <path id="Shape-5" data-name="Shape" d="M385.174,654.664H371.846v-9.257a2.651,2.651,0,0,0-.036-.436,2.571,2.571,0,0,0-.534-1.114L352.835,621.95h-3.174l19.4,23.021.364.436v9.257H351.248v-9.693a1.211,1.211,0,0,0-2.423,0v9.693H324.592v-9.693a1.212,1.212,0,0,0-2.423,0v9.693h-4.847v2.424h4.847v25.444a1.212,1.212,0,1,0,2.423,0V657.088h24.233v25.444a1.211,1.211,0,1,0,2.423,0V657.088h18.175v25.444a1.212,1.212,0,1,0,2.423,0V657.088h13.328Z" fill="#324a6e"/>
          <path id="Shape-6" data-name="Shape" d="M329.439,652.241h-1.212a1.212,1.212,0,1,1,0-2.423h1.212a1.212,1.212,0,0,1,0,2.423Z" fill="#ecf0f1"/>
          <path id="Shape-7" data-name="Shape" d="M345.19,652.241h-10.9a1.212,1.212,0,1,1,0-2.423h10.9a1.212,1.212,0,0,1,0,2.423Z" fill="#ecf0f1"/>
          <path id="Shape-8" data-name="Shape" d="M376.692,675.262l-1.211,7.27h-9.693l-1.212-7.27Z" fill="#a56a43"/>
          <path id="Shape-9" data-name="Shape" d="M377.9,676.474h-14.54a1.211,1.211,0,0,1,0-2.423H377.9a1.211,1.211,0,1,1,0,2.423Z" fill="#b97b10"/>
          <circle id="Oval" cx="4.847" cy="4.847" r="4.847" transform="translate(365.788 660.723)" fill="#2980ba"/>
          <path id="Shape-10" data-name="Shape" d="M337.92,667.992v7.27h7.27v2.423h-7.27v4.847a1.212,1.212,0,1,1-2.423,0v-4.847h-7.27v-2.423h7.27v-7.27h-7.27v-2.423h7.27v-4.846h2.423v4.846h7.27v2.423Z" fill="#2980ba"/>
          <rect id="Rectangle-path" width="70.275" height="9.693" rx="1.212" transform="translate(316.111 682.532)" fill="#b97b10"/>
          <g id="Grupo_53474" data-name="Grupo 53474">
            <path id="Shape-11" data-name="Shape" d="M347.613,687.379a1.211,1.211,0,0,1-1.212,1.211H316.11v-2.423H346.4A1.211,1.211,0,0,1,347.613,687.379Z" fill="#7c520b"/>
            <path id="Shape-12" data-name="Shape" d="M370.634,688.59H351.248a1.212,1.212,0,1,1,0-2.423h19.386a1.212,1.212,0,1,1,0,2.423Z" fill="#7c520b"/>
            <path id="Shape-13" data-name="Shape" d="M386.386,686.167v2.423h-10.9a1.212,1.212,0,1,1,0-2.423Z" fill="#7c520b"/>
          </g>
          <path id="Shape-14" data-name="Shape" d="M356.01,644.971h-38.6a.983.983,0,0,1,.206-.339l19.1-22.682,19.1,22.682A.984.984,0,0,1,356.01,644.971Z" fill="#82a9e2"/>
          <path id="Shape-15" data-name="Shape" d="M343.7,638.186l-6.105-7.335a1.154,1.154,0,0,0-1.779,0l-6.105,7.335a1.179,1.179,0,0,0,.889,1.939h12.211a1.179,1.179,0,0,0,.889-1.939Z" fill="#2980ba"/>
        </g>
      </g>
    </g>
  </g>
</svg>
