<svg xmlns="http://www.w3.org/2000/svg" width="81" height="81" viewBox="0 0 81 81">
  <g id="Grupo_56025" data-name="Grupo 56025" transform="translate(-191 -3330)">
    <g id="Grupo_53473" data-name="Grupo 53473" transform="translate(99.188 2708.857)">
      <g id="Elipse_3965" data-name="Elipse 3965">
        <circle id="Elipse_3973" data-name="Elipse 3973" cx="40.5" cy="40.5" r="40.5" transform="translate(91.812 621.143)" fill="#f6ffc0"/>
        <circle id="Elipse_3974" data-name="Elipse 3974" cx="40" cy="40" r="40" transform="translate(92.312 621.643)" fill="#f6ffc0"/>
      </g>
      <g id="Grupo_53471" data-name="Grupo 53471">
        <path id="Trazado_99461" data-name="Trazado 99461" d="M113.594,657.239h-1.1a2.2,2.2,0,0,0-2.2,2.2v1.1a5.511,5.511,0,0,0,5.5,5.505h1.1a2.2,2.2,0,0,0,2.2-2.2v-1.1A5.511,5.511,0,0,0,113.594,657.239Z" fill="#95af3d"/>
        <path id="Trazado_99462" data-name="Trazado 99462" d="M120.2,657.239h-1.1a2.2,2.2,0,0,0-2.2,2.2v1.1a5.512,5.512,0,0,0,5.5,5.505h1.1a2.2,2.2,0,0,0,2.2-2.2v-1.1A5.511,5.511,0,0,0,120.2,657.239Z" fill="#badb4c"/>
        <path id="Trazado_99463" data-name="Trazado 99463" d="M111.392,663.845h-1.1a2.2,2.2,0,0,0-2.2,2.2v1.1a5.511,5.511,0,0,0,5.505,5.505h1.1a2.2,2.2,0,0,0,2.2-2.2v-1.1A5.511,5.511,0,0,0,111.392,663.845Z" fill="#aabf64"/>
        <path id="Trazado_99464" data-name="Trazado 99464" d="M118,663.845h-1.1a2.2,2.2,0,0,0-2.2,2.2v1.1a5.512,5.512,0,0,0,5.5,5.505h1.1a2.2,2.2,0,0,0,2.2-2.2v-1.1A5.511,5.511,0,0,0,118,663.845Z" fill="#4b581f"/>
        <path id="Trazado_99465" data-name="Trazado 99465" d="M124.6,663.845h-1.1a2.2,2.2,0,0,0-2.2,2.2v1.1a5.512,5.512,0,0,0,5.5,5.505h1.1a2.2,2.2,0,0,0,2.2-2.2v-1.1A5.511,5.511,0,0,0,124.6,663.845Z" fill="#70832e"/>
        <g id="Grupo_53466" data-name="Grupo 53466">
          <path id="Trazado_99466" data-name="Trazado 99466" d="M140.075,655.79l1.1-3.3,2.089.7-1.1,3.3Z" fill="#008100"/>
          <path id="Trazado_99467" data-name="Trazado 99467" d="M144.479,655.785l1.1-3.3,2.089.7-1.1,3.3Z" fill="#008100"/>
          <path id="Trazado_99468" data-name="Trazado 99468" d="M148.885,655.789l1.1-3.3,2.089.7-1.1,3.3Z" fill="#008100"/>
        </g>
        <path id="Trazado_99469" data-name="Trazado 99469" d="M141.12,655.036a3.3,3.3,0,0,0-3.3,3.3v5.5h6.606v-5.5A3.3,3.3,0,0,0,141.12,655.036Z" fill="#f7a416"/>
        <path id="Trazado_99470" data-name="Trazado 99470" d="M145.524,655.036a3.3,3.3,0,0,0-3.3,3.3v5.5h6.606v-5.5A3.3,3.3,0,0,0,145.524,655.036Z" fill="#b97b10"/>
        <path id="Trazado_99471" data-name="Trazado 99471" d="M149.928,655.036a3.3,3.3,0,0,0-3.3,3.3v5.5h6.606v-5.5A3.3,3.3,0,0,0,149.928,655.036Z" fill="#de3d2c"/>
        <path id="Trazado_99472" data-name="Trazado 99472" d="M135.615,662.744h19.818v8.808H135.615Z" fill="#b97b10"/>
        <path id="Trazado_99473" data-name="Trazado 99473" d="M160.938,672.653H103.685V646.228h2.2v24.223h52.849V646.228h2.2Z" fill="#763a02"/>
        <g id="Grupo_53467" data-name="Grupo 53467">
          <path id="Trazado_99474" data-name="Trazado 99474" d="M129.008,627.511h6.607v15.414h-6.607Z" fill="#6393db"/>
          <path id="Trazado_99475" data-name="Trazado 99475" d="M122.4,642.925V627.511h-4.893L115.8,642.925Z" fill="#6393db"/>
        </g>
        <g id="Grupo_53468" data-name="Grupo 53468">
          <path id="Trazado_99476" data-name="Trazado 99476" d="M122.4,627.511h6.606v15.414H122.4Z" fill="#f7a416"/>
          <path id="Trazado_99477" data-name="Trazado 99477" d="M115.8,642.925l1.713-15.414h-4.894l-3.425,15.414Z" fill="#f7a416"/>
          <path id="Trazado_99478" data-name="Trazado 99478" d="M155.433,642.925l-3.425-15.414h-4.894l1.713,15.414Z" fill="#f7a416"/>
        </g>
        <g id="Grupo_53469" data-name="Grupo 53469">
          <path id="Trazado_99479" data-name="Trazado 99479" d="M112.615,627.511H109.19l-6.606,13.212v2.2h6.606Z" fill="#6393db"/>
          <path id="Trazado_99480" data-name="Trazado 99480" d="M148.827,642.925l-1.713-15.414h-4.893v15.414Z" fill="#6393db"/>
        </g>
        <path id="Trazado_99481" data-name="Trazado 99481" d="M135.615,627.511h6.606v15.414h-6.606Z" fill="#f7a416"/>
        <path id="Trazado_99482" data-name="Trazado 99482" d="M155.433,627.511h-3.425l3.425,15.414h6.606v-2.2Z" fill="#6393db"/>
        <path id="Trazado_99483" data-name="Trazado 99483" d="M102.584,642.925v3.3a3.3,3.3,0,0,0,6.606,0v-3.3Z" fill="#82a9e2"/>
        <path id="Trazado_99484" data-name="Trazado 99484" d="M115.8,642.925v3.3a3.3,3.3,0,0,0,6.606,0v-3.3Z" fill="#82a9e2"/>
        <path id="Trazado_99485" data-name="Trazado 99485" d="M129.008,642.925v3.3a3.3,3.3,0,0,0,6.607,0v-3.3Z" fill="#82a9e2"/>
        <path id="Trazado_99486" data-name="Trazado 99486" d="M142.221,642.925v3.3a3.3,3.3,0,0,0,6.606,0v-3.3Z" fill="#82a9e2"/>
        <g id="Grupo_53470" data-name="Grupo 53470">
          <path id="Trazado_99487" data-name="Trazado 99487" d="M109.19,642.925v3.3a3.3,3.3,0,0,0,6.606,0v-3.3Z" fill="#fac873"/>
          <path id="Trazado_99488" data-name="Trazado 99488" d="M122.4,642.925v3.3a3.3,3.3,0,0,0,6.606,0v-3.3Z" fill="#fac873"/>
          <path id="Trazado_99489" data-name="Trazado 99489" d="M135.615,642.925v3.3a3.3,3.3,0,0,0,6.606,0v-3.3Z" fill="#fac873"/>
          <path id="Trazado_99490" data-name="Trazado 99490" d="M148.827,642.925v3.3a3.3,3.3,0,0,0,6.606,0v-3.3Z" fill="#fac873"/>
        </g>
        <path id="Trazado_99491" data-name="Trazado 99491" d="M155.433,646.228a3.3,3.3,0,0,0,6.606,0v-3.3h-6.606Z" fill="#82a9e2"/>
        <path id="Trazado_99492" data-name="Trazado 99492" d="M101.483,669.63H163.14v22.02H101.483Z" fill="#f7a416"/>
        <path id="Trazado_99493" data-name="Trazado 99493" d="M138.918,666.047H152.13v2.2H138.918Z" fill="#7c520b"/>
      </g>
      <g id="Grupo_53472" data-name="Grupo 53472">
        <path id="Shape" d="M138.829,677.216h2.485a1.244,1.244,0,0,1,1.243,1.243,6.213,6.213,0,0,1-6.213,6.213h-3.728v-1.243A6.213,6.213,0,0,1,138.829,677.216Z" fill="#fac873"/>
        <path id="Shape-2" data-name="Shape" d="M132.616,684.672h-3.728a6.213,6.213,0,0,1-6.213-6.213,1.243,1.243,0,0,1,1.243-1.243H126.4a6.213,6.213,0,0,1,6.213,6.213Z" fill="#fac873"/>
      </g>
    </g>
  </g>
</svg>
