<svg xmlns="http://www.w3.org/2000/svg" width="104" height="104" viewBox="0 0 104 104">
  <g id="Grupo_54576" data-name="Grupo 54576" transform="translate(-182 -1362)">
    <rect id="Rectángulo_5302" data-name="Rectángulo 5302" width="104" height="104" transform="translate(182 1362)" fill="none"/>
    <g id="Grupo_54575" data-name="Grupo 54575" transform="translate(-285.101 845.791)">
      <path id="Trazado_100868" data-name="Trazado 100868" d="M548.185,564.876l-1.337,2.379-1.214,2.146-2.514,4.463H498.912a4.892,4.892,0,0,1-2.121-9.307,4.763,4.763,0,0,1-.331-1.73,4.906,4.906,0,0,1,4.9-4.905,4.841,4.841,0,0,1,1.336.209,4.909,4.909,0,0,1,4.281-3.839,4.823,4.823,0,0,1-.712-2.5,4.9,4.9,0,0,1,4.9-4.905,5.644,5.644,0,0,1,.65.061,4.863,4.863,0,0,1,4.256-2.514,4.762,4.762,0,0,1,1.729.331,4.873,4.873,0,0,1,8.8,0,4.762,4.762,0,0,1,1.73-.331,4.863,4.863,0,0,1,4.255,2.514,5.644,5.644,0,0,1,.65-.061,4.9,4.9,0,0,1,4.893,4.6,2.634,2.634,0,0,1,.012.307,4.832,4.832,0,0,1-.711,2.5,4.908,4.908,0,0,1,4.28,3.839,4.841,4.841,0,0,1,1.336-.209,4.906,4.906,0,0,1,4.9,4.905,4.763,4.763,0,0,1-.331,1.73A3.937,3.937,0,0,1,548.185,564.876Z" fill="#95af3d"/>
      <path id="Trazado_100869" data-name="Trazado 100869" d="M553.37,547.377c1.324-3.116.881-6.288-.989-7.083-1.48-.627-3.4.436-4.8,2.453a3.265,3.265,0,0,0-2.888-1.594c-2.016.245-3.311,3.172-2.907,6.534s2.38,5.886,4.4,5.641a2.919,2.919,0,0,0,2.07-1.571C550.034,551.921,552.2,550.138,553.37,547.377Z" fill="#95af3d"/>
      <path id="Trazado_100870" data-name="Trazado 100870" d="M552.1,555.924a7.829,7.829,0,0,1-.147,1.5,8.122,8.122,0,0,1-.846,2.269l-.013.036-2.906,5.151-1.337,2.379-1.214,2.146-2.514,4.463-7.774,13.845a4.108,4.108,0,0,1-7.517-3.188l3.188-10.657,4.255-14.2.7-2.355,1.079-3.593a7.427,7.427,0,0,1,1.092-2.232,7.683,7.683,0,0,1,13.955,4.44Z" fill="#f7a416"/>
      <path id="Trazado_100871" data-name="Trazado 100871" d="M541.492,559.652l-.96,2.253-5.26-2.241.7-2.355Z" fill="#e87425"/>
      <path id="Trazado_100872" data-name="Trazado 100872" d="M546.848,567.255l-1.214,2.146-5.887-2.5.96-2.254Z" fill="#e87425"/>
      <path id="Trazado_100873" data-name="Trazado 100873" d="M551.95,557.42a8.122,8.122,0,0,1-.846,2.269l-.013.036-3.642-1.545.959-2.258Z" fill="#e87425"/>
      <path id="Trazado_100874" data-name="Trazado 100874" d="M529.57,586.127a12.263,12.263,0,1,1-12.263-12.263A12.263,12.263,0,0,1,529.57,586.127Z" fill="#9f1f5a"/>
      <path id="Trazado_100875" data-name="Trazado 100875" d="M530,574.269a12.068,12.068,0,0,0,1.3-14.664,2.456,2.456,0,1,0-3.626-3.21c-4.578-2.408-10.655-1.162-14.513,3.3s-4.222,10.65-1.184,14.838a2.517,2.517,0,0,0-.2.188,2.454,2.454,0,1,0,3.9,2.94A12.068,12.068,0,0,0,530,574.269Z" fill="#fde700"/>
      <path id="Trazado_100876" data-name="Trazado 100876" d="M488.985,569.64c.375,6.762,6.362,15.614,13.122,15.24s11.738-9.831,11.364-16.594-6.091-10.716-12.853-10.343S488.612,562.877,488.985,569.64Z" fill="#9f1f5a"/>
      <path id="Trazado_100877" data-name="Trazado 100877" d="M493.5,535.481a7.358,7.358,0,0,0-6.962,12.925,7.337,7.337,0,0,0,10.811,6.723,7.044,7.044,0,0,0,1.385-.962l3.355-.185a7.024,7.024,0,0,0,1.481.8,7.337,7.337,0,0,0,10-7.874,7.357,7.357,0,0,0-8.339-12.077Z" fill="#badb4c"/>
      <path id="Trazado_100878" data-name="Trazado 100878" d="M492.259,539.983a7.358,7.358,0,1,1,13.906,2.916,7.358,7.358,0,1,1-12.712.7A7.306,7.306,0,0,1,492.259,539.983Z" fill="#95af3d"/>
      <path id="Trazado_100879" data-name="Trazado 100879" d="M504.125,538.967l-1.827-1.636-2.65,2.962-2.965-2.651-1.636,1.827,3.5,3.131.214,3.884-1.67-1.5-1.636,1.828,3.5,3.136.582,10.514a1.225,1.225,0,1,0,2.447-.135L501,542.471Z" fill="#f9b645"/>
      <path id="Trazado_100880" data-name="Trazado 100880" d="M505.044,568.959h4.9a6.132,6.132,0,1,1,0,12.263h-4.9a6.132,6.132,0,1,1,0-12.263Z" fill="#ecaf4a"/>
      <path id="Trazado_100881" data-name="Trazado 100881" d="M525.891,584.9H530.8a6.132,6.132,0,1,1,0,12.263h-4.905a6.132,6.132,0,1,1,0-12.263Z" fill="#ecaf4a"/>
      <path id="Trazado_100882" data-name="Trazado 100882" d="M511.175,569.082v6.008h-2.452v-6.131h1.226A5.74,5.74,0,0,1,511.175,569.082Z" fill="#d18b29"/>
      <path id="Trazado_100883" data-name="Trazado 100883" d="M506.27,568.959v3.679h-2.452v-3.556a5.741,5.741,0,0,1,1.226-.123Z" fill="#d18b29"/>
      <path id="Trazado_100884" data-name="Trazado 100884" d="M540.606,573.864a9.81,9.81,0,1,1-9.81-9.81A9.81,9.81,0,0,1,540.606,573.864Z" fill="#de3d2c"/>
      <path id="Trazado_100885" data-name="Trazado 100885" d="M516.081,589.806A9.811,9.811,0,1,1,506.27,580,9.81,9.81,0,0,1,516.081,589.806Z" fill="#fde700"/>
      <path id="Trazado_100886" data-name="Trazado 100886" d="M527.4,574.128A3.909,3.909,0,0,1,524.727,573l1.723-1.745a1.226,1.226,0,1,0,1.745-1.716l1.734-1.735a3.575,3.575,0,0,1,0,5.2A3.533,3.533,0,0,1,527.4,574.128Z" fill="#fb7b76"/>
      <path id="Trazado_100887" data-name="Trazado 100887" d="M487.876,578.769h61.315v9.811H487.876Z" fill="#b97b10"/>
      <path id="Trazado_100888" data-name="Trazado 100888" d="M487.876,593.485h61.315v9.81H487.876Z" fill="#b97b10"/>
      <path id="Trazado_100889" data-name="Trazado 100889" d="M503.818,603.295V578.769a4.906,4.906,0,0,0-9.811,0v24.526" fill="#b97b10"/>
      <path id="Trazado_100890" data-name="Trazado 100890" d="M533.249,603.295V578.769a4.9,4.9,0,0,1,9.81,0v24.526" fill="#b97b10"/>
      <g id="Grupo_54574" data-name="Grupo 54574">
        <path id="Trazado_100891" data-name="Trazado 100891" d="M497.686,597.164h2.453v2.452h-2.453Z" fill="#7c520b"/>
        <path id="Trazado_100892" data-name="Trazado 100892" d="M497.686,582.448h2.453V584.9h-2.453Z" fill="#7c520b"/>
        <path id="Trazado_100893" data-name="Trazado 100893" d="M536.928,597.164h2.452v2.452h-2.452Z" fill="#7c520b"/>
        <path id="Trazado_100894" data-name="Trazado 100894" d="M536.928,582.448h2.452V584.9h-2.452Z" fill="#7c520b"/>
        <path id="Trazado_100895" data-name="Trazado 100895" d="M503.818,578.769h2.452v9.811h-2.452Z" fill="#7c520b"/>
        <path id="Trazado_100896" data-name="Trazado 100896" d="M503.818,593.485h2.452v9.81h-2.452Z" fill="#7c520b"/>
        <path id="Trazado_100897" data-name="Trazado 100897" d="M543.059,578.769h2.453v9.811h-2.453Z" fill="#7c520b"/>
        <path id="Trazado_100898" data-name="Trazado 100898" d="M543.059,593.485h2.453v9.81h-2.453Z" fill="#7c520b"/>
      </g>
    </g>
  </g>
</svg>
