<svg xmlns="http://www.w3.org/2000/svg" width="83.096" height="82.906" viewBox="0 0 83.096 82.906">
  <g id="Grupo_56026" data-name="Grupo 56026" transform="translate(-189.452 -3532.26)">
    <g id="Grupo_53463" data-name="Grupo 53463" transform="translate(-74.703 2796.324)">
      <g id="Elipse_3965" data-name="Elipse 3965">
        <circle id="Elipse_3969" data-name="Elipse 3969" cx="40.5" cy="40.5" r="40.5" transform="translate(264.155 737.842)" fill="#f6ffc0"/>
        <circle id="Elipse_3970" data-name="Elipse 3970" cx="40" cy="40" r="40" transform="translate(264.655 738.342)" fill="#f6ffc0"/>
      </g>
      <g id="Page-1">
        <g id="_044---Farm-Review" data-name="044---Farm-Review">
          <path id="Shape" d="M286.418,747.838h-7.935a1.323,1.323,0,0,1,0-2.645h7.935a1.323,1.323,0,0,1,0,2.645Z" fill="#7f8c8d"/>
          <path id="Shape-2" data-name="Shape" d="M285.1,754.451h-6.612a1.322,1.322,0,0,1,0-2.645H285.1a1.322,1.322,0,1,1,0,2.645Z" fill="#7f8c8d"/>
          <path id="Shape-3" data-name="Shape" d="M285.1,761.063h-6.612a1.322,1.322,0,0,1,0-2.645H285.1a1.322,1.322,0,1,1,0,2.645Z" fill="#7f8c8d"/>
          <path id="Shape-4" data-name="Shape" d="M285.1,767.675h-6.612a1.322,1.322,0,0,1,0-2.645H285.1a1.322,1.322,0,1,1,0,2.645Z" fill="#7f8c8d"/>
          <path id="Shape-5" data-name="Shape" d="M285.1,774.287h-6.612a1.322,1.322,0,0,1,0-2.645H285.1a1.322,1.322,0,1,1,0,2.645Z" fill="#7f8c8d"/>
          <path id="Shape-6" data-name="Shape" d="M285.1,782.222V746.516a10.58,10.58,0,1,1,21.16,0v35.706Z" fill="#f7a416"/>
          <path id="Shape-7" data-name="Shape" d="M290.385,776.932a1.322,1.322,0,0,1-1.322-1.322V746.516a1.323,1.323,0,1,1,2.645,0V775.61A1.322,1.322,0,0,1,290.385,776.932Z" fill="#fac873"/>
          <path id="Shape-8" data-name="Shape" d="M297,776.932a1.322,1.322,0,0,1-1.323-1.322v-11.9a1.323,1.323,0,1,1,2.645,0v11.9A1.322,1.322,0,0,1,297,776.932Z" fill="#fac873"/>
          <path id="Shape-9" data-name="Shape" d="M297,755.773a1.322,1.322,0,0,1-1.323-1.322v-7.935a1.323,1.323,0,1,1,2.645,0v7.935A1.322,1.322,0,0,1,297,755.773Z" fill="#fac873"/>
          <path id="Shape-10" data-name="Shape" d="M306.255,746.516H285.1a10.58,10.58,0,1,1,21.16,0Z" fill="#95a5a5"/>
          <path id="Shape-11" data-name="Shape" d="M279.806,782.222a1.322,1.322,0,0,1-1.323-1.322V743.871a1.322,1.322,0,1,1,2.645,0V780.9A1.322,1.322,0,0,1,279.806,782.222Z" fill="#95a5a5"/>
          <path id="Shape-12" data-name="Shape" d="M343.283,754.556v27.666H324.412l-20.8-1.322V754.556l.066-.105,2.883-4.206,1.653-2.407,1.693-2.459a2.622,2.622,0,0,1,.806-.767l11.373-6.97a2.6,2.6,0,0,1,2.725,0l11.373,6.97a2.622,2.622,0,0,1,.806.767l1.693,2.459,1.653,2.407,2.883,4.206Z" fill="#de3d2c"/>
          <path id="Shape-13" data-name="Shape" d="M331.381,749.6v6.176a1.322,1.322,0,0,1-1.322,1.322H316.834a1.322,1.322,0,0,1-1.322-1.322V749.6a1.331,1.331,0,0,1,.6-1.1l6.612-4.4a1.275,1.275,0,0,1,1.455,0l6.612,4.4A1.331,1.331,0,0,1,331.381,749.6Z" fill="#6393db"/>
          <path id="Shape-14" data-name="Shape" d="M331.381,750.483v2.645h-6.612v3.967h-2.645v-3.967h-6.612v-2.645h6.612v-5.991l.6-.4a1.275,1.275,0,0,1,1.455,0l.6.4v5.991Z" fill="#a1bee9"/>
          <g id="Grupo_53461" data-name="Grupo 53461">
            <path id="Shape-15" data-name="Shape" d="M337.993,763.708H308.9a1.323,1.323,0,1,1,0-2.645h29.093a1.323,1.323,0,1,1,0,2.645Z" fill="#802f34"/>
            <path id="Shape-16" data-name="Shape" d="M314.189,769a1.322,1.322,0,0,1-1.322,1.323H303.61v-2.645h9.257A1.322,1.322,0,0,1,314.189,769Z" fill="#802f34"/>
            <path id="Shape-17" data-name="Shape" d="M311.544,755.773a1.322,1.322,0,0,1-1.322,1.322H303.61v-2.539l.066-.105h6.546A1.322,1.322,0,0,1,311.544,755.773Z" fill="#802f34"/>
            <path id="Shape-18" data-name="Shape" d="M311.544,749.161a1.322,1.322,0,0,1-1.322,1.322h-2.909a1.342,1.342,0,0,1-.754-.238l1.653-2.407h2.01A1.322,1.322,0,0,1,311.544,749.161Z" fill="#802f34"/>
            <path id="Shape-19" data-name="Shape" d="M343.283,754.556v2.539h-6.612a1.322,1.322,0,1,1,0-2.644h6.546Z" fill="#802f34"/>
            <path id="Shape-20" data-name="Shape" d="M340.334,750.245a1.344,1.344,0,0,1-.754.238h-2.909a1.322,1.322,0,0,1,0-2.645h2.01Z" fill="#802f34"/>
            <path id="Shape-21" data-name="Shape" d="M314.189,775.61a1.322,1.322,0,0,1-1.322,1.322H303.61v-2.645h9.257A1.322,1.322,0,0,1,314.189,775.61Z" fill="#802f34"/>
            <path id="Shape-22" data-name="Shape" d="M343.283,767.675v2.645h-9.257a1.323,1.323,0,0,1,0-2.645Z" fill="#802f34"/>
            <path id="Shape-23" data-name="Shape" d="M343.283,774.287v2.645h-9.257a1.323,1.323,0,0,1,0-2.645Z" fill="#802f34"/>
            <path id="Shape-24" data-name="Shape" d="M345.928,759.74a1.321,1.321,0,0,1-1.092-.575L335.9,746.132a1.351,1.351,0,0,0-.406-.387l-11.381-6.973a1.274,1.274,0,0,0-1.34,0l-11.38,6.973a1.347,1.347,0,0,0-.406.386l-8.934,13.034a1.322,1.322,0,1,1-2.182-1.494l8.934-13.034a3.975,3.975,0,0,1,1.206-1.147l11.381-6.975a3.918,3.918,0,0,1,4.1,0l11.381,6.975a3.957,3.957,0,0,1,1.206,1.148l8.934,13.033a1.322,1.322,0,0,1-1.088,2.069Z" fill="#802f34"/>
            <path id="Shape-25" data-name="Shape" d="M335.349,782.222V769a1.323,1.323,0,0,0-1.323-1.322H312.867A1.323,1.323,0,0,0,311.544,769v13.225Z" fill="#802f34"/>
          </g>
          <path id="Rectangle-path" d="M316.834,767.675h13.225v14.547H316.834Z" fill="#fb7b76"/>
          <circle id="Oval" cx="1.322" cy="1.322" r="1.322" transform="translate(320.802 772.965)" fill="#324a6e"/>
          <path id="Shape-26" data-name="Shape" d="M345.928,783.515h-23.8a1.323,1.323,0,0,1,0-2.645h23.8a1.323,1.323,0,1,1,0,2.645Z" fill="#95af3d"/>
          <path id="Shape-27" data-name="Shape" d="M324.769,783.544v18.515a2.664,2.664,0,0,1-2.645,2.658H304.932l-6.057,7.062a2.474,2.474,0,0,1-3.755,0l-6.057-7.062H271.871a2.664,2.664,0,0,1-2.645-2.658V783.544a2.652,2.652,0,0,1,2.645-2.644h50.253A2.652,2.652,0,0,1,324.769,783.544Z" fill="#6393db"/>
          <path id="Shape-28" data-name="Shape" d="M297.634,787.924l1.249,2.645,2.8.425a.75.75,0,0,1,.4,1.264l-2.022,2.059.477,2.909a.716.716,0,0,1-1.029.781l-2.5-1.37-2.5,1.371a.715.715,0,0,1-1.029-.78l.477-2.91-2.022-2.059a.75.75,0,0,1,.4-1.264l2.8-.424,1.249-2.645a.7.7,0,0,1,1.269,0Z" fill="#f7a416"/>
          <path id="Shape-29" data-name="Shape" d="M313.5,787.924l1.25,2.645,2.8.425a.75.75,0,0,1,.4,1.264l-2.022,2.059.477,2.909a.715.715,0,0,1-1.028.781l-2.505-1.37-2.5,1.371a.716.716,0,0,1-1.029-.78l.478-2.91-2.022-2.059a.75.75,0,0,1,.4-1.264l2.8-.424,1.25-2.645a.7.7,0,0,1,1.268,0Z" fill="#f7a416"/>
          <path id="Shape-30" data-name="Shape" d="M281.764,787.924l1.25,2.645,2.8.425a.75.75,0,0,1,.4,1.264l-2.022,2.059.478,2.909a.716.716,0,0,1-1.029.781l-2.505-1.37-2.5,1.367a.716.716,0,0,1-1.029-.78l.478-2.91-2.022-2.056a.75.75,0,0,1,.4-1.264l2.8-.425,1.25-2.645a.7.7,0,0,1,1.268,0Z" fill="#f7a416"/>
          <g id="Grupo_53462" data-name="Grupo 53462">
            <path id="Shape-31" data-name="Shape" d="M302.671,807.348h-3.029a1.337,1.337,0,0,1-1.322-1.335,1.314,1.314,0,0,1,1.322-1.309h5.29c.04,0-2.261,2.645-2.261,2.645Z" fill="#4a6ea4"/>
            <path id="Shape-32" data-name="Shape" d="M295.675,806.026a1.322,1.322,0,0,1-1.322,1.322h-3.029l-2.261-2.631,5.29-.013A1.322,1.322,0,0,1,295.675,806.026Z" fill="#4a6ea4"/>
          </g>
        </g>
      </g>
    </g>
  </g>
</svg>
