<svg xmlns="http://www.w3.org/2000/svg" width="64" height="64" viewBox="0 0 64 64">
  <g id="Grupo_53375" data-name="Grupo 53375" transform="translate(-767 -1940)">
    <rect id="Rectángulo_5067" data-name="Rectángulo 5067" width="64" height="64" transform="translate(767 1940)" fill="none"/>
    <g id="Grupo_53372" data-name="Grupo 53372" transform="translate(771 1951)">
      <path id="Trazado_99341" data-name="Trazado 99341" d="M803.728,164.2a9.669,9.669,0,0,0-6.443-8.387,8.216,8.216,0,0,0,1.266-5.022,8.293,8.293,0,0,0-9.524-7.607,8.281,8.281,0,0,0-13.788-1.243,12.168,12.168,0,1,0-11.175,21.429q-.066.41-.1.83a9.518,9.518,0,0,0,2.556,7.225,9.63,9.63,0,0,0,7.016,3.05h20.615a9.629,9.629,0,0,0,7.016-3.05A9.517,9.517,0,0,0,803.728,164.2Zm-22.007-21.662a4.565,4.565,0,0,1,4.4,3.358,1.864,1.864,0,0,0,2.487,1.244,4.559,4.559,0,0,1,3.811,8.268,9.583,9.583,0,0,0-11.922-4.669,12.118,12.118,0,0,0-2.522-6.233A4.566,4.566,0,0,1,781.721,142.537Zm-21.777,9.457a8.443,8.443,0,1,1,16.783,1.306,9.555,9.555,0,0,0-1.463,2.138,9.578,9.578,0,0,0-9.9,4.439A8.454,8.454,0,0,1,759.944,151.994Zm38.5,16.886a5.81,5.81,0,0,1-4.289,1.866H773.541a5.868,5.868,0,0,1-5.852-6.288,5.9,5.9,0,0,1,5.321-5.421q.268-.023.534-.023a5.815,5.815,0,0,1,2.158.413,1.864,1.864,0,0,0,2.487-1.244,5.866,5.866,0,0,1,11.319,0,1.864,1.864,0,0,0,2.487,1.244,5.865,5.865,0,0,1,6.451,9.454Z" transform="translate(-748.371 -132.092)" fill="#6393db"/>
      <path id="Trazado_99342" data-name="Trazado 99342" d="M770,137.346a1.865,1.865,0,0,0,1.865-1.864V132.9a1.865,1.865,0,0,0-3.729,0v2.577A1.864,1.864,0,0,0,770,137.346Z" transform="translate(-749.986 -131.04)" fill="#6393db"/>
      <path id="Trazado_99343" data-name="Trazado 99343" d="M753.459,153.762a1.865,1.865,0,0,0-1.864-1.865h-2.587a1.865,1.865,0,1,0,0,3.729h2.587A1.864,1.864,0,0,0,753.459,153.762Z" transform="translate(-747.143 -133.864)" fill="#6393db"/>
      <path id="Trazado_99344" data-name="Trazado 99344" d="M755.752,165.093l-1.822,1.823a1.865,1.865,0,1,0,2.637,2.637l1.822-1.822a1.865,1.865,0,0,0-2.637-2.638Z" transform="translate(-747.988 -135.577)" fill="#6393db"/>
      <path id="Trazado_99345" data-name="Trazado 99345" d="M755.752,142.156a1.865,1.865,0,0,0,2.637-2.637l-1.822-1.823a1.865,1.865,0,1,0-2.637,2.637Z" transform="translate(-747.988 -131.867)" fill="#6393db"/>
    </g>
  </g>
</svg>
