<svg xmlns="http://www.w3.org/2000/svg" width="104" height="104" viewBox="0 0 104 104">
  <g id="Grupo_56013" data-name="Grupo 56013" transform="translate(-188 -7990)">
    <rect id="Rectángulo_5302" data-name="Rectángulo 5302" width="104" height="104" transform="translate(188 7990)" fill="none"/>
    <g id="Grupo_56012" data-name="Grupo 56012" transform="translate(165.73 7183.851)">
      <g id="Page-1" transform="translate(35.27 819.149)">
        <g id="_001---Plant" data-name="001---Plant">
          <path id="Shape" d="M106.542,874.461a6.66,6.66,0,0,0-4.282,1.58,12.095,12.095,0,0,0-17.551-8.213,10.736,10.736,0,0,0-20.84,0,12.1,12.1,0,0,0-17.552,8.213,6.72,6.72,0,1,0-.172,10.42,10.74,10.74,0,0,0,20.363,3.382,8.724,8.724,0,0,0,15.559,0,10.741,10.741,0,0,0,20.364-3.382,6.707,6.707,0,1,0,4.109-12Z" transform="translate(-35.27 -818.016)" fill="#f9b645"/>
          <path id="Shape-2" data-name="Shape" d="M99.165,839.861c-5.491,5.49-13.521,6.988-17.835,7.391a2.584,2.584,0,0,1-2.861-2.861c.4-4.314,1.9-12.343,7.391-17.833s13.52-6.988,17.833-7.391a2.582,2.582,0,0,1,2.861,2.861C106.152,826.34,104.662,834.369,99.165,839.861Z" transform="translate(-34.062 -819.149)" fill="#badb4c"/>
          <path id="Shape-3" data-name="Shape" d="M58.895,830.7c5.807,5.156,7.777,13.082,8.437,17.365a2.584,2.584,0,0,1-2.687,3.026c-4.33-.148-12.433-1.166-18.241-6.317s-7.779-13.081-8.439-17.362a2.584,2.584,0,0,1,2.686-3.027C44.981,824.531,53.084,825.548,58.895,830.7Z" transform="translate(-35.196 -819.003)" fill="#badb4c"/>
          <path id="Shape-4" data-name="Shape" d="M74.032,870.037h-.057a1.345,1.345,0,0,1-1.287-1.345c0-6.382-3.9-14.093-7.67-17.863C61.052,846.864,45.063,832.2,44.9,832.055a1.344,1.344,0,0,1,1.817-1.981c.66.6,16.194,14.848,20.2,18.854A32.186,32.186,0,0,1,73.856,860.5c1.011-5.21,2.8-11.691,5.846-15.5a125.569,125.569,0,0,1,19.024-19.024,1.344,1.344,0,1,1,1.68,2.1,122.773,122.773,0,0,0-18.6,18.6C76.745,853,75.383,868.647,75.372,868.8a1.345,1.345,0,0,1-1.34,1.233Z" transform="translate(-35.013 -818.967)" fill="#95af3d"/>
          <g id="Grupo_56011" data-name="Grupo 56011" transform="translate(17.517 48.382)">
            <path id="Shape-5" data-name="Shape" d="M76.025,870.247a1.343,1.343,0,0,1-.95-.394,3.332,3.332,0,0,0-1.738-.95,3.338,3.338,0,0,0-1.747.954,1.344,1.344,0,0,1-1.9-1.9,5.915,5.915,0,0,1,3.643-1.737,5.916,5.916,0,0,1,3.638,1.737,1.344,1.344,0,0,1-.95,2.294Z" transform="translate(-51.835 -866.215)" fill="#b97b10"/>
            <path id="Shape-6" data-name="Shape" d="M56.343,880.741a4.032,4.032,0,0,1-4.032-4.032,1.344,1.344,0,0,1,2.687,0,1.344,1.344,0,1,0,2.688,0,1.344,1.344,0,0,1,2.687,0A4.031,4.031,0,0,1,56.343,880.741Z" transform="translate(-52.311 -865.959)" fill="#b97b10"/>
            <path id="Shape-7" data-name="Shape" d="M70.723,885.97a4.031,4.031,0,0,1-4.032-4.031,1.344,1.344,0,1,1,2.687,0,1.344,1.344,0,0,0,2.688,0,1.344,1.344,0,1,1,2.688,0A4.031,4.031,0,0,1,70.723,885.97Z" transform="translate(-51.909 -865.813)" fill="#b97b10"/>
            <path id="Shape-8" data-name="Shape" d="M87.718,878.127a4.032,4.032,0,0,1-4.032-4.032,1.344,1.344,0,1,1,2.687,0,1.344,1.344,0,0,0,2.688,0,1.344,1.344,0,1,1,2.687,0A4.032,4.032,0,0,1,87.718,878.127Z" transform="translate(-51.433 -866.032)" fill="#b97b10"/>
          </g>
          <circle id="Oval" cx="1.344" cy="1.344" r="1.344" transform="translate(53.801 67.196)" fill="#b97b10"/>
          <circle id="Oval-2" data-name="Oval" cx="1.344" cy="1.344" r="1.344" transform="translate(61.865 60.477)" fill="#b97b10"/>
          <circle id="Oval-3" data-name="Oval" cx="1.344" cy="1.344" r="1.344" transform="translate(75.303 51.07)" fill="#f9b645"/>
          <circle id="Oval-4" data-name="Oval" cx="1.344" cy="1.344" r="1.344" transform="translate(41.707 56.445)" fill="#b97b10"/>
          <circle id="Oval-5" data-name="Oval" cx="1.344" cy="1.344" r="1.344" transform="translate(8.11 47.038)" fill="#f9b645"/>
          <circle id="Oval-6" data-name="Oval" cx="1.344" cy="1.344" r="1.344" transform="translate(68.584 48.382)" fill="#f9b645"/>
          <circle id="Oval-7" data-name="Oval" cx="1.344" cy="1.344" r="1.344" transform="translate(21.549 68.54)" fill="#b97b10"/>
          <circle id="Oval-8" data-name="Oval" cx="1.344" cy="1.344" r="1.344" transform="translate(13.486 41.663)" fill="#f9b645"/>
        </g>
      </g>
    </g>
  </g>
</svg>
