<svg id="Grupo_56006" data-name="Grupo 56006" xmlns="http://www.w3.org/2000/svg" width="335" height="222.333" viewBox="0 0 335 222.333">
  <g id="Grupo_55994" data-name="Grupo 55994" transform="translate(30.137 40.411)">
    <g id="Grupo_55992" data-name="Grupo 55992">
      <g id="Grupo_55963" data-name="Grupo 55963" transform="translate(0 139.282)">
        <rect id="Rectángulo_5546" data-name="Rectángulo 5546" width="272.846" height="16.707" rx="4.633" fill="#95af3d"/>
        <path id="Rectángulo_5547" data-name="Rectángulo 5547" d="M5.055,0H221.212a5.054,5.054,0,0,1,5.054,5.054v8.117a5.054,5.054,0,0,1-5.054,5.054H5.055A5.055,5.055,0,0,1,0,13.171V5.055A5.055,5.055,0,0,1,5.055,0Z" transform="translate(25.194 9.202)" fill="#f7a416"/>
        <rect id="Rectángulo_5548" data-name="Rectángulo 5548" width="25.194" height="7.664" rx="2.125" transform="translate(0 27.428)" fill="#f9b645"/>
        <rect id="Rectángulo_5549" data-name="Rectángulo 5549" width="20.181" height="7.664" rx="2.125" transform="translate(260.249 19.764)" fill="#f9b645"/>
        <rect id="Rectángulo_5550" data-name="Rectángulo 5550" width="49.852" height="8.14" rx="2.257" transform="translate(154.917 31.26)" fill="#f9b645"/>
      </g>
      <path id="Trazado_103466" data-name="Trazado 103466" d="M801.534-63.82H736.691a7.421,7.421,0,0,1-7.422-7.42v-1.723H803.9Z" transform="translate(-723.019 212.245)" fill="#a69c3c" style="mix-blend-mode: multiply;isolation: isolate"/>
      <g id="Grupo_55985" data-name="Grupo 55985" transform="translate(48.07)">
        <g id="Grupo_55964" data-name="Grupo 55964" transform="translate(25.144 26.074)">
          <rect id="Rectángulo_5551" data-name="Rectángulo 5551" width="1.349" height="96.184" transform="translate(0 0.237) rotate(-10.126)" fill="#b3b170"/>
        </g>
        <g id="Grupo_55965" data-name="Grupo 55965" transform="translate(5.123 26.071)">
          <rect id="Rectángulo_5552" data-name="Rectángulo 5552" width="114.401" height="1.349" transform="translate(0 112.639) rotate(-79.931)" fill="#b3b170"/>
        </g>
        <g id="Grupo_55966" data-name="Grupo 55966" transform="translate(8.498 50.118)">
          <path id="Trazado_103467" data-name="Trazado 103467" d="M790.729-61.91H758.151L785.116-81.9H762.195l19.848-20.928H765.769l12.849-19.965h-7.55v-1.349h10.024l-12.849,19.965h16.939L765.333-83.249H789.2L762.237-63.26h28.492Z" transform="translate(-758.151 124.142)" fill="#b3b170"/>
        </g>
        <g id="Grupo_55967" data-name="Grupo 55967" transform="translate(23.983)">
          <path id="Trazado_103468" data-name="Trazado 103468" d="M767.04-151.57l1.353,15.344h1.042l1.255-15.344-1.825-1.34Z" transform="translate(-767.04 152.91)" fill="#e8dda8"/>
          <rect id="Rectángulo_5553" data-name="Rectángulo 5553" width="0.541" height="10.055" transform="translate(1.555 16.137)" fill="#7c7569"/>
        </g>
        <g id="Grupo_55968" data-name="Grupo 55968" transform="translate(25.554 1.582)">
          <path id="Trazado_103469" data-name="Trazado 103469" d="M773.68-151.368l-3.98,14.881.979.357,6.43-13.988L775.854-152Z" transform="translate(-766.635 152.002)" fill="#d7c769"/>
          <rect id="Rectángulo_5554" data-name="Rectángulo 5554" width="0.541" height="10.055" transform="translate(3.442 15.07) rotate(20.017)" fill="#7c7569"/>
        </g>
        <g id="Grupo_55969" data-name="Grupo 55969" transform="translate(25.602 5.988)">
          <path id="Trazado_103470" data-name="Trazado 103470" d="M780.222-149.473l-8.832,12.62.8.67,10.829-10.943-.536-2.2Z" transform="translate(-765.429 149.473)" fill="#e8dda8"/>
          <rect id="Rectángulo_5555" data-name="Rectángulo 5555" width="0.541" height="10.055" transform="matrix(0.766, 0.643, -0.643, 0.766, 6.466, 12.33)" fill="#7c7569"/>
        </g>
        <g id="Grupo_55970" data-name="Grupo 55970" transform="translate(25.673 12.2)">
          <path id="Trazado_103471" data-name="Trazado 103471" d="M785.3-145.907l-12.618,8.835.521.9,13.92-6.576.25-2.251Z" transform="translate(-764.543 145.907)" fill="#d7c769"/>
          <rect id="Rectángulo_5556" data-name="Rectángulo 5556" width="0.541" height="10.055" transform="translate(8.711 8.736) rotate(60.039)" fill="#7c7569"/>
        </g>
        <g id="Grupo_55971" data-name="Grupo 55971" transform="translate(25.762 20.102)">
          <path id="Trazado_103472" data-name="Trazado 103472" d="M788.3-141.371l-14.88,3.983.18,1.027,15.33-1.414,1-2.029Z" transform="translate(-764.086 141.371)" fill="#e8dda8"/>
          <rect id="Rectángulo_5557" data-name="Rectángulo 5557" width="0.541" height="10.055" transform="translate(9.904 4.087) rotate(80.058)" fill="#7c7569"/>
        </g>
        <g id="Grupo_55972" data-name="Grupo 55972" transform="translate(25.761 25.927)">
          <path id="Trazado_103473" data-name="Trazado 103473" d="M788.93-135.838l-15.345-1.35-.182,1.026,14.889,3.918,1.639-1.563Z" transform="translate(-764.094 138.651)" fill="#d7c769"/>
          <rect id="Rectángulo_5558" data-name="Rectángulo 5558" width="0.541" height="10.055" transform="translate(9.995 1.756) rotate(100.057)" fill="#7c7569"/>
        </g>
        <g id="Grupo_55973" data-name="Grupo 55973" transform="translate(25.673 25.958)">
          <path id="Trazado_103474" data-name="Trazado 103474" d="M787.124-128.855l-13.956-6.52-.522.9,12.649,8.777,2.075-.908Z" transform="translate(-764.569 139.967)" fill="#e8dda8"/>
          <rect id="Rectángulo_5559" data-name="Rectángulo 5559" width="0.541" height="10.055" transform="matrix(-0.501, 0.865, -0.865, -0.501, 8.971, 5.041)" fill="#7c7569"/>
        </g>
        <g id="Grupo_55974" data-name="Grupo 55974" transform="translate(25.601 26.019)">
          <path id="Trazado_103475" data-name="Trazado 103475" d="M783.018-122.96l-10.881-10.9-.8.669,8.881,12.576,2.26-.143Z" transform="translate(-765.468 141.028)" fill="#d7c769"/>
          <rect id="Rectángulo_5560" data-name="Rectángulo 5560" width="0.541" height="10.055" transform="matrix(-0.767, 0.641, -0.641, -0.767, 6.865, 7.714)" fill="#7c7569"/>
        </g>
        <g id="Grupo_55975" data-name="Grupo 55975" transform="translate(25.554 26.1)">
          <path id="Trazado_103476" data-name="Trazado 103476" d="M777.109-118.868l-6.493-13.968-.98.355,4.041,14.856,2.172.639Z" transform="translate(-766.683 141.708)" fill="#e8dda8"/>
          <rect id="Rectángulo_5561" data-name="Rectángulo 5561" width="0.541" height="10.055" transform="translate(3.93 9.455) rotate(160.11)" fill="#7c7569"/>
        </g>
        <g id="Grupo_55976" data-name="Grupo 55976" transform="translate(23.93 26.192)">
          <path id="Trazado_103477" data-name="Trazado 103477" d="M770.659-117.07l-1.32-15.347-1.042,0-1.288,15.342,1.822,1.344Z" transform="translate(-767.009 141.926)" fill="#d7c769"/>
          <rect id="Rectángulo_5562" data-name="Rectángulo 5562" width="0.541" height="10.055" transform="translate(2.127 10.056) rotate(-179.871)" fill="#7c7569"/>
        </g>
        <g id="Grupo_55977" data-name="Grupo 55977" transform="translate(15.539 26.099)">
          <path id="Trazado_103478" data-name="Trazado 103478" d="M765.62-117.634l4.012-14.872-.979-.359-6.461,13.974L763.445-117Z" transform="translate(-762.193 141.688)" fill="#e8dda8"/>
          <rect id="Rectángulo_5563" data-name="Rectángulo 5563" width="0.541" height="10.055" transform="translate(7.062 9.627) rotate(-159.865)" fill="#7c7569"/>
        </g>
        <g id="Grupo_55978" data-name="Grupo 55978" transform="translate(8.389 26.018)">
          <path id="Trazado_103479" data-name="Trazado 103479" d="M760.879-120.642l8.86-12.6-.8-.672L758.089-123l.531,2.2Z" transform="translate(-758.089 140.989)" fill="#d7c769"/>
          <rect id="Rectángulo_5564" data-name="Rectángulo 5564" width="0.541" height="10.055" transform="translate(11.143 8.034) rotate(-139.847)" fill="#7c7569"/>
        </g>
        <g id="Grupo_55979" data-name="Grupo 55979" transform="translate(3.088 25.958)">
          <path id="Trazado_103480" data-name="Trazado 103480" d="M757.116-125.732l12.637-8.808-.518-.9L755.3-128.9l-.254,2.25Z" transform="translate(-755.046 139.915)" fill="#e8dda8"/>
          <rect id="Rectángulo_5565" data-name="Rectángulo 5565" width="0.541" height="10.055" transform="matrix(-0.497, -0.867, 0.867, -0.497, 14.133, 5.471)" fill="#7c7569"/>
        </g>
        <g id="Grupo_55980" data-name="Grupo 55980" transform="translate(0 25.926)">
          <path id="Trazado_103481" data-name="Trazado 103481" d="M754.905-132.289l14.889-3.951-.178-1.027-15.333,1.381-1.009,2.027Z" transform="translate(-753.273 138.594)" fill="#d7c769"/>
          <rect id="Rectángulo_5566" data-name="Rectángulo 5566" width="0.541" height="10.055" transform="translate(15.947 2.249) rotate(-99.824)" fill="#7c7569"/>
        </g>
        <g id="Grupo_55981" data-name="Grupo 55981" transform="translate(0.029 19.999)">
          <path id="Trazado_103482" data-name="Trazado 103482" d="M754.286-137.838l15.342,1.383.184-1.026-14.88-3.95-1.642,1.559Z" transform="translate(-753.29 141.431)" fill="#e8dda8"/>
          <rect id="Rectángulo_5567" data-name="Rectángulo 5567" width="0.541" height="10.055" transform="translate(15.835 4.68) rotate(-79.797)" fill="#7c7569"/>
        </g>
        <g id="Grupo_55982" data-name="Grupo 55982" transform="translate(3.172 12.112)">
          <path id="Trazado_103483" data-name="Trazado 103483" d="M755.334-142.8l13.942,6.55.525-.9-12.63-8.8-2.077.9Z" transform="translate(-755.094 145.958)" fill="#d7c769"/>
          <rect id="Rectángulo_5568" data-name="Rectángulo 5568" width="0.541" height="10.055" transform="translate(13.81 9.256) rotate(-59.801)" fill="#7c7569"/>
        </g>
        <g id="Grupo_55983" data-name="Grupo 55983" transform="translate(8.504 5.926)">
          <path id="Trazado_103484" data-name="Trazado 103484" d="M758.154-147.173l10.858,10.926.8-.667-8.854-12.595-2.26.138Z" transform="translate(-758.154 149.509)" fill="#e8dda8"/>
          <rect id="Rectángulo_5569" data-name="Rectángulo 5569" width="0.541" height="10.055" transform="matrix(0.768, -0.64, 0.64, 0.768, 10.663, 12.713)" fill="#7c7569"/>
        </g>
        <g id="Grupo_55984" data-name="Grupo 55984" transform="translate(15.685 1.543)">
          <path id="Trazado_103485" data-name="Trazado 103485" d="M762.277-150.146l6.463,13.982.981-.353-4.009-14.864-2.171-.644Z" transform="translate(-762.277 152.024)" fill="#d7c769"/>
          <rect id="Rectángulo_5570" data-name="Rectángulo 5570" width="0.541" height="10.055" transform="translate(6.467 15.278) rotate(-19.773)" fill="#7c7569"/>
        </g>
        <circle id="Elipse_4069" data-name="Elipse 4069" cx="3.038" cy="3.038" r="3.038" transform="translate(22.771 23.155)" fill="#f9f8ee"/>
      </g>
      <path id="Trazado_103486" data-name="Trazado 103486" d="M860-41.222s5.791,8.625,17.7,2.927c8.4-4.021,2.965-14.753,2.965-14.753s18.037.963,18.037-24.033c0-29.3-12.051-26.316-12.051-26.316s2.134-17.106-9.481-21.392c0,0-.234-14.075-18.19-13.169-10.213.516-12.957,14.645-12.957,14.645s-14.653,3.819-14.653,16.957-.087,32.112,1.521,40.582,9.782,11.152,9.782,11.152-7.751,10.347,7.342,15.277C856.745-37.147,860-41.222,860-41.222Z" transform="translate(-647.242 163.976)" fill="#badb4c"/>
      <path id="Trazado_103487" data-name="Trazado 103487" d="M858.624-32.948l-1.235-37.268,16.094-19.168-17.045,14.9-4.183-51.774-2.186,51.774-8.775-2.652,8.982,5.644-1.64,38.547Z" transform="translate(-639.876 172.688)" fill="#845600"/>
      <path id="Trazado_103488" data-name="Trazado 103488" d="M898.014-93.627V-8.613H769.394V-93.627l1.862-1.417,6.544-4.978,8.3-6.328,6.544-4.979,1.916-1.457,6.287-10.389,6.543-10.807.256-.418,8.041-3.967,6.544-3.238,8.2-4.048,3.265-1.619,3.279,1.714,8.3,4.331,6.544,3.414,7.947,4.156.256.391,6.544,9.944,6.287,9.552,2.01,1.606,6.544,5.248,8.2,6.557,6.544,5.248Z" transform="translate(-693.239 157.095)" fill="#ea3e31"/>
      <g id="Grupo_55986" data-name="Grupo 55986" transform="translate(78.017 9.824)">
        <path id="Trazado_103489" data-name="Trazado 103489" d="M836.475-121.872v20.265h-6.544V-127.12Z" transform="translate(-726.326 162.227)" fill="#fa493c"/>
        <path id="Trazado_103490" data-name="Trazado 103490" d="M844.94-115.1v8.46H838.4v-13.708Z" transform="translate(-720.044 167.256)" fill="#fa493c"/>
        <path id="Trazado_103491" data-name="Trazado 103491" d="M819.492-140.388v51.162h-6.544V-143.8Z" transform="translate(-738.931 149.846)" fill="#fa493c"/>
        <path id="Trazado_103492" data-name="Trazado 103492" d="M827.957-129.289v36.671h-6.544v-46.615Z" transform="translate(-732.649 153.237)" fill="#fa493c"/>
        <path id="Trazado_103493" data-name="Trazado 103493" d="M802.509-144.018v54.953h-6.544V-140.78Z" transform="translate(-751.536 149.685)" fill="#fa493c"/>
        <path id="Trazado_103494" data-name="Trazado 103494" d="M810.973-145.557v58.906H804.43v-59l3.265-1.619Z" transform="translate(-745.254 147.271)" fill="#fa493c"/>
        <path id="Trazado_103495" data-name="Trazado 103495" d="M785.525-126.64v24.677h-6.544v-19.7Z" transform="translate(-764.14 162.583)" fill="#fa493c"/>
        <path id="Trazado_103496" data-name="Trazado 103496" d="M793.99-139.643v47.33h-6.544v-36.523Z" transform="translate(-757.858 152.933)" fill="#fa493c"/>
        <path id="Trazado_103497" data-name="Trazado 103497" d="M777.007-120.15v13.37h-6.544v-8.392Z" transform="translate(-770.463 167.399)" fill="#fa493c"/>
      </g>
      <g id="Grupo_55987" data-name="Grupo 55987" transform="translate(82.339 70.758)">
        <rect id="Rectángulo_5571" data-name="Rectángulo 5571" width="6.093" height="77.726" transform="translate(96.431)" fill="#fa493c"/>
        <rect id="Rectángulo_5572" data-name="Rectángulo 5572" width="6.093" height="77.726" transform="translate(110.158 0)" fill="#fa493c"/>
        <rect id="Rectángulo_5573" data-name="Rectángulo 5573" width="6.093" height="77.726" transform="translate(68.891)" fill="#fa493c"/>
        <rect id="Rectángulo_5574" data-name="Rectángulo 5574" width="6.093" height="77.726" transform="translate(82.619 0)" fill="#fa493c"/>
        <rect id="Rectángulo_5575" data-name="Rectángulo 5575" width="6.093" height="77.726" transform="translate(41.351)" fill="#fa493c"/>
        <rect id="Rectángulo_5576" data-name="Rectángulo 5576" width="6.093" height="77.726" transform="translate(55.079 0)" fill="#fa493c"/>
        <rect id="Rectángulo_5577" data-name="Rectángulo 5577" width="6.093" height="77.726" transform="translate(13.812)" fill="#fa493c"/>
        <rect id="Rectángulo_5578" data-name="Rectángulo 5578" width="6.093" height="77.726" transform="translate(27.54 0)" fill="#fa493c"/>
        <rect id="Rectángulo_5579" data-name="Rectángulo 5579" width="6.093" height="77.726" transform="translate(0 0)" fill="#fa493c"/>
      </g>
      <path id="Trazado_103498" data-name="Trazado 103498" d="M770.749-85.3v30.638h7.758l3.527-5.99Z" transform="translate(-692.233 203.088)" fill="#d68175" style="mix-blend-mode: multiply;isolation: isolate"/>
      <path id="Trazado_103499" data-name="Trazado 103499" d="M779.111-93.125l13.353-8.116,20.6-28.6,19.708-9.381,20,9.381,18.039,27.816,15.906,8.9V-98.3l-11.52-7.953L856.387-133.6l-23.473-11.391L809.442-133.6l-18.806,27.338L770.457-92.333Z" transform="translate(-692.45 158.79)" fill="#d68175" style="mix-blend-mode: multiply;isolation: isolate"/>
      <path id="Trazado_103500" data-name="Trazado 103500" d="M898.006-115.218H769.4v5.092H898.006Z" transform="translate(-693.237 180.884)" fill="#f9f8ee"/>
      <path id="Trazado_103501" data-name="Trazado 103501" d="M761.373-84.51l32.383-24.122L812.029-134.9l27.627-14.473v7.639l-23.473,11.391L797.377-103,764.589-80.377Z" transform="translate(-699.192 155.536)" fill="#f3f1de"/>
      <path id="Trazado_103502" data-name="Trazado 103502" d="M884.591-84.51l-32.383-24.122L833.934-134.9l-27.627-14.473v7.639l23.473,11.391L848.586-103l32.788,22.626Z" transform="translate(-665.843 155.536)" fill="#f9f8ee"/>
      <path id="Trazado_103503" data-name="Trazado 103503" d="M824.435-136.295H805.1L794.911-124.58v14.551H834.62V-124.58Z" transform="translate(-674.301 165.241)" fill="#6a463a"/>
      <path id="Trazado_103504" data-name="Trazado 103504" d="M802.612-141.863v2.639h12.581v-2.639l-6.144-3.124Z" transform="translate(-668.585 158.79)" fill="#ee8469"/>
      <path id="Trazado_103505" data-name="Trazado 103505" d="M797.552-139.457v5.508h-6.2l2.581-3.752Z" transform="translate(-676.942 162.895)" fill="#ee8469"/>
      <path id="Trazado_103506" data-name="Trazado 103506" d="M817.7-139.457v5.508h6.2l-2.581-3.752Z" transform="translate(-657.385 162.895)" fill="#ee8469"/>
      <path id="Trazado_103507" data-name="Trazado 103507" d="M770.457-112.22h8.653v-5.971Z" transform="translate(-692.45 178.677)" fill="#ee8469"/>
      <path id="Trazado_103508" data-name="Trazado 103508" d="M845.841-112.22h-8.653v-5.971Z" transform="translate(-642.924 178.677)" fill="#ee8469"/>
      <rect id="Rectángulo_5580" data-name="Rectángulo 5580" width="80.901" height="69.328" transform="translate(100.014 79.156)" fill="#6a463a"/>
      <rect id="Rectángulo_5581" data-name="Rectángulo 5581" width="37.255" height="69.328" transform="translate(143.66 79.156)" fill="#f9f8ee"/>
      <rect id="Rectángulo_5582" data-name="Rectángulo 5582" width="32.435" height="60.35" transform="translate(148.486 83.639)" fill="#a91000"/>
      <rect id="Rectángulo_5583" data-name="Rectángulo 5583" width="28.074" height="55.639" transform="translate(148.484 88.357)" fill="#d3291b"/>
      <g id="Grupo_55988" data-name="Grupo 55988" transform="translate(150.307 83.639)">
        <rect id="Rectángulo_5584" data-name="Rectángulo 5584" width="5.086" height="60.35" transform="translate(11.522)" fill="#fa493c"/>
        <rect id="Rectángulo_5585" data-name="Rectángulo 5585" width="5.086" height="60.35" transform="translate(22.99)" fill="#fa493c"/>
        <rect id="Rectángulo_5586" data-name="Rectángulo 5586" width="5.086" height="60.35" fill="#fa493c"/>
      </g>
      <path id="Trazado_103509" data-name="Trazado 103509" d="M810.912-104.9v4.718h28.073v55.632h4.362V-104.9Z" transform="translate(-662.426 188.541)" fill="#d6b3c1" style="mix-blend-mode: multiply;isolation: isolate"/>
      <path id="Trazado_103510" data-name="Trazado 103510" d="M843.346-51.256v5.532h-2.2L810.912-95.685v-7.636h1.066Z" transform="translate(-662.426 189.713)" fill="#a91000"/>
      <path id="Trazado_103511" data-name="Trazado 103511" d="M810.911-100.9l32.431,53.6v-5.539L811.983-104.9h-1.072Z" transform="translate(-662.426 188.543)" fill="#f9f8ee"/>
      <path id="Rectángulo_5587" data-name="Rectángulo 5587" d="M0,0H9.292A11.573,11.573,0,0,1,20.864,11.573V36.808a0,0,0,0,1,0,0H0a0,0,0,0,1,0,0V0A0,0,0,0,1,0,0Z" transform="translate(100.014 111.676)" fill="#c26100"/>
      <rect id="Rectángulo_5588" data-name="Rectángulo 5588" width="0.917" height="20.864" transform="translate(100.014 130.539) rotate(-90)" fill="#723d4c"/>
      <rect id="Rectángulo_5589" data-name="Rectángulo 5589" width="22.041" height="18.404" rx="5.104" transform="translate(114.702 130.08)" fill="#de8200"/>
      <rect id="Rectángulo_5590" data-name="Rectángulo 5590" width="0.917" height="18.404" transform="translate(125.264 130.08)" fill="#6d424c"/>
      <rect id="Rectángulo_5591" data-name="Rectángulo 5591" width="0.917" height="22.041" transform="translate(114.702 139.741) rotate(-90)" fill="#6d424c"/>
      <rect id="Rectángulo_5592" data-name="Rectángulo 5592" width="0.917" height="36.808" transform="translate(104.193 148.484) rotate(180)" fill="#72424c"/>
      <ellipse id="Elipse_4070" data-name="Elipse 4070" cx="18.404" cy="18.404" rx="18.404" ry="18.404" transform="translate(39.351 80.978)" fill="#fbc724"/>
      <circle id="Elipse_4071" data-name="Elipse 4071" cx="16.554" cy="16.554" r="16.554" transform="translate(41.202 82.829)" fill="#fbe64b"/>
      <circle id="Elipse_4072" data-name="Elipse 4072" cx="18.404" cy="18.404" r="18.404" transform="translate(14.179 130.08) rotate(-45)" fill="#fbc724"/>
      <circle id="Elipse_4073" data-name="Elipse 4073" cx="16.554" cy="16.554" r="16.554" transform="translate(16.796 130.08) rotate(-45)" fill="#fbe64b"/>
      <circle id="Elipse_4074" data-name="Elipse 4074" cx="18.404" cy="18.404" r="18.404" transform="translate(54.019 143.763) rotate(-76.718)" fill="#fbc724"/>
      <ellipse id="Elipse_4075" data-name="Elipse 4075" cx="16.554" cy="16.554" rx="16.554" ry="16.554" transform="translate(56.246 142.387) rotate(-76.718)" fill="#fbe64b"/>
      <g id="Grupo_55989" data-name="Grupo 55989" transform="translate(66.742 121.647)">
        <path id="Trazado_103512" data-name="Trazado 103512" d="M775.141-62.9a11.162,11.162,0,0,1-11.15-11.15,9.047,9.047,0,0,1,9.038-9.037,7.356,7.356,0,0,1,7.347,7.347,6,6,0,0,1-5.995,5.995,4.92,4.92,0,0,1-4.915-4.913,4.055,4.055,0,0,1,4.049-4.049,3.36,3.36,0,0,1,3.355,3.355,2.806,2.806,0,0,1-2.8,2.8,2.362,2.362,0,0,1-2.359-2.359h1.172a1.186,1.186,0,0,0,1.187,1.185A1.631,1.631,0,0,0,775.7-75.35a2.184,2.184,0,0,0-2.183-2.181,2.879,2.879,0,0,0-2.876,2.875,3.746,3.746,0,0,0,3.742,3.74,4.827,4.827,0,0,0,4.821-4.822,6.18,6.18,0,0,0-6.172-6.174,7.874,7.874,0,0,0-7.866,7.864,9.988,9.988,0,0,0,9.977,9.977A12.632,12.632,0,0,0,787.76-76.689v-.585h3.915V-76.1H788.92A13.808,13.808,0,0,1,775.141-62.9Z" transform="translate(-763.991 83.085)" fill="#f9cc00"/>
      </g>
      <g id="Grupo_55990" data-name="Grupo 55990" transform="translate(31.537 111.895)">
        <path id="Trazado_103513" data-name="Trazado 103513" d="M753.421-60.766a11.06,11.06,0,0,1-3.188-.47,9.048,9.048,0,0,1-6.07-11.247,7.354,7.354,0,0,1,9.145-4.934,6,6,0,0,1,4.024,7.462,4.879,4.879,0,0,1-2.373,2.916,4.876,4.876,0,0,1-3.74.383A4.051,4.051,0,0,1,748.5-71.7a3.33,3.33,0,0,1,1.62-1.991,3.334,3.334,0,0,1,2.556-.261,2.8,2.8,0,0,1,1.88,3.486,2.358,2.358,0,0,1-2.934,1.584L751.959-70a1.184,1.184,0,0,0,1.476-.8,1.631,1.631,0,0,0-1.094-2.028,2.18,2.18,0,0,0-1.664.171,2.176,2.176,0,0,0-1.054,1.3,2.88,2.88,0,0,0,1.932,3.578,3.71,3.71,0,0,0,2.847-.293,3.713,3.713,0,0,0,1.808-2.22,4.829,4.829,0,0,0-3.239-6,6.183,6.183,0,0,0-7.685,4.146,7.875,7.875,0,0,0,5.282,9.789,9.988,9.988,0,0,0,12.418-6.7,12.635,12.635,0,0,0-8.476-15.706l-.561-.167,1.122-3.751,1.122.336-.789,2.639a13.808,13.808,0,0,1,8.7,16.983A11.172,11.172,0,0,1,753.421-60.766Z" transform="translate(-743.783 88.683)" fill="#f9cc00"/>
      </g>
      <g id="Grupo_55991" data-name="Grupo 55991" transform="translate(39.324 91.266)">
        <path id="Trazado_103514" data-name="Trazado 103514" d="M764.781-80.235a13.69,13.69,0,0,1-9.27-3.594A13.7,13.7,0,0,1,751.06-92.8l-2.751.129-.056-1.171,3.911-.183.028.585A12.525,12.525,0,0,0,756.3-84.7a12.482,12.482,0,0,0,9.085,3.275,9.987,9.987,0,0,0,9.5-10.432,7.87,7.87,0,0,0-8.223-7.49,6.183,6.183,0,0,0-5.88,6.456,4.792,4.792,0,0,0,1.57,3.34,4.782,4.782,0,0,0,3.472,1.253,3.72,3.72,0,0,0,2.592-1.218,3.715,3.715,0,0,0,.97-2.693,2.866,2.866,0,0,0-.936-1.991,2.882,2.882,0,0,0-2.071-.747A2.187,2.187,0,0,0,764.3-92.66a1.626,1.626,0,0,0,1.7,1.551,1.187,1.187,0,0,0,1.129-1.24l1.172-.054a2.363,2.363,0,0,1-2.247,2.465,2.8,2.8,0,0,1-2.928-2.667,3.36,3.36,0,0,1,3.2-3.509,4.074,4.074,0,0,1,2.914,1.051,4.03,4.03,0,0,1,1.317,2.8,4.883,4.883,0,0,1-1.275,3.537,4.879,4.879,0,0,1-3.4,1.6,5.964,5.964,0,0,1-4.315-1.556,5.959,5.959,0,0,1-1.951-4.152,7.357,7.357,0,0,1,6.995-7.683,9.038,9.038,0,0,1,9.449,8.6,11.072,11.072,0,0,1-2.894,8.028,11.063,11.063,0,0,1-7.723,3.631C765.22-80.24,765-80.235,764.781-80.235Z" transform="translate(-748.253 100.524)" fill="#f9cc00"/>
      </g>
      <rect id="Rectángulo_5593" data-name="Rectángulo 5593" width="128.609" height="6.044" transform="translate(76.16 70.758)" fill="#d68175" style="mix-blend-mode: multiply;isolation: isolate"/>
    </g>
    <g id="Grupo_55993" data-name="Grupo 55993" transform="translate(33.119 149.006)">
      <rect id="Rectángulo_5594" data-name="Rectángulo 5594" width="12.107" height="2.852" rx="0.819" transform="translate(192.611 11.623)" fill="#f2c911"/>
      <rect id="Rectángulo_5595" data-name="Rectángulo 5595" width="12.106" height="2.852" rx="0.819" transform="translate(148.351 7.305)" fill="#f2c911"/>
      <rect id="Rectángulo_5596" data-name="Rectángulo 5596" width="14.533" height="2.852" rx="0.819" transform="translate(174.717 8.731)" fill="#f2c911"/>
      <rect id="Rectángulo_5597" data-name="Rectángulo 5597" width="12.106" height="2.852" rx="0.819" transform="translate(164.301 2.704)" fill="#f2c911"/>
      <rect id="Rectángulo_5598" data-name="Rectángulo 5598" width="12.107" height="2.852" rx="0.819" transform="translate(102.154 5.556)" fill="#f2c911"/>
      <rect id="Rectángulo_5599" data-name="Rectángulo 5599" width="12.107" height="2.852" rx="0.819" transform="translate(196.577 2.852)" fill="#f2c911"/>
      <rect id="Rectángulo_5600" data-name="Rectángulo 5600" width="12.106" height="2.852" rx="0.819" transform="translate(137.19 2.852)" fill="#f2c911"/>
      <rect id="Rectángulo_5601" data-name="Rectángulo 5601" width="12.107" height="2.852" rx="0.819" transform="translate(81.559 4.13)" fill="#f2c911"/>
      <rect id="Rectángulo_5602" data-name="Rectángulo 5602" width="12.106" height="2.852" rx="0.819" transform="translate(0 6.445)" fill="#f2c911"/>
      <rect id="Rectángulo_5603" data-name="Rectángulo 5603" width="20.064" height="2.852" rx="0.819" transform="translate(65.512 11.623)" fill="#f2c911"/>
      <rect id="Rectángulo_5604" data-name="Rectángulo 5604" width="20.064" height="2.852" rx="0.819" transform="translate(54.766 1.426)" fill="#f2c911"/>
      <rect id="Rectángulo_5605" data-name="Rectángulo 5605" width="23.617" height="2.852" rx="0.819" transform="translate(115.99 10.196)" fill="#f2c911"/>
      <rect id="Rectángulo_5606" data-name="Rectángulo 5606" width="18.581" height="2.852" rx="0.819" transform="translate(40.879 8.77)" fill="#f2c911"/>
      <rect id="Rectángulo_5607" data-name="Rectángulo 5607" width="23.617" height="2.852" rx="0.819" transform="translate(7.674 11.623)" fill="#f2c911"/>
      <rect id="Rectángulo_5608" data-name="Rectángulo 5608" width="6.722" height="2.852" rx="0.819" transform="translate(185.889)" fill="#f2c911"/>
      <rect id="Rectángulo_5609" data-name="Rectángulo 5609" width="6.722" height="2.852" rx="0.819" transform="translate(163.134 11.623)" fill="#f2c911"/>
      <rect id="Rectángulo_5610" data-name="Rectángulo 5610" width="6.722" height="2.852" rx="0.819" transform="translate(98.368 11.623)" fill="#f2c911"/>
      <rect id="Rectángulo_5611" data-name="Rectángulo 5611" width="6.722" height="2.852" rx="0.819" transform="translate(29.572 5.019)" fill="#f2c911"/>
    </g>
  </g>
  <g id="Grupo_56005" data-name="Grupo 56005" transform="translate(0 0)">
    <g id="Grupo_55995" data-name="Grupo 55995" transform="translate(297.375 69.965)">
      <path id="Trazado_103515" data-name="Trazado 103515" d="M898.189-112.134c-1.1.956-.908,2.789-.1,4q-1.476-1.035-3.047-1.916-.781-.442-1.585-.843a1.942,1.942,0,0,0-.756-.253,1.371,1.371,0,0,0-1.272,1.157,4.018,4.018,0,0,0,.2,1.841c-2.669-2.38-3.528-5.735-5.084-8.955-1.448-3-4.162-5.155-6.787-7.2a3.537,3.537,0,0,0,2.965-.253,2.64,2.64,0,0,0,.777-2,8.127,8.127,0,0,0-1.587-5.148,8.828,8.828,0,0,0,2.117,1.183,1.7,1.7,0,0,0,.594.145.665.665,0,0,0,.1-.005,1.542,1.542,0,0,0,.807-.443,11.614,11.614,0,0,0,2.521-3.136,11.447,11.447,0,0,0,.861-1.986,18.552,18.552,0,0,1-.2,2.822,2.809,2.809,0,0,0,.967,2.53,3.563,3.563,0,0,0,2.793.106,4.383,4.383,0,0,0-.958,1.646.991.991,0,0,0-.054.544.871.871,0,0,0,.566.54,3.236,3.236,0,0,0,2.122-.1,11.507,11.507,0,0,0,5.284-3.5,4.547,4.547,0,0,0-.495,2.185,1.081,1.081,0,0,0,.164.627,1.185,1.185,0,0,0,.949.341,13.926,13.926,0,0,0,6.779-1.5,10.927,10.927,0,0,0-4.122,4.3.77.77,0,0,0-.124.42.722.722,0,0,0,.406.5,6.474,6.474,0,0,0,2.331.7c-2.5.707-5.141,1.5-6.911,3.406-.324.35-.61.922-.275,1.261a.929.929,0,0,0,.465.213,4.426,4.426,0,0,0,1.624.052,1.915,1.915,0,0,0-.949,2.906,3.429,3.429,0,0,0,1.183.829,25.339,25.339,0,0,0,4.127,1.613,12.451,12.451,0,0,0-3.638.274,12.207,12.207,0,0,0-1.627.484A3.62,3.62,0,0,0,898.189-112.134Z" transform="translate(-878.569 135.946)" fill="#dc491f"/>
      <path id="Trazado_103516" data-name="Trazado 103516" d="M895.046-111.856q-.781-.442-1.585-.843a1.942,1.942,0,0,0-.756-.253,1.371,1.371,0,0,0-1.272,1.157,4.018,4.018,0,0,0,.2,1.841c-2.669-2.38-3.528-5.735-5.084-8.955-1.448-3-4.162-5.155-6.787-7.2a3.537,3.537,0,0,0,2.965-.253,2.64,2.64,0,0,0,.777-2,8.127,8.127,0,0,0-1.587-5.148,8.827,8.827,0,0,0,2.117,1.183,1.7,1.7,0,0,0,.594.145,7.607,7.607,0,0,0,1.931,4.345,2.444,2.444,0,0,0-1.66,2.821,4.92,4.92,0,0,0,2.021,2.9,6.136,6.136,0,0,0,4.329,1.46,3.353,3.353,0,0,0-.958,1.834,2.627,2.627,0,0,0,1.066,2.012,5.837,5.837,0,0,0,4.1,1.389A3.649,3.649,0,0,0,895.046-111.856Z" transform="translate(-878.569 137.753)" fill="#bd3211"/>
      <path id="Trazado_103517" data-name="Trazado 103517" d="M898.845-117.341a8.546,8.546,0,0,0-2.855-1.207l-.409-.145a4.51,4.51,0,0,0,1.624-1.26.09.09,0,0,0-.112-.132c-.469.211-.9.507-1.35.761-.254.146-.517.273-.768.418-.629-.219-1.259-.439-1.887-.66-.589-.207-1.178-.429-1.766-.652.321-.057.639-.122.955-.179a8.088,8.088,0,0,0,2.113-.451.1.1,0,0,0-.033-.185,8.48,8.48,0,0,0-2.255.328c-.465.084-.941.153-1.409.251-.965-.362-1.936-.718-2.915-1.01q1.458-.891,2.922-1.774c.2-.118.394-.235.591-.352,1,.31,2.007.615,3.016.9a14.778,14.778,0,0,0,2.974.711.158.158,0,0,0,.068-.3,18.461,18.461,0,0,0-2.977-.915q-1.252-.358-2.5-.74,1.273-.747,2.559-1.467a5.512,5.512,0,0,0,1.882.495,5.129,5.129,0,0,0,2.408.092.079.079,0,0,0-.007-.145,15.646,15.646,0,0,0-2.266-.275,11.849,11.849,0,0,1-1.319-.3c-.1-.028-.2-.063-.286-.092q.682-.379,1.371-.746c.915-.488,1.854-.93,2.777-1.4.462-.239.937-.443,1.408-.664.549-.258,1.017-.608,1.54-.906a.056.056,0,0,0-.047-.1,17.277,17.277,0,0,0-1.662.639c-.464.237-.916.488-1.383.716-.432.209-.857.429-1.282.65a7.113,7.113,0,0,0,1.124-2.031.038.038,0,0,0-.066-.035,9.707,9.707,0,0,0-.791,1.213c-.237.371-.5.726-.737,1.1q-.507.267-1.016.528c-.685.348-1.366.7-2.049,1.051.157-.159.289-.355.432-.521.35-.406.686-.821,1.024-1.239a15.123,15.123,0,0,0,1.981-2.552c.047-.1-.082-.157-.153-.11a12.418,12.418,0,0,0-2.145,2.294c-.348.408-.7.814-1.021,1.24-.258.338-.655.673-.639,1.118a.049.049,0,0,0,.01.031q-1.377.713-2.749,1.439.6-.784,1.227-1.544c.7-.843,1.491-1.631,2.125-2.526A.082.082,0,0,0,894-128.1a14.564,14.564,0,0,0-2.234,2.34c-.594.72-1.159,1.46-1.7,2.216q-1.385.745-2.747,1.531c.016-.073.03-.148.042-.221a.13.13,0,0,0,.005-.037c.08-.491.108-1.009.164-1.465.368-.328.707-.688,1.084-1.009a15.219,15.219,0,0,1,1.608-1.206c.068-.044,0-.155-.075-.12a8.66,8.66,0,0,0-2.545,1.76c.059-.467.115-.934.162-1.4.707-.521,1.4-1.057,2.075-1.622a16.345,16.345,0,0,0,1.957-1.709c.021-.024-.012-.064-.042-.049a16.3,16.3,0,0,0-2.1,1.526c-.634.479-1.247.977-1.85,1.491l.037-.389c.094-1.064.193-2.125.261-3.188.228-.253.441-.521.674-.76a13.371,13.371,0,0,1,1.221-1.089c.057-.045-.014-.131-.072-.087a11.523,11.523,0,0,0-1.8,1.552c.033-.6.057-1.206.063-1.812a.056.056,0,0,0-.111-.009c-.087.728-.162,1.456-.239,2.186a3.055,3.055,0,0,0-.242.4c-.019.038.035.071.064.047.049-.042.1-.084.145-.127-.038.366-.077.733-.117,1.1a16.266,16.266,0,0,0-.873-1.559,12.859,12.859,0,0,0-1.216-1.833.079.079,0,0,0-.131.084,12.884,12.884,0,0,0,1.1,1.906,15.021,15.021,0,0,0,1.1,1.6c-.059.519-.122,1.037-.2,1.554-.122.873-.251,1.744-.373,2.615-.012.078-.024.159-.04.239a5.035,5.035,0,0,0-1.152-1.01c-.561-.434-1.138-.836-1.737-1.22-.066-.042-.165.047-.1.108.462.444.932.873,1.43,1.277a5,5,0,0,0,1.519,1.054l0,0c-.04.206-.084.416-.125.627-.1-.075-.193-.148-.289-.223l-.9-.716c-.134-.1-.279.106-.153.213l.882.749c.132.113.263.233.4.34a5.086,5.086,0,0,0-.07.753c-2.551,1.488-5.049,3.066-7.512,4.69-.45.3.089.951.535.65,2.38-1.608,4.8-3.146,7.247-4.652.756.315,1.554.561,2.34.815a1.068,1.068,0,0,0,.1.561c.172.34.362.676.552,1.005a11.039,11.039,0,0,0,1.2,1.739c.068.08.172,0,.145-.091a10.929,10.929,0,0,0-.883-1.984c-.166-.3-.336-.6-.507-.9a.974.974,0,0,0-.118-.169l.11.035q1.393.47,2.786.941a18.714,18.714,0,0,0,1.551,1.991c.564.716,1.092,1.47,1.7,2.153a.079.079,0,0,0,.131-.084,13.8,13.8,0,0,0-1.425-2.258,15.26,15.26,0,0,0-1.237-1.559l1.012.345a.1.1,0,0,0,.1.052l.037,0,1.24.423a.046.046,0,0,0-.007.058,23.382,23.382,0,0,0,1.357,2.1c.026.038.092,0,.07-.044-.42-.7-.817-1.422-1.3-2.071l.04.014a7.828,7.828,0,0,0,2.8.739C898.889-117.2,898.891-117.3,898.845-117.341Z" transform="translate(-879.075 138.943)" fill="#7c520b"/>
    </g>
    <g id="Grupo_55996" data-name="Grupo 55996" transform="translate(46.037 72.911)">
      <path id="Trazado_103518" data-name="Trazado 103518" d="M763.284-113.37c-.125,1.634,1.474,2.949,3.08,3.279q-2,.337-3.951.871-.975.261-1.936.577a2.177,2.177,0,0,0-.8.394,1.542,1.542,0,0,0-.106,1.929,4.483,4.483,0,0,0,1.61,1.321c-4.016.2-7.35-1.807-11.138-3.157-3.526-1.258-7.4-.841-11.119-.409a3.978,3.978,0,0,0,2.176-2.542,2.968,2.968,0,0,0-.956-2.214,9.139,9.139,0,0,0-5.333-2.869,9.909,9.909,0,0,0,2.627-.725,1.9,1.9,0,0,0,.589-.352.91.91,0,0,0,.08-.085,1.735,1.735,0,0,0,.294-.99,13.042,13.042,0,0,0-.456-4.5,12.956,12.956,0,0,0-.876-2.27,21.016,21.016,0,0,1,2.064,2.42,3.164,3.164,0,0,0,2.772,1.261c1.061-.2,1.749-1.2,2.32-2.118a4.917,4.917,0,0,0,.532,2.075,1.117,1.117,0,0,0,.385.477.985.985,0,0,0,.88-.016,3.636,3.636,0,0,0,1.62-1.756,12.935,12.935,0,0,0,1.469-6.97,5.144,5.144,0,0,0,1.328,2.139,1.232,1.232,0,0,0,.627.375,1.343,1.343,0,0,0,1.03-.477,15.651,15.651,0,0,0,4.244-6.549,12.292,12.292,0,0,0,.1,6.7.871.871,0,0,0,.232.434.816.816,0,0,0,.72.08,7.3,7.3,0,0,0,2.418-1.282c-1.448,2.544-2.936,5.258-2.845,8.183.016.537.239,1.218.774,1.227a1.037,1.037,0,0,0,.54-.2,4.975,4.975,0,0,0,1.342-1.24,2.153,2.153,0,0,0,1.535,3.077,3.819,3.819,0,0,0,1.6-.27,28.551,28.551,0,0,0,4.578-1.965,13.961,13.961,0,0,0-2.7,3.091,13.93,13.93,0,0,0-.922,1.671A4.054,4.054,0,0,0,763.284-113.37Z" transform="translate(-734.808 134.255)" fill="#dc491f"/>
      <path id="Trazado_103519" data-name="Trazado 103519" d="M762.413-116.456q-.975.261-1.936.577a2.177,2.177,0,0,0-.8.394,1.541,1.541,0,0,0-.106,1.929,4.483,4.483,0,0,0,1.61,1.321c-4.016.2-7.35-1.807-11.138-3.157-3.526-1.258-7.4-.841-11.119-.409a3.978,3.978,0,0,0,2.176-2.542,2.968,2.968,0,0,0-.956-2.214,9.139,9.139,0,0,0-5.333-2.869,9.91,9.91,0,0,0,2.627-.725,1.9,1.9,0,0,0,.589-.352A8.571,8.571,0,0,0,743-122.549a2.745,2.745,0,0,0,.9,3.568,5.539,5.539,0,0,0,3.908.73,6.909,6.909,0,0,0,4.62-2.247,3.774,3.774,0,0,0,.681,2.225,2.947,2.947,0,0,0,2.441.768,6.563,6.563,0,0,0,4.38-2.125A4.1,4.1,0,0,0,762.413-116.456Z" transform="translate(-734.808 141.491)" fill="#bd3211"/>
      <path id="Trazado_103520" data-name="Trazado 103520" d="M759.588-118.178a9.605,9.605,0,0,0-3.239,1.286l-.443.209a5.045,5.045,0,0,0,.307-2.289.1.1,0,0,0-.2-.021c-.207.54-.322,1.12-.479,1.678-.089.315-.2.625-.286.941q-1.014.481-2.031.96c-.634.3-1.28.585-1.929.873.211-.3.416-.6.624-.9a9.038,9.038,0,0,0,1.335-2.03.109.109,0,0,0-.171-.122,9.464,9.464,0,0,0-1.547,2.042c-.307.434-.632.866-.93,1.314-1.059.47-2.117.951-3.131,1.491q.463-1.866.939-3.727c.063-.249.129-.5.193-.747q1.573-.813,3.127-1.659a16.468,16.468,0,0,0,2.941-1.779.177.177,0,0,0-.185-.3,20.786,20.786,0,0,0-3.1,1.617q-1.286.7-2.584,1.38.426-1.6.89-3.2a6.215,6.215,0,0,0,1.9-1.087,5.762,5.762,0,0,0,2-1.828c.035-.068-.054-.143-.119-.11a17.66,17.66,0,0,0-2.031,1.568,13.325,13.325,0,0,1-1.3.8c-.1.056-.206.1-.3.152q.248-.841.51-1.679c.349-1.113.749-2.209,1.115-3.317.183-.554.4-1.092.6-1.641.235-.639.335-1.289.519-1.941a.063.063,0,0,0-.119-.045,19.75,19.75,0,0,0-.826,1.826c-.185.554-.349,1.113-.544,1.664-.181.509-.349,1.021-.512,1.531a7.97,7.97,0,0,0-.7-2.512.043.043,0,0,0-.08.024,10.726,10.726,0,0,0,.324,1.594c.1.486.172.977.277,1.462-.131.409-.261.817-.4,1.225q-.408,1.228-.81,2.458c0-.251-.051-.512-.066-.758-.038-.6-.1-1.2-.155-1.8a17.18,17.18,0,0,0-.43-3.608c-.036-.113-.19-.061-.209.033a13.931,13.931,0,0,0,.094,3.53c.042.6.085,1.2.16,1.8.061.474.007,1.056.371,1.4a.059.059,0,0,0,.033.016q-.541,1.659-1.064,3.322-.141-1.1-.237-2.2c-.1-1.23-.092-2.483-.291-3.7a.093.093,0,0,0-.183.005,16.372,16.372,0,0,0,.057,3.636c.092,1.044.225,2.082.387,3.117q-.52,1.691-.993,3.394c-.044-.07-.092-.141-.141-.211a.11.11,0,0,0-.024-.033c-.324-.456-.709-.89-1.024-1.3.037-.552.023-1.108.073-1.662a16.965,16.965,0,0,1,.334-2.235c.021-.089-.124-.12-.153-.037a9.686,9.686,0,0,0-.65,3.416q-.481-.63-.977-1.247c.157-.977.286-1.953.381-2.937a18.374,18.374,0,0,0,.218-2.911c0-.038-.061-.042-.071-.007a18.235,18.235,0,0,0-.481,2.882c-.129.885-.227,1.768-.3,2.657-.092-.115-.185-.228-.277-.341-.765-.927-1.523-1.854-2.307-2.76-.016-.38-.057-.763-.059-1.139a14.7,14.7,0,0,1,.119-1.836.063.063,0,0,0-.125-.014,13.011,13.011,0,0,0-.218,2.666c-.448-.51-.9-1.012-1.378-1.5a.063.063,0,0,0-.1.082c.5.65,1.019,1.294,1.533,1.937a3.579,3.579,0,0,0,.124.514c.014.045.084.028.087-.014.007-.071.012-.145.016-.216.26.324.517.646.773.972a17.939,17.939,0,0,0-1.928-.559,14.316,14.316,0,0,0-2.418-.507.088.088,0,0,0-.04.169,14.432,14.432,0,0,0,2.381.662,16.91,16.91,0,0,0,2.146.413c.362.462.721.927,1.072,1.4.59.794,1.174,1.592,1.763,2.389.052.071.106.146.158.221a5.654,5.654,0,0,0-1.719.1c-.793.094-1.573.228-2.354.394-.087.019-.1.167,0,.167.721-.01,1.436-.037,2.153-.108a5.621,5.621,0,0,0,2.047-.355l.005,0c.129.2.259.4.4.6-.136.014-.274.033-.408.049l-1.289.139c-.188.021-.139.3.047.291l1.294-.1c.2-.016.4-.021.591-.045a5.153,5.153,0,0,0,.538.657c-.869,3.2-1.622,6.441-2.314,9.685-.125.594.821.692.941.1.636-3.166,1.363-6.31,2.131-9.444.855-.347,1.688-.779,2.517-1.2.193.159.206.261.526.369.406.134.824.253,1.237.368a12.5,12.5,0,0,0,2.329.448.1.1,0,0,0,.045-.186,12.466,12.466,0,0,0-2.275-.894q-.556-.165-1.115-.319a1.124,1.124,0,0,0-.23-.044l.117-.057q1.487-.724,2.974-1.446a21.08,21.08,0,0,0,2.812.371c1.017.129,2.035.315,3.056.385a.089.089,0,0,0,.042-.171,15.547,15.547,0,0,0-2.925-.683,17.077,17.077,0,0,0-2.221-.272l1.084-.523a.123.123,0,0,0,.124-.038l.026-.033,1.328-.641a.055.055,0,0,0,.038.054,26.625,26.625,0,0,0,2.742.606c.05.009.071-.077.021-.091-.883-.225-1.775-.493-2.678-.629l.044-.021a8.794,8.794,0,0,0,2.822-1.617C759.733-118.1,759.656-118.182,759.588-118.178Z" transform="translate(-732.738 137.175)" fill="#7c520b"/>
    </g>
    <g id="Grupo_55997" data-name="Grupo 55997" transform="translate(65.175 6.712)">
      <path id="Trazado_103521" data-name="Trazado 103521" d="M769.306-164.164c.989,1.071,2.815.822,4-.028q-.988,1.508-1.821,3.106-.418.792-.794,1.612a1.953,1.953,0,0,0-.228.763,1.374,1.374,0,0,0,1.2,1.235,4.031,4.031,0,0,0,1.834-.253c-2.3,2.742-5.622,3.7-8.793,5.359-2.951,1.542-5.021,4.321-6.988,7.009a3.536,3.536,0,0,0-.343-2.956,2.639,2.639,0,0,0-2.023-.714,8.145,8.145,0,0,0-5.1,1.746,8.741,8.741,0,0,0,1.117-2.152,1.669,1.669,0,0,0,.125-.6.7.7,0,0,0-.007-.1,1.552,1.552,0,0,0-.467-.791,11.608,11.608,0,0,0-3.214-2.422,11.438,11.438,0,0,0-2.01-.8,18.524,18.524,0,0,1,2.826.113,2.808,2.808,0,0,0,2.5-1.045,3.556,3.556,0,0,0,.021-2.794,4.378,4.378,0,0,0,1.676.908,1.017,1.017,0,0,0,.544.037.871.871,0,0,0,.521-.585,3.225,3.225,0,0,0-.165-2.117,11.5,11.5,0,0,0-3.662-5.173,4.559,4.559,0,0,0,2.2.427,1.088,1.088,0,0,0,.624-.183,1.2,1.2,0,0,0,.312-.96,13.924,13.924,0,0,0-1.709-6.728,10.914,10.914,0,0,0,4.43,3.984.773.773,0,0,0,.423.112.722.722,0,0,0,.486-.42,6.478,6.478,0,0,0,.625-2.354c.786,2.483,1.657,5.094,3.62,6.8.359.314.939.58,1.268.235a.911.911,0,0,0,.2-.47,4.435,4.435,0,0,0,0-1.625,1.913,1.913,0,0,0,2.934.859,3.425,3.425,0,0,0,.793-1.207,25.483,25.483,0,0,0,1.484-4.176,12.381,12.381,0,0,0,.387,3.629,12.28,12.28,0,0,0,.533,1.61A3.623,3.623,0,0,0,769.306-164.164Z" transform="translate(-745.793 172.253)" fill="#dc491f"/>
      <path id="Trazado_103522" data-name="Trazado 103522" d="M769.588-165.716q-.418.792-.794,1.612a1.956,1.956,0,0,0-.228.763,1.374,1.374,0,0,0,1.2,1.235,4.032,4.032,0,0,0,1.834-.253c-2.3,2.742-5.622,3.7-8.793,5.359-2.951,1.542-5.021,4.321-6.988,7.009a3.536,3.536,0,0,0-.343-2.957,2.639,2.639,0,0,0-2.023-.714,8.145,8.145,0,0,0-5.1,1.746,8.746,8.746,0,0,0,1.117-2.152,1.671,1.671,0,0,0,.125-.6,7.626,7.626,0,0,0,4.284-2.064,2.446,2.446,0,0,0,2.871,1.571,4.936,4.936,0,0,0,2.84-2.11,6.143,6.143,0,0,0,1.326-4.373,3.338,3.338,0,0,0,1.862.9,2.616,2.616,0,0,0,1.977-1.127,5.839,5.839,0,0,0,1.261-4.145A3.648,3.648,0,0,0,769.588-165.716Z" transform="translate(-743.895 176.883)" fill="#bd3211"/>
      <path id="Trazado_103523" data-name="Trazado 103523" d="M764.079-166.486a8.573,8.573,0,0,0-1.12,2.892l-.131.415a4.481,4.481,0,0,0-1.308-1.584.09.09,0,0,0-.131.113c.227.463.535.889.8,1.328.153.249.288.507.441.754l-.6,1.908c-.188.594-.392,1.188-.6,1.786-.07-.319-.143-.636-.209-.95a8.081,8.081,0,0,0-.518-2.1.1.1,0,0,0-.185.038,8.476,8.476,0,0,0,.4,2.244c.1.462.183.936.294,1.4-.333.977-.658,1.958-.918,2.946q-.938-1.43-1.866-2.866c-.124-.192-.247-.385-.369-.578.279-1.012.552-2.024.807-3.044a14.7,14.7,0,0,0,.618-2.993.157.157,0,0,0-.3-.059,18.46,18.46,0,0,0-.822,3q-.319,1.265-.662,2.521-.786-1.249-1.547-2.512a5.489,5.489,0,0,0,.438-1.9,5.121,5.121,0,0,0,.016-2.409.078.078,0,0,0-.143.01,15.518,15.518,0,0,0-.2,2.274,12.381,12.381,0,0,1-.263,1.329c-.028.1-.057.2-.085.289q-.4-.672-.787-1.348c-.516-.9-.988-1.824-1.491-2.732-.251-.455-.47-.923-.706-1.387-.275-.54-.639-1-.953-1.512a.056.056,0,0,0-.1.051c.237.552.4,1.112.691,1.643.251.455.518.9.758,1.361.223.425.455.843.69,1.26a7.09,7.09,0,0,0-2.065-1.059.038.038,0,0,0-.033.066,9.55,9.55,0,0,0,1.237.753c.378.227.742.479,1.12.7.188.333.376.666.559,1q.557,1.009,1.115,2.016c-.164-.152-.366-.277-.535-.415-.417-.34-.842-.662-1.268-.988a15.271,15.271,0,0,0-2.615-1.9c-.1-.045-.153.087-.1.155a12.491,12.491,0,0,0,2.361,2.073c.418.336.835.671,1.272.983.345.247.693.634,1.138.6a.042.042,0,0,0,.03-.012q.758,1.356,1.526,2.7-.8-.572-1.582-1.179c-.864-.676-1.676-1.439-2.591-2.045a.083.083,0,0,0-.108.122,14.635,14.635,0,0,0,2.408,2.16q1.105.855,2.268,1.631.789,1.362,1.615,2.7c-.073-.014-.148-.026-.223-.035a.115.115,0,0,0-.037-.005c-.493-.064-1.009-.075-1.469-.118-.338-.357-.709-.685-1.042-1.052a14.931,14.931,0,0,1-1.254-1.57c-.047-.066-.155.009-.117.078a8.61,8.61,0,0,0,1.836,2.49c-.469-.044-.935-.084-1.406-.117-.542-.692-1.1-1.366-1.685-2.024a16.48,16.48,0,0,0-1.768-1.9c-.026-.021-.064.016-.049.044a16.28,16.28,0,0,0,1.591,2.056c.5.618,1.016,1.216,1.549,1.8-.129-.009-.26-.017-.39-.024-1.066-.063-2.129-.129-3.2-.164-.258-.22-.533-.423-.779-.65a13.659,13.659,0,0,1-1.127-1.186c-.047-.056-.129.017-.084.073a11.422,11.422,0,0,0,1.606,1.751c-.6-.016-1.206-.021-1.812-.007a.056.056,0,0,0-.005.111c.73.064,1.46.118,2.192.171a3.291,3.291,0,0,0,.409.23c.038.019.07-.037.043-.066-.042-.047-.085-.094-.131-.139q.551.039,1.1.082a15.689,15.689,0,0,0-1.53.922,12.785,12.785,0,0,0-1.794,1.272.079.079,0,0,0,.087.129,12.882,12.882,0,0,0,1.871-1.155,15.378,15.378,0,0,0,1.568-1.15c.521.042,1.04.089,1.559.145.876.1,1.751.2,2.626.293q.117.013.24.031a5.019,5.019,0,0,0-.974,1.183c-.418.575-.8,1.164-1.165,1.774-.04.07.052.164.111.1.429-.477.843-.958,1.23-1.47a5,5,0,0,0,1.007-1.551l0,0c.207.033.42.071.632.1-.073.1-.143.2-.214.3l-.688.925c-.1.136.115.275.218.146q.361-.452.719-.9c.11-.136.227-.27.329-.411a4.816,4.816,0,0,0,.752.045c1.566,2.5,3.223,4.951,4.923,7.362.31.441.946-.117.631-.552-1.68-2.329-3.293-4.7-4.875-7.1.291-.768.514-1.573.742-2.366a1.067,1.067,0,0,0,.559-.12c.333-.183.662-.385.986-.585a11.1,11.1,0,0,0,1.7-1.249.086.086,0,0,0-.1-.141,10.946,10.946,0,0,0-1.956.944c-.3.174-.59.354-.883.535a.941.941,0,0,0-.167.124l.033-.112q.426-1.406.854-2.814a18.788,18.788,0,0,0,1.943-1.612c.7-.587,1.436-1.136,2.1-1.763a.079.079,0,0,0-.087-.129,13.8,13.8,0,0,0-2.211,1.5,15.189,15.189,0,0,0-1.521,1.284q.157-.51.314-1.023a.11.11,0,0,0,.049-.1l-.005-.037c.127-.418.256-.834.383-1.253a.049.049,0,0,0,.059.005,23.244,23.244,0,0,0,2.052-1.422c.037-.028-.007-.092-.045-.068-.681.441-1.4.861-2.03,1.368l.012-.042a7.812,7.812,0,0,0,.651-2.819C764.215-166.533,764.117-166.531,764.079-166.486Z" transform="translate(-742.781 174.495)" fill="#7c520b"/>
    </g>
    <g id="Grupo_55998" data-name="Grupo 55998" transform="translate(268.764 27.287)">
      <path id="Trazado_103524" data-name="Trazado 103524" d="M865.217-148.6a2.033,2.033,0,0,0-2.565-.362q.773-.87,1.46-1.815.342-.47.662-.958a1.231,1.231,0,0,0,.218-.467.888.888,0,0,0-.648-.9,2.626,2.626,0,0,0-1.2-.012c1.73-1.538,3.953-1.838,6.139-2.6a14.169,14.169,0,0,0,5.141-3.826,2.293,2.293,0,0,0-.059,1.927,1.7,1.7,0,0,0,1.227.65,5.26,5.26,0,0,0,3.43-.636,5.7,5.7,0,0,0-.92,1.274,1.112,1.112,0,0,0-.136.371.415.415,0,0,0-.005.066,1,1,0,0,0,.225.552,7.551,7.551,0,0,0,1.828,1.855,7.573,7.573,0,0,0,1.213.7,12.131,12.131,0,0,1-1.8-.341,1.822,1.822,0,0,0-1.7.432,2.311,2.311,0,0,0-.277,1.789,2.826,2.826,0,0,0-.988-.74.633.633,0,0,0-.345-.075.56.56,0,0,0-.388.324,2.077,2.077,0,0,0-.094,1.373,7.449,7.449,0,0,0,1.854,3.66,2.944,2.944,0,0,0-1.368-.483.705.705,0,0,0-.416.058.776.776,0,0,0-.291.585,9.025,9.025,0,0,0,.456,4.472,7.084,7.084,0,0,0-2.46-2.972.486.486,0,0,0-.261-.112.459.459,0,0,0-.35.223,4.132,4.132,0,0,0-.624,1.448,9.306,9.306,0,0,0-1.674-4.7c-.2-.235-.547-.462-.789-.272a.593.593,0,0,0-.173.282,2.9,2.9,0,0,0-.155,1.042,1.24,1.24,0,0,0-1.8-.829,2.218,2.218,0,0,0-.622.7,16.4,16.4,0,0,0-1.347,2.533,8.062,8.062,0,0,0,.1-2.361,7.893,7.893,0,0,0-.188-1.082A2.311,2.311,0,0,0,865.217-148.6Z" transform="translate(-862.652 161.107)" fill="#dc491f"/>
      <path id="Trazado_103525" data-name="Trazado 103525" d="M863.9-150.781q.342-.47.662-.958a1.231,1.231,0,0,0,.218-.467.888.888,0,0,0-.648-.9,2.626,2.626,0,0,0-1.2-.012c1.73-1.538,3.953-1.838,6.139-2.6a14.168,14.168,0,0,0,5.141-3.826,2.294,2.294,0,0,0-.059,1.927,1.7,1.7,0,0,0,1.227.65,5.26,5.26,0,0,0,3.43-.636,5.7,5.7,0,0,0-.92,1.274,1.112,1.112,0,0,0-.136.371,4.931,4.931,0,0,0-2.941.916,1.58,1.58,0,0,0-1.688-1.281,3.194,3.194,0,0,0-2.019,1.082,3.973,3.973,0,0,0-1.265,2.676,2.156,2.156,0,0,0-1.108-.753,1.7,1.7,0,0,0-1.373.535,3.768,3.768,0,0,0-1.2,2.533A2.361,2.361,0,0,0,863.9-150.781Z" transform="translate(-862.442 161.107)" fill="#bd3211"/>
      <path id="Trazado_103526" data-name="Trazado 103526" d="M865.519-147.678a5.539,5.539,0,0,0,.991-1.746l.124-.253a2.9,2.9,0,0,0,.688,1.138.058.058,0,0,0,.094-.061c-.1-.317-.258-.618-.39-.925-.073-.174-.136-.354-.211-.526q.285-.583.566-1.164c.178-.362.364-.725.552-1.087.014.211.03.42.043.627a5.226,5.226,0,0,0,.133,1.394.063.063,0,0,0,.12-.007,5.442,5.442,0,0,0-.042-1.476c-.017-.3-.028-.617-.056-.925.307-.594.608-1.192.868-1.8q.465,1.006.923,2.014l.183.4c-.275.622-.547,1.246-.807,1.873a9.559,9.559,0,0,0-.679,1.859.1.1,0,0,0,.19.066,12.05,12.05,0,0,0,.812-1.845c.214-.519.437-1.037.662-1.552q.387.875.753,1.756a3.6,3.6,0,0,0-.46,1.172,3.318,3.318,0,0,0-.239,1.542.05.05,0,0,0,.092.007,9.989,9.989,0,0,0,.347-1.437,8.214,8.214,0,0,1,.294-.826c.028-.063.056-.12.082-.178.127.312.254.625.376.939.246.625.46,1.263.7,1.892.117.314.213.636.321.955.125.371.314.7.467,1.057a.036.036,0,0,0,.068-.023,11.4,11.4,0,0,0-.286-1.117c-.119-.315-.246-.625-.357-.944-.1-.293-.211-.582-.323-.873a4.54,4.54,0,0,0,1.223.875.023.023,0,0,0,.026-.038,6.1,6.1,0,0,0-.72-.6c-.221-.181-.43-.376-.651-.558-.089-.23-.178-.46-.263-.693l-.523-1.4c.091.113.207.213.3.317.235.256.477.5.72.753a9.887,9.887,0,0,0,1.495,1.463c.058.038.106-.04.082-.089a8.08,8.08,0,0,0-1.316-1.552c-.235-.254-.472-.509-.721-.749-.2-.192-.383-.472-.671-.5a.037.037,0,0,0-.021.005c-.237-.625-.477-1.253-.721-1.876.307.3.608.6.9.906.489.514.939,1.08,1.467,1.556a.053.053,0,0,0,.08-.068,9.4,9.4,0,0,0-1.338-1.612q-.627-.653-1.3-1.261-.374-.946-.777-1.882c.045.016.091.03.138.044l.024.007c.31.087.64.143.929.214.185.261.39.505.568.772a10.062,10.062,0,0,1,.655,1.125c.023.047.1.009.082-.04a5.59,5.59,0,0,0-.939-1.768q.442.11.889.209.421.742.887,1.456a10.537,10.537,0,0,0,.953,1.385c.014.017.042,0,.035-.023a10.552,10.552,0,0,0-.824-1.467c-.261-.444-.535-.876-.821-1.3.082.017.164.037.247.052.678.141,1.352.284,2.031.409.145.164.3.321.437.49a8.872,8.872,0,0,1,.61.868c.025.04.084,0,.061-.04a7.537,7.537,0,0,0-.864-1.275c.385.068.77.129,1.16.178a.036.036,0,0,0,.014-.071c-.462-.11-.925-.214-1.387-.317a2.424,2.424,0,0,0-.242-.186c-.023-.016-.047.017-.033.038s.046.07.07.1c-.232-.052-.465-.1-.7-.159a10.009,10.009,0,0,0,1.068-.444,8.265,8.265,0,0,0,1.268-.645.051.051,0,0,0-.044-.091,8.4,8.4,0,0,0-1.308.563,9.95,9.95,0,0,0-1.111.587c-.329-.077-.659-.155-.986-.24q-.829-.217-1.653-.437c-.05-.012-.1-.026-.151-.042a3.22,3.22,0,0,0,.737-.666c.321-.329.624-.669.915-1.026.033-.04-.017-.11-.063-.073-.321.265-.63.533-.927.824a3.245,3.245,0,0,0-.793.9h0c-.129-.04-.261-.085-.4-.127.056-.056.11-.113.165-.169l.528-.528c.079-.077-.047-.186-.125-.113l-.547.51c-.082.077-.169.152-.249.232a3.44,3.44,0,0,0-.477-.1c-.767-1.751-1.594-3.476-2.455-5.183-.157-.312-.619-.014-.458.3.855,1.65,1.664,3.324,2.449,5.009-.26.463-.477.958-.7,1.444a.7.7,0,0,0-.371.024c-.23.085-.46.183-.686.281a7.294,7.294,0,0,0-1.209.639.056.056,0,0,0,.047.1,7.162,7.162,0,0,0,1.345-.418c.206-.084.411-.171.617-.26a.632.632,0,0,0,.117-.063l-.031.068q-.405.86-.814,1.721a12.175,12.175,0,0,0-1.4.848c-.5.308-1.026.591-1.51.929a.051.051,0,0,0,.043.091,8.892,8.892,0,0,0,1.559-.747,9.708,9.708,0,0,0,1.1-.679c-.1.209-.2.418-.3.625a.072.072,0,0,0-.042.063v.024l-.366.767a.031.031,0,0,0-.036-.01,15.138,15.138,0,0,0-1.45.716c-.026.014,0,.061.023.049a15.82,15.82,0,0,0,1.43-.683l-.012.024a5.077,5.077,0,0,0-.685,1.744C865.427-147.661,865.491-147.652,865.519-147.678Z" transform="translate(-861.544 160.443)" fill="#7c520b"/>
    </g>
    <g id="Grupo_55999" data-name="Grupo 55999" transform="translate(18.112 115.422)">
      <path id="Trazado_103527" data-name="Trazado 103527" d="M725.156-86.936c-1.326-.66-2.972.233-3.794,1.469q.395-1.787.611-3.608c.075-.6.131-1.211.174-1.819a1.963,1.963,0,0,0-.059-.807,1.391,1.391,0,0,0-1.58-.744,4.093,4.093,0,0,0-1.655.9c1.2-3.434,4.01-5.549,6.429-8.267,2.251-2.528,3.216-5.918,4.117-9.181a3.6,3.6,0,0,0,1.392,2.686,2.692,2.692,0,0,0,2.181-.051,8.271,8.271,0,0,0,4.216-3.5,9,9,0,0,0-.286,2.449,1.726,1.726,0,0,0,.1.613.687.687,0,0,0,.044.1,1.576,1.576,0,0,0,.73.584,11.777,11.777,0,0,0,3.929,1.143,11.606,11.606,0,0,0,2.2.037,19.133,19.133,0,0,1-2.728.911,2.854,2.854,0,0,0-2,1.9,3.62,3.62,0,0,0,.988,2.664,4.419,4.419,0,0,0-1.92-.258,1.006,1.006,0,0,0-.531.16.887.887,0,0,0-.284.744,3.276,3.276,0,0,0,.922,1.953,11.69,11.69,0,0,0,5.347,3.6,4.646,4.646,0,0,0-2.246.387,1.116,1.116,0,0,0-.526.4,1.214,1.214,0,0,0,.051,1.028,14.169,14.169,0,0,0,4.05,5.781,11.105,11.105,0,0,0-5.648-2.192.783.783,0,0,0-.444.047.733.733,0,0,0-.31.575,6.57,6.57,0,0,0,.254,2.462c-1.643-2.075-3.413-4.246-5.9-5.162-.455-.169-1.1-.213-1.291.233a.923.923,0,0,0-.019.519,4.507,4.507,0,0,0,.584,1.545,1.945,1.945,0,0,0-3.1.242,3.461,3.461,0,0,0-.319,1.434,25.781,25.781,0,0,0,.1,4.505,12.705,12.705,0,0,0-1.676-3.31,12.731,12.731,0,0,0-1.089-1.338A3.685,3.685,0,0,0,725.156-86.936Z" transform="translate(-718.724 109.854)" fill="#dc491f"/>
      <path id="Trazado_103528" data-name="Trazado 103528" d="M721.973-89.075c.075-.6.131-1.211.174-1.819a1.963,1.963,0,0,0-.059-.807,1.391,1.391,0,0,0-1.58-.744,4.093,4.093,0,0,0-1.655.9c1.2-3.434,4.01-5.549,6.429-8.267,2.251-2.528,3.216-5.918,4.117-9.181a3.6,3.6,0,0,0,1.392,2.686,2.692,2.692,0,0,0,2.181-.051,8.271,8.271,0,0,0,4.216-3.5,9,9,0,0,0-.286,2.449,1.726,1.726,0,0,0,.1.613,7.741,7.741,0,0,0-3.329,3.507,2.484,2.484,0,0,0-3.3-.458,5.006,5.006,0,0,0-1.939,3.03,6.241,6.241,0,0,0,.317,4.634,3.422,3.422,0,0,0-2.1-.183,2.663,2.663,0,0,0-1.474,1.786,5.934,5.934,0,0,0,.3,4.394A3.711,3.711,0,0,0,721.973-89.075Z" transform="translate(-718.724 109.854)" fill="#bd3211"/>
      <path id="Trazado_103529" data-name="Trazado 103529" d="M727.345-89.3a8.673,8.673,0,0,0,.023-3.153c-.009-.148-.017-.294-.024-.441a4.552,4.552,0,0,0,1.815,1.033.091.091,0,0,0,.082-.155c-.382-.359-.829-.652-1.242-.972-.237-.181-.458-.378-.693-.559q-.057-1.014-.115-2.03c-.035-.632-.056-1.272-.077-1.913.179.279.364.554.54.828a8.168,8.168,0,0,0,1.249,1.808.1.1,0,0,0,.16-.1,8.614,8.614,0,0,0-1.188-1.99c-.258-.4-.511-.824-.784-1.225-.036-1.049-.08-2.1-.188-3.132q1.406,1.022,2.807,2.052c.186.138.373.277.559.416.1,1.063.206,2.125.331,3.185a14.955,14.955,0,0,0,.491,3.07.161.161,0,0,0,.312-.056,18.9,18.9,0,0,0-.3-3.152q-.154-1.314-.281-2.634,1.2.9,2.376,1.831a5.641,5.641,0,0,0,.268,1.958,5.2,5.2,0,0,0,.854,2.3c.045.052.138,0,.132-.063a15.885,15.885,0,0,0-.625-2.235,11.955,11.955,0,0,1-.228-1.357c-.012-.106-.017-.207-.024-.307q.619.5,1.235,1c.814.669,1.6,1.378,2.4,2.061.4.341.779.707,1.171,1.063.457.415.967.718,1.451,1.094a.057.057,0,0,0,.077-.084,17.434,17.434,0,0,0-1.249-1.314c-.4-.341-.815-.669-1.211-1.019-.364-.324-.737-.638-1.11-.951a7.151,7.151,0,0,0,2.345.263.038.038,0,0,0,.007-.075,9.815,9.815,0,0,0-1.448-.27c-.441-.078-.876-.186-1.319-.263q-.447-.371-.892-.749-.891-.758-1.786-1.514c.211.085.448.132.657.2.519.172,1.04.326,1.563.481a15.5,15.5,0,0,0,3.171.864c.108.007.115-.139.044-.186a12.587,12.587,0,0,0-2.991-1.118c-.519-.169-1.037-.336-1.565-.477-.416-.11-.887-.352-1.3-.164a.062.062,0,0,0-.024.023q-1.207-1.017-2.425-2.021c.648.171,1.291.352,1.929.551,1.066.331,2.113.765,3.2,1.01a.084.084,0,0,0,.057-.155,14.81,14.81,0,0,0-3.068-1.185c-.906-.277-1.822-.517-2.746-.733q-1.239-1.011-2.507-1.984c.073-.014.148-.03.223-.047A.086.086,0,0,0,727.5-102c.493-.117.988-.293,1.439-.416.453.216.922.394,1.369.624a15.52,15.52,0,0,1,1.761,1.04c.068.047.143-.064.082-.117a8.736,8.736,0,0,0-2.643-1.7c.46-.127.92-.258,1.376-.4.767.462,1.54.9,2.335,1.317a16.578,16.578,0,0,0,2.366,1.169c.033.012.056-.037.031-.057a16.607,16.607,0,0,0-2.254-1.382c-.7-.408-1.4-.789-2.124-1.157.127-.038.254-.077.38-.117,1.037-.326,2.072-.646,3.1-1,.324.115.659.211.974.336a13.523,13.523,0,0,1,1.5.723.057.057,0,0,0,.054-.1,11.705,11.705,0,0,0-2.16-1.085c.58-.2,1.155-.416,1.726-.646a.057.057,0,0,0-.035-.108c-.718.2-1.432.415-2.146.627a3.159,3.159,0,0,0-.472-.071c-.043,0-.052.061-.017.078.057.031.117.059.176.087q-.538.159-1.078.317a15.873,15.873,0,0,0,1.124-1.427,13.2,13.2,0,0,0,1.247-1.855.081.081,0,0,0-.13-.091,13.143,13.143,0,0,0-1.363,1.772,15.435,15.435,0,0,0-1.075,1.659c-.51.148-1.021.291-1.535.425-.868.225-1.735.444-2.6.667-.077.021-.157.04-.239.057a5.122,5.122,0,0,0,.5-1.476c.188-.7.342-1.4.467-2.108.014-.078-.108-.136-.141-.052-.237.608-.457,1.214-.64,1.841a5.1,5.1,0,0,0-.4,1.838l0,0c-.209.044-.425.084-.639.129.035-.12.064-.24.1-.359l.319-1.127c.047-.167-.207-.221-.258-.061l-.359,1.118c-.056.169-.117.338-.164.51a4.854,4.854,0,0,0-.733.228c-2.392-1.815-4.849-3.545-7.335-5.227-.455-.307-.859.453-.4.754,2.437,1.608,4.826,3.284,7.193,4.993,0,.834.08,1.679.148,2.516-.2.108-.289.084-.488.317-.251.294-.491.6-.728.911a11.285,11.285,0,0,0-1.166,1.8c-.049.094.068.16.141.1a11.231,11.231,0,0,0,1.521-1.6c.218-.273.432-.551.646-.828a1.073,1.073,0,0,0,.113-.176l.009.115q.1,1.492.2,2.984a18.734,18.734,0,0,0-1.265,2.233c-.453.808-.957,1.6-1.361,2.432a.08.08,0,0,0,.129.091,14.113,14.113,0,0,0,1.564-2.22,15.471,15.471,0,0,0,.983-1.77c.023.361.047.723.07,1.085a.112.112,0,0,0-.009.117l.019.033c.028.444.057.887.085,1.331a.049.049,0,0,0-.057.014,23.914,23.914,0,0,0-1.437,2.092c-.026.04.038.087.066.049a24.54,24.54,0,0,0,1.437-2.031l0,.044a7.939,7.939,0,0,0,.4,2.915C727.234-89.2,727.326-89.241,727.345-89.3Z" transform="translate(-718.779 111.494)" fill="#7c520b"/>
    </g>
    <g id="Grupo_56000" data-name="Grupo 56000" transform="translate(175.688 8.041)">
      <path id="Trazado_103530" data-name="Trazado 103530" d="M816.9-143.417c-1.627-.864-3.7.192-4.763,1.7q.549-2.208.878-4.462c.113-.747.2-1.5.277-2.253a2.438,2.438,0,0,0-.047-1.005,1.731,1.731,0,0,0-1.939-.976,5.034,5.034,0,0,0-2.084,1.064c1.6-4.228,5.164-6.761,8.256-10.058,2.88-3.066,4.193-7.246,5.418-11.27.124,1.221.582,2.765,1.643,3.383a3.339,3.339,0,0,0,2.709.01,10.287,10.287,0,0,0,5.354-4.207,11.035,11.035,0,0,0-.435,3.033,2.118,2.118,0,0,0,.1.765.729.729,0,0,0,.052.12,1.94,1.94,0,0,0,.887.749,14.7,14.7,0,0,0,4.843,1.552,14.628,14.628,0,0,0,2.733.117,23.675,23.675,0,0,1-3.422,1.04,3.555,3.555,0,0,0-2.544,2.289c-.268,1.185.453,2.341,1.139,3.341a5.539,5.539,0,0,0-2.376-.383,1.254,1.254,0,0,0-.666.183,1.106,1.106,0,0,0-.378.913,4.064,4.064,0,0,0,1.08,2.456,14.529,14.529,0,0,0,6.523,4.646,5.79,5.79,0,0,0-2.8.406,1.4,1.4,0,0,0-.667.477,1.512,1.512,0,0,0,.028,1.277,17.622,17.622,0,0,0,4.841,7.315A13.8,13.8,0,0,0,834.6-144.1a.987.987,0,0,0-.552.044.916.916,0,0,0-.406.7,8.209,8.209,0,0,0,.235,3.068c-1.97-2.632-4.1-5.387-7.152-6.608-.561-.225-1.364-.3-1.613.247a1.155,1.155,0,0,0-.038.645,5.531,5.531,0,0,0,.674,1.939,2.421,2.421,0,0,0-3.859.2,4.331,4.331,0,0,0-.442,1.77,32.109,32.109,0,0,0-.031,5.6,15.681,15.681,0,0,0-1.972-4.167,16.011,16.011,0,0,0-1.307-1.7A4.576,4.576,0,0,0,816.9-143.417Z" transform="translate(-809.227 171.49)" fill="#e59323"/>
      <path id="Trazado_103531" data-name="Trazado 103531" d="M813.02-146.18c.113-.747.2-1.5.277-2.253a2.438,2.438,0,0,0-.047-1.005,1.731,1.731,0,0,0-1.939-.976,5.034,5.034,0,0,0-2.084,1.064c1.6-4.228,5.164-6.761,8.256-10.058,2.88-3.066,4.193-7.246,5.418-11.27.124,1.221.582,2.765,1.643,3.383a3.339,3.339,0,0,0,2.709.01,10.287,10.287,0,0,0,5.354-4.207,11.035,11.035,0,0,0-.435,3.033,2.118,2.118,0,0,0,.1.765,9.636,9.636,0,0,0-4.251,4.247,3.089,3.089,0,0,0-4.08-.679,6.222,6.222,0,0,0-2.507,3.7,7.749,7.749,0,0,0,.239,5.768,4.238,4.238,0,0,0-2.6-.3,3.309,3.309,0,0,0-1.889,2.169,7.378,7.378,0,0,0,.221,5.469A4.607,4.607,0,0,0,813.02-146.18Z" transform="translate(-809.227 171.49)" fill="#e0801e"/>
      <path id="Trazado_103532" data-name="Trazado 103532" d="M819.451-146.026c.441-1.167.169-2.692.132-3.916l-.017-.549a5.672,5.672,0,0,0,2.221,1.343.114.114,0,0,0,.108-.19c-.462-.458-1.009-.838-1.512-1.247-.286-.233-.556-.486-.841-.718q-.039-1.262-.077-2.526c-.023-.786-.028-1.58-.033-2.378.216.352.435.7.646,1.045a10.14,10.14,0,0,0,1.49,2.287.124.124,0,0,0,.2-.122,10.766,10.766,0,0,0-1.409-2.51c-.308-.51-.608-1.04-.935-1.549-.009-1.3-.03-2.608-.129-3.9q1.712,1.315,3.418,2.641.342.267.681.537c.087,1.322.185,2.646.3,3.967a18.632,18.632,0,0,0,.51,3.829.2.2,0,0,0,.388-.059,23.259,23.259,0,0,0-.272-3.925c-.1-1.092-.181-2.186-.26-3.281q1.458,1.16,2.892,2.352a6.968,6.968,0,0,0,.268,2.443,6.478,6.478,0,0,0,.984,2.882.1.1,0,0,0,.167-.073,19.891,19.891,0,0,0-.7-2.8,15.015,15.015,0,0,1-.239-1.7c-.012-.132-.016-.258-.021-.38q.755.635,1.5,1.281c.99.857,1.939,1.765,2.916,2.638.49.437.946.906,1.42,1.359.554.53,1.178.925,1.767,1.408a.071.071,0,0,0,.1-.1,22.1,22.1,0,0,0-1.509-1.672c-.49-.439-.991-.859-1.47-1.307-.444-.415-.9-.817-1.349-1.218a8.9,8.9,0,0,0,2.9.4.047.047,0,0,0,.012-.092,12.109,12.109,0,0,0-1.789-.383c-.545-.113-1.084-.261-1.631-.371-.362-.319-.725-.636-1.084-.96q-1.082-.972-2.167-1.939c.258.112.55.179.81.272.638.232,1.281.439,1.925.65a19.249,19.249,0,0,0,3.91,1.178c.134.012.148-.169.059-.23a15.6,15.6,0,0,0-3.678-1.49c-.639-.226-1.277-.453-1.927-.643-.516-.152-1.091-.467-1.61-.247a.062.062,0,0,0-.031.028q-1.466-1.3-2.946-2.591c.8.232,1.591.479,2.378.747,1.312.446,2.6,1.019,3.943,1.361a.1.1,0,0,0,.078-.19,18.321,18.321,0,0,0-3.772-1.573c-1.117-.375-2.247-.7-3.387-1q-1.505-1.3-3.05-2.549c.094-.014.186-.031.28-.051a.1.1,0,0,0,.045-.01c.615-.129,1.237-.329,1.8-.47.554.286,1.132.521,1.681.821a19.379,19.379,0,0,1,2.152,1.35c.082.061.181-.075.106-.143a10.9,10.9,0,0,0-3.228-2.2c.577-.141,1.153-.289,1.725-.446.936.6,1.883,1.172,2.855,1.713a20.617,20.617,0,0,0,2.9,1.533.043.043,0,0,0,.04-.071,20.658,20.658,0,0,0-2.754-1.791c-.854-.53-1.718-1.028-2.6-1.505l.476-.134c1.3-.371,2.6-.735,3.88-1.136.4.153.814.284,1.2.451a16.983,16.983,0,0,1,1.84.946c.078.047.146-.075.07-.124a14.509,14.509,0,0,0-2.648-1.42c.726-.232,1.45-.477,2.165-.746a.071.071,0,0,0-.038-.136c-.9.227-1.793.469-2.686.709a4.052,4.052,0,0,0-.585-.1c-.052-.005-.066.073-.025.1.07.04.143.078.216.113q-.674.183-1.35.361a19.863,19.863,0,0,0,1.442-1.737,16.206,16.206,0,0,0,1.61-2.263.1.1,0,0,0-.157-.118,16.312,16.312,0,0,0-1.751,2.157,18.885,18.885,0,0,0-1.39,2.026c-.639.166-1.279.326-1.922.476-1.086.251-2.171.495-3.255.744-.1.023-.2.044-.3.063a6.351,6.351,0,0,0,.669-1.815c.258-.861.472-1.723.652-2.6.019-.1-.131-.174-.174-.071-.314.747-.606,1.495-.855,2.267a6.33,6.33,0,0,0-.556,2.27l0,0c-.26.045-.53.089-.8.138.047-.148.089-.3.134-.443l.434-1.39c.065-.206-.251-.28-.321-.084-.16.46-.322.918-.483,1.378-.073.209-.157.416-.22.627a6.3,6.3,0,0,0-.918.26c-2.911-2.333-5.906-4.565-8.939-6.733-.554-.4-1.082.535-.524.923,2.976,2.078,5.889,4.24,8.774,6.439-.028,1.037.043,2.089.1,3.131-.251.129-.361.094-.617.378-.321.357-.629.733-.932,1.108a14.106,14.106,0,0,0-1.51,2.2.11.11,0,0,0,.172.131,14.023,14.023,0,0,0,1.942-1.943q.421-.5.831-1.007a1.178,1.178,0,0,0,.146-.216l.007.145c.052,1.239.106,2.476.155,3.714a23.77,23.77,0,0,0-1.646,2.732c-.589.99-1.239,1.953-1.77,2.976-.051.1.078.2.157.118a17.5,17.5,0,0,0,2.017-2.706,18.84,18.84,0,0,0,1.279-2.167c.017.451.035.9.052,1.352a.139.139,0,0,0-.016.145l.023.042c.021.552.042,1.1.063,1.655a.06.06,0,0,0-.071.016,29.7,29.7,0,0,0-1.857,2.552c-.033.049.047.108.084.063a30.7,30.7,0,0,0,1.85-2.476l0,.054a9.885,9.885,0,0,0,.4,3.634C819.308-145.913,819.425-145.956,819.451-146.026Z" transform="translate(-809.099 173.273)" fill="#7c520b"/>
    </g>
    <g id="Grupo_56001" data-name="Grupo 56001" transform="translate(9.006 158.351)">
      <path id="Trazado_103533" data-name="Trazado 103533" d="M723.423-83.392a1.792,1.792,0,0,0,1.38-1.821q.34.97.772,1.9.214.468.453.922a1.1,1.1,0,0,0,.267.368.781.781,0,0,0,.974-.11,2.265,2.265,0,0,0,.524-.918c.442,1.993-.28,3.835-.636,5.845a12.543,12.543,0,0,0,.739,5.6,2.019,2.019,0,0,0-1.458-.873,1.5,1.5,0,0,0-1.026.667,4.654,4.654,0,0,0-.986,2.915,5,5,0,0,0-.584-1.256,1.011,1.011,0,0,0-.228-.265.469.469,0,0,0-.049-.031.883.883,0,0,0-.521-.064,6.582,6.582,0,0,0-2.214.612,6.51,6.51,0,0,0-1.063.631A10.718,10.718,0,0,1,720.8-70.5,1.6,1.6,0,0,0,721.2-72a2.029,2.029,0,0,0-1.258-.983,2.526,2.526,0,0,0,.995-.443.576.576,0,0,0,.206-.233.492.492,0,0,0-.084-.439,1.826,1.826,0,0,0-1.016-.662,6.55,6.55,0,0,0-3.617-.145,2.6,2.6,0,0,0,.96-.847.63.63,0,0,0,.134-.345.68.68,0,0,0-.326-.476,7.934,7.934,0,0,0-3.641-1.57,6.254,6.254,0,0,0,3.347-.617.459.459,0,0,0,.2-.153.421.421,0,0,0-.021-.368,3.714,3.714,0,0,0-.848-1.1,8.218,8.218,0,0,0,4.34.732c.267-.054.591-.223.549-.493a.514.514,0,0,0-.145-.253,2.537,2.537,0,0,0-.735-.568,1.093,1.093,0,0,0,1.411-1.028,1.944,1.944,0,0,0-.27-.779A14.522,14.522,0,0,0,720-84.9a7.134,7.134,0,0,0,1.777,1.089,7.1,7.1,0,0,0,.914.319A2.032,2.032,0,0,0,723.423-83.392Z" transform="translate(-713.552 85.213)" fill="#e59323"/>
      <path id="Trazado_103534" data-name="Trazado 103534" d="M721.289-84.12q.214.468.453.922a1.1,1.1,0,0,0,.267.368.781.781,0,0,0,.974-.11,2.266,2.266,0,0,0,.524-.918c.442,1.993-.281,3.835-.636,5.845a12.545,12.545,0,0,0,.739,5.6,2.019,2.019,0,0,0-1.458-.873,1.5,1.5,0,0,0-1.026.667,4.654,4.654,0,0,0-.986,2.915,5,5,0,0,0-.584-1.256,1.012,1.012,0,0,0-.228-.265,4.345,4.345,0,0,0,.557-2.657,1.394,1.394,0,0,0,1.711-.753,2.809,2.809,0,0,0,.035-2.019,3.5,3.5,0,0,0-1.517-2.122,1.913,1.913,0,0,0,1.056-.531,1.5,1.5,0,0,0,.178-1.287,3.344,3.344,0,0,0-1.436-2.014A2.081,2.081,0,0,0,721.289-84.12Z" transform="translate(-709.266 86.024)" fill="#e0801e"/>
      <path id="Trazado_103535" data-name="Trazado 103535" d="M721.089-83.516A4.866,4.866,0,0,0,722.007-82l.143.2a2.56,2.56,0,0,0-1.172.04.052.052,0,0,0,.007.1c.288.057.587.066.88.1.165.017.331.047.495.063.22.312.437.625.655.937.2.293.4.591.6.89l-.5-.235a4.585,4.585,0,0,0-1.131-.5.056.056,0,0,0-.045.1,4.935,4.935,0,0,0,1.153.6c.244.117.488.242.737.354.326.49.657.979,1.012,1.441-.648-.049-1.3-.1-1.946-.153l-.39-.033c-.361-.479-.725-.956-1.1-1.425a8.371,8.371,0,0,0-1.141-1.322.09.09,0,0,0-.132.117,10.537,10.537,0,0,0,1.073,1.418c.308.39.61.782.911,1.178-.559-.052-1.118-.11-1.676-.176a3.166,3.166,0,0,0-.706-.857,2.943,2.943,0,0,0-1.085-.847c-.037-.01-.066.04-.045.07a8.91,8.91,0,0,0,.958.883,6.749,6.749,0,0,1,.509.582c.038.047.07.094.1.139-.3-.035-.591-.073-.885-.113-.587-.08-1.169-.188-1.756-.277-.293-.044-.58-.108-.873-.162-.34-.064-.674-.059-1.016-.1a.032.032,0,0,0-.012.063,10.1,10.1,0,0,0,.984.26c.293.045.587.08.88.131.27.047.54.087.81.127a4.048,4.048,0,0,0-1.2.564.022.022,0,0,0,.019.038,5.17,5.17,0,0,0,.77-.3c.235-.092.476-.169.709-.263.216.031.432.063.648.1q.648.1,1.3.2c-.127.023-.253.07-.375.1-.3.071-.592.152-.889.232a8.734,8.734,0,0,0-1.77.521c-.054.028-.014.1.035.1a7.125,7.125,0,0,0,1.76-.345c.3-.073.594-.146.887-.233.234-.071.528-.094.671-.3l.005-.019q.875.131,1.754.253c-.359.108-.721.211-1.084.3-.608.155-1.235.258-1.829.46a.047.047,0,0,0,.019.091,8.4,8.4,0,0,0,1.815-.336c.514-.136,1.024-.291,1.528-.46q.891.118,1.784.209l-.094.089-.014.016c-.2.2-.387.43-.564.624-.281.03-.557.082-.84.1a8.7,8.7,0,0,1-1.148.023c-.045,0-.049.071-.005.08a4.927,4.927,0,0,0,1.767.035c-.183.2-.364.394-.542.6-.5,0-1,.021-1.5.058a9.257,9.257,0,0,0-1.476.138.019.019,0,0,0,0,.037,9.18,9.18,0,0,0,1.484,0c.455-.01.9-.037,1.355-.073-.049.056-.1.112-.146.169-.4.46-.8.92-1.186,1.389-.188.04-.378.094-.566.125a7.2,7.2,0,0,1-.929.1c-.042,0-.037.064,0,.064a6.5,6.5,0,0,0,1.354-.118c-.218.268-.43.54-.636.819a.032.032,0,0,0,.049.04c.284-.307.563-.618.841-.932a1.821,1.821,0,0,0,.246-.1c.023-.012.007-.045-.014-.044l-.11.01c.141-.157.28-.314.422-.469a8.927,8.927,0,0,0-.117,1.012,7.388,7.388,0,0,0-.049,1.254.045.045,0,0,0,.089.007,7.291,7.291,0,0,0,.129-1.249,8.739,8.739,0,0,0,.025-1.11c.2-.221.4-.441.61-.657q.523-.544,1.047-1.085c.031-.033.064-.064.1-.1a2.881,2.881,0,0,0,.2.852c.115.39.249.768.4,1.146.018.042.092.033.084-.017-.066-.361-.139-.714-.237-1.068a2.855,2.855,0,0,0-.35-1v0l.268-.249c.019.066.04.132.058.2l.181.632c.026.094.164.045.141-.047l-.159-.641c-.024-.1-.044-.2-.071-.291a2.874,2.874,0,0,0,.282-.326c1.679.162,3.364.265,5.047.336.308.012.277-.469-.031-.479-1.638-.051-3.275-.146-4.909-.265-.246-.4-.533-.78-.812-1.16.063-.11.113-.125.14-.294.033-.216.057-.434.078-.65a6.349,6.349,0,0,0,.028-1.206.05.05,0,0,0-.1-.007,6.263,6.263,0,0,0-.254,1.214c-.024.2-.045.392-.066.587a.539.539,0,0,0,0,.118l-.038-.054q-.489-.682-.976-1.366a10.74,10.74,0,0,0-.054-1.441c-.023-.519-.014-1.045-.066-1.563a.045.045,0,0,0-.089-.007,7.807,7.807,0,0,0-.094,1.523,8.649,8.649,0,0,0,.052,1.136c-.118-.165-.235-.333-.354-.5a.067.067,0,0,0-.03-.059l-.019-.01-.434-.61a.028.028,0,0,0,.024-.024,12.94,12.94,0,0,0,.07-1.423c0-.026-.043-.03-.045,0a13.821,13.821,0,0,0-.089,1.4L722.2-82.3a4.475,4.475,0,0,0-1.049-1.277C721.115-83.595,721.082-83.549,721.089-83.516Z" transform="translate(-712.026 86.311)" fill="#7c520b"/>
    </g>
    <g id="Grupo_56002" data-name="Grupo 56002" transform="translate(24.57 49.578)">
      <path id="Trazado_103536" data-name="Trazado 103536" d="M725.617-139.231a2.6,2.6,0,0,0-2.181-2.491q1.477-.2,2.929-.54c.483-.111.962-.237,1.439-.373a1.609,1.609,0,0,0,.6-.27,1.134,1.134,0,0,0,.129-1.416,3.335,3.335,0,0,0-1.151-1.014c2.96-.044,5.362,1.519,8.115,2.61,2.561,1.016,5.423.808,8.169.587A2.926,2.926,0,0,0,742-140.325a2.182,2.182,0,0,0,.646,1.653,6.724,6.724,0,0,0,3.852,2.249,7.229,7.229,0,0,0-1.953.465,1.372,1.372,0,0,0-.443.244c-.021.019-.042.04-.061.061a1.28,1.28,0,0,0-.242.721,9.567,9.567,0,0,0,.221,3.322,9.542,9.542,0,0,0,.585,1.693,15.408,15.408,0,0,1-1.456-1.833,2.328,2.328,0,0,0-2.007-1,2.94,2.94,0,0,0-1.761,1.5,3.642,3.642,0,0,0-.338-1.54.82.82,0,0,0-.272-.362.73.73,0,0,0-.648-.01,2.683,2.683,0,0,0-1.237,1.251,9.523,9.523,0,0,0-1.26,5.091,3.781,3.781,0,0,0-.922-1.608.892.892,0,0,0-.451-.291.989.989,0,0,0-.772.324,11.521,11.521,0,0,0-3.289,4.711,9.036,9.036,0,0,0,.1-4.932.628.628,0,0,0-.159-.326.606.606,0,0,0-.528-.077,5.355,5.355,0,0,0-1.812.882c1.131-1.834,2.3-3.794,2.3-5.948,0-.4-.143-.9-.538-.923a.751.751,0,0,0-.4.131,3.65,3.65,0,0,0-1.019.878,1.583,1.583,0,0,0-1.051-2.3,2.82,2.82,0,0,0-1.185.155,21.26,21.26,0,0,0-3.418,1.329,10.278,10.278,0,0,0,2.063-2.2,10.3,10.3,0,0,0,.721-1.206A3.01,3.01,0,0,0,725.617-139.231Z" transform="translate(-722.486 149.364)" fill="#e59323"/>
      <path id="Trazado_103537" data-name="Trazado 103537" d="M724.712-142.262c.483-.111.962-.237,1.439-.373a1.609,1.609,0,0,0,.6-.27,1.134,1.134,0,0,0,.129-1.416,3.335,3.335,0,0,0-1.151-1.014c2.96-.044,5.362,1.519,8.115,2.61,2.561,1.016,5.423.808,8.169.587a2.926,2.926,0,0,0-1.666,1.814,2.182,2.182,0,0,0,.646,1.653,6.724,6.724,0,0,0,3.852,2.249,7.23,7.23,0,0,0-1.953.465,1.373,1.373,0,0,0-.443.244,6.3,6.3,0,0,0-3.611-1.566,2.023,2.023,0,0,0-.568-2.65,4.073,4.073,0,0,0-2.857-.636,5.083,5.083,0,0,0-3.457,1.533,2.766,2.766,0,0,0-.444-1.653,2.171,2.171,0,0,0-1.777-.629,4.833,4.833,0,0,0-3.277,1.453A3.02,3.02,0,0,0,724.712-142.262Z" transform="translate(-720.834 149.364)" fill="#e0801e"/>
      <path id="Trazado_103538" data-name="Trazado 103538" d="M724.975-136.083a7.062,7.062,0,0,0,2.416-.864l.331-.141a3.691,3.691,0,0,0-.284,1.676.074.074,0,0,0,.141.021c.167-.392.267-.817.4-1.223.073-.23.164-.455.235-.685l1.519-.655c.474-.2.956-.4,1.441-.592-.162.216-.321.434-.481.645a6.65,6.65,0,0,0-1.035,1.46.081.081,0,0,0,.124.094,7.028,7.028,0,0,0,1.19-1.463c.237-.31.488-.62.718-.943.793-.319,1.582-.646,2.343-1.017q-.389,1.362-.787,2.72c-.052.181-.108.362-.162.544-.784.373-1.566.749-2.343,1.141a12.254,12.254,0,0,0-2.209,1.232.131.131,0,0,0,.129.223,15.287,15.287,0,0,0,2.326-1.11q.964-.483,1.935-.948-.355,1.168-.737,2.328a4.6,4.6,0,0,0-1.423.751,4.235,4.235,0,0,0-1.518,1.293c-.028.051.035.106.084.085a12.9,12.9,0,0,0,1.535-1.1,10.138,10.138,0,0,1,.976-.554c.077-.038.153-.07.226-.1q-.206.611-.42,1.223c-.284.808-.608,1.606-.9,2.411-.148.4-.324.794-.486,1.192-.19.465-.279.941-.432,1.416a.046.046,0,0,0,.085.035,14.114,14.114,0,0,0,.655-1.322c.15-.4.286-.81.443-1.209.146-.369.282-.742.416-1.115a5.828,5.828,0,0,0,.455,1.868.031.031,0,0,0,.059-.016,8.105,8.105,0,0,0-.2-1.183c-.063-.359-.1-.723-.166-1.082.106-.3.213-.594.324-.89q.332-.894.659-1.787c-.005.183.024.378.03.557.012.444.04.887.068,1.329a12.688,12.688,0,0,0,.223,2.666c.024.085.139.049.155-.019a10.3,10.3,0,0,0,.023-2.6c-.018-.444-.033-.887-.073-1.328-.031-.352.023-.777-.237-1.04a.037.037,0,0,0-.024-.012q.442-1.207.869-2.418c.051.542.091,1.084.117,1.627.044.908.005,1.829.12,2.73a.068.068,0,0,0,.134,0,11.956,11.956,0,0,0,.051-2.676c-.04-.772-.112-1.538-.2-2.3q.426-1.228.817-2.47.047.078.1.157l.016.026c.226.343.5.674.721.984-.04.406-.045.815-.1,1.221a12.424,12.424,0,0,1-.3,1.636c-.016.064.089.092.113.031a7.171,7.171,0,0,0,.566-2.5q.337.476.686.944c-.141.714-.261,1.429-.357,2.152a13.568,13.568,0,0,0-.235,2.136.028.028,0,0,0,.054.007,13.471,13.471,0,0,0,.427-2.108c.118-.648.212-1.294.293-1.946l.2.256c.538.7,1.073,1.4,1.627,2.091,0,.281.023.563.014.84a11.252,11.252,0,0,1-.134,1.348.047.047,0,0,0,.092.012,9.558,9.558,0,0,0,.228-1.955c.315.387.639.768.976,1.139a.046.046,0,0,0,.073-.056c-.355-.493-.718-.979-1.08-1.465a2.7,2.7,0,0,0-.077-.382c-.009-.035-.061-.023-.064.007-.009.054-.014.106-.018.16q-.274-.368-.544-.737a12.719,12.719,0,0,0,1.4.462,10.586,10.586,0,0,0,1.766.436.065.065,0,0,0,.033-.124,10.627,10.627,0,0,0-1.735-.549,12.692,12.692,0,0,0-1.568-.359c-.254-.348-.507-.7-.752-1.056-.415-.6-.824-1.2-1.237-1.8q-.055-.081-.11-.167a4.12,4.12,0,0,0,1.266-.03c.587-.049,1.164-.127,1.742-.23.066-.01.075-.12,0-.122-.529-.012-1.056-.01-1.587.023A4.139,4.139,0,0,0,735.6-139l0,0c-.092-.146-.183-.3-.277-.453.1-.007.2-.017.3-.024l.951-.071c.141-.01.112-.22-.026-.214l-.955.038c-.145.005-.291.005-.435.016a4.2,4.2,0,0,0-.38-.5c.721-2.335,1.359-4.7,1.951-7.066.108-.432-.587-.53-.69-.1-.549,2.312-1.164,4.606-1.81,6.894-.638.232-1.263.53-1.883.815-.138-.124-.145-.2-.378-.286-.294-.11-.6-.207-.9-.3a9.251,9.251,0,0,0-1.7-.39.071.071,0,0,0-.037.136,9.122,9.122,0,0,0,1.65.716c.27.091.542.178.813.263a.8.8,0,0,0,.166.038l-.085.038q-1.113.494-2.225.988a15.753,15.753,0,0,0-2.061-.345c-.744-.12-1.488-.284-2.239-.361a.065.065,0,0,0-.035.124,11.432,11.432,0,0,0,2.134.577,12.324,12.324,0,0,0,1.627.258q-.405.178-.81.357a.093.093,0,0,0-.092.024l-.019.024-.993.437a.041.041,0,0,0-.028-.04,19.176,19.176,0,0,0-2-.516c-.037-.009-.054.054-.017.064a19.994,19.994,0,0,0,1.955.531l-.033.016a6.5,6.5,0,0,0-2.118,1.115C724.87-136.144,724.924-136.083,724.975-136.083Z" transform="translate(-720.696 147.648)" fill="#7c520b"/>
    </g>
    <g id="Grupo_56003" data-name="Grupo 56003" transform="translate(296.93 119.598)">
      <path id="Trazado_103539" data-name="Trazado 103539" d="M896.18-93.389a2.265,2.265,0,0,0,1.436,2.5c-.864-.057-1.73-.07-2.6-.042-.43.012-.862.037-1.293.073a1.4,1.4,0,0,0-.561.127.989.989,0,0,0-.352,1.188,2.88,2.88,0,0,0,.81,1.063c-2.537-.469-4.322-2.218-6.486-3.622-2.014-1.307-4.495-1.622-6.88-1.9a2.554,2.554,0,0,0,1.735-1.265,1.911,1.911,0,0,0-.268-1.524,5.867,5.867,0,0,0-2.906-2.582,6.328,6.328,0,0,0,1.749-.063,1.219,1.219,0,0,0,.42-.132.484.484,0,0,0,.061-.042,1.1,1.1,0,0,0,.331-.573,8.357,8.357,0,0,0,.382-2.878,8.127,8.127,0,0,0-.211-1.547,13.313,13.313,0,0,1,.932,1.815,2.023,2.023,0,0,0,1.544,1.2,2.561,2.561,0,0,0,1.761-.979,3.184,3.184,0,0,0,.024,1.375.714.714,0,0,0,.171.355.628.628,0,0,0,.551.12,2.332,2.332,0,0,0,1.272-.855,8.308,8.308,0,0,0,1.951-4.134,3.268,3.268,0,0,0,.51,1.531.79.79,0,0,0,.336.328.866.866,0,0,0,.714-.145,10.075,10.075,0,0,0,3.62-3.46,7.868,7.868,0,0,0-.932,4.2.56.56,0,0,0,.08.307.527.527,0,0,0,.437.157,4.681,4.681,0,0,0,1.7-.443c-1.28,1.373-2.611,2.847-2.988,4.686-.07.338-.031.8.3.88a.649.649,0,0,0,.366-.042,3.185,3.185,0,0,0,1.021-.575,1.38,1.38,0,0,0,.5,2.146,2.457,2.457,0,0,0,1.04.07,18.378,18.378,0,0,0,3.148-.549,8.973,8.973,0,0,0-2.141,1.53,8.818,8.818,0,0,0-.822.908A2.582,2.582,0,0,0,896.18-93.389Z" transform="translate(-878.819 107.457)" fill="#e59323"/>
      <path id="Trazado_103540" data-name="Trazado 103540" d="M895.019-94.289c-.43.012-.862.037-1.293.073a1.4,1.4,0,0,0-.561.127.989.989,0,0,0-.352,1.188,2.88,2.88,0,0,0,.81,1.063c-2.537-.469-4.322-2.218-6.486-3.622-2.014-1.307-4.495-1.622-6.88-1.9a2.554,2.554,0,0,0,1.735-1.265,1.911,1.911,0,0,0-.268-1.524,5.867,5.867,0,0,0-2.906-2.582,6.328,6.328,0,0,0,1.749-.063,1.22,1.22,0,0,0,.42-.132,5.488,5.488,0,0,0,2.815,1.958,1.762,1.762,0,0,0,.031,2.361,3.548,3.548,0,0,0,2.333,1.035,4.422,4.422,0,0,0,3.216-.718,2.407,2.407,0,0,0,.1,1.49,1.89,1.89,0,0,0,1.41.841,4.213,4.213,0,0,0,3.05-.678A2.631,2.631,0,0,0,895.019-94.289Z" transform="translate(-878.819 110.818)" fill="#e0801e"/>
      <path id="Trazado_103541" data-name="Trazado 103541" d="M894.155-96.521a6.152,6.152,0,0,0-2.213.322l-.308.064a3.22,3.22,0,0,0,.531-1.383.066.066,0,0,0-.118-.042c-.209.307-.368.652-.547.976-.1.185-.218.362-.319.545q-.706.152-1.411.3c-.439.092-.885.176-1.333.258.176-.155.35-.315.523-.467a5.805,5.805,0,0,0,1.134-1.07.07.07,0,0,0-.089-.1,6.14,6.14,0,0,0-1.268,1.045c-.256.225-.523.446-.775.681-.732.138-1.464.281-2.176.469q.565-1.1,1.139-2.188c.077-.146.153-.293.232-.437q1.1-.274,2.2-.573a10.637,10.637,0,0,0,2.1-.674.113.113,0,0,0-.073-.211,13.293,13.293,0,0,0-2.178.549q-.907.248-1.817.477.5-.936,1.03-1.862a3.987,3.987,0,0,0,1.345-.4,3.688,3.688,0,0,0,1.519-.845.057.057,0,0,0-.057-.087,11.3,11.3,0,0,0-1.5.679,8.635,8.635,0,0,1-.929.3c-.073.019-.143.035-.211.051q.28-.489.566-.974c.383-.643.8-1.268,1.188-1.9.2-.321.413-.624.62-.936.24-.366.4-.756.612-1.136a.041.041,0,0,0-.068-.045c-.263.345-.556.646-.786,1.017-.2.319-.383.643-.585.958-.188.291-.369.585-.547.88a5.07,5.07,0,0,0-.068-1.672.028.028,0,0,0-.054,0,7.163,7.163,0,0,0-.033,1.044c-.009.317-.037.636-.044.953-.143.237-.284.472-.43.707q-.436.706-.869,1.413c.036-.157.044-.328.071-.483.064-.382.117-.763.169-1.146a11,11,0,0,0,.267-2.317c-.007-.075-.11-.064-.136-.009a8.92,8.92,0,0,0-.464,2.216c-.063.382-.125.763-.167,1.148-.033.3-.151.66.024.929a.039.039,0,0,0,.017.016q-.583.954-1.157,1.916.076-.708.179-1.411c.119-.782.31-1.563.366-2.354a.059.059,0,0,0-.115-.023,10.54,10.54,0,0,0-.5,2.277c-.1.666-.169,1.335-.221,2q-.575.977-1.122,1.972c-.017-.051-.036-.1-.057-.152l-.011-.026c-.134-.333-.31-.66-.446-.963.1-.34.178-.688.291-1.028a10.927,10.927,0,0,1,.54-1.345c.026-.052-.059-.094-.091-.045a6.243,6.243,0,0,0-.911,2.037q-.206-.465-.425-.925c.242-.585.469-1.176.674-1.777a11.771,11.771,0,0,0,.566-1.784.024.024,0,0,0-.043-.016,11.9,11.9,0,0,0-.728,1.728c-.211.533-.4,1.07-.582,1.613l-.124-.254c-.34-.692-.676-1.383-1.031-2.064.047-.24.078-.484.132-.72a9.708,9.708,0,0,1,.345-1.129.04.04,0,0,0-.075-.028,8.346,8.346,0,0,0-.531,1.632c-.2-.385-.415-.767-.638-1.141a.04.04,0,0,0-.071.035c.218.483.444.96.669,1.437a2.462,2.462,0,0,0,0,.34c0,.03.047.03.058,0,.014-.044.028-.087.042-.132q.17.361.338.721a11.248,11.248,0,0,0-1.122-.634,9.263,9.263,0,0,0-1.434-.676.057.057,0,0,0-.05.1,9.1,9.1,0,0,0,1.389.765,11.221,11.221,0,0,0,1.279.577c.158.343.314.686.462,1.031.251.584.5,1.169.747,1.753.023.052.043.108.066.162a3.6,3.6,0,0,0-1.089-.192c-.509-.059-1.016-.091-1.528-.1-.057,0-.085.091-.023.1.453.1.9.19,1.361.253a3.624,3.624,0,0,0,1.331.082l0,0c.052.141.1.287.158.434l-.261-.03-.826-.1c-.122-.016-.132.167-.014.186l.822.132c.125.021.249.045.375.061a3.847,3.847,0,0,0,.239.49c-1.016,1.871-1.967,3.779-2.878,5.7-.167.352.41.554.571.2.868-1.882,1.786-3.735,2.73-5.578.585-.091,1.169-.237,1.749-.373.1.127.089.193.273.308.234.143.477.279.718.411a8.071,8.071,0,0,0,1.389.625.062.062,0,0,0,.056-.11,7.907,7.907,0,0,0-1.287-.894c-.216-.124-.432-.246-.65-.366a.9.9,0,0,0-.136-.061l.08-.017q1.035-.233,2.071-.463a13.143,13.143,0,0,0,1.7.648c.615.232,1.223.5,1.85.693a.056.056,0,0,0,.051-.1,9.933,9.933,0,0,0-1.723-.859,10.865,10.865,0,0,0-1.347-.5l.753-.166a.081.081,0,0,0,.084-.007l.021-.016.923-.2a.036.036,0,0,0,.017.038,16.766,16.766,0,0,0,1.622.786c.03.014.056-.037.026-.052-.519-.272-1.035-.571-1.578-.791l.03-.007a5.618,5.618,0,0,0,2-.589C894.233-96.451,894.2-96.512,894.155-96.521Z" transform="translate(-877.529 109.169)" fill="#7c520b"/>
    </g>
    <g id="Grupo_56004" data-name="Grupo 56004" transform="translate(218.617 42.47)">
      <path id="Trazado_103542" data-name="Trazado 103542" d="M851.227-137.658a2.265,2.265,0,0,0,1.437,2.5,25.808,25.808,0,0,0-2.6-.042q-.648.018-1.295.073a1.388,1.388,0,0,0-.559.125.99.99,0,0,0-.354,1.19,2.91,2.91,0,0,0,.81,1.063c-2.536-.47-4.321-2.218-6.484-3.622-2.016-1.308-4.5-1.622-6.882-1.9a2.551,2.551,0,0,0,1.735-1.265,1.9,1.9,0,0,0-.268-1.523,5.869,5.869,0,0,0-2.9-2.582,6.316,6.316,0,0,0,1.747-.063,1.233,1.233,0,0,0,.42-.132.64.64,0,0,0,.063-.042,1.119,1.119,0,0,0,.331-.575,8.387,8.387,0,0,0,.381-2.878,8.316,8.316,0,0,0-.211-1.547,13.5,13.5,0,0,1,.93,1.817,2.032,2.032,0,0,0,1.544,1.2,2.572,2.572,0,0,0,1.763-.979,3.128,3.128,0,0,0,.024,1.375.722.722,0,0,0,.169.355.636.636,0,0,0,.552.12,2.331,2.331,0,0,0,1.27-.857,8.288,8.288,0,0,0,1.951-4.132,3.289,3.289,0,0,0,.512,1.531.787.787,0,0,0,.334.328.86.86,0,0,0,.714-.146,10.019,10.019,0,0,0,3.62-3.46,7.894,7.894,0,0,0-.932,4.2.555.555,0,0,0,.08.3.518.518,0,0,0,.437.157,4.689,4.689,0,0,0,1.7-.441c-1.28,1.373-2.613,2.847-2.99,4.686-.07.336-.031.8.3.88a.66.66,0,0,0,.366-.042,3.239,3.239,0,0,0,1.023-.575,1.379,1.379,0,0,0,.5,2.146,2.451,2.451,0,0,0,1.038.07,18.39,18.39,0,0,0,3.15-.549,8.947,8.947,0,0,0-2.143,1.53,8.989,8.989,0,0,0-.822.906A2.608,2.608,0,0,0,851.227-137.658Z" transform="translate(-833.868 151.728)" fill="#e59323"/>
      <path id="Trazado_103543" data-name="Trazado 103543" d="M850.069-138.559q-.648.018-1.295.073a1.388,1.388,0,0,0-.559.125.99.99,0,0,0-.354,1.19,2.91,2.91,0,0,0,.81,1.063c-2.536-.47-4.321-2.218-6.484-3.622-2.016-1.308-4.5-1.622-6.882-1.9a2.551,2.551,0,0,0,1.735-1.265,1.9,1.9,0,0,0-.268-1.523,5.869,5.869,0,0,0-2.9-2.582,6.317,6.317,0,0,0,1.747-.063,1.232,1.232,0,0,0,.42-.132,5.5,5.5,0,0,0,2.817,1.958,1.762,1.762,0,0,0,.029,2.361,3.549,3.549,0,0,0,2.333,1.035,4.429,4.429,0,0,0,3.216-.718,2.429,2.429,0,0,0,.1,1.49,1.894,1.894,0,0,0,1.411.841,4.21,4.21,0,0,0,3.049-.678A2.635,2.635,0,0,0,850.069-138.559Z" transform="translate(-833.868 155.09)" fill="#e0801e"/>
      <path id="Trazado_103544" data-name="Trazado 103544" d="M849.2-140.791a6.162,6.162,0,0,0-2.213.322l-.307.064a3.215,3.215,0,0,0,.53-1.383.064.064,0,0,0-.117-.042c-.211.307-.369.652-.549.976-.1.185-.216.362-.317.545-.47.1-.941.2-1.411.3-.441.092-.887.176-1.333.26.176-.157.348-.315.521-.469a5.755,5.755,0,0,0,1.134-1.068.071.071,0,0,0-.089-.1,6.144,6.144,0,0,0-1.268,1.047c-.256.225-.523.446-.775.681-.73.138-1.462.28-2.176.467q.567-1.095,1.139-2.186c.077-.146.155-.293.232-.439.735-.183,1.469-.371,2.2-.571a10.616,10.616,0,0,0,2.1-.674.114.114,0,0,0-.071-.213,13.426,13.426,0,0,0-2.178.549q-.907.248-1.819.479.5-.938,1.03-1.862a4.022,4.022,0,0,0,1.345-.4,3.721,3.721,0,0,0,1.519-.845.057.057,0,0,0-.058-.087,11.392,11.392,0,0,0-1.5.678,8.755,8.755,0,0,1-.927.307c-.075.019-.145.033-.213.049q.279-.489.568-.972c.381-.643.794-1.268,1.186-1.906.2-.319.413-.622.62-.936.242-.364.4-.754.611-1.134a.04.04,0,0,0-.066-.045,12.722,12.722,0,0,0-.787,1.017c-.2.319-.382.643-.585.958-.188.291-.368.585-.547.88a5.073,5.073,0,0,0-.068-1.672.027.027,0,0,0-.052,0,6.93,6.93,0,0,0-.035,1.044c-.007.317-.036.636-.044.953-.141.235-.284.472-.429.706q-.437.706-.871,1.415c.036-.157.045-.328.071-.483.065-.382.117-.765.169-1.148a10.869,10.869,0,0,0,.266-2.315c-.005-.077-.11-.066-.134-.01a8.925,8.925,0,0,0-.465,2.218c-.063.382-.125.763-.167,1.148-.031.3-.151.659.025.929a.052.052,0,0,0,.019.016q-.583.954-1.157,1.916.073-.708.179-1.411c.117-.784.308-1.564.366-2.354a.06.06,0,0,0-.115-.024,10.46,10.46,0,0,0-.5,2.279c-.1.665-.167,1.333-.22,2-.385.652-.758,1.308-1.124,1.972-.017-.052-.037-.1-.056-.153l-.01-.024c-.136-.333-.312-.66-.448-.963.1-.341.179-.69.291-1.028a10.812,10.812,0,0,1,.542-1.345c.026-.054-.061-.094-.091-.047a6.227,6.227,0,0,0-.913,2.037q-.207-.463-.425-.923c.242-.587.469-1.176.674-1.777a11.854,11.854,0,0,0,.568-1.784.025.025,0,0,0-.045-.016,11.889,11.889,0,0,0-.726,1.728c-.211.533-.4,1.07-.584,1.613-.04-.085-.082-.171-.122-.254-.34-.692-.676-1.383-1.031-2.064.045-.24.077-.486.133-.721a9.561,9.561,0,0,1,.345-1.129.041.041,0,0,0-.077-.026,8.318,8.318,0,0,0-.53,1.631c-.2-.383-.415-.765-.638-1.141a.041.041,0,0,0-.073.037c.218.481.444.96.671,1.437a2.446,2.446,0,0,0,0,.34c0,.03.049.03.057,0,.016-.044.03-.089.042-.132q.17.361.338.721a11.406,11.406,0,0,0-1.12-.634,9.207,9.207,0,0,0-1.436-.676.056.056,0,0,0-.051.1,9.363,9.363,0,0,0,1.39.767,11.061,11.061,0,0,0,1.277.577q.238.512.464,1.031.374.875.746,1.753c.023.052.045.106.066.162a3.649,3.649,0,0,0-1.089-.193c-.509-.058-1.014-.089-1.528-.1-.056,0-.084.091-.021.1.451.1.9.19,1.359.251a3.55,3.55,0,0,0,1.331.082l0,0c.052.143.1.289.157.436-.087-.012-.174-.019-.261-.031-.275-.033-.551-.068-.824-.1-.122-.014-.134.169-.016.188l.824.132c.124.019.249.045.375.059a3.253,3.253,0,0,0,.239.49c-1.017,1.873-1.967,3.781-2.88,5.7-.166.352.409.554.573.2.866-1.882,1.786-3.737,2.73-5.58.584-.089,1.169-.235,1.747-.373.1.129.091.193.275.308.233.145.476.28.716.413a8.064,8.064,0,0,0,1.389.625.062.062,0,0,0,.056-.11,8.016,8.016,0,0,0-1.288-.9c-.214-.124-.432-.244-.65-.364a.666.666,0,0,0-.136-.061l.08-.019,2.071-.462a13.608,13.608,0,0,0,1.7.648c.617.232,1.223.5,1.852.693a.056.056,0,0,0,.05-.1,9.9,9.9,0,0,0-1.725-.861,10.854,10.854,0,0,0-1.347-.5c.251-.056.5-.111.755-.165a.081.081,0,0,0,.084-.007l.021-.017.923-.2a.035.035,0,0,0,.016.038,16.763,16.763,0,0,0,1.622.786c.03.014.056-.038.026-.054a17.307,17.307,0,0,0-1.578-.789l.031-.007a5.611,5.611,0,0,0,2-.591C849.281-140.723,849.246-140.784,849.2-140.791Z" transform="translate(-832.578 153.441)" fill="#7c520b"/>
    </g>
    <path id="Trazado_103545" data-name="Trazado 103545" d="M863.269-50.44a2.7,2.7,0,0,0-2.293.507,21.335,21.335,0,0,0-2.427,1.321A.888.888,0,0,0,859.23-47a22.4,22.4,0,0,0,2.718-1.073c.87-.357,1.446-.587,1.817-1.5A.719.719,0,0,0,863.269-50.44Z" transform="translate(-597.231 269.295)" fill="#dc491f"/>
    <path id="Trazado_103546" data-name="Trazado 103546" d="M750.774-60.07a6,6,0,0,0-1.484-.66c-.495-.188-.983-.4-1.465-.617-.655-.291-1.53.566-.848,1.1.441.341.873.69,1.3,1.051a6.809,6.809,0,0,0,1.369,1.066A1.181,1.181,0,0,0,751-58.309a.874.874,0,0,0,.289-.495A1.176,1.176,0,0,0,750.774-60.07Z" transform="translate(-679.923 261.233)" fill="#dc491f"/>
    <path id="Trazado_103547" data-name="Trazado 103547" d="M871.677-142.676a1.38,1.38,0,0,0-1.782.106c-.349.294-.632.655-1,.929a11.682,11.682,0,0,0-1.34.953,1.214,1.214,0,0,0,.85,2.049,5.19,5.19,0,0,0,3.624-2.286A1.35,1.35,0,0,0,871.677-142.676Z" transform="translate(-590.5 200.71)" fill="#dc491f"/>
    <path id="Trazado_103548" data-name="Trazado 103548" d="M902.256-113.926a5.607,5.607,0,0,0-1.348-1.254,11.186,11.186,0,0,0-1.493-1.044.962.962,0,0,0-1.139.148.937.937,0,0,0-.146,1.138,10.773,10.773,0,0,0,1.19,1.347,5.922,5.922,0,0,0,1.4,1.2,1.172,1.172,0,0,0,1.361-.176A1.144,1.144,0,0,0,902.256-113.926Z" transform="translate(-567.657 220.458)" fill="#dc491f"/>
    <path id="Trazado_103549" data-name="Trazado 103549" d="M902.186-87.26a17.718,17.718,0,0,0-3.061-1.286c-.887-.206-1.76.976-.958,1.646a17.251,17.251,0,0,0,2.821,1.692,1.212,1.212,0,0,0,1.625-.427A1.2,1.2,0,0,0,902.186-87.26Z" transform="translate(-567.765 241.073)" fill="#dc491f"/>
    <path id="Trazado_103550" data-name="Trazado 103550" d="M878.076-116.408a21.329,21.329,0,0,0-4.07,1.411c-1.213.465-.753,2.368.547,1.988a22.443,22.443,0,0,0,4.345-1.449C880.04-115.072,879.195-116.586,878.076-116.408Z" transform="translate(-585.985 220.401)" fill="#dc491f"/>
    <path id="Trazado_103551" data-name="Trazado 103551" d="M712.11-94.031a14.618,14.618,0,0,0-1.7-.643,2.7,2.7,0,0,0-1.632-.152.572.572,0,0,0-.335.824,2.744,2.744,0,0,0,1.221,1.1,14.266,14.266,0,0,0,1.618.821C712.4-91.635,713.19-93.5,712.11-94.031Z" transform="translate(-708.383 236.375)" fill="#dc491f"/>
    <path id="Trazado_103552" data-name="Trazado 103552" d="M881.129-92.861a2.479,2.479,0,0,0-1.73.657,1.751,1.751,0,0,0-.557.835,1.127,1.127,0,0,0,.749,1.362,1.162,1.162,0,0,0,.923-.125,2.465,2.465,0,0,0,.267-.206l.044-.021.012-.005.1-.04c.058-.019.119-.033.178-.052h.012a1.219,1.219,0,0,0,1.2-1.2A1.224,1.224,0,0,0,881.129-92.861Z" transform="translate(-581.898 237.888)" fill="#e59323"/>
    <path id="Trazado_103553" data-name="Trazado 103553" d="M800.864-174.556a4.432,4.432,0,0,0-1.117-1.061,1.853,1.853,0,0,0-1.307-.484.827.827,0,0,0-.814.814,1.807,1.807,0,0,0,.176.777,3.033,3.033,0,0,0,.493.577,4.152,4.152,0,0,0,1.061.885,1.132,1.132,0,0,0,1.334-.172A1.118,1.118,0,0,0,800.864-174.556Z" transform="translate(-642.148 176.106)" fill="#e59323"/>
    <path id="Trazado_103554" data-name="Trazado 103554" d="M840.087-161.092c-.763-.6-2-.01-2.817.254-1.106.359-.62,2.125.481,1.746a11.515,11.515,0,0,0,1.46-.535c.415-.213.9-.429,1.023-.916A.552.552,0,0,0,840.087-161.092Z" transform="translate(-613.191 187.055)" fill="#e59323"/>
    <path id="Trazado_103555" data-name="Trazado 103555" d="M855.644-149.1a3.228,3.228,0,0,0-.948-.483l-.888-.261a1.076,1.076,0,0,0-1.31.744,1.1,1.1,0,0,0,.744,1.31c.289.112.58.221.869.331a3.317,3.317,0,0,0,1.047.157.974.974,0,0,0,.93-.709A1,1,0,0,0,855.644-149.1Z" transform="translate(-601.448 195.571)" fill="#e59323"/>
    <path id="Trazado_103556" data-name="Trazado 103556" d="M723.772-117.123a.88.88,0,0,0-.923-.315,4.957,4.957,0,0,0-1.659,1.146.862.862,0,0,0-.068,1.143.871.871,0,0,0,1.122.223,4.844,4.844,0,0,0,1.6-1.221A.869.869,0,0,0,723.772-117.123Z" transform="translate(-699.064 219.622)" fill="#e59323"/>
    <path id="Trazado_103557" data-name="Trazado 103557" d="M741.757-103.814h-.293a1.41,1.41,0,0,0-1.4,1.4,1.418,1.418,0,0,0,1.4,1.4h.293a1.412,1.412,0,0,0,1.4-1.4A1.421,1.421,0,0,0,741.757-103.814Z" transform="translate(-684.867 229.759)" fill="#fff"/>
    <path id="Trazado_103558" data-name="Trazado 103558" d="M742.261-147.7a1.2,1.2,0,0,0,0,2.406A1.2,1.2,0,0,0,742.261-147.7Z" transform="translate(-684.101 197.191)" fill="#fff"/>
    <path id="Trazado_103559" data-name="Trazado 103559" d="M800.244-166.446l-.267-.1a1.293,1.293,0,0,0-1.625,1.237,1.293,1.293,0,0,0,1.625,1.239l.267-.1a1.215,1.215,0,0,0,.869-1.143A1.238,1.238,0,0,0,800.244-166.446Z" transform="translate(-641.61 183.158)" fill="#fff"/>
    <path id="Trazado_103560" data-name="Trazado 103560" d="M791.008-154.879c-.136-.084-.277-.16-.418-.24a1.457,1.457,0,0,0-2.171,1.247,1.457,1.457,0,0,0,2.171,1.246c.141-.078.282-.155.418-.24A1.178,1.178,0,0,0,791.008-154.879Z" transform="translate(-648.982 191.542)" fill="#fff"/>
    <path id="Trazado_103561" data-name="Trazado 103561" d="M873.058-90.175a1.9,1.9,0,0,0-1.876,1.876,1.909,1.909,0,0,0,1.876,1.878,1.9,1.9,0,0,0,1.876-1.878A1.91,1.91,0,0,0,873.058-90.175Z" transform="translate(-587.559 239.881)" fill="#fff"/>
    <path id="Trazado_103562" data-name="Trazado 103562" d="M877.8-135.981a1.262,1.262,0,0,0-1.734-.495,1.263,1.263,0,0,0-.253,1.965,1.262,1.262,0,0,0,1.965-.253A1.266,1.266,0,0,0,877.8-135.981Z" transform="translate(-584.391 205.395)" fill="#fff"/>
    <path id="Trazado_103563" data-name="Trazado 103563" d="M851.685-164.314l-.051-.084a1.443,1.443,0,0,0-1.594-.65A1.434,1.434,0,0,0,849-163.685a1.433,1.433,0,0,0,.868,1.289,1.415,1.415,0,0,0,1.763-.577l.051-.085A1.246,1.246,0,0,0,851.685-164.314Z" transform="translate(-604.019 184.277)" fill="#fff"/>
  </g>
</svg>
