<svg xmlns="http://www.w3.org/2000/svg" width="274" height="231.1" viewBox="0 0 274 231.1">
  <g id="Grupo_54848" data-name="Grupo 54848" transform="translate(-1559.943 -668.225)">
    <path id="Trazado_101761" data-name="Trazado 101761" d="M1819.346,893.649a4.864,4.864,0,0,1,1.831-4.77c5.386-3.4,11.575-6.963,17.828-8.76,10.2-2.928,17.754-13.127,18.225-25.447q.041-1.056.041-2.124c0-25.449-17.337-46.271-38.526-46.271-4.253,0-7.731-4.179-7.731-9.286s3.479-9.287,7.731-9.287H1838.9c10.337,0,18.795-10.158,18.795-22.573s-8.437-22.55-18.758-22.574H1820.6c-8.939,0-16.253-8.784-16.253-19.522h0c0-19.591-13.345-35.619-29.656-35.619h-68.523c-21.189,0-38.526,20.822-38.526,46.271s17.336,46.272,38.526,46.272c4.253,0,7.731,4.179,7.731,9.286h0c0,5.107-3.479,9.287-7.731,9.287h-20.159c-10.337,0-18.794,10.156-18.794,22.572s8.457,22.573,18.794,22.573c8.939,0,16.254,8.785,16.254,19.522,0,19.591,13.345,35.619,29.656,35.619h77.2a13.53,13.53,0,0,0,10.188-5.131Z" transform="translate(-23.754 -4.25)" fill="#e6f3f9" fill-rule="evenodd"/>
    <g id="Grupo_54828" data-name="Grupo 54828" transform="translate(1648.646 668.539)">
      <path id="Trazado_101762" data-name="Trazado 101762" d="M1763.162,743.193c-8.539,8.407-18.088,38.414-25.471,45.5-4.8,4.608,14.929,12.9,17.9,7.24,2.9-5.518,16.847-19.415,17.76-24.343C1775.741,758.7,1766.39,740.018,1763.162,743.193Z" transform="translate(-1687.84 -685.06)" fill="#fac873"/>
      <path id="Trazado_101763" data-name="Trazado 101763" d="M1759.254,765.033c6.288-12.844,18.116-2.729,15.729,10.16-.913,4.928-14.858,18.825-17.76,24.343-1.865,3.547-8.061,1.47-12.923-1.6C1748.782,795.156,1754.578,774.585,1759.254,765.033Z" transform="translate(-1689.47 -688.66)" fill="#f9b645"/>
      <path id="Trazado_101764" data-name="Trazado 101764" d="M1752.714,805.211c-3.725,9.258-15.934,21.477-30.235,25.95l-5.677-7.326s10.936-20.932,18.565-27.233S1754.6,800.53,1752.714,805.211Z" transform="translate(-1683.38 -696.525)" fill="#f2d16b"/>
      <path id="Trazado_101765" data-name="Trazado 101765" d="M1719.195,823.473c16.736-7.477,24.961-28.691,27.1-33.417,4.937,1.965,7.567,11.286,6.417,14.147-3.725,9.258-15.934,21.477-30.235,25.95l-5.677-7.326s.234-.445.645-1.208Z" transform="translate(-1683.38 -695.517)" fill="#f9b645"/>
      <path id="Trazado_101766" data-name="Trazado 101766" d="M1746.942,818.654c-2.132-3.369-18.3-12.789-22.318-9.2s-12.65,20.4-12.906,20.827,6.847,5.272,8.2,5.543S1739.391,828.679,1746.942,818.654Z" transform="translate(-1682.253 -699.635)" fill="#f7e4ae"/>
      <g id="Grupo_54816" data-name="Grupo 54816" transform="translate(32.133 115.06)">
        <path id="Trazado_101767" data-name="Trazado 101767" d="M1742.994,816.413a18.075,18.075,0,0,1,4.709,3.959c-7.551,10.025-25.666,17.443-27.022,17.174a62.484,62.484,0,0,1-5.534-3.287C1717.869,830.969,1736.774,821.3,1742.994,816.413Z" transform="translate(-1715.147 -816.413)" fill="#eed28c"/>
      </g>
      <g id="Grupo_54817" data-name="Grupo 54817" transform="translate(23.021 124.252)">
        <path id="Trazado_101768" data-name="Trazado 101768" d="M1713.321,829.245s.069-1.608-1.484-.8c-2.389,1.248-4.488,3.11-7.68,5.869-.935.809-.795,8.05-.455,10.606,1.321-.6,12.242,2.231,12.242,2.231s3.98-3.4,5.241-7.44c.384-1.227,4.962-7.192,7.09-9.6-6.449,2.132-14.935,4.316-16.615,3.231C1708.624,831.384,1713.321,829.245,1713.321,829.245Z" transform="translate(-1703.443 -828.22)" fill="#eed28c"/>
      </g>
      <path id="Trazado_101769" data-name="Trazado 101769" d="M1774.373,718.989c2.621-5.718,7.958-8.809,11.92-6.9s5.051,8.087,2.429,13.8-7.958,8.809-11.92,6.9S1771.752,724.707,1774.373,718.989Z" transform="translate(-1695.813 -678.126)" fill="#f2d16b"/>
      <g id="Grupo_54818" data-name="Grupo 54818" transform="translate(0.929 132.865)">
        <path id="Trazado_101770" data-name="Trazado 101770" d="M1762.458,934.248c20.057,0,23.2-23.168,25.971-43.607,2.536-18.693,4.931-36.35,18.336-36.35,8.433,0,8.862,9.433,8.862,24.824h3.545c0-14.547,0-28.288-12.406-28.288-16.511,0-19.225,20.008-21.85,39.358-2.707,19.959-5.507,40.6-22.458,40.6-15.221,0-21.771-23.985-28.105-47.18-6.225-22.793-12.1-44.322-26.54-44.322-16.2,0-26.914,12.339-32.745,37.722l3.459.76c5.413-23.564,14.992-35.018,29.286-35.018,11.714,0,17.51,21.225,23.115,41.751C1737.608,908.956,1744.515,934.248,1762.458,934.248Z" transform="translate(-1675.068 -839.282)" fill="#ce5761"/>
        <path id="Trazado_101771" data-name="Trazado 101771" d="M1722.77,840.24c11.313,3.945,16.595,23.251,22.146,43.576,6.334,23.195,12.884,47.18,28.105,47.18,16.951,0,19.75-20.639,22.458-40.6,2.625-19.35,5.339-39.358,21.85-39.358,12.406,0,12.406,13.74,12.406,28.288h-3.544c0-15.391-.428-24.824-8.862-24.824-13.405,0-15.8,17.656-18.336,36.35-2.772,20.439-5.915,43.607-25.971,43.607-17.944,0-24.85-25.292-31.53-49.751-1.846-6.759-3.714-13.589-5.806-19.717A36.98,36.98,0,0,0,1722.77,840.24Z" transform="translate(-1685.631 -839.494)" fill="#b03344"/>
      </g>
      <path id="Trazado_101772" data-name="Trazado 101772" d="M1743.011,925.7h-2.363l4.283-56.344s8.141-65.051,9.969-69.341l17.944,7.311,7.917,15.119-19.775,51.814Z" transform="translate(-1688.661 -697.722)" fill="#fac873"/>
      <path id="Trazado_101773" data-name="Trazado 101773" d="M1744.931,872.187s5.015-40.074,8.057-59.389c-2.826,20.081-5.99,45.358-5.99,45.358l-4.283,56.344h2.363l21.513-68.076,14.117-22.311,1.9,3.631-21.027,50.166-18.573,50.621h-2.363Z" transform="translate(-1688.661 -700.553)" fill="#f9b645"/>
      <path id="Trazado_101774" data-name="Trazado 101774" d="M1811.668,818.9l-4.763,54.5-2.375,53.982-1.945.479-11.815-52.283-8.566-28.5-10.412-5.243-.886-32.049Z" transform="translate(-1695.361 -699.885)" fill="#fac873"/>
      <path id="Trazado_101775" data-name="Trazado 101775" d="M1781.366,847.964l10.948,44.6,5.391,28.357,2.437-.443-2.068-54.35-.833-32.634-43.37-5.281.966-8.423,55.052,1.218-5.317,55.384-3.815,53.207-1.945.479L1787,877.8l-9.9-27.434-12.3-3.877Z" transform="translate(-1691.589 -702.101)" fill="#f9b645"/>
      <path id="Trazado_101776" data-name="Trazado 101776" d="M1759.035,772.8l8.123-31.9s13.44-8.123,27.619-8.418,23.926,8.862,23.926,8.862l-3.4,29.538-6.351,37.366-53.969-5.431Z" transform="translate(-1691.836 -682.766)" fill="#fac873"/>
      <path id="Trazado_101777" data-name="Trazado 101777" d="M1758.975,781.554c.037,12.812,1.493,23.79,9.956,25.762,18.055,4.21,29.14-4.988,36.037-23.113,7.684-20.194,13.587-13,13.587-13l-9.6,45.342-53.969-5.431.948-11.7Z" transform="translate(-1691.836 -691.067)" fill="#f9b645"/>
      <path id="Trazado_101778" data-name="Trazado 101778" d="M1805.9,963.162h19.052s-12.8-7.021-14.75-6.631S1805.9,963.162,1805.9,963.162Z" transform="translate(-1703.111 -732.377)" fill="#f7e4ae"/>
      <path id="Trazado_101779" data-name="Trazado 101779" d="M1725.852,963.52h16.836s-2.263-4.734-3.4-5.317C1737.785,957.428,1725.852,963.52,1725.852,963.52Z" transform="translate(-1685.385 -732.736)" fill="#f7e4ae"/>
      <path id="Trazado_101780" data-name="Trazado 101780" d="M1832.146,742c9.078,5.325,33.675,32.938,32.907,39.383s-13.137,11.027-16.837,6.646c-3.609-4.274-18.477-13.35-21.674-16.726C1818.6,762.919,1828.716,739.985,1832.146,742Z" transform="translate(-1707.024 -684.847)" fill="#fac873"/>
      <path id="Trazado_101781" data-name="Trazado 101781" d="M1811.785,755.6s7.532-11.077,6.794-15.359c-.214-1.241,1.561-2.394,4.183-3.408a38.751,38.751,0,0,1,6.773,4.049c2.616,1.534,6.521,4.924,10.735,9.118C1830.319,746.332,1816.218,750.905,1811.785,755.6Z" transform="translate(-1704.413 -683.731)" fill="#f9b645"/>
      <path id="Trazado_101782" data-name="Trazado 101782" d="M1858.993,783.933c3.352-3.724-10.164-23.98-21.356-36.153,10.935,9.677,27.731,29.564,27.095,34.908-.768,6.444-13.137,11.027-16.837,6.646-3.609-4.274-20.39-11.632-22.781-15.618-1.206-2.011-2.766-4.618-2.99-6.647C1833.866,779.749,1854.531,788.89,1858.993,783.933Z" transform="translate(-1706.703 -686.155)" fill="#f9b645"/>
      <path id="Trazado_101783" data-name="Trazado 101783" d="M1815.049,725.728c4.452-1.364,3-3.613,1.329-4.431s4.911-34.708,3.249-40.024c-1.581-5.061-8.64-11.815-21.821-12.591-6.417-.378-16.615,1.218-14.025,5.223,1.366,2.112-8.5,43.845-8.9,43.914-3.064.525-3.855,6.577-2.185,7.94S1815.049,725.728,1815.049,725.728Z" transform="translate(-1695.567 -668.628)" fill="#fac873"/>
      <path id="Trazado_101784" data-name="Trazado 101784" d="M1785.926,725.059c.221-1.663-5.613-6.2-12.652-5.854a2.855,2.855,0,0,1,1.722-1.1,2.987,2.987,0,0,0,.261-.75c.853.244,7.582-3.225,8.6-3.082,8.672,1.21,11.614,6.077,17.169-1.551,9.65-13.251,11.923-39.744,3.579-42.784,9.888,2.294,17.162,7.934,18.464,12.1,1.662,5.317-5.1,38.948-3.434,39.766s2.31,3.761-1.994,5.539c-5.095,2.1-32.9,5.982-44.831-1.3a1.4,1.4,0,0,1-.438-.58C1778.319,728.086,1785.7,726.729,1785.926,725.059Z" transform="translate(-1695.686 -668.919)" fill="#f9b645"/>
      <path id="Trazado_101785" data-name="Trazado 101785" d="M1800.647,702.817c-.139-.546,3.977-23.316,3.977-23.316l-19.977-4.1s-8.765,21-8.9,43.914l18.239-1.342Z" transform="translate(-1696.432 -670.129)" fill="#6393db"/>
      <path id="Trazado_101786" data-name="Trazado 101786" d="M1790.967,678.164l12.929,2.673s-3.877,21.621-3.745,22.138l-6.28,14.394-15.709,1.165C1783.438,710.141,1789.755,691.221,1790.967,678.164Z" transform="translate(-1696.968 -670.74)" fill="#28698d"/>
      <path id="Trazado_101787" data-name="Trazado 101787" d="M1775.681,718.647l18.38-1.531,6.116-14.57c.138-1.829,2.142-13.155,3.89-22.841l-19.191-3.936-.031.08-.813-.356c.1-.241.156-.388.163-.4l.14-.336,20.759,4.256-.077.426c-1.591,8.8-3.946,22.149-3.974,23.169l.027.107-6.834,15.542-18.685,1.278Z" transform="translate(-1696.39 -669.984)" fill="#56474c"/>
      <path id="Trazado_101788" data-name="Trazado 101788" d="M1803.729,709.667l-2.621,16.221-10.849.28a16.953,16.953,0,0,1,1.746-7.985C1794.685,712.587,1799.605,709.153,1803.729,709.667Z" transform="translate(-1699.643 -677.704)" fill="#56474c"/>
      <path id="Trazado_101789" data-name="Trazado 101789" d="M1793.538,719.472c3.092-6.44,9.558-9.835,14.441-7.584s6.335,9.3,3.243,15.736-9.558,9.835-14.441,7.584S1790.445,725.913,1793.538,719.472Z" transform="translate(-1700.013 -678.053)" fill="#f2d16b"/>
      <path id="Trazado_101790" data-name="Trazado 101790" d="M1797.515,722.784c3.939-6.639,10.395-10.34,14.418-8.268s4.093,9.135.154,15.774-10.395,10.34-14.418,8.268S1793.576,729.423,1797.515,722.784Z" transform="translate(-1700.609 -678.662)" fill="#ecb658"/>
      <ellipse id="Elipse_4011" data-name="Elipse 4011" cx="10.494" cy="7.96" rx="10.494" ry="7.96" transform="matrix(0.429, -0.903, 0.903, 0.429, 90.659, 51.414)" fill="#4b3d42"/>
      <path id="Trazado_101791" data-name="Trazado 101791" d="M1798.883,722.625c1.626-3.4,5.034-5.157,7.614-3.92s3.351,5,1.725,8.4-5.034,5.158-7.613,3.92S1797.257,726.028,1798.883,722.625Z" transform="translate(-1701.368 -679.629)" fill="#3b2f34"/>
      <path id="Trazado_101792" data-name="Trazado 101792" d="M1802.007,724.455c.713-1.491,2.208-2.259,3.339-1.717s1.469,2.192.756,3.683-2.207,2.259-3.339,1.716S1801.295,725.945,1802.007,724.455Z" transform="translate(-1702.165 -680.571)" fill="#eed28c"/>
      <path id="Trazado_101793" data-name="Trazado 101793" d="M1850.232,865.271h9.748l2.215,7.975h-14.178Z" transform="translate(-1712.436 -712.172)" fill="#f2d16b"/>
      <path id="Trazado_101794" data-name="Trazado 101794" d="M1833.031,876.251a4.582,4.582,0,0,1,4.633-4.53h26.863a4.584,4.584,0,0,1,4.633,4.438l1.385,66.6h-37.514Z" transform="translate(-1709.118 -713.6)" fill="#badb4c"/>
      <path id="Trazado_101795" data-name="Trazado 101795" d="M1855.72,936.557a4.583,4.583,0,0,0,4.634-4.53V871.721h4.173a4.584,4.584,0,0,1,4.633,4.438l1.385,66.6h-37.514v-6.2Z" transform="translate(-1709.118 -713.6)" fill="#95af3d"/>
      <g id="Grupo_54819" data-name="Grupo 54819" transform="translate(125.98 160.558)">
        <rect id="Rect치ngulo_5306" data-name="Rect치ngulo 5306" width="10.93" height="9.22" transform="translate(0 36.489)" fill="#c8e270"/>
        <path id="Trazado_101796" data-name="Trazado 101796" d="M1835.686,907.747V879.8c0-2.732,1.4-4.946,3.117-4.946h4.428c1.869,0,3.384,2.088,3.384,4.663v28.232Z" transform="translate(-1835.686 -874.852)" fill="#c8e270"/>
      </g>
      <rect id="Rect치ngulo_5307" data-name="Rect치ngulo 5307" width="40.098" height="3.397" transform="translate(162.719 230.784) rotate(-180)" fill="#f9b645"/>
      <path id="Trazado_101797" data-name="Trazado 101797" d="M1809.649,828.709l.738-3.4-55.827-4.431-.443,3.249Z" transform="translate(-1691.643 -702.343)" fill="#ce5761"/>
      <g id="Grupo_54820" data-name="Grupo 54820" transform="translate(62.474 118.539)">
        <path id="Trazado_101798" data-name="Trazado 101798" d="M1757.957,823.54a2.426,2.426,0,0,0,.211.925l-4.051-.334.443-3.249,4.619.367A3.172,3.172,0,0,0,1757.957,823.54Z" transform="translate(-1754.117 -820.882)" fill="#c43245"/>
        <path id="Trazado_101799" data-name="Trazado 101799" d="M1802.169,824.716l18.211,1.446-.738,3.4-20.394-1.682C1800.959,826.968,1802,825.884,1802.169,824.716Z" transform="translate(-1764.111 -821.731)" fill="#c43245"/>
      </g>
      <path id="Trazado_101800" data-name="Trazado 101800" d="M1864.694,791.481c-4.309,9-15.985,21.406-30.543,24.954l-5.2-7.674s7.857-15.616,15.875-21.416S1866.873,786.93,1864.694,791.481Z" transform="translate(-1708.215 -694.357)" fill="#f2d16b"/>
      <path id="Trazado_101801" data-name="Trazado 101801" d="M1842.91,787.763c-.215,2.316,3.865,9.9,9.969,9.9,6.04,0,8.746-6.226,6.644-12.954,4.264,1.478,7.506,5.563,6.461,7.744-4.309,9-17.276,20.413-31.833,23.962l-5.2-7.674S1835.495,794.307,1842.91,787.763Z" transform="translate(-1708.215 -694.332)" fill="#ecb658"/>
      <path id="Trazado_101802" data-name="Trazado 101802" d="M1855.688,807.349c-1.849-3.533-16.508-13.272-20.717-12.607-3.545,3.212-15.053,20.907-15.343,21.309s6.391,5.816,7.72,6.2S1847.34,816.72,1855.688,807.349Z" transform="translate(-1706.148 -696.547)" fill="#f7e4ae"/>
      <path id="Trazado_101803" data-name="Trazado 101803" d="M1851.136,803.161c3.29,2.306,7.01,5.018,7.74,6.412-8.348,9.371-28,14.926-29.334,14.546C1828.892,823.933,1844.965,812.132,1851.136,803.161Z" transform="translate(-1708.341 -698.419)" fill="#eed28c"/>
      <path id="Trazado_101804" data-name="Trazado 101804" d="M1794.22,853.6l-6.2,3.545-5.1.369-2.437-2.215,7.015.3Z" transform="translate(-1697.482 -709.589)" fill="#ecb658"/>
      <path id="Trazado_101805" data-name="Trazado 101805" d="M1805.2,791.1c-6.354,14.805-11.242,23.341-23.489,22.853C1789.219,811,1796.015,805.878,1805.2,791.1Z" transform="translate(-1697.754 -695.748)" fill="#f9b645"/>
      <path id="Trazado_101806" data-name="Trazado 101806" d="M1840.808,922a13.292,13.292,0,1,0,13.292-13.292A13.293,13.293,0,0,0,1840.808,922Zm3.894,0a9.4,9.4,0,1,1,9.4,9.4A9.4,9.4,0,0,1,1844.7,922Z" transform="translate(-1710.84 -721.792)" fill="#fdfbf5" style="mix-blend-mode: overlay;isolation: isolate"/>
      <path id="Trazado_101807" data-name="Trazado 101807" d="M1805.919,742.116l5.363,2.765c-11.867,6.26-28.183,6.174-34.117,2.88C1777.165,747.761,1794.736,749.345,1805.919,742.116Z" transform="translate(-1696.747 -684.901)" fill="#f9b645"/>
      <g id="Grupo_54826" data-name="Grupo 54826" transform="translate(93.562 76.669)">
        <g id="Grupo_54825" data-name="Grupo 54825" transform="translate(3.513 3.584)">
          <path id="Trazado_101808" data-name="Trazado 101808" d="M1802.547,779.507c.347,1.75,1.936,2.206,2.631,1.759a1.945,1.945,0,0,0,.146-2.839C1803.619,776.136,1801.858,776.03,1802.547,779.507Z" transform="translate(-1799.41 -772.832)" fill="#4b3d42"/>
          <path id="Trazado_101809" data-name="Trazado 101809" d="M1801.316,775.862c2.14-2.1-.909-4.424-2.248-2.262S1799.244,777.9,1801.316,775.862Z" transform="translate(-1798.561 -771.934)" fill="#4b3d42"/>
          <path id="Trazado_101810" data-name="Trazado 101810" d="M1801.2,775.782c1.722-1.694-.731-3.56-1.809-1.82S1799.533,777.422,1801.2,775.782Z" transform="translate(-1798.654 -772.052)" fill="#f2d16b"/>
          <path id="Trazado_101811" data-name="Trazado 101811" d="M1802.181,777.748c2.694-1.589.195-4.7-1.705-2.853S1799.573,779.287,1802.181,777.748Z" transform="translate(-1798.767 -772.286)" fill="#4b3d42"/>
          <path id="Trazado_101812" data-name="Trazado 101812" d="M1802.134,777.452c2.143-1.264.155-3.742-1.357-2.27S1800.058,778.677,1802.134,777.452Z" transform="translate(-1798.878 -772.376)" fill="#f2d16b"/>
          <path id="Trazado_101813" data-name="Trazado 101813" d="M1805.908,777.323c2.948,1.295,5.653.719,4.667-1.071S1805.908,777.323,1805.908,777.323Z" transform="translate(-1800.188 -772.582)" fill="#4b3d42"/>
          <path id="Trazado_101814" data-name="Trazado 101814" d="M1805.267,776.036c2.864-1.472,4.126-3.942,2.115-4.309S1805.267,776.036,1805.267,776.036Z" transform="translate(-1800.046 -771.706)" fill="#4b3d42"/>
          <g id="Grupo_54821" data-name="Grupo 54821" transform="translate(3.718 7.671)">
            <path id="Trazado_101815" data-name="Trazado 101815" d="M1803.557,783.482l1.294-1.843-.22-.079-1.294,1.843Z" transform="translate(-1803.336 -781.56)" fill="#4b3d42"/>
          </g>
          <g id="Grupo_54822" data-name="Grupo 54822" transform="translate(2.81 7.596)">
            <path id="Trazado_101816" data-name="Trazado 101816" d="M1802.4,783.4l1.213-1.871-.231-.063-1.213,1.871Z" transform="translate(-1802.17 -781.462)" fill="#4b3d42"/>
          </g>
          <g id="Grupo_54823" data-name="Grupo 54823" transform="translate(2.301 6.833)">
            <path id="Trazado_101817" data-name="Trazado 101817" d="M1801.748,782.416l1.213-1.871-.231-.063-1.213,1.871Z" transform="translate(-1801.517 -780.482)" fill="#4b3d42"/>
          </g>
          <g id="Grupo_54824" data-name="Grupo 54824" transform="translate(2.003 6.038)">
            <path id="Trazado_101818" data-name="Trazado 101818" d="M1801.365,781.4l1.213-1.87-.231-.063-1.213,1.871Z" transform="translate(-1801.134 -779.462)" fill="#4b3d42"/>
          </g>
        </g>
        <path id="Trazado_101819" data-name="Trazado 101819" d="M1794.048,775.447a8.345,8.345,0,1,0,8.345-8.344A8.344,8.344,0,0,0,1794.048,775.447Zm1.145,0a7.2,7.2,0,1,1,7.2,7.2A7.2,7.2,0,0,1,1795.193,775.447Z" transform="translate(-1794.048 -767.103)" fill="#ce5761"/>
        <path id="Trazado_101820" data-name="Trazado 101820" d="M1794.941,779.013l.018-1.333,15.562-.071-.018,1.333Z" transform="translate(-1794.246 -769.429)" fill="#ce5761"/>
      </g>
      <g id="Grupo_54827" data-name="Grupo 54827" transform="translate(102.664 110.664)">
        <path id="Trazado_101821" data-name="Trazado 101821" d="M1818.331,818.6c-5.057-.493-7.607-.74-9.163.737s-2.956,7.744-2.478,9.364,5.633.376,6.592.233,1.6-2.814.876-3.458-3.47-1.288-3.418-1.849a3.394,3.394,0,0,1,.477-1.223S1818.178,822.557,1818.331,818.6Z" transform="translate(-1805.928 -812.416)" fill="#f7e4ae"/>
        <path id="Trazado_101822" data-name="Trazado 101822" d="M1812.464,831.145c-.231-1.78-3.05-2.4-3.5-1.551s-3.814,5.43-3.141,6.567,2.889,2.312,3.5,1.745S1812.651,832.583,1812.464,831.145Z" transform="translate(-1805.738 -814.852)" fill="#f7e4ae"/>
        <path id="Trazado_101823" data-name="Trazado 101823" d="M1817.84,832.854c-.231-1.78-3.051-2.4-3.5-1.55s-3.814,5.43-3.141,6.566,2.889,2.312,3.5,1.745S1818.027,834.293,1817.84,832.854Z" transform="translate(-1806.929 -815.231)" fill="#f7e4ae"/>
        <path id="Trazado_101824" data-name="Trazado 101824" d="M1823,835.2c-.272-1.714-2.989-2.5-3.391-1.718s-3.494,4.921-2.818,6.05,2.832,2.4,3.4,1.9S1823.223,836.587,1823,835.2Z" transform="translate(-1808.165 -815.73)" fill="#f7e4ae"/>
        <path id="Trazado_101825" data-name="Trazado 101825" d="M1823.45,810.767s-4.087,5.244-5.753,5.784c-2.565.831-4.945,2.316-8.553,4.5-1.057.641-2.129,7.8-2.22,10.381,1.4-.37,11.7,4.243,11.7,4.243s4.257-3.972,6.175-7.741c.583-1.146,4.068-6.475,6.567-8.494C1834.3,817.075,1823.45,810.767,1823.45,810.767Z" transform="translate(-1806.001 -810.767)" fill="#f7e4ae"/>
      </g>
      <path id="Trazado_101826" data-name="Trazado 101826" d="M1715.5,826.251c-3.767,2.806-10.146,2.869-11.434,4.586s-1.621,8.129-.88,9.646,5.617-.569,6.538-.87,1.111-3.043.286-3.557-3.637-.691-3.679-1.253a1.246,1.246,0,0,1,.314-.917S1717.981,835.086,1715.5,826.251Z" transform="translate(-1680.278 -703.532)" fill="#f7e4ae"/>
      <path id="Trazado_101827" data-name="Trazado 101827" d="M1709.461,842.175c-.526-1.716-3.409-1.859-3.706-.945s-2.854,5.991-2,7,3.745,1.136,4.256.473S1709.886,843.562,1709.461,842.175Z" transform="translate(-1680.453 -706.725)" fill="#f7e4ae"/>
      <path id="Trazado_101828" data-name="Trazado 101828" d="M1716.364,842.749c-.525-1.716-3.408-1.858-3.705-.944s-2.979,6.431-2.125,7.439,3.975.884,4.486.221S1716.789,844.136,1716.364,842.749Z" transform="translate(-1681.955 -706.852)" fill="#f7e4ae"/>
      <path id="Trazado_101829" data-name="Trazado 101829" d="M1722.944,844.2c-.555-1.644-3.364-1.965-3.63-1.127s-3.23,6.249-2.375,7.25,3.8,1.084,4.28.5S1723.393,845.532,1722.944,844.2Z" transform="translate(-1683.377 -707.158)" fill="#f7e4ae"/>
      <path id="Trazado_101830" data-name="Trazado 101830" d="M1679.081,884.071l6.092-16.5-8.2-3.1-3.1,18.72Z" transform="translate(-1673.875 -711.993)" fill="#f7e4ae"/>
      <path id="Trazado_101831" data-name="Trazado 101831" d="M1680.01,880.891l3.331-9.023-4.481-1.7-1.7,10.234Z" transform="translate(-1674.603 -713.257)" fill="#b8bd52"/>
    </g>
    <g id="Grupo_54832" data-name="Grupo 54832" transform="translate(1559.943 745.128)">
      <circle id="Elipse_4012" data-name="Elipse 4012" cx="31.682" cy="31.682" r="31.682" transform="translate(3.89 2.05)" fill="#e6f3f9"/>
      <g id="Grupo_54831" data-name="Grupo 54831">
        <g id="Grupo_54829" data-name="Grupo 54829" transform="translate(32.191 34.973)">
          <path id="Trazado_101832" data-name="Trazado 101832" d="M1605.891,818.029l-4.6-6.108,1.205.249,3.607,5.426Z" transform="translate(-1601.29 -811.921)" fill="#843632"/>
          <path id="Trazado_101833" data-name="Trazado 101833" d="M1605.456,832.379l-1.759,0s2.593-7.772,2.755-13.065l.766-1.063S1607.059,827.576,1605.456,832.379Z" transform="translate(-1601.823 -813.322)" fill="#843632"/>
          <path id="Trazado_101834" data-name="Trazado 101834" d="M1617.373,818.732l-5.295-6.022,1.188.256,4.242,5.346Z" transform="translate(-1603.679 -812.096)" fill="#843632"/>
          <path id="Trazado_101835" data-name="Trazado 101835" d="M1619.66,832.553l-1.646,0s1.313-7.413.682-12.545l.567-1.032S1620.459,827.962,1619.66,832.553Z" transform="translate(-1604.994 -813.483)" fill="#843632"/>
          <path id="Trazado_101836" data-name="Trazado 101836" d="M1626.888,819.621l-5.218-7.476,1-.066,4.294,7.148Z" transform="translate(-1605.803 -811.956)" fill="#843632"/>
          <path id="Trazado_101837" data-name="Trazado 101837" d="M1630.312,832.874l-1.354,0a52.966,52.966,0,0,0-.59-11.52l.375-.971S1630.556,828.681,1630.312,832.874Z" transform="translate(-1607.286 -813.794)" fill="#843632"/>
        </g>
        <path id="Trazado_101838" data-name="Trazado 101838" d="M1599.893,804.944c-3.585,7.466-16.671,9.555-22.915,7.785-8.855-2.512-17.034-11.249-17.034-11.249s11.122-13.08,22.455-12.291S1601.838,800.9,1599.893,804.944Z" transform="translate(-1559.943 -771.907)" fill="#ecb85c"/>
        <path id="Trazado_101839" data-name="Trazado 101839" d="M1572.924,805.88c-3.249.266-10.63-.4-12.947-2.094l-.034.039s8.18,8.737,17.035,11.249c6.244,1.771,19.329-.318,22.915-7.785.872-1.815,1.219-4.707-2.249-6.649C1591.357,797.118,1583.535,805.009,1572.924,805.88Z" transform="translate(-1559.943 -774.25)" fill="#e89f4b"/>
        <path id="Trazado_101840" data-name="Trazado 101840" d="M1594.792,795.386c-2.654-3.082-6.816-5.244-12.622-5.252-6.6-.009-12.9,5.133-16.179,8.338C1571.409,802.036,1585,800.026,1594.792,795.386Z" transform="translate(-1561.282 -772.123)" fill="#f2d278"/>
        <path id="Trazado_101841" data-name="Trazado 101841" d="M1593.691,804.205c-2.6,2.07-4.049,9.781,4.59,10.857a20.335,20.335,0,0,0,5.3-2.854Z" transform="translate(-1566.972 -775.239)" fill="#e27b3b"/>
        <path id="Trazado_101842" data-name="Trazado 101842" d="M1606.886,810.523c-5.435,2.929-12.583,1.861-13.874-1.634s-.1-7.854,9.421-8.822S1613.354,807.038,1606.886,810.523Z" transform="translate(-1567.17 -774.305)" fill="#ecb85c"/>
        <path id="Trazado_101843" data-name="Trazado 101843" d="M1607.7,806.218c-5.435,2.928-12.583,1.861-13.874-1.634-.034-.09-.064-.182-.094-.273a5.686,5.686,0,0,0-.914,5.661c1.291,3.495,8.766,4.6,14.2,1.668,3.486-1.879,4.523-5.281,3.4-7.655A8.56,8.56,0,0,1,1607.7,806.218Z" transform="translate(-1567.139 -775.191)" fill="#e89f4b"/>
        <path id="Trazado_101844" data-name="Trazado 101844" d="M1606.3,807.925c-1.553.323-3.63,4.105-.686,5.991a8,8,0,0,0,4.027-1.886Z" transform="translate(-1569.727 -776.063)" fill="#e27b3b"/>
        <path id="Trazado_101845" data-name="Trazado 101845" d="M1617.221,813.384c-3.09,2.471-11.754,2.2-12.388-2.906s12.315-7.418,14.472-3.4C1620.2,808.741,1620.311,810.913,1617.221,813.384Z" transform="translate(-1569.878 -775.423)" fill="#ecb85c"/>
        <path id="Trazado_101846" data-name="Trazado 101846" d="M1607.557,807.663a15.989,15.989,0,0,0,4.362.048,12.894,12.894,0,0,0,5.5-1.7C1614.9,804.7,1609.616,805.544,1607.557,807.663Z" transform="translate(-1570.487 -775.501)" fill="#f2d278"/>
        <path id="Trazado_101847" data-name="Trazado 101847" d="M1611.608,810.792a21.59,21.59,0,0,1-6.539-.932,2.849,2.849,0,0,0-.235,1.541c.634,5.107,9.3,5.376,12.388,2.906,2.392-1.913,2.865-3.647,2.542-5.106A18.879,18.879,0,0,1,1611.608,810.792Z" transform="translate(-1569.878 -776.346)" fill="#e89f4b"/>
        <g id="Grupo_54830" data-name="Grupo 54830" transform="translate(56.858 2.225)">
          <path id="Trazado_101848" data-name="Trazado 101848" d="M1633.211,800.322l-.239-.114c.286-10.443,5.289-24.7,14.684-30.349l.152,1.329C1638.6,776.731,1633.492,790.04,1633.211,800.322Z" transform="translate(-1632.972 -769.859)" fill="#ba534d"/>
        </g>
        <path id="Trazado_101849" data-name="Trazado 101849" d="M1622.579,798.466c-2.121-9.209-.364-23.825,8.282-31.465l.111,1.669c-8.464,7.48-10.215,20.693-8.131,29.736Z" transform="translate(-1573.632 -767.001)" fill="#ba534d"/>
        <path id="Trazado_101850" data-name="Trazado 101850" d="M1613.54,809.795c-.1,1.419,2.5,4.944,5.181,4.91a4.6,4.6,0,0,0,.432-.3,8.206,8.206,0,0,0,2.064-2.278C1619.644,811.3,1613.6,809.019,1613.54,809.795Z" transform="translate(-1571.811 -776.442)" fill="#e27b3b"/>
        <path id="Trazado_101851" data-name="Trazado 101851" d="M1626.98,816.25c-3.21.146-14.238-4.635-13.5-7.453s21.865-3.621,23.842.086C1638.4,810.9,1628.068,816.2,1626.98,816.25Z" transform="translate(-1571.791 -775.722)" fill="#ecb85c"/>
        <path id="Trazado_101852" data-name="Trazado 101852" d="M1614.543,808.854c.458-1.481,6.276-2.417,12.063-2.463-6.156-.083-12.715.858-13.122,2.406-.594,2.256,6.356,5.77,10.8,7.007C1619.922,814.387,1613.867,811.042,1614.543,808.854Z" transform="translate(-1571.791 -775.722)" fill="#e89f4b"/>
        <path id="Trazado_101853" data-name="Trazado 101853" d="M1622.858,807.094a29.067,29.067,0,0,0,5.33,1.648c4.431.944,8.377.862,9.975-.078C1636.808,806.624,1628.666,806.357,1622.858,807.094Z" transform="translate(-1573.875 -775.796)" fill="#f2d278"/>
        <path id="Trazado_101854" data-name="Trazado 101854" d="M1625.534,811.787c-6.635,0-12.014-1.079-12.014-2.41,0-.012,0-.023,0-.036a.7.7,0,0,0-.041.11c-.742,2.818,10.286,7.6,13.5,7.453,1.05-.048,10.711-4.983,10.414-7.143C1636.477,810.91,1631.518,811.787,1625.534,811.787Z" transform="translate(-1571.791 -776.377)" fill="#e89f4b"/>
        <path id="Trazado_101855" data-name="Trazado 101855" d="M1610.014,818.025l3.514-4.344-.7-.816-2.941,4.69Z" transform="translate(-1571.001 -777.157)" fill="#ba534d"/>
        <path id="Trazado_101856" data-name="Trazado 101856" d="M1609.45,832.3l1.422,0s-1.4-7.987-1.065-13.3l-.524-1.215S1608.549,827.132,1609.45,832.3Z" transform="translate(-1570.806 -778.244)" fill="#ba534d"/>
        <path id="Trazado_101857" data-name="Trazado 101857" d="M1598.749,816.588l6.364-4.638-1.079-.132-5.325,4.269Z" transform="translate(-1568.527 -776.925)" fill="#ba534d"/>
        <path id="Trazado_101858" data-name="Trazado 101858" d="M1593.058,831.928h1.969s.475-8.848,2.49-14.518l-.349-1.3S1593.394,826.2,1593.058,831.928Z" transform="translate(-1567.276 -777.876)" fill="#ba534d"/>
        <path id="Trazado_101859" data-name="Trazado 101859" d="M1597.318,808.276c-.442-.543-1.092-.641-1.445-.273a1.21,1.21,0,0,0,.052,1.484,1.062,1.062,0,0,0,1.408.446A1.163,1.163,0,0,0,1597.318,808.276Z" transform="translate(-1567.848 -776.032)" fill="#ba534d"/>
        <path id="Trazado_101860" data-name="Trazado 101860" d="M1606.667,810.9c-.439-.543-1.042-.677-1.345-.35a1.194,1.194,0,0,0,.136,1.412c.37.518.956.765,1.321.512C1607.174,812.2,1607.128,811.476,1606.667,810.9Z" transform="translate(-1569.953 -776.606)" fill="#ba534d"/>
        <path id="Trazado_101861" data-name="Trazado 101861" d="M1614.041,812.774c-.438-.543-1.005-.7-1.269-.407-.245.276-.153.868.2,1.36.372.515.931.784,1.256.562C1614.584,814.047,1614.5,813.347,1614.041,812.774Z" transform="translate(-1571.611 -777.014)" fill="#ba534d"/>
        <path id="Trazado_101862" data-name="Trazado 101862" d="M1589.12,814.9l6.74-5.653-1.091-.5-5.622,5.623Z" transform="translate(-1566.404 -776.246)" fill="#ba534d"/>
        <path id="Trazado_101863" data-name="Trazado 101863" d="M1579.7,831.621h2.314s1.891-9.553,5.065-15.533l-.212-1.366S1580.977,825.445,1579.7,831.621Z" transform="translate(-1564.317 -777.568)" fill="#ba534d"/>
        <path id="Trazado_101864" data-name="Trazado 101864" d="M1582.009,833.092a85.908,85.908,0,0,1,2.424-9.1c-.051-.918-.122-1.8-.214-2.627-1.74,3.6-3.821,8.344-4.524,11.726Z" transform="translate(-1564.317 -779.039)" fill="#d26f6f"/>
        <path id="Trazado_101865" data-name="Trazado 101865" d="M1627.714,809.146c.229-.667-.448-1.483-1.661-1.9-1.43-.491-3.137-.286-3.586.585-.475.919.744,1.957,2.423,2.22C1626.295,810.271,1627.476,809.84,1627.714,809.146Z" transform="translate(-1573.765 -775.855)" fill="#453c3e"/>
        <path id="Trazado_101866" data-name="Trazado 101866" d="M1633.566,809.145c-.239-.7.5-1.561,1.823-2.015,1.554-.536,3.4-.345,3.875.561.5.956-.832,2.062-2.653,2.361C1635.088,810.3,1633.816,809.869,1633.566,809.145Z" transform="translate(-1576.236 -775.821)" fill="#453c3e"/>
        <path id="Trazado_101867" data-name="Trazado 101867" d="M1629.937,822.6c-5.887.105-9.708-2.26-9.884-4.258s2.913-4.048,2.913-4.048,3.683.684,4.13,2c0,0-2.837.794-2.66,2.523C1624.656,820.969,1629.937,822.6,1629.937,822.6Z" transform="translate(-1573.252 -777.473)" fill="#ba534d"/>
        <path id="Trazado_101868" data-name="Trazado 101868" d="M1621.792,818.169c-.171-1.436,1.219-2.9,2.091-3.665-.533-.14-.916-.212-.916-.212s-3.089,2.05-2.913,4.048,4,4.363,9.884,4.258c0,0-.083-.026-.229-.075C1625.021,822.1,1622.008,819.987,1621.792,818.169Z" transform="translate(-1573.252 -777.473)" fill="#9d3c3c"/>
        <path id="Trazado_101869" data-name="Trazado 101869" d="M1636.206,822.095c4.67-1.967,6.817-5.106,6.444-6.909-.4-1.917-3.534-3.159-3.534-3.159s-3.386,1.346-3.255,2.852c0,0,3.121.353,3.55,2.035C1639.913,818.888,1636.206,822.095,1636.206,822.095Z" transform="translate(-1576.753 -776.971)" fill="#ba534d"/>
        <path id="Trazado_101870" data-name="Trazado 101870" d="M1636.206,822.573c.12-.051.23-.105.347-.157,1.021-.828,4.162-3.558,3.8-5.511-.368-1.984-3.961-2.633-3.961-2.633,0-.029,0-.057,0-.086a1.569,1.569,0,0,0-.537,1.171s3.121.353,3.55,2.035C1639.913,819.367,1636.206,822.573,1636.206,822.573Z" transform="translate(-1576.753 -777.45)" fill="#9d3c3c"/>
        <path id="Trazado_101871" data-name="Trazado 101871" d="M1635.536,809.111c-.144-.419.3-.939,1.1-1.212.937-.322,2.048-.206,2.334.339.3.576-.5,1.24-1.6,1.42C1636.453,809.808,1635.686,809.547,1635.536,809.111Z" transform="translate(-1576.677 -776.018)" fill="#cc4545"/>
        <path id="Trazado_101872" data-name="Trazado 101872" d="M1627.439,809.362c.126-.368-.247-.817-.915-1.046-.787-.271-1.728-.157-1.975.322-.261.506.41,1.078,1.334,1.222C1626.657,809.981,1627.307,809.744,1627.439,809.362Z" transform="translate(-1574.237 -776.118)" fill="#cc4545"/>
        <path id="Trazado_101873" data-name="Trazado 101873" d="M1613.557,812.493c-.26-.171-.527-.165-.6-.005s.047.384.265.544.5.208.616.072S1613.83,812.674,1613.557,812.493Z" transform="translate(-1571.677 -777.046)" fill="#e89f4b"/>
        <path id="Trazado_101874" data-name="Trazado 101874" d="M1606.27,810.7c-.26-.171-.526-.165-.6-.005s.047.384.265.544.5.208.616.072S1606.544,810.88,1606.27,810.7Z" transform="translate(-1570.064 -776.649)" fill="#e89f4b"/>
        <path id="Trazado_101875" data-name="Trazado 101875" d="M1597.007,808.2c-.26-.171-.526-.165-.6-.006s.047.385.265.545.5.208.616.072S1597.28,808.379,1597.007,808.2Z" transform="translate(-1568.013 -776.096)" fill="#e89f4b"/>
        <path id="Trazado_101876" data-name="Trazado 101876" d="M1597.874,802.143a9.585,9.585,0,0,0,5.706,1.524c2.534,0,4.73-.656,5.815-1.615-1.154-1.053-3.12-1.672-5.911-1.388A15.091,15.091,0,0,0,1597.874,802.143Z" transform="translate(-1568.342 -774.44)" fill="#f2d278"/>
        <path id="Trazado_101877" data-name="Trazado 101877" d="M1628.547,816.72a1.826,1.826,0,0,0,.3,2.373s-2.435-.309-2.225-1.915S1628.547,816.72,1628.547,816.72Z" transform="translate(-1574.704 -777.922)" fill="#ba534d"/>
        <path id="Trazado_101878" data-name="Trazado 101878" d="M1631.595,815.934a1.826,1.826,0,0,0,.3,2.373s-2.435-.309-2.225-1.915S1631.595,815.934,1631.595,815.934Z" transform="translate(-1575.379 -777.748)" fill="#ba534d"/>
        <path id="Trazado_101879" data-name="Trazado 101879" d="M1635.8,815.577a1.811,1.811,0,0,1-.3,2.373s2.462-.309,2.249-1.915S1635.8,815.577,1635.8,815.577Z" transform="translate(-1576.673 -777.669)" fill="#9d3c3c"/>
        <path id="Trazado_101880" data-name="Trazado 101880" d="M1632.986,815.577a1.812,1.812,0,0,1,.342,2.368s2.29-.952,1.659-2.445S1632.986,815.577,1632.986,815.577Z" transform="translate(-1576.117 -777.598)" fill="#ba534d"/>
        <path id="Trazado_101881" data-name="Trazado 101881" d="M1628.726,811.769c-.539.359-1.612-.074-.853-.3S1629.393,811.324,1628.726,811.769Z" transform="translate(-1574.927 -776.822)" fill="#453c3e"/>
        <path id="Trazado_101882" data-name="Trazado 101882" d="M1633.481,811.436c.5.359,1.5-.075.795-.3S1632.859,810.991,1633.481,811.436Z" transform="translate(-1576.174 -776.748)" fill="#453c3e"/>
        <path id="Trazado_101883" data-name="Trazado 101883" d="M1585.856,791.15a12.725,12.725,0,0,0-3.025.471,15.937,15.937,0,0,0,7.02,3.659,15.323,15.323,0,0,0,7.118-.086C1594.512,792.685,1590.836,791.01,1585.856,791.15Z" transform="translate(-1565.011 -772.347)" fill="#faf0ac"/>
        <path id="Trazado_101884" data-name="Trazado 101884" d="M1571.5,810.24a12.731,12.731,0,0,0-3.059-.113,15.934,15.934,0,0,0,6.2,4.926,15.319,15.319,0,0,0,7,1.268C1579.709,813.392,1576.419,811.048,1571.5,810.24Z" transform="translate(-1561.825 -776.541)" fill="#ecb85c"/>
        <path id="Trazado_101885" data-name="Trazado 101885" d="M1579.286,792.635a2.682,2.682,0,0,0-.843.515,3.84,3.84,0,0,0,2.238.864,2.6,2.6,0,0,0,1.579-.61A2.385,2.385,0,0,0,1579.286,792.635Z" transform="translate(-1564.04 -772.631)" fill="#faf0ac"/>
        <path id="Trazado_101886" data-name="Trazado 101886" d="M1606.986,801.331a8.337,8.337,0,0,0-1.366.259,5.3,5.3,0,0,0,2.361.534,7.081,7.081,0,0,0,1.841-.311A4.705,4.705,0,0,0,1606.986,801.331Z" transform="translate(-1570.058 -774.597)" fill="#faf0ac"/>
      </g>
    </g>
    <circle id="Elipse_4013" data-name="Elipse 4013" cx="31.682" cy="31.682" r="31.682" transform="translate(1565.501 675.538)" fill="#e6f3f9"/>
    <circle id="Elipse_4014" data-name="Elipse 4014" cx="31.682" cy="31.682" r="31.682" transform="translate(1565.501 829.368)" fill="#e6f3f9"/>
    <g id="Grupo_54834" data-name="Grupo 54834" transform="translate(1565.199 668.225)">
      <path id="Trazado_101887" data-name="Trazado 101887" d="M1598.533,668.225c6.858,2.377,2.332,15.591-5.5,19.395-9.344,4.539-25.636,9.912-26.322,25.183-.459,10.212,7.818,15.911,17.42,14.676l-1.372-5.532c-4.3.274-11.613-1.829-11.613-10.241s12.747-16.478,20.666-20.757C1605.048,683.792,1606.443,669.825,1598.533,668.225Z" transform="translate(-1566.694 -668.225)" fill="#d5897e"/>
      <g id="Grupo_54833" data-name="Grupo 54833" transform="translate(0.005)">
        <path id="Trazado_101888" data-name="Trazado 101888" d="M1566.706,725.93c-.254,9.99,7.936,15.547,17.427,14.326l-.54-2.179C1575.006,738.868,1567.559,734.247,1566.706,725.93Z" transform="translate(-1566.701 -681.003)" fill="#be645c"/>
        <path id="Trazado_101889" data-name="Trazado 101889" d="M1607.589,668.225l.062.023-.033-.017Z" transform="translate(-1575.755 -668.225)" fill="#be645c"/>
        <path id="Trazado_101890" data-name="Trazado 101890" d="M1600.793,668.6c5.858,3.133,3.864,15.013-8.166,21.359-7.853,4.142-20.476,11.945-20.346,20.086a12.342,12.342,0,0,0,.108,1.469c.269-8.315,12.827-16.253,20.659-20.486C1605.682,684.2,1607.527,671.169,1600.793,668.6Z" transform="translate(-1567.936 -668.309)" fill="#be645c"/>
      </g>
      <path id="Trazado_101891" data-name="Trazado 101891" d="M1620.68,745.843h-12s6.359-1.885,8.482-1.911C1620.214,743.895,1620.68,745.843,1620.68,745.843Z" transform="translate(-1575.99 -684.989)" fill="#453c3e"/>
      <path id="Trazado_101892" data-name="Trazado 101892" d="M1625.075,735.979c1.341,3.055,4.971,4.127,8.217,4.127l.192-.452s-7.465-1.974-5.359-9.384c.4-1.417.133-3.674-1.959-1.469S1624.53,734.735,1625.075,735.979Z" transform="translate(-1579.52 -681.434)" fill="#453c3e"/>
      <path id="Trazado_101893" data-name="Trazado 101893" d="M1636.908,711.435c-.54-3.543-5.795-11.584-6.61-11.723s-4.175,6.1,1.026,10.49C1632.193,710.935,1637.072,712.507,1636.908,711.435Z" transform="translate(-1580.376 -675.197)" fill="#453c3e"/>
      <path id="Trazado_101894" data-name="Trazado 101894" d="M1637.494,711.329c-.708-3.138-5.345-10.23-5.859-10.225-.484.005-1.363,5.2,1.862,8.578C1634.1,710.311,1637.7,712.243,1637.494,711.329Z" transform="translate(-1580.967 -675.506)" fill="#5b4d52"/>
      <path id="Trazado_101895" data-name="Trazado 101895" d="M1637.157,710.621c-.51-2.255-3.844-7.35-4.213-7.347-.348,0-.978,3.735,1.342,6.163C1634.717,709.889,1637.306,711.278,1637.157,710.621Z" transform="translate(-1581.287 -675.986)" fill="#66545a"/>
      <path id="Trazado_101896" data-name="Trazado 101896" d="M1622.913,723.737l-4.8-10.493s-5.806,1.812-9.3.573c-3.971-3.135-11.845-4.449-19.453-.916-7.681,3.567-12.07,14.722-5.03,25.6h25.695c.05-.07.093-.142.141-.212v.008l.049-.084a19.98,19.98,0,0,0,1.071-1.772C1615.52,729.66,1620.142,724.933,1622.913,723.737Z" transform="translate(-1569.814 -677.651)" fill="#453c3e"/>
      <path id="Trazado_101897" data-name="Trazado 101897" d="M1608.352,713.168c-4.186-2.649-11.471-3.543-18.529-.267a14.661,14.661,0,0,0-6.922,7c1.086,4.587,8.759,14.67,15.654,14.67,7.67,0,10.321-10.3,10.321-15.637C1608.877,717.042,1609.7,714.66,1608.352,713.168Z" transform="translate(-1570.283 -677.651)" fill="#5b4d52"/>
      <path id="Trazado_101898" data-name="Trazado 101898" d="M1595.75,718.364c6.063,0,11.071-2.245,11.872-5.159-3.8-2.174-10.069-2.817-16.154.008a12.548,12.548,0,0,0-4.308,3.34A19.337,19.337,0,0,0,1595.75,718.364Z" transform="translate(-1571.226 -677.769)" fill="#69585e"/>
      <path id="Trazado_101899" data-name="Trazado 101899" d="M1589.862,722.823c-9.886-.856-9.1,8.687-3.566,16.78l10.436.434C1598.011,735.007,1596.719,723.417,1589.862,722.823Z" transform="translate(-1570.138 -680.303)" fill="#453c3e"/>
      <path id="Trazado_101900" data-name="Trazado 101900" d="M1620.986,724.839c2.424,2.742,10.183,3.018,13.076,2.012,0,0-6.688-12.129-15.094-11.689A10.393,10.393,0,0,0,1620.986,724.839Z" transform="translate(-1578.174 -678.616)" fill="#5b4d52"/>
      <path id="Trazado_101901" data-name="Trazado 101901" d="M1627.574,725.314c2.846.994,7.155,2.606,7.553,2.745,0,0-1.141-8.129-7.073-6.928C1626.086,721.529,1624.109,724.1,1627.574,725.314Z" transform="translate(-1579.755 -679.913)" fill="#453c3e"/>
      <path id="Trazado_101902" data-name="Trazado 101902" d="M1633.5,727.58c-2.514-.96-6.95-2.195-6.538-2.881s3.292-1.143,3.795-.731A44.682,44.682,0,0,1,1633.5,727.58Z" transform="translate(-1580.033 -680.534)" fill="#dacba1"/>
      <path id="Trazado_101903" data-name="Trazado 101903" d="M1631.961,726.992c-1.765-.674-4.879-1.541-4.59-2.023a1.6,1.6,0,0,1,1.777-.422C1629.5,724.836,1631.961,726.992,1631.961,726.992Z" transform="translate(-1580.126 -680.669)" fill="#fbf5e0"/>
      <path id="Trazado_101904" data-name="Trazado 101904" d="M1619.15,713.923c.411-2.263,3.809-5.06,10.041-4.177,8.23,1.166,15.088,20.918,17.694,24.278l-1.1.549s-12.083-6.4-16.8-13.442C1625.465,715.873,1619.15,713.923,1619.15,713.923Z" transform="translate(-1578.31 -677.382)" fill="#5b4d52"/>
      <path id="Trazado_101905" data-name="Trazado 101905" d="M1643.487,725.813c-3.39-6.809-7.589-15.345-12.865-16.093a15.558,15.558,0,0,0-6.2.449,26.254,26.254,0,0,0,5.89,8.929C1635.147,724.133,1640.673,726.865,1643.487,725.813Z" transform="translate(-1579.477 -677.385)" fill="#66545a"/>
      <path id="Trazado_101906" data-name="Trazado 101906" d="M1636.567,719.354l-7.748-3.341s.308-2.695,2.4-2.558S1636.567,719.354,1636.567,719.354Z" transform="translate(-1580.451 -678.24)" fill="#5b4d52"/>
      <path id="Trazado_101907" data-name="Trazado 101907" d="M1628.837,718.977c-3.395-2.3-10.87-2.641-8.436-6.138S1626.676,715.034,1628.837,718.977Z" transform="translate(-1578.48 -677.863)" fill="#66545a"/>
      <path id="Trazado_101908" data-name="Trazado 101908" d="M1631.164,723.531a7.914,7.914,0,0,0-2.435-2.366,16.852,16.852,0,0,1,2.059,2.435c4.942,7.176,17.082,13.544,17.082,13.544l.526-.261C1645.985,735.447,1636.06,729.774,1631.164,723.531Z" transform="translate(-1580.431 -679.948)" fill="#453c3e"/>
      <path id="Trazado_101909" data-name="Trazado 101909" d="M1626.412,708.548c-2.24-3.109-11.613-8.6-12.527-8.321s-.64,8.778,6.949,10.2C1622.021,710.644,1627.074,709.466,1626.412,708.548Z" transform="translate(-1577.062 -675.309)" fill="#5b4d52"/>
      <path id="Trazado_101910" data-name="Trazado 101910" d="M1625.588,709.014c-2.109-3.2-11-8.384-11.925-8.148s-1.25,8.057,6.274,9.79C1621.112,710.926,1626.21,709.959,1625.588,709.014Z" transform="translate(-1576.989 -675.451)" fill="#453c3e"/>
      <path id="Trazado_101911" data-name="Trazado 101911" d="M1626.085,709.874c-1.6-2.219-9.257-6.128-9.91-5.932s.51,6.259,5.928,7.27C1622.949,711.37,1626.557,710.529,1626.085,709.874Z" transform="translate(-1577.614 -676.133)" fill="#be645c"/>
      <path id="Trazado_101912" data-name="Trazado 101912" d="M1635.657,719.252l-5.063-2.109,1.7-1.031S1634.948,717.9,1635.657,719.252Z" transform="translate(-1580.844 -678.829)" fill="#453c3e"/>
      <path id="Trazado_101913" data-name="Trazado 101913" d="M1635.038,718.982l-3.4-1.46,1.007-.565A9.129,9.129,0,0,1,1635.038,718.982Z" transform="translate(-1581.074 -679.016)" fill="#dd4e62"/>
      <path id="Trazado_101914" data-name="Trazado 101914" d="M1652.24,740.764c.761,1.463,2.842,2.276,3.39-.148S1652.24,740.764,1652.24,740.764Z" transform="translate(-1585.637 -684.025)" fill="#be645c"/>
      <path id="Trazado_101915" data-name="Trazado 101915" d="M1589.07,719.021c-9.922.183-10.287,13.214-4.755,21.306h9.007C1594.6,735.3,1599.4,718.831,1589.07,719.021Z" transform="translate(-1569.803 -679.473)" fill="#5b4d52"/>
      <path id="Trazado_101916" data-name="Trazado 101916" d="M1595.427,723.673q-.048-.488-.115-.963a5.011,5.011,0,0,0-5.164-3.091,7.3,7.3,0,0,0-5.005,1.859,22.057,22.057,0,0,0,.083,3.184c.577,5.946,3.328,10.544,6.146,10.271S1596,729.618,1595.427,723.673Z" transform="translate(-1570.774 -679.605)" fill="#69585e"/>
      <path id="Trazado_101917" data-name="Trazado 101917" d="M1599.681,745.724h-12.939s6.854-2.3,9.144-2.332C1599.178,743.346,1599.681,745.724,1599.681,745.724Z" transform="translate(-1571.133 -684.87)" fill="#5b4d52"/>
      <path id="Trazado_101918" data-name="Trazado 101918" d="M1601.964,745.974h1.509a9.941,9.941,0,0,0-1.683-1.452C1601.394,744.493,1601.964,745.974,1601.964,745.974Z" transform="translate(-1574.434 -685.12)" fill="#806f76"/>
      <path id="Trazado_101919" data-name="Trazado 101919" d="M1599.934,745.974h1.509s-.979-1.433-1.25-1.452C1599.807,744.493,1599.934,745.974,1599.934,745.974Z" transform="translate(-1574.05 -685.12)" fill="#806f76"/>
      <path id="Trazado_101920" data-name="Trazado 101920" d="M1597.708,745.974h1.509s-.8-1.433-1.066-1.452C1597.767,744.493,1597.708,745.974,1597.708,745.974Z" transform="translate(-1573.561 -685.12)" fill="#806f76"/>
      <path id="Trazado_101921" data-name="Trazado 101921" d="M1609.529,736.549c2.569,2.912,7.494,3.148,11.208,2.677l.067-.488s-9.213-.922-9.312-8.762c-.02-1.5-1.092-3.755-2.739-1.21S1608.484,735.364,1609.529,736.549Z" transform="translate(-1575.838 -681.376)" fill="#453c3e"/>
      <path id="Trazado_101922" data-name="Trazado 101922" d="M1622.085,742.184a14.3,14.3,0,0,1,2.858,2.041c.228.183.1-.863-.262-1.3a9.666,9.666,0,0,0-.927-.994C1623.411,741.612,1621.125,741.75,1622.085,742.184Z" transform="translate(-1578.908 -684.508)" fill="#453c3e"/>
      <path id="Trazado_101923" data-name="Trazado 101923" d="M1630.223,741.952a12.5,12.5,0,0,1,1.692,2.894c.126.248.494-.723.362-1.245a8.325,8.325,0,0,0-.395-1.232C1631.714,741.955,1629.538,741.2,1630.223,741.952Z" transform="translate(-1580.732 -684.48)" fill="#453c3e"/>
      <path id="Trazado_101924" data-name="Trazado 101924" d="M1610.25,736.139c2.706,2.866,7.378,3.092,11.046,2.63l.067-.469s-9.234-.9-9.561-8.812c-.065-1.56-1.271-3.96-2.925-1.3C1607.24,730.811,1609.128,734.949,1610.25,736.139Z" transform="translate(-1575.893 -681.239)" fill="#5b4d52"/>
      <path id="Trazado_101925" data-name="Trazado 101925" d="M1616.845,706.408c-.06.018-.1.086-.132.194a7.588,7.588,0,0,0,5.682,4.917,8.412,8.412,0,0,0,2.969-.518C1622.608,708.839,1617.379,706.248,1616.845,706.408Z" transform="translate(-1577.77 -676.679)" fill="#d5897e"/>
      <path id="Trazado_101926" data-name="Trazado 101926" d="M1626.9,723.711c.551-.486,3.3,1.414,3.3,1.414s-1.6-1.745-1.381-2.032-.917-.751-1.439-.486S1626.9,723.711,1626.9,723.711Z" transform="translate(-1580.025 -680.25)" fill="#453c3e"/>
      <path id="Trazado_101927" data-name="Trazado 101927" d="M1636.437,720.035l-8.207-3.509,6.594,2.384Z" transform="translate(-1580.32 -678.921)" fill="#453c3e"/>
      <path id="Trazado_101928" data-name="Trazado 101928" d="M1632.95,714.868l-.9-.045a18.422,18.422,0,0,1,3.315,2.88A9.939,9.939,0,0,0,1632.95,714.868Z" transform="translate(-1581.165 -678.544)" fill="#453c3e"/>
      <path id="Trazado_101929" data-name="Trazado 101929" d="M1654.689,741.155c.26-.3.541-.793.3-.915-.271-.135-.927.142-1.36.473-.535.407-.172.538.256.646C1654.256,741.453,1654.383,741.511,1654.689,741.155Z" transform="translate(-1585.885 -684.164)" fill="#85332e"/>
      <path id="Trazado_101930" data-name="Trazado 101930" d="M1623.931,741.19c1.242-.133,2.306-.9,2.969-.375s.891,2.583.846,2.7-1.211-1.691-1.531-1.805a15.6,15.6,0,0,0-2.2.422C1623.608,742.141,1623.292,741.259,1623.931,741.19Z" transform="translate(-1579.288 -684.259)" fill="#5b4d52"/>
      <path id="Trazado_101931" data-name="Trazado 101931" d="M1623.109,741.35c1.229.225,2.467-.21,2.954.482s.122,2.73.046,2.827-.682-1.966-.957-2.166a15.412,15.412,0,0,0-2.225-.218C1622.53,742.17,1622.475,741.234,1623.109,741.35Z" transform="translate(-1579.08 -684.415)" fill="#5b4d52"/>
      <path id="Trazado_101932" data-name="Trazado 101932" d="M1621.525,740.936c1.151.482,2.453.321,2.78,1.1s-.463,2.695-.558,2.773-.247-2.067-.472-2.322a15.6,15.6,0,0,0-2.125-.688C1620.786,741.613,1620.932,740.688,1621.525,740.936Z" transform="translate(-1578.709 -684.317)" fill="#5b4d52"/>
      <path id="Trazado_101933" data-name="Trazado 101933" d="M1633.74,742.035c1.021-.011,1.946-.552,2.444-.072a3.921,3.921,0,0,1,.476,2.259c-.046.089-.853-1.47-1.1-1.588a12.709,12.709,0,0,0-1.819.171C1633.4,742.783,1633.214,742.041,1633.74,742.035Z" transform="translate(-1581.468 -684.509)" fill="#453c3e"/>
      <path id="Trazado_101934" data-name="Trazado 101934" d="M1633.07,742.048c.981.28,2.023.023,2.364.624a3.912,3.912,0,0,1-.184,2.3c-.069.073-.4-1.652-.607-1.836a12.785,12.785,0,0,0-1.793-.351C1632.535,742.669,1632.564,741.9,1633.07,742.048Z" transform="translate(-1581.298 -684.568)" fill="#453c3e"/>
      <path id="Trazado_101935" data-name="Trazado 101935" d="M1631.813,741.587c.9.483,1.969.454,2.174,1.114a3.925,3.925,0,0,1-.67,2.211c-.083.056-.038-1.7-.2-1.925a12.651,12.651,0,0,0-1.675-.726C1631.159,742.08,1631.35,741.338,1631.813,741.587Z" transform="translate(-1581.002 -684.459)" fill="#453c3e"/>
    </g>
    <g id="Grupo_54847" data-name="Grupo 54847" transform="translate(1570.141 823.992)">
      <path id="Trazado_101936" data-name="Trazado 101936" d="M1637.076,871.557c-.008-.915-11.53,2.336-16.863,10.865-2.966,4.742-10.195,17.047-10.195,17.047l.653.442C1621.423,892.01,1637.108,875.71,1637.076,871.557Z" transform="translate(-1581.23 -868.985)" fill="#b8e0d9"/>
      <path id="Trazado_101937" data-name="Trazado 101937" d="M1633.9,878.016c2.013-2.605,3.251-4.717,3.242-5.863-.007-.882-11.109,2.251-16.249,10.469-2.074,3.317-6.313,10.474-8.481,14.148C1618.276,890.145,1627.652,881.982,1633.9,878.016Z" transform="translate(-1581.759 -869.118)" fill="#a1ccc4"/>
      <path id="Trazado_101938" data-name="Trazado 101938" d="M1637.005,871.252c-1.454-.413-11.864,3-16.895,11.051-2.655,4.246-8.8,14.681-9.994,16.708a2.316,2.316,0,0,1,.286.092c1.26-2.143,7.325-12.435,9.958-16.645,4.4-7.041,13.116-10.445,15.792-10.889a1.694,1.694,0,0,1,.8-.026c-.032,4.163-15.313,19.985-25.948,27.915a2.065,2.065,0,0,1,.216.206c10.7-8,26.059-23.963,26.026-28.15C1637.243,871.456,1637.219,871.312,1637.005,871.252Z" transform="translate(-1581.252 -868.943)" fill="#d7f1ec"/>
      <path id="Trazado_101939" data-name="Trazado 101939" d="M1632.714,876.786c-.977-.267-8.41,2.223-12.667,8.453-2.46,3.6-8.89,13.489-10.267,15.609a1.9,1.9,0,0,1,.267.055c1.449-2.238,7.762-11.983,10.192-15.553a21.912,21.912,0,0,1,11.9-8.345,1.152,1.152,0,0,1,.537-.024c-.007,2.839-11.881,15.775-22.09,24.194a1.308,1.308,0,0,1,.185.174c10.255-8.5,22.141-21.54,22.1-24.389C1632.874,876.92,1632.857,876.825,1632.714,876.786Z" transform="translate(-1581.177 -870.171)" fill="#d7f1ec"/>
      <g id="Grupo_54835" data-name="Grupo 54835" transform="translate(30.309 33.776)">
        <path id="Trazado_101940" data-name="Trazado 101940" d="M1617.545,936.456l-.606-.663c.876-8-.717-17.19-4.967-23.953l.22-.162C1616.482,918.522,1618.464,928.462,1617.545,936.456Z" transform="translate(-1611.971 -911.678)" fill="#4a4144"/>
      </g>
      <g id="Grupo_54836" data-name="Grupo 54836" transform="translate(29.623 34.116)">
        <path id="Trazado_101941" data-name="Trazado 101941" d="M1614.157,937.3l-.5-.564c1.95-6.945,1.173-17.558-2.567-24.462l.234-.161C1615.161,919.219,1616.187,930.224,1614.157,937.3Z" transform="translate(-1611.09 -912.115)" fill="#4a4144"/>
      </g>
      <g id="Grupo_54837" data-name="Grupo 54837" transform="translate(28.378 33.6)">
        <path id="Trazado_101942" data-name="Trazado 101942" d="M1610.951,938.617l-.4-.709c3.1-7.987,3.008-20-1.057-26.241l.217-.216C1613.831,917.8,1614.094,930.637,1610.951,938.617Z" transform="translate(-1609.491 -911.452)" fill="#4a4144"/>
      </g>
      <path id="Trazado_101943" data-name="Trazado 101943" d="M1609.191,907.163c-.563-.752-.086-1.654,1.288-1.33s1.909,1.239,1.406,2.051S1609.191,907.163,1609.191,907.163Z" transform="translate(-1580.996 -876.593)" fill="#5f4a51"/>
      <path id="Trazado_101944" data-name="Trazado 101944" d="M1575.285,868.491c-1.106.491-3.035,5.413-1.453,11.654,2.116,8.349,18.339,14.028,27.628,19.062l.737-.8C1597.114,888.4,1576.754,867.838,1575.285,868.491Z" transform="translate(-1573.084 -868.335)" fill="#b8e0d9"/>
      <path id="Trazado_101945" data-name="Trazado 101945" d="M1588.592,887.052a95.785,95.785,0,0,1,13.121,10.448c-5.774-10.281-25-29.643-26.428-29.01-1.019.452-2.734,4.667-1.76,10.21A94.756,94.756,0,0,1,1588.592,887.052Z" transform="translate(-1573.085 -868.335)" fill="#a1ccc4"/>
      <path id="Trazado_101946" data-name="Trazado 101946" d="M1582.547,877.749a95.669,95.669,0,0,1,9.274,7.547c-5.207-7.02-15.237-16-15.778-15.774-.384.159-1.033,1.673-.655,3.838A52.494,52.494,0,0,1,1582.547,877.749Z" transform="translate(-1573.536 -868.566)" fill="#b8e0d9"/>
      <path id="Trazado_101947" data-name="Trazado 101947" d="M1601.215,898.893c-1.993-1.068-4.273-2.16-6.682-3.312-8.892-4.254-18.97-9.075-20.6-15.512-1.6-6.309.412-11.059,1.369-11.485h0c1.278-.539,21.2,19.368,26.565,29.545a1.292,1.292,0,0,1,.266-.125c-2.285-4.33-7.74-11.279-14.682-18.693-4.372-4.668-11.24-11.449-12.269-11-1.244.553-3.114,5.592-1.535,11.825,1.665,6.57,11.809,11.422,20.76,15.7,2.42,1.159,4.708,2.254,6.7,3.325A2.1,2.1,0,0,1,1601.215,898.893Z" transform="translate(-1573.042 -868.295)" fill="#d7f1ec"/>
      <path id="Trazado_101948" data-name="Trazado 101948" d="M1602.137,900.259c-2.157-1.341-4.517-2.693-6.922-4.07-8.148-4.663-16.2-9.272-17.423-14.169-1.1-4.418.237-7.51.872-7.779h0c.851-.344,17.415,15.135,23.994,25.309a.933.933,0,0,1,.246-.095c-2.962-4.559-8.813-11.277-15.126-17.556-3.535-3.516-8.512-8.118-9.2-7.831-.824.35-2.072,3.63-.99,7.994,1.239,5,9.337,9.655,17.539,14.367,2.417,1.388,4.788,2.752,6.949,4.1A1.76,1.76,0,0,1,1602.137,900.259Z" transform="translate(-1573.956 -869.571)" fill="#d7f1ec"/>
      <path id="Trazado_101949" data-name="Trazado 101949" d="M1638.09,873.022c.287-1.658-9.406,3.03-12.664,6.747a39.684,39.684,0,0,0-4.672,7C1625.266,882.146,1637.833,874.516,1638.09,873.022Z" transform="translate(-1583.607 -869.266)" fill="#b8e0d9"/>
      <path id="Trazado_101950" data-name="Trazado 101950" d="M1579.239,945.445c-1.556-3.386-2.309-13.644,3.373-21.693s15.08-9.352,16.472-8.47-8.646,22.59-10.726,25.085S1579.239,945.445,1579.239,945.445Z" transform="translate(-1574.166 -878.647)" fill="#5f4a51"/>
      <path id="Trazado_101951" data-name="Trazado 101951" d="M1579.638,944.837c-1.448-3.054-2.023-13.008,3.385-20.808,5.471-7.888,14.209-8.855,15.486-8.009s-8.2,21.554-10.145,23.907S1579.638,944.837,1579.638,944.837Z" transform="translate(-1574.283 -878.808)" fill="#49343a"/>
      <path id="Trazado_101952" data-name="Trazado 101952" d="M1580.105,944.182c-1.355-2.895-2-12.014,3.116-19.535,5.179-7.607,13.554-9.026,14.755-8.236s-7.792,20.689-9.633,22.962S1580.105,944.182,1580.105,944.182Z" transform="translate(-1574.393 -878.907)" fill="#be3d64"/>
      <path id="Trazado_101953" data-name="Trazado 101953" d="M1584.177,932.209c-.563-1.109-.81-4.75,1.817-8.612,3.533-5.2,10.592-6.795,11.711-6.559,1.157.243-8.131,12.285-9.328,13.343C1587.287,931.344,1584.177,932.209,1584.177,932.209Z" transform="translate(-1575.427 -879.084)" fill="#d74579"/>
      <path id="Trazado_101954" data-name="Trazado 101954" d="M1583.344,937.127a7.44,7.44,0,0,1-1.124-4.677,9.924,9.924,0,0,0-1.523,2.568c-1.166,2.962-.478,5.233.052,5.832a11.11,11.11,0,0,0,2.495-1.966,27.808,27.808,0,0,0,1.281-2.513C1583.855,936.821,1583.344,937.127,1583.344,937.127Z" transform="translate(-1574.596 -882.502)" fill="#d74579"/>
      <g id="Grupo_54838" data-name="Grupo 54838" transform="translate(16.708 38.074)">
        <path id="Trazado_101955" data-name="Trazado 101955" d="M1598.288,924.143c-1.888-.385-3.255-2.529-3.653-4.157-.349-1.433,0-2.5.907-2.788l.088.279c-.758.241-1.024,1.151-.71,2.438.464,1.9,2.264,4.331,4.438,3.953l.051.29A3.017,3.017,0,0,1,1598.288,924.143Z" transform="translate(-1594.502 -917.198)" fill="#49343a"/>
      </g>
      <g id="Grupo_54839" data-name="Grupo 54839" transform="translate(11.953 41.015)">
        <path id="Trazado_101956" data-name="Trazado 101956" d="M1593.335,930.672a5.954,5.954,0,0,1-4.2-3.63c-1.092-2.483-.886-5.3.02-6.066l.19.224c-.812.686-.967,3.392.058,5.723a5.563,5.563,0,0,0,6.141,3.516l.037.291A6.851,6.851,0,0,1,1593.335,930.672Z" transform="translate(-1588.394 -920.976)" fill="#49343a"/>
      </g>
      <g id="Grupo_54840" data-name="Grupo 54840" transform="translate(6.805 47.045)">
        <path id="Trazado_101957" data-name="Trazado 101957" d="M1587.928,937.828a8.572,8.572,0,0,1-5.057-2.877c-.945-1.219-1.759-3.291-.262-6.23l.261.133c-1.13,2.218-1.049,4.264.233,5.917,1.915,2.47,5.872,3.381,8.438,2.809l.064.286A9.037,9.037,0,0,1,1587.928,937.828Z" transform="translate(-1581.783 -928.721)" fill="#49343a"/>
      </g>
      <g id="Grupo_54841" data-name="Grupo 54841" transform="translate(4.585 56.01)">
        <path id="Trazado_101958" data-name="Trazado 101958" d="M1584.243,945.418a7.977,7.977,0,0,1-3.132-1.4c-1.485-1.107-2.313-2.557-2.162-3.783l.291.036c-.138,1.122.647,2.468,2.047,3.513a7.106,7.106,0,0,0,7.015.943l.118.269A6.886,6.886,0,0,1,1584.243,945.418Z" transform="translate(-1578.931 -940.236)" fill="#49343a"/>
      </g>
      <g id="Grupo_54842" data-name="Grupo 54842" transform="translate(5.401 37.362)">
        <path id="Trazado_101959" data-name="Trazado 101959" d="M1579.988,944.577c-.345-8.11,8.843-25.814,18.136-28.293l.075.283c-9.182,2.45-18.26,19.969-17.918,28Z" transform="translate(-1579.979 -916.284)" fill="#49343a"/>
      </g>
      <path id="Trazado_101960" data-name="Trazado 101960" d="M1607.166,908.189c-.969-.245-1.127-1.249.276-1.842s2.45-.2,2.53.747S1607.166,908.189,1607.166,908.189Z" transform="translate(-1580.432 -876.659)" fill="#5f4a51"/>
      <path id="Trazado_101961" data-name="Trazado 101961" d="M1612.6,909.944c.331-1.042-2.493-3.472-3.863-3.668s-5.232,2.347-5.623,3.13.342,3.938,1.075,4.487S1611.618,913.024,1612.6,909.944Z" transform="translate(-1579.676 -876.703)" fill="#765e65"/>
      <path id="Trazado_101962" data-name="Trazado 101962" d="M1603.026,911.042c.1,1.241.485,3.351,1.019,3.751.733.549,7.578-1.2,8.556-4.278a9.5,9.5,0,0,0-.629-1.669C1609.13,910.882,1603.145,912.051,1603.026,911.042Z" transform="translate(-1579.682 -877.275)" fill="#5f4a51"/>
      <path id="Trazado_101963" data-name="Trazado 101963" d="M1619.2,907.235c-1.483-1.187-4.411-1.307-5.091.935s5.106,5.149,6.166,2.488C1620.705,909.579,1619.689,907.626,1619.2,907.235Z" transform="translate(-1582.124 -876.733)" fill="#765e65"/>
      <path id="Trazado_101964" data-name="Trazado 101964" d="M1614.1,908.674c-.874,2.512,5.228,5.295,6.288,2.634a5.024,5.024,0,0,0-.373-2.537C1618.215,909.274,1615.231,909.625,1614.1,908.674Z" transform="translate(-1582.115 -877.237)" fill="#5f4a51"/>
      <path id="Trazado_101965" data-name="Trazado 101965" d="M1621.706,913.337s-5.841-6.413-2.689-8.215c1.027-.587,6.618,1.744,7.334,2.738C1627.866,909.963,1621.706,913.337,1621.706,913.337Z" transform="translate(-1583.016 -876.429)" fill="#765e65"/>
      <path id="Trazado_101966" data-name="Trazado 101966" d="M1622.633,910.918c-2.238-.924-4.4-4.308-4.105-5.272-1.96,2.188,3.085,8.085,3.085,8.085s3.9-2.341,4.789-4.254C1625.558,909.928,1624.455,911.671,1622.633,910.918Z" transform="translate(-1583.014 -876.566)" fill="#5f4a51"/>
      <g id="Grupo_54843" data-name="Grupo 54843" transform="translate(21.144 33.817)">
        <path id="Trazado_101967" data-name="Trazado 101967" d="M1602.392,942.51c-3.483-9.941-2.89-24.322,2.3-30.779l.229.273c-5.136,6.357-5.452,19.94-2.01,29.906Z" transform="translate(-1600.199 -911.731)" fill="#765e65"/>
      </g>
      <g id="Grupo_54844" data-name="Grupo 54844" transform="translate(23.164 33.188)">
        <path id="Trazado_101968" data-name="Trazado 101968" d="M1604.823,940.246c-3.078-8.925-2.728-22.5,1.561-29.324l.255.248c-4.253,6.729-4.358,19.483-1.314,28.434Z" transform="translate(-1602.794 -910.922)" fill="#765e65"/>
      </g>
      <g id="Grupo_54845" data-name="Grupo 54845" transform="translate(24.845 33.203)">
        <path id="Trazado_101969" data-name="Trazado 101969" d="M1607.337,937.454c-3.444-8.2-3.166-20.764.9-26.512l.248.271c-4.015,5.647-3.96,17.571-.563,25.756Z" transform="translate(-1604.953 -910.942)" fill="#765e65"/>
      </g>
      <path id="Trazado_101970" data-name="Trazado 101970" d="M1629.829,907.969c-1.466.911-5.227,3.894-5.227,3.894s3.9-.589,5.718-1.048a9.037,9.037,0,0,0-.288-2.171Q1629.942,908.3,1629.829,907.969Z" transform="translate(-1584.459 -877.081)" fill="#453c3e"/>
      <path id="Trazado_101971" data-name="Trazado 101971" d="M1616.886,906.01c1.5,1.626,4.773,4.607,4.773,4.607s-1.536-4.544-2.41-6.548A7.812,7.812,0,0,0,1616.886,906.01Z" transform="translate(-1582.751 -876.217)" fill="#453c3e"/>
      <path id="Trazado_101972" data-name="Trazado 101972" d="M1629.964,909.01c-.9.56-3.213,2.393-3.213,2.393s2.4-.362,3.514-.644a5.532,5.532,0,0,0-.177-1.334C1630.051,909.283,1630.01,909.146,1629.964,909.01Z" transform="translate(-1584.935 -877.311)" fill="#ecb85c"/>
      <path id="Trazado_101973" data-name="Trazado 101973" d="M1618.094,906.508c.877.95,2.867,3.036,2.867,3.036s-.978-3-1.488-4.168A4.56,4.56,0,0,0,1618.094,906.508Z" transform="translate(-1583.018 -876.506)" fill="#ecb85c"/>
      <path id="Trazado_101974" data-name="Trazado 101974" d="M1606.222,912.073a.72.72,0,0,0-.164-.84c-.217-.139-.494.013-.62.338a.717.717,0,0,0,.166.835C1605.82,912.544,1606.1,912.4,1606.222,912.073Z" transform="translate(-1580.203 -877.792)" fill="#765e65"/>
      <path id="Trazado_101975" data-name="Trazado 101975" d="M1607.75,911.219a.863.863,0,0,0-.021-.976c-.2-.177-.519-.025-.707.338a.857.857,0,0,0,.025.969C1607.247,911.724,1607.561,911.577,1607.75,911.219Z" transform="translate(-1580.537 -877.568)" fill="#765e65"/>
      <path id="Trazado_101976" data-name="Trazado 101976" d="M1609.389,911.54a.876.876,0,0,0,.1-.977c-.178-.215-.511-.124-.74.2a.872.872,0,0,0-.09.972C1608.831,911.95,1609.16,911.862,1609.389,911.54Z" transform="translate(-1580.903 -877.629)" fill="#765e65"/>
      <path id="Trazado_101977" data-name="Trazado 101977" d="M1609.611,911.131a.374.374,0,0,0-.051-.421c-.1-.126-.25-.142-.326-.036a.371.371,0,0,0,.052.42C1609.39,911.221,1609.536,911.237,1609.611,911.131Z" transform="translate(-1581.047 -877.664)" fill="#b0939c"/>
      <path id="Trazado_101978" data-name="Trazado 101978" d="M1607.891,910.841a.374.374,0,0,0-.055-.42c-.1-.126-.249-.143-.323-.036a.376.376,0,0,0,.056.42C1607.672,910.931,1607.817,910.947,1607.891,910.841Z" transform="translate(-1580.666 -877.6)" fill="#b0939c"/>
      <path id="Trazado_101979" data-name="Trazado 101979" d="M1606.283,911.834a.369.369,0,0,0-.058-.414c-.1-.125-.247-.141-.319-.037a.372.372,0,0,0,.058.414C1606.069,911.921,1606.211,911.938,1606.283,911.834Z" transform="translate(-1580.311 -877.821)" fill="#b0939c"/>
      <g id="Grupo_54846" data-name="Grupo 54846" transform="translate(38.103 36.284)">
        <path id="Trazado_101980" data-name="Trazado 101980" d="M1626.516,939.178c-.652-4.782-4.5-24.086-4.534-24.279l.936.073c.034.193,3.1,19.4,3.757,24.184Z" transform="translate(-1621.982 -914.899)" fill="#5f4a51"/>
      </g>
    </g>
  </g>
</svg>
