<svg xmlns="http://www.w3.org/2000/svg" width="103" height="103" viewBox="0 0 103 103">
  <g id="Grupo_54764" data-name="Grupo 54764" transform="translate(-632 -12700)">
    <rect id="Rectángulo_5305" data-name="Rectángulo 5305" width="103" height="103" transform="translate(632 12700)" fill="none"/>
    <g id="Grupo_54760" data-name="Grupo 54760" transform="translate(642 12708)">
      <path id="Trazado_101298" data-name="Trazado 101298" d="M422.511,1040.026a41.887,41.887,0,0,0,55.15,0h-55.15Z" transform="translate(-408.157 -963.379)" fill="#fac873"/>
      <path id="Trazado_101299" data-name="Trazado 101299" d="M447.387,980.431a41.938,41.938,0,0,0-33.353,57.7l33.051-57.249C447.178,980.726,447.287,980.582,447.387,980.431Z" transform="translate(-410.817 -976.933)" fill="#fac873"/>
      <path id="Trazado_101300" data-name="Trazado 101300" d="M483.14,1035.572a41.922,41.922,0,0,0-31.64-54.8c.007.011.016.021.022.032Z" transform="translate(-401.564 -976.855)" fill="#fac873"/>
      <path id="Trazado_101301" data-name="Trazado 101301" d="M446.791,981.079c-.1.151-.21.295-.3.453l-33.051,57.249a42.031,42.031,0,0,0,11.137,15.447h28.76v-9.341a7.082,7.082,0,1,1,0-14.163v-2.184a7.091,7.091,0,0,1-7.082-7.084v-18.4a7.089,7.089,0,0,1,7.082-7.081V977.581A7.8,7.8,0,0,0,446.791,981.079Z" transform="translate(-410.221 -977.581)" fill="#f9b645"/>
      <path id="Trazado_101302" data-name="Trazado 101302" d="M452.786,981.532c-.006-.011-.015-.021-.022-.032a7.82,7.82,0,0,0-6.822-3.919v18.394a7.089,7.089,0,0,1,7.081,7.081v18.4a7.091,7.091,0,0,1-7.081,7.084v2.184a7.082,7.082,0,0,1,0,14.163v9.341h26.39A41.966,41.966,0,0,0,484.4,1036.3Z" transform="translate(-402.828 -977.581)" fill="#f7a416"/>
      <path id="Trazado_101303" data-name="Trazado 101303" d="M440.172,999.648v18.4a7.091,7.091,0,0,0,7.082,7.084V992.567A7.089,7.089,0,0,0,440.172,999.648Z" transform="translate(-404.14 -974.172)" fill="#fff"/>
      <path id="Trazado_101304" data-name="Trazado 101304" d="M440.172,1027.958a7.09,7.09,0,0,0,7.082,7.082v-14.163A7.089,7.089,0,0,0,440.172,1027.958Z" transform="translate(-404.14 -967.734)" fill="#fff"/>
      <path id="Trazado_101305" data-name="Trazado 101305" d="M453.023,1027.958a7.089,7.089,0,0,0-7.081-7.081v14.163A7.089,7.089,0,0,0,453.023,1027.958Z" transform="translate(-402.828 -967.734)" fill="#dce6eb"/>
      <path id="Trazado_101306" data-name="Trazado 101306" d="M453.023,1018.049v-18.4a7.089,7.089,0,0,0-7.081-7.081v32.565A7.091,7.091,0,0,0,453.023,1018.049Z" transform="translate(-402.828 -974.172)" fill="#dce6eb"/>
    </g>
  </g>
</svg>
