<svg xmlns="http://www.w3.org/2000/svg" width="103" height="103" viewBox="0 0 103 103">
  <g id="Grupo_54751" data-name="Grupo 54751" transform="translate(-183 -10940)">
    <rect id="Rectángulo_5305" data-name="Rectángulo 5305" width="103" height="103" transform="translate(183 10940)" fill="none"/>
    <g id="Grupo_54730" data-name="Grupo 54730" transform="translate(192 10954)">
      <path id="Trazado_101184" data-name="Trazado 101184" d="M216.782,873.1H163.29a38.07,38.07,0,1,0,53.492,0Z" transform="translate(-147.843 -862.12)" fill="#a1bee9"/>
      <path id="Trazado_101185" data-name="Trazado 101185" d="M162.722,878.07c0-.087,0-.173,0-.26a5.455,5.455,0,0,0-4.522,5.357v6.39a5.453,5.453,0,0,0,5.176,5.429c-.326-4.908-.587-10.64-.654-16.916Z" transform="translate(-147.63 -861.958)" fill="#d3dcfb"/>
      <path id="Trazado_101186" data-name="Trazado 101186" d="M214.995,877.81c0,.087,0,.173,0,.26-.067,6.276-.328,12.008-.655,16.916a5.452,5.452,0,0,0,5.176-5.429v-6.39a5.454,5.454,0,0,0-4.522-5.357Z" transform="translate(-145.703 -861.958)" fill="#d3dcfb"/>
      <path id="Trazado_101187" data-name="Trazado 101187" d="M162.906,885.618c-.822,2.113-4.443,2.052-4.684-.682-.014-.158-.022-.318-.022-.479v4.871a5.453,5.453,0,0,0,5.176,5.429c-.185-2.8-.35-5.859-.47-9.139Z" transform="translate(-147.63 -861.73)" fill="#bec8f7"/>
      <path id="Trazado_101188" data-name="Trazado 101188" d="M214.812,885.618c-.12,3.279-.284,6.343-.471,9.139a5.452,5.452,0,0,0,5.176-5.429v-4.871c0,.161-.006.321-.021.479-.241,2.734-3.862,2.795-4.684.682Z" transform="translate(-145.703 -861.73)" fill="#bec8f7"/>
      <path id="Trazado_101189" data-name="Trazado 101189" d="M216.584,873.62a38.069,38.069,0,0,0-53.81,0,26.1,26.1,0,0,0-.424,4.977c.124,11.629.918,21.4,1.534,27.349a31.577,31.577,0,0,0,7.694,17.695,33.281,33.281,0,0,0,6.615,5.782,20.9,20.9,0,0,0,22.972,0,33.282,33.282,0,0,0,6.615-5.782,31.569,31.569,0,0,0,7.693-17.695c.616-5.952,1.411-15.72,1.534-27.349A25.936,25.936,0,0,0,216.584,873.62Z" transform="translate(-147.487 -862.484)" fill="#6393db"/>
      <path id="Trazado_101190" data-name="Trazado 101190" d="M197.416,921.885l-12.336-24.49c-2.358-.433-1.681-2.882-1.681-2.882s-2.918-7.2-2.918-19.05c0-6.845,3.069-10.745,5.662-12.819a37.951,37.951,0,0,0-23.369,10.971,26.1,26.1,0,0,0-.424,4.977c.124,11.629.918,21.4,1.534,27.349a31.577,31.577,0,0,0,7.694,17.695,33.281,33.281,0,0,0,6.615,5.782,20.9,20.9,0,0,0,22.972,0q.408-.27.821-.561c-4.967-1.352-4.571-6.972-4.571-6.972Z" transform="translate(-147.487 -862.478)" fill="#4a6ea4"/>
      <path id="Trazado_101191" data-name="Trazado 101191" d="M177.034,916.089a22.057,22.057,0,0,0-4.668-15.022,2.027,2.027,0,0,0-1.875-.782l-6.432,1.027a49.91,49.91,0,0,1,5.992,19.283l5.881-2.8a2.029,2.029,0,0,0,1.1-1.707Z" transform="translate(-147.428 -861.188)" fill="#f9b645"/>
      <path id="Trazado_101192" data-name="Trazado 101192" d="M175.719,908.482a5.042,5.042,0,0,1-6.96,2.125.608.608,0,0,0-.734.163,43.711,43.711,0,0,1,1.89,9.551l5.881-2.8a2.029,2.029,0,0,0,1.1-1.707,21.867,21.867,0,0,0-.846-7.595.6.6,0,0,0-.333.261Z" transform="translate(-147.292 -860.915)" fill="#f7a416"/>
      <g id="Grupo_54722" data-name="Grupo 54722" transform="translate(17.137 12.483)">
        <path id="Trazado_101193" data-name="Trazado 101193" d="M170.2,897.365A9.891,9.891,0,0,1,164.6,889.2a18.329,18.329,0,0,1,1.375-8.382,10.077,10.077,0,0,1,9.423-6.266,28.5,28.5,0,0,1,5.006.5,9.675,9.675,0,0,1,6.542,14.293,22.013,22.013,0,0,1-6.765,7.365,10.007,10.007,0,0,1-9.987.652Z" transform="translate(-164.549 -874.553)" fill="#d3dcfb"/>
      </g>
      <path id="Trazado_101194" data-name="Trazado 101194" d="M183.085,894.36a.647.647,0,0,0-.3-.443,1.254,1.254,0,0,1-.536-1.08.63.63,0,0,0-.381-.561,1.6,1.6,0,0,1-.841-1.629.629.629,0,0,0-.333-.571c-6.432-3.51-3.132-9.262-2.184-10.673a.637.637,0,0,0,.032-.642,1.221,1.221,0,0,1,.515-1.741.631.631,0,0,0,.295-.563,1.408,1.408,0,0,1,.636-1.157.6.6,0,0,0,.2-.284,28.61,28.61,0,0,0-4.8-.462,10.076,10.076,0,0,0-9.423,6.266A18.343,18.343,0,0,0,164.6,889.2a9.888,9.888,0,0,0,5.592,8.162,10,10,0,0,0,9.987-.651A19.78,19.78,0,0,0,183.085,894.36Z" transform="translate(-147.412 -862.07)" fill="#bec8f7"/>
      <g id="Grupo_54723" data-name="Grupo 54723" transform="translate(43.718 12.483)">
        <path id="Trazado_101195" data-name="Trazado 101195" d="M198.3,896.713a22.02,22.02,0,0,1-6.764-7.365,9.675,9.675,0,0,1,6.542-14.293,28.4,28.4,0,0,1,5.006-.5,10.08,10.08,0,0,1,9.423,6.266,18.343,18.343,0,0,1,1.375,8.382,9.893,9.893,0,0,1-5.592,8.163A10.008,10.008,0,0,1,198.3,896.713Z" transform="translate(-190.248 -874.553)" fill="#d3dcfb"/>
      </g>
      <path id="Trazado_101196" data-name="Trazado 101196" d="M212.873,892.834c-1.05.12-1.378-.458-1.479-.859a.383.383,0,0,0-.416-.289,1.411,1.411,0,0,1-1.564-.984.385.385,0,0,0-.329-.253c-10.165-.919-8.556-9.579-8.134-11.294a.377.377,0,0,0-.176-.42,1.3,1.3,0,0,1-.595-1.832.375.375,0,0,0-.131-.47c-.817-.529-.262-1.448-.1-1.68-.638.077-1.265.174-1.875.293a9.675,9.675,0,0,0-6.542,14.293,22.02,22.02,0,0,0,6.764,7.365,10.1,10.1,0,0,0,14.576-3.872Z" transform="translate(-146.53 -862.063)" fill="#bec8f7"/>
      <path id="Trazado_101197" data-name="Trazado 101197" d="M175.159,877.507a7,7,0,0,0-6.45,4.355,15.321,15.321,0,0,0-1.163,6.992,6.861,6.861,0,0,0,3.884,5.661,6.975,6.975,0,0,0,6.965-.452,18.939,18.939,0,0,0,5.8-6.339,6.616,6.616,0,0,0-4.475-9.771,25.369,25.369,0,0,0-4.467-.445Z" transform="translate(-147.31 -861.969)" fill="#73c3f9"/>
      <path id="Trazado_101198" data-name="Trazado 101198" d="M180.929,890.546a.629.629,0,0,0-.333-.571c-6.432-3.51-3.132-9.262-2.184-10.673a.637.637,0,0,0,.032-.642,1.314,1.314,0,0,1-.146-.936,26.332,26.332,0,0,0-3.043-.216h-.1a7,7,0,0,0-6.45,4.355,15.321,15.321,0,0,0-1.163,6.992,6.861,6.861,0,0,0,3.884,5.661,6.975,6.975,0,0,0,6.965-.452,16.875,16.875,0,0,0,2.815-2.351A2,2,0,0,1,180.929,890.546Z" transform="translate(-147.31 -861.969)" fill="#4fabf7"/>
      <path id="Trazado_101199" data-name="Trazado 101199" d="M203.118,877.507h-.1a25.367,25.367,0,0,0-4.466.445,6.617,6.617,0,0,0-4.476,9.771,18.962,18.962,0,0,0,5.8,6.339,6.977,6.977,0,0,0,6.966.452,6.862,6.862,0,0,0,3.883-5.661,15.294,15.294,0,0,0-1.163-6.992,7,7,0,0,0-6.449-4.355Z" transform="translate(-146.429 -861.969)" fill="#73c3f9"/>
      <path id="Trazado_101200" data-name="Trazado 101200" d="M209.313,890.6a.386.386,0,0,0-.329-.253c-10.165-.919-8.556-9.579-8.134-11.294a.377.377,0,0,0-.176-.42,1.35,1.35,0,0,1-.738-.912c-.47.062-.932.135-1.382.223a6.617,6.617,0,0,0-4.476,9.771,18.962,18.962,0,0,0,5.8,6.339,6.977,6.977,0,0,0,6.966.452A6.905,6.905,0,0,0,210,891.437a1.516,1.516,0,0,1-.687-.836Z" transform="translate(-146.429 -861.961)" fill="#4fabf7"/>
      <g id="Grupo_54724" data-name="Grupo 54724" transform="translate(19.047 14.392)">
        <path id="Trazado_101201" data-name="Trazado 101201" d="M170.967,895.583a8,8,0,0,1-4.524-6.6,16.456,16.456,0,0,1,1.242-7.513A8.173,8.173,0,0,1,175.2,876.4h.113a26.552,26.552,0,0,1,4.669.465,7.757,7.757,0,0,1,5.251,11.467,20.1,20.1,0,0,1-6.163,6.724,8.113,8.113,0,0,1-8.1.526Zm4.23-16.892a5.86,5.86,0,0,0-5.387,3.638,14.164,14.164,0,0,0-1.083,6.472,5.726,5.726,0,0,0,3.243,4.723,5.84,5.84,0,0,0,5.831-.378,17.8,17.8,0,0,0,5.441-5.956,5.467,5.467,0,0,0-3.7-8.075,24.354,24.354,0,0,0-4.265-.424Z" transform="translate(-166.395 -876.399)" fill="#9bd8f9"/>
      </g>
      <path id="Trazado_101202" data-name="Trazado 101202" d="M181.808,892.214a1.6,1.6,0,0,1-.841-1.629.612.612,0,0,0-.025-.19,16.082,16.082,0,0,1-3.141,2.752,5.843,5.843,0,0,1-5.831.376,5.726,5.726,0,0,1-3.243-4.723,14.178,14.178,0,0,1,1.083-6.472,5.86,5.86,0,0,1,5.387-3.638h.081a25.06,25.06,0,0,1,3.274.256.647.647,0,0,0-.069-.249,1.221,1.221,0,0,1,.515-1.741.607.607,0,0,0,.214-.227,27.235,27.235,0,0,0-3.9-.331H175.2a8.173,8.173,0,0,0-7.512,5.072,16.456,16.456,0,0,0-1.242,7.513,8,8,0,0,0,4.524,6.6,8.113,8.113,0,0,0,8.1-.526,18.118,18.118,0,0,0,3.05-2.557.634.634,0,0,0-.308-.286Z" transform="translate(-147.348 -862.007)" fill="#73c3f9"/>
      <g id="Grupo_54725" data-name="Grupo 54725" transform="translate(45.624 14.392)">
        <path id="Trazado_101203" data-name="Trazado 101203" d="M199.287,895.057a20.1,20.1,0,0,1-6.163-6.724,7.756,7.756,0,0,1,5.251-11.467,26.551,26.551,0,0,1,4.669-.465h.113a8.172,8.172,0,0,1,7.511,5.072,16.429,16.429,0,0,1,1.242,7.513,7.993,7.993,0,0,1-4.524,6.6,8.109,8.109,0,0,1-8.1-.526Zm3.869-16.366h-.081a24.255,24.255,0,0,0-4.264.423,5.466,5.466,0,0,0-3.7,8.076,17.822,17.822,0,0,0,5.441,5.956,5.842,5.842,0,0,0,5.831.376,5.726,5.726,0,0,0,3.243-4.723,14.178,14.178,0,0,0-1.083-6.472,5.86,5.86,0,0,0-5.387-3.638Z" transform="translate(-192.091 -876.399)" fill="#9bd8f9"/>
      </g>
      <path id="Trazado_101204" data-name="Trazado 101204" d="M210.915,891.624a1.411,1.411,0,0,1-1.564-.984.386.386,0,0,0-.12-.168,5.747,5.747,0,0,1-2.848,3.044,5.842,5.842,0,0,1-5.832-.378,17.809,17.809,0,0,1-5.44-5.956,5.466,5.466,0,0,1,3.7-8.075c.658-.128,1.339-.227,2.039-.3a.363.363,0,0,0-.137-.138,1.3,1.3,0,0,1-.595-1.833.379.379,0,0,0,.022-.256q-.9.109-1.767.275a7.755,7.755,0,0,0-5.25,11.466,20.094,20.094,0,0,0,6.163,6.725,8.175,8.175,0,0,0,11.91-3.345.386.386,0,0,0-.281-.082Z" transform="translate(-146.467 -862)" fill="#73c3f9"/>
      <path id="Trazado_101205" data-name="Trazado 101205" d="M189.1,903.9a10.281,10.281,0,0,1,9.717,6.929c.065-.659.1-1.332.1-2.016,0-7.82-4.395-14.16-9.817-14.16s-9.817,6.339-9.817,14.16q0,1.027.1,2.016A10.281,10.281,0,0,1,189.1,903.9Z" transform="translate(-146.906 -861.381)" fill="#4b6bb2"/>
      <path id="Trazado_101206" data-name="Trazado 101206" d="M188.267,903.722c-5.474-1.779-3.779-7.442-3.768-7.479-3.1,2.378-5.217,7.088-5.217,12.511,0,.684.034,1.357.1,2.016a10.286,10.286,0,0,1,8.786-6.886,1.7,1.7,0,0,1,.1-.161Z" transform="translate(-146.906 -861.326)" fill="#3c58a0"/>
      <path id="Trazado_101207" data-name="Trazado 101207" d="M188.868,923.181a10.3,10.3,0,0,1-2.863-.406v8.53a1.624,1.624,0,0,0,1.624,1.624h2.478a1.624,1.624,0,0,0,1.624-1.624v-8.53a10.3,10.3,0,0,1-2.863.406Z" transform="translate(-146.676 -860.416)" fill="#4b6bb2"/>
      <path id="Trazado_101208" data-name="Trazado 101208" d="M188.868,923.181a10.3,10.3,0,0,1-2.863-.406v5.663a1.624,1.624,0,0,1,1.624-1.623h2.478a1.624,1.624,0,0,1,1.624,1.623v-5.663A10.3,10.3,0,0,1,188.868,923.181Z" transform="translate(-146.676 -860.416)" fill="#3c58a0"/>
      <ellipse id="Elipse_3998" data-name="Elipse 3998" cx="10.282" cy="10.282" rx="10.282" ry="10.282" transform="translate(31.92 42.324)" fill="#6289cc"/>
      <path id="Trazado_101209" data-name="Trazado 101209" d="M195.826,917.7l-6.712-3.978v-7.8a1.538,1.538,0,0,1-.834-2.44,10.277,10.277,0,1,0,8.568,17.007,2.191,2.191,0,0,1-1.023-2.786Z" transform="translate(-146.922 -861.078)" fill="#4b6bb2"/>
      <g id="Grupo_54726" data-name="Grupo 54726" transform="translate(34.39 44.838)">
        <path id="Trazado_101210" data-name="Trazado 101210" d="M189.032,921.44a7.8,7.8,0,1,1,7.8-7.8A7.811,7.811,0,0,1,189.032,921.44Zm0-13.314a5.511,5.511,0,1,0,5.511,5.511A5.518,5.518,0,0,0,189.032,908.126Z" transform="translate(-181.229 -905.835)" fill="#fcf2c8"/>
      </g>
      <path id="Trazado_101211" data-name="Trazado 101211" d="M161.053,897.99l-9.472,1.513.011.036c2.108-.072,5.664,5.956,8.134,13.9s2.955,14.929,1.178,16.065l.011.036,8.661-4.122c1.883-.585,1.5-7.2-.851-14.776S162.937,897.4,161.053,897.99Z" transform="translate(-147.857 -861.267)" fill="#f9b645"/>
      <path id="Trazado_101212" data-name="Trazado 101212" d="M168.543,910.519a.6.6,0,0,0-.321.319c-.652,1.548-2.809,5.256-7.774,2.535a.609.609,0,0,0-.82.225c2.314,7.7,2.734,14.371,1,15.478l.011.036,8.661-4.123c1.859-.577,1.512-7.024-.758-14.471Z" transform="translate(-147.581 -860.836)" fill="#f7a416"/>
      <ellipse id="Elipse_3999" data-name="Elipse 3999" cx="3.912" cy="15.731" rx="3.912" ry="15.731" transform="matrix(0.955, -0.297, 0.297, 0.955, 0, 39.397)" fill="#fcf2c8"/>
      <path id="Trazado_101213" data-name="Trazado 101213" d="M160.079,913.285a.6.6,0,0,0-.283.387c-.3,1.3-1.163,3.45-3.346,1.178a.6.6,0,0,0-.97.131,2.1,2.1,0,0,1-2.681,1.2c2.56,7.778,6.1,13.454,8.076,12.84,2.025-.63,1.659-7.626-.8-15.733Z" transform="translate(-147.815 -860.741)" fill="#ffdd40"/>
      <ellipse id="Elipse_4000" data-name="Elipse 4000" cx="2.261" cy="7.865" rx="2.261" ry="7.865" transform="translate(1.368 47.209) rotate(-17.275)" fill="#ffdd40"/>
      <path id="Trazado_101214" data-name="Trazado 101214" d="M156.036,922.252c1.14-.354,1.118-3.715-.011-7.632a.6.6,0,0,0-.5.315c-.484.912-1.547,2.053-3.587.748a.592.592,0,0,0-.332-.092C152.892,919.648,154.861,922.617,156.036,922.252Z" transform="translate(-147.856 -860.696)" fill="#ffb332"/>
      <path id="Trazado_101215" data-name="Trazado 101215" d="M200.944,916.089a22.057,22.057,0,0,1,4.668-15.022,2.027,2.027,0,0,1,1.875-.782l6.431,1.027a49.932,49.932,0,0,0-5.991,19.283l-5.881-2.8a2.027,2.027,0,0,1-1.1-1.707Z" transform="translate(-146.165 -861.188)" fill="#f9b645"/>
      <path id="Trazado_101216" data-name="Trazado 101216" d="M202.122,908.482a5.043,5.043,0,0,0,6.961,2.125.608.608,0,0,1,.734.163,43.713,43.713,0,0,0-1.89,9.551l-5.882-2.8a2.028,2.028,0,0,1-1.1-1.707,21.891,21.891,0,0,1,.845-7.595.592.592,0,0,1,.333.261Z" transform="translate(-146.165 -860.915)" fill="#f7a416"/>
      <path id="Trazado_101217" data-name="Trazado 101217" d="M217.129,897.99,226.6,899.5l-.011.036c-2.108-.072-5.664,5.956-8.134,13.9s-2.955,14.929-1.178,16.065l-.011.036-8.661-4.122c-1.883-.585-1.5-7.2.851-14.776S215.245,897.4,217.129,897.99Z" transform="translate(-145.941 -861.267)" fill="#f9b645"/>
      <path id="Trazado_101218" data-name="Trazado 101218" d="M209.364,910.519a.6.6,0,0,1,.321.319c.652,1.548,2.809,5.256,7.774,2.535a.609.609,0,0,1,.82.225c-2.314,7.7-2.734,14.371-1,15.478l-.011.036-8.661-4.123c-1.859-.577-1.512-7.024.758-14.471Z" transform="translate(-145.941 -860.836)" fill="#f7a416"/>
      <ellipse id="Elipse_4001" data-name="Elipse 4001" cx="15.731" cy="3.912" rx="15.731" ry="3.912" transform="matrix(0.297, -0.955, 0.955, 0.297, 67.608, 67.127)" fill="#fcf2c8"/>
      <path id="Trazado_101219" data-name="Trazado 101219" d="M217.778,913.285a.6.6,0,0,1,.284.387c.3,1.3,1.163,3.45,3.346,1.178a.6.6,0,0,1,.97.131,2.1,2.1,0,0,0,2.681,1.2c-2.56,7.778-6.1,13.454-8.076,12.84-2.025-.63-1.66-7.626.794-15.733Z" transform="translate(-145.658 -860.741)" fill="#ffdd40"/>
      <ellipse id="Elipse_4002" data-name="Elipse 4002" cx="7.865" cy="2.261" rx="7.865" ry="2.261" transform="matrix(0.297, -0.955, 0.955, 0.297, 74.066, 60.898)" fill="#ffdd40"/>
      <path id="Trazado_101220" data-name="Trazado 101220" d="M221.684,922.252c-1.139-.354-1.117-3.715.012-7.632a.6.6,0,0,1,.5.315c.484.912,1.547,2.053,3.587.748a.592.592,0,0,1,.332-.092C224.829,919.648,222.86,922.617,221.684,922.252Z" transform="translate(-145.48 -860.696)" fill="#ffb332"/>
      <path id="Trazado_101221" data-name="Trazado 101221" d="M194.534,913.936a5.509,5.509,0,1,1-3.374-5.381,1.626,1.626,0,0,1,1.1-2.019,7.8,7.8,0,1,0,4.564,7.553A2.485,2.485,0,0,1,194.534,913.936Z" transform="translate(-146.839 -860.997)" fill="#f9b645"/>
      <g id="Grupo_54727" data-name="Grupo 54727" transform="translate(41.046 51.495)">
        <path id="Trazado_101222" data-name="Trazado 101222" d="M194.536,917.957a1.137,1.137,0,0,1-.582-.16l-5.727-3.394a1.146,1.146,0,1,1,1.169-1.971l5.726,3.393a1.146,1.146,0,0,1-.585,2.132Z" transform="translate(-187.665 -912.271)" fill="#3c58a0"/>
      </g>
      <g id="Grupo_54728" data-name="Grupo 54728" transform="translate(35.32 51.495)">
        <path id="Trazado_101223" data-name="Trazado 101223" d="M183.276,917.957a1.146,1.146,0,0,1-.585-2.132l5.726-3.393a1.146,1.146,0,1,1,1.169,1.971l-5.727,3.394a1.137,1.137,0,0,1-.582.16Z" transform="translate(-182.129 -912.271)" fill="#3c58a0"/>
      </g>
      <g id="Grupo_54729" data-name="Grupo 54729" transform="translate(41.046 44.838)">
        <path id="Trazado_101224" data-name="Trazado 101224" d="M188.811,914.783a1.146,1.146,0,0,1-1.146-1.146v-6.656a1.146,1.146,0,0,1,2.292,0v6.656A1.146,1.146,0,0,1,188.811,914.783Z" transform="translate(-187.665 -905.835)" fill="#3c58a0"/>
      </g>
      <ellipse id="Elipse_4003" data-name="Elipse 4003" cx="1.716" cy="1.716" rx="1.716" ry="1.716" transform="translate(40.481 50.967)" fill="#2a428c"/>
    </g>
  </g>
</svg>
