<svg xmlns="http://www.w3.org/2000/svg" width="64" height="64" viewBox="0 0 64 64">
  <g id="Grupo_53374" data-name="Grupo 53374" transform="translate(-957 -1940)">
    <rect id="Rectángulo_5069" data-name="Rectángulo 5069" width="64" height="64" transform="translate(957 1940)" fill="none"/>
    <g id="Grupo_53370" data-name="Grupo 53370" transform="translate(959 1952)">
      <path id="Trazado_99333" data-name="Trazado 99333" d="M723.374,134.543l-1.7-1.7-.46-.46-.459.46-6.372,6.372a16.313,16.313,0,0,0-21.681,1.237c-4.083,4.083-5.37,11.064-6.4,16.673-.075.412-.15.815-.224,1.209-.763,4.06-1.339,8.27-1.764,12.87l-.072.779.779-.072a132.46,132.46,0,0,0,15.113-2.21c6.791-1.425,16.09-3.376,19.341-11.886l.233-.607-.608-.232-2.251-.86-.607-.232-.233.607a12.506,12.506,0,0,1-2.862,4.4c-3.618,3.618-16.894,6.02-24.768,6.948.928-7.873,3.33-21.15,6.948-24.768a12.6,12.6,0,0,1,16.413-1.215l-2.365,2.365h-9.687v3.709h5.978l-3.5,3.5h-6.7v3.709h2.986l-3.249,3.249-.46.46.46.46,1.7,1.7.459.46.46-.46,3.249-3.249v2.986h3.71v-6.7l3.5-3.5v6.394h3.71v-10.1l2.364-2.365a12.529,12.529,0,0,1,2.348,5.7l.092.643.644-.092,2.385-.342.643-.093-.092-.643A16.222,16.222,0,0,0,717,141.834l6.372-6.372.46-.46Z" transform="translate(-662.85 -132.379)" fill="#6393db"/>
      <path id="Trazado_99334" data-name="Trazado 99334" d="M722.544,154.668l-.65-.016-.016.65a12.761,12.761,0,0,1-.227,2.1l-.124.639.638.124,2.366.457.638.124.124-.638a16.366,16.366,0,0,0,.293-2.717l.016-.65-.649-.016Z" transform="translate(-667.9 -135.395)" fill="#6393db"/>
      <path id="Trazado_99335" data-name="Trazado 99335" d="M695.055,163.912l-.46.46-1.7,1.7-.46.46.46.46,1.7,1.7.46.46.46-.46,1.7-1.7.46-.46-.46-.46-1.7-1.7Z" transform="translate(-663.96 -136.649)" fill="#6393db"/>
      <path id="Trazado_99336" data-name="Trazado 99336" d="M669.805,158.715h5.488v-.65c0-.426,0-.852.009-1.278.039-3.784.079-7.7-3.012-10.79-2.787-2.787-6.229-3.021-9.515-3.021-.424,0-.852,0-1.279.009s-.849.009-1.273.009h-.65v.65c0,.563-.017,1.132-.035,1.734a20.16,20.16,0,0,0,.373,5.717A10.375,10.375,0,0,0,669.805,158.715ZM663.282,146.7c2.481.011,4.62.151,6.384,1.916s1.906,3.914,1.916,6.384c-2.468-.01-4.613-.146-6.383-1.916S663.293,149.174,663.282,146.7Z" transform="translate(-659.501 -133.814)" fill="#6393db"/>
    </g>
  </g>
</svg>
