<svg xmlns="http://www.w3.org/2000/svg" width="103" height="103" viewBox="0 0 103 103">
  <g id="Grupo_54756" data-name="Grupo 54756" transform="translate(-183 -12313)">
    <rect id="Rectángulo_5305" data-name="Rectángulo 5305" width="103" height="103" transform="translate(183 12313)" fill="none"/>
    <g id="Grupo_54755" data-name="Grupo 54755" transform="translate(-29.445 11344.856)">
      <path id="Trazado_101288" data-name="Trazado 101288" d="M303.545,1019.6a39.452,39.452,0,1,1-39.452-39.452A39.451,39.451,0,0,1,303.545,1019.6Z" transform="translate(0.03 0)" fill="#c8e270"/>
      <g id="Grupo_54754" data-name="Grupo 54754" transform="translate(224.445 995.026)">
        <path id="Trazado_101289" data-name="Trazado 101289" d="M274.94,999.6c-3.7,7.752,4.98,5.8,8.925,10.473,7.237,8.578,3.714,17.81,10.937,17.827a39.737,39.737,0,0,0-7.321-34.868c-3.96.284-10.152,1.558-12.541,6.568Z" transform="translate(-216.761 -993.03)" fill="#badb4c"/>
        <path id="Trazado_101290" data-name="Trazado 101290" d="M244.964,1027.7c3.555-11.267-9.105-8.382-11.658-15.827-1.969-5.74-5.111-6.5-7.633-5.943a39.733,39.733,0,0,0,17.467,43.512C253.289,1041.339,242.22,1036.4,244.964,1027.7Z" transform="translate(-224.445 -991.055)" fill="#badb4c"/>
      </g>
      <path id="Trazado_101291" data-name="Trazado 101291" d="M260.913,1002.25v-1.7a.308.308,0,0,1,.308-.308H279.74a.308.308,0,0,1,.308.308v1.7a.308.308,0,0,1-.308.308H261.221A.309.309,0,0,1,260.913,1002.25Zm23.451,31.9H261.221a.309.309,0,0,0-.308.308v1.7a.308.308,0,0,0,.308.308h23.142a.308.308,0,0,0,.308-.308v-1.7A.308.308,0,0,0,284.364,1034.15Zm-23.142-2.311H279.74a.308.308,0,0,0,.308-.308v-1.7a.308.308,0,0,0-.308-.308H261.221a.309.309,0,0,0-.308.308v1.7A.309.309,0,0,0,261.221,1031.839Zm23.142-6.935H261.221a.308.308,0,0,0-.308.308v1.7a.309.309,0,0,0,.308.308h23.142a.308.308,0,0,0,.308-.308v-1.7A.307.307,0,0,0,284.364,1024.9Zm0-20.034H261.221a.309.309,0,0,0-.308.308v1.7a.309.309,0,0,0,.308.308h23.142a.308.308,0,0,0,.308-.308v-1.7A.308.308,0,0,0,284.364,1004.869Zm0-9.246H261.221a.308.308,0,0,0-.308.308v1.7a.309.309,0,0,0,.308.308h23.142a.308.308,0,0,0,.308-.308v-1.7A.308.308,0,0,0,284.364,995.623Z" transform="translate(5.649 2.398)" fill="#fff"/>
      <path id="Trazado_101292" data-name="Trazado 101292" d="M246.289,1021.235a11.173,11.173,0,1,0,11.173,11.173A11.185,11.185,0,0,0,246.289,1021.235Zm0,20.033a8.861,8.861,0,1,1,8.861-8.86A8.871,8.871,0,0,1,246.289,1041.268Zm0-26.968a11.173,11.173,0,1,0-11.174-11.173A11.186,11.186,0,0,0,246.289,1014.3Zm0-20.034a8.861,8.861,0,1,1-8.862,8.862A8.87,8.87,0,0,1,246.289,994.265Z" transform="translate(1.653 1.829)" fill="#fff"/>
      <path id="Trazado_101293" data-name="Trazado 101293" d="M291.583,992.115l-4.36,4.36a1.541,1.541,0,0,1-2.179,0l-6.538-6.538a1.541,1.541,0,0,1,0-2.179l4.359-4.36a1.541,1.541,0,0,1,2.179,0l6.539,6.539A1.54,1.54,0,0,1,291.583,992.115Z" transform="translate(8.305 0.434)" fill="#024c67"/>
      <path id="Trazado_101294" data-name="Trazado 101294" d="M262.105,993.034l-15.589,15.589a.679.679,0,0,1-.961,0l-6.8-6.8a.342.342,0,0,1,0-.48l1.923-1.923a.341.341,0,0,1,.482,0l4.635,4.635a.339.339,0,0,0,.48,0L259.7,990.63a.339.339,0,0,1,.48,0l1.923,1.923A.339.339,0,0,1,262.105,993.034ZM244.3,1031.252a3.08,3.08,0,0,0-.9,2.179v2.774a.308.308,0,0,0,.308.308h2.774a3.08,3.08,0,0,0,2.179-.9l3.456-3.456-4.359-4.359Z" transform="translate(2.202 1.609)" fill="#4a6ea4"/>
      <path id="Trazado_101295" data-name="Trazado 101295" d="M295.291,993l-37.723,37.723a3.086,3.086,0,0,1-1.574.843l-4.409.881a2.306,2.306,0,0,1-2.086-.632l-1.742-1.74a2.309,2.309,0,0,1-.631-2.086l.881-4.41a3.08,3.08,0,0,1,.842-1.574l37.723-37.723Z" transform="translate(3.507 0.641)" fill="#f7a416"/>
      <path id="Trazado_101296" data-name="Trazado 101296" d="M294.966,992.648l-37.723,37.723a3.086,3.086,0,0,1-1.574.843l-4.409.881a2.306,2.306,0,0,1-2.086-.632l1.125-5.62a3.084,3.084,0,0,1,.842-1.575l37.723-37.723Z" transform="translate(3.831 0.992)" fill="#f9b645"/>
      <path id="Trazado_101297" data-name="Trazado 101297" d="M257.945,1025.661l-2.4,2.4a3.082,3.082,0,0,1-4.359,0L249,1030.243l-4.359-4.359,2.179-2.179a3.082,3.082,0,0,1,0-4.359l2.4-2.4Z" transform="translate(3.129 5.701)" fill="#024c67"/>
    </g>
  </g>
</svg>
