<svg xmlns="http://www.w3.org/2000/svg" width="103" height="103" viewBox="0 0 103 103">
  <g id="Grupo_54765" data-name="Grupo 54765" transform="translate(-1000 -12700)">
    <rect id="Rectángulo_5305" data-name="Rectángulo 5305" width="103" height="103" transform="translate(1000 12700)" fill="none"/>
    <g id="Grupo_54761" data-name="Grupo 54761" transform="translate(1005 12710)">
      <path id="Trazado_101307" data-name="Trazado 101307" d="M632.443,984.862l4.791,7.185,10.986,8.59v45.722a41.921,41.921,0,0,0-53.486-61.5h37.71Z" transform="translate(-572.12 -980.144)" fill="#fac873"/>
      <path id="Trazado_101308" data-name="Trazado 101308" d="M594.471,984.707a42.03,42.03,0,0,0-5.662,3.908h5.662Z" transform="translate(-573.467 -979.106)" fill="#fac873"/>
      <path id="Trazado_101309" data-name="Trazado 101309" d="M589.535,987.891h-3.919v3.672A42.154,42.154,0,0,1,589.535,987.891Z" transform="translate(-574.193 -978.382)" fill="#a1bee9"/>
      <path id="Trazado_101310" data-name="Trazado 101310" d="M601.875,1059.754H614.36v-4.791H595.2V987.891h-5.662a42.154,42.154,0,0,0-3.919,3.672v57.5A41.954,41.954,0,0,0,601.875,1059.754Z" transform="translate(-574.193 -978.382)" fill="#a1bee9"/>
      <path id="Trazado_101311" data-name="Trazado 101311" d="M593.422,983.988v.882q.794-.458,1.609-.882Z" transform="translate(-572.418 -979.27)" fill="#fbf4f4"/>
      <path id="Trazado_101312" data-name="Trazado 101312" d="M612.585,1055.851V983.988H595.031q-.816.424-1.609.882v3.908Z" transform="translate(-572.418 -979.27)" fill="#fbf4f4"/>
      <path id="Trazado_101313" data-name="Trazado 101313" d="M593.422,1054.963h19.164l-19.164-67.072Z" transform="translate(-572.418 -978.382)" fill="#fbf4f4"/>
      <path id="Trazado_101314" data-name="Trazado 101314" d="M633.98,991.173l-4.791-7.185H609.034l2.4,38.327-2.4,33.536,15.571-1.6,10.527,1.079a42.15,42.15,0,0,0,9.834-9.848V999.763Z" transform="translate(-568.867 -979.27)" fill="#e9e4f0"/>
      <path id="Trazado_101315" data-name="Trazado 101315" d="M609.034,983.988v71.863l2.4-33.536Z" transform="translate(-568.867 -979.27)" fill="#e9e4f0"/>
      <path id="Trazado_101316" data-name="Trazado 101316" d="M641.237,999.763l-15.776-15.775-.033,15.775Z" transform="translate(-565.139 -979.27)" fill="#cdcde3"/>
      <path id="Trazado_101317" data-name="Trazado 101317" d="M601.228,995.7v4.791h9.581l2.4-2.395-2.4-2.4Z" transform="translate(-570.643 -976.607)" fill="#f9b645"/>
      <path id="Trazado_101318" data-name="Trazado 101318" d="M609.034,995.7h9.583v4.791h-9.583Z" transform="translate(-568.867 -976.607)" fill="#f7a416"/>
      <path id="Trazado_101319" data-name="Trazado 101319" d="M601.228,1003.5v4.792h9.581l1.6-2.673-1.6-2.119Z" transform="translate(-570.643 -974.831)" fill="#e9e4f0"/>
      <path id="Trazado_101320" data-name="Trazado 101320" d="M621.011,1003.5H609.034v4.792h11.977Z" transform="translate(-568.867 -974.831)" fill="#cdcde3"/>
      <path id="Trazado_101321" data-name="Trazado 101321" d="M601.228,1016.1h9.581l1.6-2.4-1.6-2.395h-9.581Z" transform="translate(-570.643 -973.056)" fill="#e9e4f0"/>
      <path id="Trazado_101322" data-name="Trazado 101322" d="M609.034,1011.31h9.583v4.791h-9.583Z" transform="translate(-568.867 -973.056)" fill="#cdcde3"/>
      <path id="Trazado_101323" data-name="Trazado 101323" d="M601.228,1023.907h9.581l1.6-2.395-1.6-2.4h-9.581Z" transform="translate(-570.643 -971.28)" fill="#badb4c"/>
      <path id="Trazado_101324" data-name="Trazado 101324" d="M601.228,1031.713h9.581l1.6-2.395-1.6-2.4h-9.581Z" transform="translate(-570.643 -969.505)" fill="#e9e4f0"/>
      <path id="Trazado_101325" data-name="Trazado 101325" d="M609.034,1026.922h9.583v4.791h-9.583Z" transform="translate(-568.867 -969.505)" fill="#cdcde3"/>
      <path id="Trazado_101326" data-name="Trazado 101326" d="M576.31,1019.631a41.77,41.77,0,0,0,11.423,28.749v-57.5A41.77,41.77,0,0,0,576.31,1019.631Z" transform="translate(-576.31 -977.701)" fill="#fac873"/>
      <path id="Trazado_101327" data-name="Trazado 101327" d="M610.631,1044.8l-1.6,2.528h16.011a41.752,41.752,0,0,0,9.359-4.791h-25.37Z" transform="translate(-568.867 -965.954)" fill="#6393db"/>
      <path id="Trazado_101328" data-name="Trazado 101328" d="M609.034,1042.535v4.791l1.6-2.528Z" transform="translate(-568.867 -965.954)" fill="#6393db"/>
      <path id="Trazado_101329" data-name="Trazado 101329" d="M609.034,1042.831H634.4c.247-.168.486-.345.728-.518l-10.527-1.079Z" transform="translate(-568.867 -966.25)" fill="#e9e4f0"/>
      <path id="Trazado_101330" data-name="Trazado 101330" d="M601.612,1047.494a41.876,41.876,0,0,0,9.11,1.387v-2.443Z" transform="translate(-570.555 -965.066)" fill="#82a9e2"/>
      <path id="Trazado_101331" data-name="Trazado 101331" d="M598.862,1046.438q1.655.6,3.375,1.056l9.11-1.056Z" transform="translate(-571.181 -965.066)" fill="#82a9e2"/>
      <path id="Trazado_101332" data-name="Trazado 101332" d="M610.631,1048.568l-.209.349c.125,0,.249.009.374.009a42,42,0,0,0,10.214-1.258l-11.976-1.229Z" transform="translate(-568.867 -965.066)" fill="#4a6ea4"/>
      <path id="Trazado_101333" data-name="Trazado 101333" d="M621.01,1047.667a41.724,41.724,0,0,0,4.035-1.229H609.034Z" transform="translate(-568.867 -965.066)" fill="#4a6ea4"/>
      <path id="Trazado_101334" data-name="Trazado 101334" d="M609.034,1046.438v2.443q.692.028,1.388.036l.209-.349Z" transform="translate(-568.867 -965.066)" fill="#4a6ea4"/>
      <path id="Trazado_101335" data-name="Trazado 101335" d="M609.034,1019.116h9.583v4.791h-9.583Z" transform="translate(-568.867 -971.28)" fill="#95af3d"/>
      <path id="Trazado_101336" data-name="Trazado 101336" d="M624.647,1024.175a16.787,16.787,0,0,0,16.768,16.768l1.6-15.492-1.6-18.045A16.787,16.787,0,0,0,624.647,1024.175Z" transform="translate(-565.316 -973.943)" fill="#badb4c"/>
      <path id="Trazado_101337" data-name="Trazado 101337" d="M638.308,1007.407v33.536a16.768,16.768,0,0,0,0-33.536Z" transform="translate(-562.209 -973.943)" fill="#95af3d"/>
      <path id="Trazado_101338" data-name="Trazado 101338" d="M638.13,1022.213l-3.1-3.1-3.388,3.388,6.485,6.485,1.694-1.694,1.6-4.24-1.6-2.536Z" transform="translate(-563.724 -971.28)" fill="#fbf4f4"/>
      <path id="Trazado_101339" data-name="Trazado 101339" d="M644.5,1015.213l-6.194,6.194v6.776l9.581-9.581Z" transform="translate(-562.209 -972.168)" fill="#e9e4f0"/>
    </g>
  </g>
</svg>
