<svg xmlns="http://www.w3.org/2000/svg" width="132" height="132" viewBox="0 0 132 132">
  <g id="Grupo_54883" data-name="Grupo 54883" transform="translate(-849 -2986)">
    <g id="Grupo_54882" data-name="Grupo 54882" transform="translate(863 3000)">
      <g id="Elipse_3965" data-name="Elipse 3965">
        <circle id="Elipse_4028" data-name="Elipse 4028" cx="52.293" cy="52.293" r="52.293" fill="#f6ffc0"/>
      </g>
      <g id="Grupo_54881" data-name="Grupo 54881" transform="translate(5.127 4.382)">
        <g id="Grupo_54878" data-name="Grupo 54878" transform="translate(24.693 75.957)">
          <path id="Trazado_102016" data-name="Trazado 102016" d="M307.463,1070.32a1.434,1.434,0,0,1-1.28-.782l-7.843-15.312a1.437,1.437,0,1,1,2.557-1.31l7.843,15.311a1.437,1.437,0,0,1-1.277,2.092Z" transform="translate(-272.696 -1052.135)" fill="#1b3d66"/>
          <path id="Trazado_102017" data-name="Trazado 102017" d="M280.124,1070.32a1.438,1.438,0,0,1-1.279-2.092l7.843-15.311a1.437,1.437,0,1,1,2.557,1.31l-7.841,15.311A1.437,1.437,0,0,1,280.124,1070.32Z" transform="translate(-278.687 -1052.135)" fill="#1b3d66"/>
        </g>
        <path id="Trazado_102018" data-name="Trazado 102018" d="M271.585,1052.915v-4.6h54.772v4.6a1.831,1.831,0,0,1-1.83,1.83H273.415A1.831,1.831,0,0,1,271.585,1052.915Z" transform="translate(-256.177 -977.352)" fill="#f9b645"/>
        <path id="Trazado_102019" data-name="Trazado 102019" d="M310.357,1048.316v4.6a1.831,1.831,0,0,1-1.83,1.83h4.646a1.831,1.831,0,0,0,1.83-1.83v-4.6Z" transform="translate(-244.824 -977.352)" fill="#fcab29"/>
        <path id="Trazado_102020" data-name="Trazado 102020" d="M287.532,1000.463V996.2a2.168,2.168,0,0,1,2.169-2.168h8.739a2.167,2.167,0,0,1,2.168,2.168v4.262Z" transform="translate(-251.276 -994.034)" fill="#f9b645"/>
        <path id="Trazado_102021" data-name="Trazado 102021" d="M296.976,994.034H292.3a2.168,2.168,0,0,1,2.168,2.168v4.262h4.679V996.2A2.167,2.167,0,0,0,296.976,994.034Z" transform="translate(-249.812 -994.034)" fill="#fcab29"/>
        <path id="Trazado_102022" data-name="Trazado 102022" d="M341.322,997.853H263.863a4.069,4.069,0,0,0-4.064,4.064V1061.2a4.069,4.069,0,0,0,4.064,4.064h77.459a4.068,4.068,0,0,0,4.064-4.064v-59.279A4.067,4.067,0,0,0,341.322,997.853Z" transform="translate(-259.799 -992.86)" fill="#ebeef2"/>
        <path id="Trazado_102023" data-name="Trazado 102023" d="M323.289,997.853h-4.81a4.068,4.068,0,0,1,4.064,4.064V1061.2a4.068,4.068,0,0,1-4.064,4.064h4.81a4.068,4.068,0,0,0,4.064-4.064v-59.279A4.067,4.067,0,0,0,323.289,997.853Z" transform="translate(-241.765 -992.86)" fill="#d1d6de"/>
        <g id="Grupo_54879" data-name="Grupo 54879" transform="translate(24.49 19.297)">
          <path id="Trazado_102024" data-name="Trazado 102024" d="M279.97,1023.393a1.438,1.438,0,0,1-.71-2.688l7.358-4.176a1.437,1.437,0,1,1,1.418,2.5l-7.359,4.176A1.43,1.43,0,0,1,279.97,1023.393Z" transform="translate(-278.532 -1006.475)" fill="#1b3d66"/>
          <path id="Trazado_102025" data-name="Trazado 102025" d="M297.414,1023.393a1.421,1.421,0,0,1-.709-.188l-7.358-4.176a1.437,1.437,0,1,1,1.417-2.5l7.359,4.176a1.438,1.438,0,0,1-.71,2.688Z" transform="translate(-275.432 -1006.475)" fill="#1b3d66"/>
          <path id="Trazado_102026" data-name="Trazado 102026" d="M299.407,1024.644a1.436,1.436,0,0,1-1.167-2.272l9.285-12.976a1.437,1.437,0,0,1,2.337,1.672l-9.286,12.976A1.432,1.432,0,0,1,299.407,1024.644Z" transform="translate(-272.558 -1008.795)" fill="#1b3d66"/>
        </g>
        <g id="Grupo_54880" data-name="Grupo 54880" transform="translate(20.097 36.938)">
          <path id="Trazado_102027" data-name="Trazado 102027" d="M275.172,1032.86v11.548a.575.575,0,0,0,.575.575h4.679a.575.575,0,0,0,.575-.575V1032.86a.574.574,0,0,0-.575-.574h-4.679A.574.574,0,0,0,275.172,1032.86Z" transform="translate(-275.172 -1019.217)" fill="#95af3d"/>
          <path id="Trazado_102028" data-name="Trazado 102028" d="M285.26,1027.243v18.891a.575.575,0,0,0,.575.575h4.679a.575.575,0,0,0,.575-.575v-18.891a.575.575,0,0,0-.575-.574h-4.679A.575.575,0,0,0,285.26,1027.243Z" transform="translate(-272.072 -1020.943)" fill="#95af3d"/>
          <path id="Trazado_102029" data-name="Trazado 102029" d="M295.348,1032.86v11.548a.574.574,0,0,0,.574.575h4.68a.575.575,0,0,0,.575-.575V1032.86a.574.574,0,0,0-.575-.574h-4.68A.573.573,0,0,0,295.348,1032.86Z" transform="translate(-268.971 -1019.217)" fill="#95af3d"/>
          <path id="Trazado_102030" data-name="Trazado 102030" d="M305.435,1022.863v24.617a.575.575,0,0,0,.575.575h4.68a.574.574,0,0,0,.574-.575v-24.617a.574.574,0,0,0-.574-.574h-4.68A.575.575,0,0,0,305.435,1022.863Z" transform="translate(-265.871 -1022.289)" fill="#95af3d"/>
        </g>
        <path id="Trazado_102031" data-name="Trazado 102031" d="M320.067,1038.943l11.338,19.639a4.268,4.268,0,0,0,5.829,1.562h0a4.268,4.268,0,0,0,1.562-5.829l-11.338-19.639Z" transform="translate(-241.277 -981.544)" fill="#de3d2c"/>
        <path id="Trazado_102032" data-name="Trazado 102032" d="M327.459,1034.676l-7.392,4.267,4.42,7.656a23.2,23.2,0,0,0,7.39-4.267Z" transform="translate(-241.277 -981.544)" fill="#c03a2b"/>
        <circle id="Elipse_4029" data-name="Elipse 4029" cx="18.385" cy="18.385" r="18.385" transform="translate(57.173 24.882)" fill="#f9b645"/>
        <circle id="Elipse_4030" data-name="Elipse 4030" cx="12.938" cy="12.938" r="12.938" transform="translate(62.62 30.328)" fill="#6393db"/>
        <path id="Trazado_102033" data-name="Trazado 102033" d="M288.615,1012.512a4.789,4.789,0,1,0,4.79,4.79A4.794,4.794,0,0,0,288.615,1012.512Z" transform="translate(-252.415 -988.355)" fill="#f9b645"/>
        <path id="Trazado_102034" data-name="Trazado 102034" d="M278.528,1018.239a4.79,4.79,0,1,0,4.789,4.79A4.8,4.8,0,0,0,278.528,1018.239Z" transform="translate(-255.515 -986.595)" fill="#5c9cee"/>
        <path id="Trazado_102035" data-name="Trazado 102035" d="M298.7,1018.239a4.79,4.79,0,1,0,4.79,4.79A4.8,4.8,0,0,0,298.7,1018.239Z" transform="translate(-249.315 -986.595)" fill="#ed5575"/>
        <path id="Trazado_102036" data-name="Trazado 102036" d="M308.791,1004.146a4.79,4.79,0,1,0,4.79,4.79A4.8,4.8,0,0,0,308.791,1004.146Z" transform="translate(-246.215 -990.926)" fill="#9fd479"/>
      </g>
    </g>
    <rect id="Rectángulo_5305" data-name="Rectángulo 5305" width="132" height="132" transform="translate(849 2986)" fill="none"/>
  </g>
</svg>
