<svg xmlns="http://www.w3.org/2000/svg" width="132" height="132" viewBox="0 0 132 132">
  <g id="Grupo_54884" data-name="Grupo 54884" transform="translate(-649 -3038)">
    <g id="Grupo_54877" data-name="Grupo 54877" transform="translate(662 3051)">
      <g id="Elipse_3965" data-name="Elipse 3965" transform="translate(0)">
        <circle id="Elipse_4027" data-name="Elipse 4027" cx="52.947" cy="52.947" r="52.947" fill="#f6ffc0"/>
      </g>
      <path id="Trazado_101996" data-name="Trazado 101996" d="M183.7,994.417v94.4H231.48a12.1,12.1,0,0,0,12.1-12.1V994.417a1.939,1.939,0,0,0-1.937-1.939H185.635A1.939,1.939,0,0,0,183.7,994.417Z" transform="translate(-153.13 -989.476)" fill="#e3f4ff"/>
      <path id="Trazado_101997" data-name="Trazado 101997" d="M233.66,994.417v82.294a12.105,12.105,0,0,1-12.1,12.1H215.99a12.1,12.1,0,0,0,12.1-12.1V994.417a1.939,1.939,0,0,0-1.939-1.939h5.565A1.939,1.939,0,0,1,233.66,994.417Z" transform="translate(-143.206 -989.476)" fill="#a1bee9"/>
      <path id="Trazado_101998" data-name="Trazado 101998" d="M222.541,1053.141a1.938,1.938,0,0,1,1.939,1.938v2.989a12.1,12.1,0,0,0,12.1,12.1H176.692a12.1,12.1,0,0,1-12.1-12.1v-2.989a1.938,1.938,0,0,1,1.937-1.938Z" transform="translate(-159.003 -970.833)" fill="#6393db"/>
      <g id="Grupo_54874" data-name="Grupo 54874" transform="translate(40.257 32.194)">
        <path id="Trazado_101999" data-name="Trazado 101999" d="M198.15,1018.329a3.521,3.521,0,1,1-3.521-3.521A3.521,3.521,0,0,1,198.15,1018.329Z" transform="translate(-191.109 -1014.808)" fill="#f9b645"/>
        <path id="Trazado_102000" data-name="Trazado 102000" d="M198.15,1030.076a3.521,3.521,0,1,1-3.521-3.521A3.521,3.521,0,0,1,198.15,1030.076Z" transform="translate(-191.109 -1011.198)" fill="#f9b645"/>
        <path id="Trazado_102001" data-name="Trazado 102001" d="M198.15,1041.822a3.521,3.521,0,1,1-3.521-3.521A3.521,3.521,0,0,1,198.15,1041.822Z" transform="translate(-191.109 -1007.588)" fill="#f9b645"/>
      </g>
      <g id="Grupo_54876" data-name="Grupo 54876" transform="translate(51.672 30.465)">
        <g id="Grupo_54875" data-name="Grupo 54875">
          <path id="Trazado_102002" data-name="Trazado 102002" d="M208.417,1019.535h-7.122a1.454,1.454,0,0,1,0-2.907h7.122a1.454,1.454,0,1,1,0,2.907Z" transform="translate(-199.841 -1012.519)" fill="#a1bee9"/>
          <path id="Trazado_102003" data-name="Trazado 102003" d="M226.125,1022.2h-24.83a1.454,1.454,0,0,1,0-2.907h24.83a1.454,1.454,0,1,1,0,2.907Z" transform="translate(-199.841 -1011.7)" fill="#a1bee9"/>
          <path id="Trazado_102004" data-name="Trazado 102004" d="M201.3,1016.393a1.454,1.454,0,0,1-.025-2.908h.025a1.454,1.454,0,0,1,.008,2.908Z" transform="translate(-199.841 -1013.485)" fill="#a1bee9"/>
        </g>
        <path id="Trazado_102005" data-name="Trazado 102005" d="M208.417,1031.281h-7.122a1.453,1.453,0,1,1,0-2.906h7.122a1.453,1.453,0,1,1,0,2.906Z" transform="translate(-199.841 -1008.909)" fill="#a1bee9"/>
        <path id="Trazado_102006" data-name="Trazado 102006" d="M226.125,1033.948h-24.83a1.454,1.454,0,1,1,0-2.907h24.83a1.454,1.454,0,1,1,0,2.907Z" transform="translate(-199.841 -1008.09)" fill="#a1bee9"/>
        <path id="Trazado_102007" data-name="Trazado 102007" d="M201.3,1028.138a1.454,1.454,0,0,1-.025-2.907h.025a1.454,1.454,0,0,1,.008,2.907Z" transform="translate(-199.841 -1009.875)" fill="#a1bee9"/>
        <path id="Trazado_102008" data-name="Trazado 102008" d="M208.417,1043.028h-7.122a1.454,1.454,0,1,1,0-2.907h7.122a1.454,1.454,0,1,1,0,2.907Z" transform="translate(-199.841 -1005.299)" fill="#a1bee9"/>
        <path id="Trazado_102009" data-name="Trazado 102009" d="M226.125,1045.693h-24.83a1.453,1.453,0,1,1,0-2.906h24.83a1.453,1.453,0,1,1,0,2.906Z" transform="translate(-199.841 -1004.48)" fill="#a1bee9"/>
        <path id="Trazado_102010" data-name="Trazado 102010" d="M201.3,1039.885a1.454,1.454,0,0,1-.025-2.908h.025a1.454,1.454,0,0,1,.008,2.908Z" transform="translate(-199.841 -1006.265)" fill="#a1bee9"/>
      </g>
      <path id="Trazado_102011" data-name="Trazado 102011" d="M228.9,1007.92h-35.37a1.939,1.939,0,0,1-1.937-1.939v-4.555a1.938,1.938,0,0,1,1.937-1.937H228.9a1.939,1.939,0,0,1,1.939,1.938v4.555A1.939,1.939,0,0,1,228.9,1007.92Z" transform="translate(-150.704 -987.321)" fill="#95af3d"/>
      <path id="Trazado_102012" data-name="Trazado 102012" d="M183.7,1034.934l6.242,3.1a.858.858,0,0,0,1.187-1.067l-2.417-6.538Z" transform="translate(-153.129 -977.812)" fill="#4e7693"/>
      <path id="Trazado_102013" data-name="Trazado 102013" d="M188.65,1041.542,163.6,1013.653a1.431,1.431,0,0,1,.107-2.021l3.987-3.581a1.432,1.432,0,0,1,2.021.108l25.051,27.888a1.431,1.431,0,0,1-.109,2.022l-3.986,3.581A1.431,1.431,0,0,1,188.65,1041.542Z" transform="translate(-159.419 -984.803)" fill="#c8e270"/>
      <path id="Trazado_102014" data-name="Trazado 102014" d="M188.65,1041.035,163.6,1013.146a1.431,1.431,0,0,1,.107-2.021l1.994-1.79,26.964,30.017-1.992,1.791A1.431,1.431,0,0,1,188.65,1041.035Z" transform="translate(-159.419 -984.295)" fill="#badb4c"/>
      <path id="Trazado_102015" data-name="Trazado 102015" d="M166.312,1016.674l-2.713-3.02a1.431,1.431,0,0,1,.109-2.021l3.986-3.581a1.431,1.431,0,0,1,2.021.107l2.713,3.021Z" transform="translate(-159.419 -984.802)" fill="#f9b645"/>
    </g>
    <rect id="Rectángulo_5325" data-name="Rectángulo 5325" width="132" height="132" transform="translate(649 3038)" fill="none"/>
  </g>
</svg>
