<svg xmlns="http://www.w3.org/2000/svg" width="81" height="81" viewBox="0 0 81 81">
  <g id="Grupo_56022" data-name="Grupo 56022" transform="translate(-191 -2825)">
    <g id="Grupo_53465" data-name="Grupo 53465" transform="translate(-5.039 2203.857)">
      <g id="Elipse_3965" data-name="Elipse 3965">
        <circle id="Elipse_3971" data-name="Elipse 3971" cx="40.5" cy="40.5" r="40.5" transform="translate(196.039 621.143)" fill="#f6ffc0"/>
        <circle id="Elipse_3972" data-name="Elipse 3972" cx="40" cy="40" r="40" transform="translate(196.539 621.643)" fill="#f6ffc0"/>
      </g>
      <g id="Page-1">
        <g id="_041---Fruit-Crate" data-name="041---Fruit-Crate">
          <path id="Rectangle-path" d="M234.712,672.275h6.509v6.509h-6.509Z" fill="#7c520b"/>
          <path id="Shape" d="M234.712,685.293h6.509v4.339a1.085,1.085,0,0,1-1.085,1.085H235.8a1.085,1.085,0,0,1-1.085-1.085Z" fill="#7c520b"/>
          <path id="Shape-2" data-name="Shape" d="M259.663,635.391a5.6,5.6,0,0,0-3.255.951v-2.036a1.084,1.084,0,0,0-2.169,0V641.9a1.084,1.084,0,1,0,2.169,0v-2.033a3.122,3.122,0,0,1,3.255-2.306,1.085,1.085,0,1,0,0-2.17Z" fill="#70832e"/>
          <path id="Shape-3" data-name="Shape" d="M223.836,651.664c-7.052-7.385-1.832-15.188,4.682-15.188a2.066,2.066,0,0,0,2.028-1.627,7.594,7.594,0,0,1,14.6-.835,4.356,4.356,0,0,0,1.974,2.354c4.578,2.581,6.219,9.848-1.518,15.355l-10.892,2.11Z" fill="#95af3d"/>
          <path id="Shape-4" data-name="Shape" d="M229.288,642.938a1.085,1.085,0,0,1-.131-2.161,5.326,5.326,0,0,0,4.569-4.144,4.339,4.339,0,0,1,8.353-.456,7.592,7.592,0,0,0,2.045,3.095,1.085,1.085,0,1,1-1.462,1.6,9.758,9.758,0,0,1-2.634-3.994,2.147,2.147,0,0,0-2.061-1.489,2.184,2.184,0,0,0-2.122,1.7,7.5,7.5,0,0,1-6.425,5.837.826.826,0,0,1-.132.008Z" fill="#70832e"/>
          <path id="Shape-5" data-name="Shape" d="M231.448,648.362a1.085,1.085,0,0,1-.13-2.161,3.525,3.525,0,0,0,2.987-2.712,3.4,3.4,0,0,1,6.553-.36,4.994,4.994,0,0,0,.731,1.37,1.085,1.085,0,0,1-1.736,1.3,7.246,7.246,0,0,1-1.05-1.971,1.222,1.222,0,0,0-1.171-.845,1.241,1.241,0,0,0-1.206.969,5.653,5.653,0,0,1-4.845,4.4.846.846,0,0,1-.133.008Z" fill="#70832e"/>
          <path id="Shape-6" data-name="Shape" d="M244.681,651.664a11.46,11.46,0,0,1-.205-2.17c0-4.8,2.918-8.679,6.508-8.679a5.1,5.1,0,0,1,2.367.592,4.217,4.217,0,0,0,3.945,0,5.1,5.1,0,0,1,2.367-.592c3.591,0,6.509,3.884,6.509,8.679a11.542,11.542,0,0,1-.2,2.17l-10.643,2.169Z" fill="#de3d2c"/>
          <path id="Shape-7" data-name="Shape" d="M250.574,654.793a1.076,1.076,0,0,1-.528-.138c-1.115-.622-2.316-2.5-2.316-5.161a7.029,7.029,0,0,1,1.315-4.268,1.085,1.085,0,1,1,1.708,1.339,4.771,4.771,0,0,0-.853,2.929,4.084,4.084,0,0,0,1.205,3.267,1.085,1.085,0,0,1-.531,2.032Z" fill="#fb7b76"/>
          <path id="Shape-8" data-name="Shape" d="M262.917,633.222h2.17v1.084a3.254,3.254,0,0,1-3.254,3.255h-2.17v-1.085A3.254,3.254,0,0,1,262.917,633.222Z" fill="#badb4c"/>
          <path id="Shape-9" data-name="Shape" d="M223.278,639.991a6.7,6.7,0,0,0,1.3-1.237,7.837,7.837,0,0,0,1.2-6.628,1.094,1.094,0,0,0-1.356-.662,19.4,19.4,0,0,0-3.168.966h-7.81a19.367,19.367,0,0,0-3.168-.966,1.1,1.1,0,0,0-1.356.662,7.837,7.837,0,0,0,1.2,6.628,6.727,6.727,0,0,0,1.3,1.237Z" fill="#95af3d"/>
          <path id="Shape-10" data-name="Shape" d="M220.6,638.212a7.012,7.012,0,0,0,1.1-3.569,6.06,6.06,0,0,0-.434-2.213,12.122,12.122,0,0,0-3.1-4.34,1.248,1.248,0,0,0-1.606,0,12.134,12.134,0,0,0-3.1,4.34,6.081,6.081,0,0,0-.434,2.213,7,7,0,0,0,1.1,3.569Z" fill="#badb4c"/>
          <path id="Shape-11" data-name="Shape" d="M226.034,646.576c0,2.82-.772,6.022-2.17,13.766-.391,1.172-1.063,2.777-1.779,4.339H211.931l-2.17-10.848a32.968,32.968,0,0,1-1.084-7.257,8.685,8.685,0,1,1,17.357,0Z" fill="#f7a416"/>
          <path id="Shape-12" data-name="Shape" d="M216.27,642.985a1.085,1.085,0,0,1-1.085,1.085h-6.161a8.915,8.915,0,0,1,.911-2.17h5.25A1.085,1.085,0,0,1,216.27,642.985Z" fill="#b97b10"/>
          <path id="Shape-13" data-name="Shape" d="M225.686,644.07h-6.161a1.085,1.085,0,1,1,0-2.17h5.25A8.915,8.915,0,0,1,225.686,644.07Z" fill="#b97b10"/>
          <path id="Shape-14" data-name="Shape" d="M216.27,647.324a1.085,1.085,0,0,1-1.085,1.085h-6.411c-.065-.662-.1-1.269-.1-1.833,0-.109,0-.228.01-.337h6.5A1.085,1.085,0,0,1,216.27,647.324Z" fill="#b97b10"/>
          <path id="Shape-15" data-name="Shape" d="M226.034,646.576c0,.564-.033,1.171-.1,1.833h-6.411a1.085,1.085,0,1,1,0-2.17h6.5C226.034,646.348,226.034,646.467,226.034,646.576Z" fill="#b97b10"/>
          <g id="Grupo_53464" data-name="Grupo 53464">
            <path id="Shape-16" data-name="Shape" d="M208.677,685.293h6.508v4.339a1.084,1.084,0,0,1-1.084,1.085h-4.34a1.084,1.084,0,0,1-1.084-1.085Z" fill="#7c520b"/>
            <path id="Rectangle-path-2" data-name="Rectangle-path" d="M208.677,672.275h6.508v6.509h-6.508Z" fill="#7c520b"/>
            <path id="Shape-17" data-name="Shape" d="M261.833,685.293h6.508v4.339a1.084,1.084,0,0,1-1.084,1.085h-4.34a1.084,1.084,0,0,1-1.084-1.085Z" fill="#7c520b"/>
            <path id="Rectangle-path-3" data-name="Rectangle-path" d="M261.833,672.275h6.508v6.509h-6.508Z" fill="#7c520b"/>
          </g>
          <rect id="Rectangle-path-4" data-name="Rectangle-path" width="62.919" height="8.679" rx="1.085" transform="translate(206.507 677.699)" fill="#b97b10"/>
          <circle id="Oval" cx="1.085" cy="1.085" r="1.085" transform="translate(209.761 680.954)" fill="#d1d4d1"/>
          <circle id="Oval-2" data-name="Oval" cx="1.085" cy="1.085" r="1.085" transform="translate(264.002 680.954)" fill="#d1d4d1"/>
          <path id="Rectangle-path-5" data-name="Rectangle-path" d="M208.677,659.257h6.508v6.509h-6.508Z" fill="#7c520b"/>
          <path id="Rectangle-path-6" data-name="Rectangle-path" d="M261.833,659.257h6.508v6.509h-6.508Z" fill="#7c520b"/>
          <path id="Rectangle-path-7" data-name="Rectangle-path" d="M234.712,659.257h6.509v6.509h-6.509Z" fill="#7c520b"/>
          <rect id="Rectangle-path-8" data-name="Rectangle-path" width="62.919" height="8.679" rx="1.085" transform="translate(206.507 664.681)" fill="#b97b10"/>
          <circle id="Oval-3" data-name="Oval" cx="1.085" cy="1.085" r="1.085" transform="translate(209.761 667.936)" fill="#d1d4d1"/>
          <circle id="Oval-4" data-name="Oval" cx="1.085" cy="1.085" r="1.085" transform="translate(264.002 667.936)" fill="#d1d4d1"/>
          <rect id="Rectangle-path-9" data-name="Rectangle-path" width="62.919" height="8.679" rx="1.085" transform="translate(206.507 651.664)" fill="#b97b10"/>
          <circle id="Oval-5" data-name="Oval" cx="1.085" cy="1.085" r="1.085" transform="translate(209.761 654.918)" fill="#d1d4d1"/>
          <circle id="Oval-6" data-name="Oval" cx="1.085" cy="1.085" r="1.085" transform="translate(264.002 654.918)" fill="#d1d4d1"/>
        </g>
      </g>
    </g>
  </g>
</svg>
