<svg xmlns="http://www.w3.org/2000/svg" width="81" height="81" viewBox="0 0 81 81">
  <g id="Grupo_56024" data-name="Grupo 56024" transform="translate(-192 -3167)">
    <g id="Grupo_53477" data-name="Grupo 53477" transform="translate(-195.028 2429.157)">
      <g id="Elipse_3965" data-name="Elipse 3965">
        <circle id="Elipse_3977" data-name="Elipse 3977" cx="40.5" cy="40.5" r="40.5" transform="translate(387.028 737.842)" fill="#f6ffc0"/>
        <circle id="Elipse_3978" data-name="Elipse 3978" cx="40" cy="40" r="40" transform="translate(387.528 738.342)" fill="#f6ffc0"/>
      </g>
      <g id="Page-1">
        <g id="_024---Smart-Tractor" data-name="024---Smart-Tractor">
          <path id="Shape" d="M415.961,757.734a3.576,3.576,0,0,1,3.576,3.576v2.383h-7.151V761.31A3.576,3.576,0,0,1,415.961,757.734Z" fill="#95a5a5"/>
          <path id="Shape-2" data-name="Shape" d="M461.247,770.844v14.169l-20.188,3.707h-13.18a1.192,1.192,0,0,1-1.192-1.192s-8.533-20.26-19.068-20.26v-1.191a3.576,3.576,0,0,1,3.575-3.576H452.9a8.342,8.342,0,0,1,8.342,8.343Z" fill="#de3d2c"/>
          <g id="Grupo_53476" data-name="Grupo 53476">
            <path id="Shape-3" data-name="Shape" d="M427.879,775.61h-7.151a1.191,1.191,0,0,1,0-2.383h7.151a1.191,1.191,0,0,1,0,2.383Z" fill="#c03a2b"/>
            <path id="Shape-4" data-name="Shape" d="M430.262,780.377h-7.15a1.191,1.191,0,1,1,0-2.383h7.15a1.191,1.191,0,1,1,0,2.383Z" fill="#c03a2b"/>
            <path id="Shape-5" data-name="Shape" d="M431.454,785.144h-5.959a1.191,1.191,0,1,1,0-2.383h5.959a1.191,1.191,0,1,1,0,2.383Z" fill="#c03a2b"/>
          </g>
          <path id="Shape-6" data-name="Shape" d="M427.879,811.362a1.191,1.191,0,0,1-1.192-1.191v-9.534a1.191,1.191,0,1,1,2.383,0v9.534A1.191,1.191,0,0,1,427.879,811.362Z" fill="#7c520b"/>
          <path id="Shape-7" data-name="Shape" d="M402.852,811.362a1.191,1.191,0,0,1-1.009-1.823l5.959-9.534a1.194,1.194,0,0,1,2.026,1.263l-5.959,9.534A1.191,1.191,0,0,1,402.852,811.362Z" fill="#7c520b"/>
          <path id="Shape-8" data-name="Shape" d="M452.9,811.362a1.191,1.191,0,0,1-1.012-.56l-5.958-9.534a1.194,1.194,0,0,1,2.026-1.263l5.958,9.534a1.191,1.191,0,0,1-1.014,1.823Z" fill="#7c520b"/>
          <path id="Shape-9" data-name="Shape" d="M426.687,786.336v1.192h-4.815l-20.724-13.955-2.443-4.088a18.852,18.852,0,0,1,8.914-2.217A19.068,19.068,0,0,1,426.687,786.336Z" fill="#2c3e50"/>
          <path id="Shape-10" data-name="Shape" d="M456.48,772.035v-2.383a1.192,1.192,0,1,0-2.383,0v2.383h-3.575V762.5h-2.384v4.767H425.495a1.192,1.192,0,1,0,0,2.384h22.643v9.8a1.192,1.192,0,1,0,2.384,0v-5.029h10.725v-2.384Z" fill="#c03a2b"/>
          <path id="Shape-11" data-name="Shape" d="M405.236,745.817a1.192,1.192,0,0,1-.745-2.122,19.071,19.071,0,0,1,22.943,0,1.192,1.192,0,1,1-1.49,1.861,16.693,16.693,0,0,0-19.966,0A1.186,1.186,0,0,1,405.236,745.817Z" fill="#6393db"/>
          <path id="Shape-12" data-name="Shape" d="M423.112,750.584a1.189,1.189,0,0,1-.744-.261,10.735,10.735,0,0,0-12.815,0,1.191,1.191,0,0,1-1.488-1.861,13.11,13.11,0,0,1,15.793,0,1.191,1.191,0,0,1-.746,2.122Z" fill="#6393db"/>
          <path id="Shape-13" data-name="Shape" d="M412.386,755.351a1.192,1.192,0,0,1-.745-2.122,7.149,7.149,0,0,1,8.64,0,1.191,1.191,0,0,1-1.488,1.861,4.9,4.9,0,0,0-5.662,0A1.192,1.192,0,0,1,412.386,755.351Z" fill="#6393db"/>
          <path id="Shape-14" data-name="Shape" d="M426.687,788.72a1.192,1.192,0,0,1-1.192-1.192v-1.192a17.875,17.875,0,0,0-27.929-14.777,1.192,1.192,0,0,1-1.345-1.969,20.26,20.26,0,0,1,31.658,16.746v1.192a1.192,1.192,0,0,1-1.192,1.192Z" fill="#de3d2c"/>
          <circle id="Oval" cx="14.301" cy="14.301" r="14.301" transform="translate(393.318 772.035)" fill="#35495e"/>
          <circle id="Oval-2" data-name="Oval" cx="9.534" cy="9.534" r="9.534" transform="translate(398.085 776.802)" fill="#547580"/>
          <circle id="Oval-3" data-name="Oval" cx="2.383" cy="2.383" r="2.383" transform="translate(405.236 783.953)" fill="#95a5a5"/>
          <circle id="Oval-4" data-name="Oval" cx="10.726" cy="10.726" r="10.726" transform="translate(440.988 779.186)" fill="#35495e"/>
          <circle id="Oval-5" data-name="Oval" cx="5.959" cy="5.959" r="5.959" transform="translate(445.755 783.953)" fill="#547580"/>
          <circle id="Oval-6" data-name="Oval" cx="1.192" cy="1.192" r="1.192" transform="translate(450.522 788.72)" fill="#95a5a5"/>
          <path id="Shape-15" data-name="Shape" d="M462.439,801.829H424.3a1.192,1.192,0,0,1,0-2.384h38.136a1.192,1.192,0,1,1,0,2.384Z" fill="#b97b10"/>
          <path id="Shape-16" data-name="Shape" d="M419.537,801.829H393.318a1.192,1.192,0,0,1,0-2.384h26.219a1.192,1.192,0,0,1,0,2.384Z" fill="#b97b10"/>
        </g>
      </g>
    </g>
  </g>
</svg>
